<svg width="70" height="79" viewBox="0 0 70 79" fill="none" xmlns="http://www.w3.org/2000/svg">
<path fill-rule="evenodd" clip-rule="evenodd" d="M35.0708 78.9175C33.9962 78.9175 32.9933 78.631 32.0619 78.1295L22.5338 72.4699C21.101 71.6819 21.8174 71.3953 22.2473 71.2521C24.1816 70.6073 24.5398 70.464 26.5457 69.3178C26.7606 69.1745 27.0472 69.2462 27.2621 69.3894L34.5693 73.7595C34.8559 73.9027 35.2141 73.9027 35.429 73.7595L64.0133 57.2107C64.2999 57.0674 64.4432 56.7808 64.4432 56.4226V23.3966C64.4432 23.0384 64.2999 22.7519 64.0133 22.6086L35.429 6.13139C35.1425 5.98811 34.7843 5.98811 34.5693 6.13139L5.98502 22.6086C5.69846 22.7519 5.55518 23.1101 5.55518 23.3966V56.4226C5.55518 56.7092 5.69846 57.0674 5.98502 57.2107L13.7938 61.724C18.0205 63.8732 20.6712 61.3658 20.6712 58.8584V26.2622C20.6712 25.8324 21.0294 25.4025 21.5309 25.4025H25.1845C25.6144 25.4025 26.0442 25.7607 26.0442 26.2622V58.8584C26.0442 64.5179 22.9637 67.8134 17.5907 67.8134C15.943 67.8134 14.6535 67.8134 10.9998 66.0224L3.47763 61.724C1.61499 60.6494 0.46875 58.6434 0.46875 56.4943V23.4683C0.46875 21.3191 1.61499 19.3131 3.47763 18.2385L32.0619 1.68972C33.8529 0.68676 36.2887 0.68676 38.0797 1.68972L66.664 18.2385C68.5267 19.3131 69.6729 21.3191 69.6729 23.4683V56.4943C69.6729 58.6434 68.5267 60.6494 66.664 61.724L38.0797 78.2728C37.1484 78.7026 36.0738 78.9175 35.0708 78.9175ZM43.8825 56.2077C31.3456 56.2077 28.7665 50.4765 28.7665 45.605C28.7665 45.1751 29.1247 44.7453 29.6262 44.7453H33.3515C33.7813 44.7453 34.1395 45.0319 34.1395 45.4617C34.7126 49.2586 36.3603 51.1213 43.9542 51.1213C49.9719 51.1213 52.551 49.7601 52.551 46.5363C52.551 44.6737 51.8346 43.3125 42.4497 42.3812C34.641 41.5931 29.7695 39.8738 29.7695 33.6411C29.7695 27.8383 34.641 24.3996 42.8079 24.3996C51.9778 24.3996 56.4912 27.5517 57.0643 34.4292C57.0643 34.6441 56.9926 34.859 56.8494 35.0739C56.7061 35.2172 56.4912 35.3605 56.2762 35.3605H52.551C52.1928 35.3605 51.8346 35.0739 51.7629 34.7157C50.9032 30.7755 48.6824 29.486 42.8079 29.486C36.2171 29.486 35.429 31.7785 35.429 33.4978C35.429 35.5754 36.3603 36.2202 45.2437 37.3664C54.0554 38.5126 58.2105 40.1603 58.2105 46.3214C58.1389 52.6257 52.9808 56.2077 43.8825 56.2077Z" fill="#539E43"/>
</svg>
