<svg width="115" height="61" viewBox="0 0 115 61" fill="none" xmlns="http://www.w3.org/2000/svg">
<path d="M84.9487 21.8485C87.448 21.8485 89.0994 22.2949 89.9474 23.2321C90.7954 24.1694 90.974 25.7315 90.5276 27.9631C90.0813 30.284 89.1887 31.98 87.8944 32.9619C86.6 33.9438 84.6362 34.4348 82.0029 34.4348H78.0307L80.4855 21.8485H84.9487Z" fill="black"/>
<path d="M33.7558 21.8485C36.2552 21.8485 37.9066 22.2949 38.7546 23.2321C39.6026 24.1694 39.7811 25.7315 39.3348 27.9631C38.8885 30.284 37.9958 31.98 36.7015 32.9619C35.4072 33.9438 33.4434 34.4348 30.8101 34.4348H26.8378L29.2926 21.8485H33.7558Z" fill="black"/>
<path fill-rule="evenodd" clip-rule="evenodd" d="M57.5 58.179C87.8189 58.179 112.397 45.7299 112.397 30.3732C112.397 15.0166 87.8189 2.56754 57.5 2.56754C27.1811 2.56754 2.60269 15.0166 2.60269 30.3732C2.60269 45.7299 27.1811 58.179 57.5 58.179ZM75.5313 47.1995H68.9704L74.8172 17.0729H87.448C91.2418 17.0729 94.0089 18.0548 95.7496 20.0633C97.4902 22.0717 98.0258 24.8389 97.3117 28.4094C97.0439 29.8823 96.553 31.2213 95.8835 32.4263C95.214 33.6314 94.3214 34.7472 93.2056 35.7737C91.8666 37.0234 90.4384 37.8714 88.8316 38.407C87.2249 38.9426 85.2164 39.2104 82.7171 39.2104H77.0934L75.5313 47.1995ZM50.9391 9.0838H57.4554L55.8932 17.0729H61.6954C65.3552 17.0729 67.8546 17.6978 69.2382 18.9921C70.6218 20.2864 71.0235 22.3395 70.4879 25.1959L67.7654 39.2104H61.1598L63.7485 25.8654C64.0609 24.3479 63.927 23.3214 63.4361 22.7858C62.9451 22.2502 61.8293 21.9378 60.1779 21.9378H54.956L51.6086 39.2104H45.0923L50.9391 9.0838ZM24.3385 47.1995H17.7776L23.6243 17.0729H36.2552C40.0489 17.0729 42.8161 18.0548 44.5567 20.0633C46.2974 22.0717 46.833 24.8389 46.1189 28.4094C45.8511 29.8823 45.3601 31.2213 44.6906 32.4263C44.0211 33.6314 43.1285 34.7472 42.0127 35.7737C40.6738 37.0234 39.2455 37.8714 37.6388 38.407C36.032 38.9426 34.0236 39.2104 31.5242 39.2104H25.9006L24.3385 47.1995Z" fill="black"/>
<path fill-rule="evenodd" clip-rule="evenodd" d="M114.629 30.3732C114.629 46.9624 89.0514 60.4106 57.5 60.4106C25.9486 60.4106 0.371094 46.9624 0.371094 30.3732C0.371094 13.7841 25.9486 0.335938 57.5 0.335938C89.0514 0.335938 114.629 13.7841 114.629 30.3732ZM113.715 30.3732C113.715 38.1591 107.696 45.4277 97.4709 50.8038C87.2883 56.1576 73.158 59.4965 57.5 59.4965C41.842 59.4965 27.7117 56.1576 17.5291 50.8038C7.30416 45.4277 1.28516 38.1591 1.28516 30.3732C1.28516 22.5874 7.30416 15.3188 17.5291 9.94271C27.7117 4.58892 41.842 1.25 57.5 1.25C73.158 1.25 87.2883 4.58892 97.4709 9.94271C107.696 15.3188 113.715 22.5874 113.715 30.3732Z" fill="black"/>
</svg>
