<svg width="90" height="90" viewBox="0 0 90 90" fill="none" xmlns="http://www.w3.org/2000/svg">
<rect x="1" y="1" width="88" height="88" rx="44" fill="black"/>
<rect x="1" y="1" width="88" height="88" rx="44" stroke="white" stroke-width="2"/>
<path d="M64.7067 38.7887C66.5012 38.7887 67.6868 39.1091 68.2956 39.782C68.9044 40.455 69.0326 41.5765 68.7122 43.1786C68.3917 44.8449 67.7509 46.0626 66.8216 46.7675C65.8923 47.4725 64.4824 47.825 62.5919 47.825H59.74L61.5024 38.7887H64.7067Z" fill="white"/>
<path d="M27.9529 38.7887C29.7473 38.7887 30.9329 39.1091 31.5417 39.782C32.1506 40.455 32.2787 41.5765 31.9583 43.1786C31.6379 44.8449 30.997 46.0626 30.0677 46.7675C29.1385 47.4725 27.7286 47.825 25.838 47.825H22.9861L24.7485 38.7887H27.9529Z" fill="white"/>
<path fill-rule="evenodd" clip-rule="evenodd" d="M45 64.8721C66.7675 64.8721 84.4135 55.9343 84.4135 44.909C84.4135 33.8837 66.7675 24.9459 45 24.9459C23.2326 24.9459 5.58655 33.8837 5.58655 44.909C5.58655 55.9343 23.2326 64.8721 45 64.8721ZM57.9456 56.9894H53.2352L57.4329 35.36H66.5012C69.2249 35.36 71.2115 36.065 72.4612 37.507C73.7109 38.9489 74.0955 40.9356 73.5828 43.4991C73.3905 44.5565 73.038 45.5178 72.5574 46.383C72.0767 47.2482 71.4359 48.0493 70.6348 48.7863C69.6735 49.6835 68.6481 50.2923 67.4945 50.6768C66.3409 51.0613 64.899 51.2536 63.1046 51.2536H59.0671L57.9456 56.9894ZM40.2896 29.6243H44.968L43.8464 35.36H48.0121C50.6396 35.36 52.4341 35.8087 53.4274 36.7379C54.4208 37.6672 54.7092 39.1412 54.3246 41.192L52.37 51.2536H47.6276L49.4861 41.6726C49.7104 40.5831 49.6143 39.8461 49.2618 39.4616C48.9093 39.0771 48.1082 38.8528 46.9226 38.8528H43.1735L40.7703 51.2536H36.0919L40.2896 29.6243ZM21.1917 56.9894H16.4813L20.679 35.36H29.7473C32.471 35.36 34.4577 36.065 35.7074 37.507C36.9571 38.9489 37.3416 40.9356 36.8289 43.4991C36.6367 44.5565 36.2842 45.5178 35.8035 46.383C35.3229 47.2482 34.682 48.0493 33.8809 48.7863C32.9196 49.6835 31.8942 50.2923 30.7407 50.6768C29.5871 51.0613 28.1451 51.2536 26.3507 51.2536H22.3132L21.1917 56.9894Z" fill="white"/>
<path fill-rule="evenodd" clip-rule="evenodd" d="M86.0156 44.909C86.0156 56.8192 67.6523 66.4742 45 66.4742C22.3477 66.4742 3.98438 56.8192 3.98438 44.909C3.98438 32.9988 22.3477 23.3438 45 23.3438C67.6523 23.3438 86.0156 32.9988 86.0156 44.909ZM85.3594 44.909C85.3594 50.4989 81.038 55.7173 73.697 59.5771C66.3865 63.4208 56.2416 65.818 45 65.818C33.7584 65.818 23.6135 63.4208 16.303 59.5771C8.96196 55.7173 4.64062 50.4989 4.64062 44.909C4.64062 39.3191 8.96196 34.1007 16.303 30.2409C23.6135 26.3972 33.7584 24 45 24C56.2416 24 66.3865 26.3972 73.697 30.2409C81.038 34.1007 85.3594 39.3191 85.3594 44.909Z" fill="white"/>
</svg>
