<svg width="90" height="90" viewBox="0 0 90 90" fill="none" xmlns="http://www.w3.org/2000/svg">
<circle cx="45" cy="45" r="45" fill="white"/>
<path d="M36.7006 87.5042C29.1784 85.9489 22.1593 82.4795 16.649 77.593C2.5028 65.0481 -1.86916 45.3409 5.60399 27.8059C7.4392 23.4997 10.4228 19.1296 14.1195 15.333L17.3786 11.9858L17.6084 31.5767C17.8285 50.3286 17.878 51.2733 18.7664 53.6363C20.5437 58.3637 22.449 61.3736 25.7291 64.6352C34.202 73.0605 46.6301 75.1633 57.195 69.9589C67.1254 65.0672 73.3859 54.4308 72.6583 43.6869C72.1697 36.4702 69.739 31.1782 64.4912 25.9055C60.523 21.9186 55.8543 19.3143 50.7714 18.2524C45.6 17.172 45.8481 17.0141 45.8481 21.3848V25.1581L48.6833 25.6797C59.663 27.6997 66.9247 38.4652 64.6361 49.3298C63.9051 52.7998 62.2748 55.8639 59.6576 58.6865C55.6802 62.976 50.0845 65.0264 45.1984 65.0169C37.1192 65.0014 30.373 60.4173 27.1032 53.6384C27.1032 53.6384 26.2467 51.7008 25.9714 50.5035C24.3527 43.462 25.3874 28.6392 25.3874 28.6392L25.262 6.96573L26.5434 6.30409C27.2482 5.94019 27.9241 5.64245 28.0455 5.64245C28.1669 5.64245 28.3209 15.5971 28.3878 27.7638C28.3878 27.7638 26.8318 43.7128 28.7547 49.8246C29.0322 50.7065 29.5589 52.2147 29.5589 52.2147C31.2446 55.6438 33.9463 58.6601 37.4566 60.3204C40.1213 61.5807 41.463 62.1511 45.4053 62.1511C47.981 62.1511 50.2629 61.3392 52.8885 60.1335C55.9836 58.7121 59.5342 54.9437 60.8462 51.5029C64.4612 42.0231 59.4276 31.824 49.7305 28.9801C45.7674 27.8178 45.8481 27.7538 45.8481 32.0567V35.8152L47.7505 36.3232C54.6078 38.1545 56.7001 47.3317 51.317 52.0473C49.4151 53.7133 47.7013 54.4498 44.7034 54.4498C41.5 54.4498 38.425 52.5138 36.8442 49.5444C35.8947 47.7607 35.8145 46.0688 35.8145 45.2939C35.8145 38.1361 35.6592 25.263 35.6592 25.263L35.531 3.18098L36.5154 2.93683C37.0569 2.80255 39.2454 2.47028 41.3787 2.19845C48.6137 1.27657 59.3175 3.64073 66.5085 7.74887C76.3124 13.3497 83.7305 22.9711 86.8192 34.0919C87.8816 37.9172 88 39.0295 88 45.183C88 51.3091 87.8789 52.4582 86.839 56.1998C82.6381 71.3144 71.9521 82.1192 56.6726 86.7017C53.4569 87.6661 51.9505 87.85 46.2762 87.9708C41.6972 88.0683 38.7293 87.9237 36.7006 87.5042Z" fill="#C60C30"/>
</svg>
