<svg width="90" height="90" viewBox="0 0 90 90" fill="none" xmlns="http://www.w3.org/2000/svg">
<circle cx="45" cy="45" r="45" fill="white"/>
<path d="M8.11202 44.9989C8.11202 59.6001 16.5971 72.2183 28.9012 78.1978L11.3056 29.9865C9.25891 34.5742 8.11202 39.6511 8.11202 44.9989ZM69.9005 43.1375C69.9005 38.5786 68.263 35.4214 66.8585 32.964C64.9887 29.9255 63.2361 27.3523 63.2361 24.3137C63.2361 20.9228 65.8078 17.7663 69.4302 17.7663C69.5937 17.7663 69.7489 17.7866 69.9082 17.7958C63.3456 11.7832 54.6022 8.11222 44.9989 8.11222C32.1123 8.11222 20.7748 14.7242 14.1791 24.739C15.0446 24.765 15.8601 24.7833 16.5529 24.7833C20.4112 24.7833 26.3835 24.3151 26.3835 24.3151C28.372 24.1979 28.6064 27.1185 26.6201 27.3537C26.6201 27.3537 24.6218 27.5888 22.3982 27.7053L35.8309 67.6615L43.9033 43.4505L38.1563 27.7039C36.1699 27.5874 34.2882 27.3523 34.2882 27.3523C32.3004 27.2357 32.5334 24.1965 34.5212 24.3137C34.5212 24.3137 40.6129 24.7819 44.2374 24.7819C48.095 24.7819 54.068 24.3137 54.068 24.3137C56.0579 24.1965 56.2916 27.1171 54.3046 27.3523C54.3046 27.3523 52.3021 27.5874 50.0827 27.7039L63.4129 67.3576L67.0922 55.0622C68.6869 49.96 69.9005 46.2954 69.9005 43.1375ZM45.6461 48.2256L34.5787 80.3864C37.8832 81.3578 41.3779 81.8892 44.9989 81.8892C49.2945 81.8892 53.4139 81.1466 57.2483 79.7982C57.1493 79.6403 57.0595 79.4725 56.9858 79.29L45.6461 48.2256ZM77.3657 27.301C77.5243 28.476 77.6142 29.7373 77.6142 31.0941C77.6142 34.8374 76.9151 39.0454 74.8095 44.3069L63.5421 76.8846C74.5083 70.4895 81.8845 58.6083 81.8845 44.9996C81.8852 38.5863 80.247 32.5555 77.3657 27.301ZM44.9989 2C21.2899 2 2 21.2892 2 44.9989C2 68.7115 21.2899 88 44.9989 88C68.7073 88 88 68.7115 88 44.9989C87.9993 21.2892 68.7073 2 44.9989 2ZM44.9989 86.029C22.3772 86.029 3.9716 67.6229 3.9716 44.9989C3.9716 22.3764 22.3765 3.97166 44.9989 3.97166C67.62 3.97166 86.0242 22.3764 86.0242 44.9989C86.0242 67.6229 67.62 86.029 44.9989 86.029Z" fill="#2C87C2"/>
</svg>
