<svg width="120" height="34" viewBox="0 0 120 34" fill="none" xmlns="http://www.w3.org/2000/svg">
<rect width="119" height="34" transform="translate(0.5)" fill="#FEED18"/>
<path fill-rule="evenodd" clip-rule="evenodd" d="M33.4876 17.3965L31.9981 18.3436H25.0847V11.0579H33.4876V17.3965ZM33.4876 8.97742H25.0847L21.96 10.9608V20.4241H33.4795L36.6042 18.4408V8.97742H33.4795H33.4876Z" fill="#222323"/>
<path fill-rule="evenodd" clip-rule="evenodd" d="M47.9793 14.1747H40.6936V11.05H47.9793V14.1747ZM40.6936 8.96948H37.5688V20.4161H40.6936V16.2552H51.1041V10.9609L47.9793 8.97758H40.6936V8.96948Z" fill="#222323"/>
<path fill-rule="evenodd" clip-rule="evenodd" d="M55.1905 18.3357V16.2552H63.82L65.5524 14.1747H55.1824V11.05H65.5848V8.96948H52.0576V18.4328L55.1824 20.4161H65.5848V18.3357H55.1824H55.1905Z" fill="#222323"/>
<path d="M6.45788 9.01811C6.45788 9.01811 6.44169 9.01811 6.43359 9.01001C6.43359 9.01001 6.44978 9.0262 6.44978 9.0343V9.01811H6.45788Z" fill="#EA3442"/>
<path fill-rule="evenodd" clip-rule="evenodd" d="M74.968 8.96948L77.6799 14.1747H72.248L74.9599 8.96948H71.8352L65.5938 20.4161H68.9857L71.1552 16.2552H78.7566L80.9261 20.4161H84.318L78.0766 8.96948H74.9518H74.968Z" fill="#222323"/>
<path fill-rule="evenodd" clip-rule="evenodd" d="M97.8619 8.96948H94.7371V14.1747H87.4514V8.96948H84.3267V20.4161H87.4514V16.2552H94.7371V20.4161H97.8619V8.96948Z" fill="#222323"/>
<path fill-rule="evenodd" clip-rule="evenodd" d="M110.352 8.96948H107.227L109.939 14.1747H104.507L107.219 8.96948H104.094L97.853 20.4161H101.245L103.414 16.2552H111.016L113.185 20.4161H116.577L110.336 8.96948H110.352Z" fill="#222323"/>
<path fill-rule="evenodd" clip-rule="evenodd" d="M8.6192 24.5772C8.7892 24.4801 8.99158 24.4315 9.21825 24.4315C9.32349 24.4315 9.44491 24.4396 9.56634 24.472C9.68777 24.4962 9.8173 24.5367 9.94682 24.5934C10.0763 24.6501 10.214 24.7229 10.3597 24.812L10.4325 23.9701C10.3516 23.9296 10.2706 23.8891 10.1735 23.8567C10.0763 23.8243 9.97111 23.792 9.85777 23.7596C9.74444 23.7353 9.62301 23.711 9.50158 23.6948C9.38015 23.6786 9.25063 23.6705 9.1292 23.6705C8.71634 23.6705 8.36015 23.7596 8.05253 23.9377C7.75301 24.1158 7.52634 24.3586 7.36444 24.6662C7.20253 24.9739 7.12158 25.322 7.12158 25.7186C7.12158 26.0182 7.17015 26.2934 7.2673 26.5443C7.36444 26.7953 7.50206 27.0058 7.68015 27.192C7.85825 27.3701 8.07682 27.5077 8.33587 27.6048C8.59492 27.702 8.87825 27.7505 9.19396 27.7505C9.2992 27.7505 9.41253 27.7505 9.52587 27.7343C9.6392 27.7262 9.74444 27.7101 9.84968 27.6858C9.95492 27.6696 10.0521 27.6372 10.1492 27.6048C10.2463 27.5724 10.3354 27.532 10.4082 27.4915L10.3597 26.6658C10.2706 26.7305 10.1816 26.7872 10.0925 26.8277C10.0035 26.8762 9.91444 26.9086 9.83349 26.9329C9.74444 26.9572 9.65539 26.9815 9.57444 26.9896C9.48539 26.9977 9.40444 27.0058 9.31539 27.0058C9.10492 27.0058 8.92682 26.9734 8.76492 26.9005C8.61111 26.8358 8.48158 26.7386 8.37634 26.6172C8.27111 26.4958 8.19825 26.3582 8.14158 26.2043C8.09301 26.0505 8.06063 25.8886 8.06063 25.7105C8.06063 25.4353 8.1092 25.2086 8.21444 25.0143C8.31158 24.8201 8.4492 24.6824 8.6273 24.5853L8.6192 24.5772Z" fill="#222323"/>
<path fill-rule="evenodd" clip-rule="evenodd" d="M12.6829 26.9246H12.1244V26.0341H13.7515V25.346H12.1244V24.4879H13.8406V23.7512H11.2339V27.6774H13.8648V26.9407H12.6748L12.6829 26.9246Z" fill="#222323"/>
<path fill-rule="evenodd" clip-rule="evenodd" d="M16.7232 25.3382C16.6747 25.4273 16.6018 25.492 16.4966 25.5325C16.3913 25.573 16.2699 25.5973 16.108 25.5973H15.5899V24.4477H16.2132C16.2861 24.4477 16.3509 24.4477 16.4237 24.472C16.4966 24.4882 16.5532 24.5125 16.6099 24.553C16.6666 24.5934 16.7151 24.6501 16.7475 24.723C16.7799 24.7958 16.7961 24.8849 16.7961 24.9982C16.7961 25.1358 16.7718 25.2573 16.7232 25.3463V25.3382ZM17.0713 23.8568C16.8609 23.7758 16.5937 23.7354 16.278 23.7354H14.7075V27.6534H15.598V26.2773H16.3185C16.6585 26.2773 16.9256 26.2206 17.1361 26.1073C17.3385 25.9939 17.4923 25.8401 17.5813 25.6458C17.6704 25.4515 17.7189 25.2168 17.7189 24.9658C17.7189 24.6582 17.6623 24.4154 17.557 24.2373C17.4518 24.0592 17.2899 23.9296 17.0794 23.8487L17.0713 23.8568Z" fill="#222323"/>
<path fill-rule="evenodd" clip-rule="evenodd" d="M20.5189 26.7552C20.4703 26.828 20.3974 26.8847 20.2922 26.9252C20.187 26.9656 20.0655 26.9818 19.9036 26.9818H19.3289V26.0023H19.9441C20.1546 26.0023 20.3084 26.0428 20.4217 26.1156C20.527 26.1966 20.5917 26.3099 20.5917 26.4799C20.5917 26.5852 20.5674 26.6742 20.5189 26.7552ZM19.3289 24.7961V24.4075H19.9522C20.1384 24.4075 20.2679 24.448 20.357 24.5209C20.446 24.6018 20.4946 24.7152 20.4946 24.869C20.4946 24.9661 20.4703 25.0552 20.4298 25.128C20.3894 25.2009 20.3246 25.2575 20.2355 25.3061C20.1465 25.3466 20.0413 25.3709 19.9036 25.3709H19.3289V24.8042V24.7961ZM21.1341 25.7837C21.0127 25.7109 20.8751 25.6542 20.7213 25.6218V25.549C20.8589 25.5166 20.9803 25.4599 21.0855 25.379C21.1908 25.298 21.2798 25.2009 21.3446 25.0713C21.4094 24.9499 21.4417 24.8042 21.4417 24.6342C21.4417 24.4966 21.4174 24.3752 21.3689 24.2618C21.3203 24.1566 21.2474 24.0594 21.1422 23.9785C21.037 23.8975 20.8913 23.8409 20.7132 23.7923C20.5351 23.7437 20.3084 23.7275 20.0413 23.7275H18.4546V27.6456H19.8308C20.1708 27.6456 20.446 27.6213 20.6646 27.5647C20.8832 27.5161 21.0613 27.4352 21.1827 27.338C21.3122 27.2409 21.4013 27.1275 21.4498 26.9899C21.4984 26.8523 21.5308 26.7066 21.5308 26.5366C21.5308 26.3423 21.4984 26.1885 21.4255 26.059C21.3608 25.9294 21.2636 25.8323 21.1422 25.7594L21.1341 25.7837Z" fill="#222323"/>
<path fill-rule="evenodd" clip-rule="evenodd" d="M24.3566 24.5042C24.1947 24.7471 24.0328 24.9819 23.8708 25.2247L23.2313 26.1638H23.1666V23.7433H22.2842V27.6614H23.037C23.1908 27.4347 23.3447 27.208 23.5147 26.9652C23.6766 26.7223 23.8547 26.4633 24.0489 26.18L24.6885 25.2409H24.7532V27.6614H25.6356V23.7433H24.8666C24.6885 24.0104 24.5185 24.2695 24.3485 24.5123L24.3566 24.5042Z" fill="#222323"/>
<path fill-rule="evenodd" clip-rule="evenodd" d="M27.918 24.5772C28.088 24.4801 28.2904 24.4315 28.5171 24.4315C28.6223 24.4315 28.7437 24.4396 28.8652 24.472C28.9866 24.4962 29.1161 24.5367 29.2456 24.5934C29.3752 24.6501 29.5128 24.7229 29.6585 24.812L29.7314 23.9701C29.6504 23.9296 29.5695 23.8891 29.4723 23.8567C29.3752 23.8243 29.2699 23.792 29.1566 23.7596C29.0433 23.7353 28.9218 23.711 28.8004 23.6948C28.679 23.6786 28.5495 23.6705 28.428 23.6705C28.0152 23.6705 27.659 23.7596 27.3514 23.9377C27.0518 24.1158 26.8252 24.3586 26.6633 24.6662C26.5014 24.9739 26.4204 25.322 26.4204 25.7186C26.4204 26.0182 26.469 26.2934 26.5661 26.5443C26.6633 26.7953 26.8009 27.0058 26.979 27.192C27.1571 27.3701 27.3756 27.5077 27.6347 27.6048C27.8937 27.702 28.1771 27.7505 28.4928 27.7505C28.598 27.7505 28.7114 27.7505 28.8247 27.7343C28.938 27.7262 29.0433 27.7101 29.1485 27.6858C29.2537 27.6696 29.3509 27.6372 29.448 27.6048C29.5452 27.5724 29.6342 27.532 29.7071 27.4915L29.6585 26.6658C29.5695 26.7305 29.4804 26.7872 29.3914 26.8277C29.3023 26.8762 29.2133 26.9086 29.1323 26.9329C29.0433 26.9572 28.9542 26.9815 28.8733 26.9896C28.7842 26.9977 28.7033 27.0058 28.6142 27.0058C28.4037 27.0058 28.2256 26.9734 28.0637 26.9005C27.9099 26.8358 27.7804 26.7386 27.6752 26.6172C27.5699 26.4958 27.4971 26.3582 27.4404 26.2043C27.3918 26.0505 27.3595 25.8886 27.3595 25.7105C27.3595 25.4353 27.408 25.2086 27.5133 25.0143C27.6104 24.8201 27.748 24.6824 27.9261 24.5853V24.5772H27.918Z" fill="#222323"/>
<path fill-rule="evenodd" clip-rule="evenodd" d="M33.8351 24.5042C33.6732 24.7471 33.5113 24.9819 33.3494 25.2247L32.7098 26.1638H32.6451V23.7433H31.7627V27.6614H32.5156C32.6694 27.4347 32.8232 27.208 32.9851 26.9652C33.147 26.7223 33.3251 26.4633 33.5194 26.18L34.1589 25.2409H34.2236V27.6614H35.106V23.7433H34.337C34.1589 24.0104 33.9889 24.2695 33.8189 24.5123L33.8351 24.5042Z" fill="#222323"/>
<path fill-rule="evenodd" clip-rule="evenodd" d="M38.9273 24.5042L39.3968 26.1638H38.3768L38.8625 24.5042H38.9273ZM40.3278 26.3338L39.8906 24.99C39.8097 24.7552 39.7368 24.5366 39.6801 24.3423C39.6154 24.148 39.5506 23.9457 39.4859 23.7433H38.3201C38.2554 23.9376 38.1906 24.14 38.1259 24.3342C38.0611 24.5285 37.9882 24.7471 37.9073 24.99L37.462 26.3338C37.3973 26.5442 37.3244 26.7628 37.2435 26.9976C37.1625 27.2323 37.0978 27.4509 37.0249 27.6614H37.9316C37.9882 27.4509 38.053 27.2404 38.1178 27.0138C38.134 26.9571 38.1501 26.9004 38.1663 26.8357H39.5749C39.5911 26.8923 39.6073 26.949 39.6235 27.0138C39.6882 27.2323 39.7449 27.4509 39.8016 27.6533H40.7325C40.6678 27.4428 40.5949 27.2242 40.522 26.9976C40.4492 26.7709 40.3763 26.5442 40.3035 26.3257L40.3278 26.3338Z" fill="#222323"/>
<path fill-rule="evenodd" clip-rule="evenodd" d="M43.5098 26.7552C43.4612 26.828 43.3884 26.8847 43.2831 26.9252C43.1779 26.9656 43.0565 26.9818 42.8946 26.9818H42.3198V26.0023H42.935C43.1455 26.0023 43.2993 26.0428 43.4127 26.1156C43.5179 26.1966 43.5827 26.3099 43.5827 26.4799C43.5827 26.5852 43.5584 26.6742 43.5098 26.7552ZM42.3279 24.7961V24.4075H42.9512C43.1374 24.4075 43.2669 24.448 43.356 24.5209C43.445 24.6018 43.4936 24.7152 43.4936 24.869C43.4936 24.9661 43.4693 25.0552 43.4289 25.128C43.3884 25.2009 43.3236 25.2575 43.2346 25.3061C43.1455 25.3466 43.0403 25.3709 42.9027 25.3709H42.3279V24.8042V24.7961ZM44.1331 25.7837C44.0117 25.7109 43.8741 25.6542 43.7203 25.6218V25.549C43.8579 25.5166 43.9793 25.4599 44.0846 25.379C44.1898 25.298 44.2789 25.2009 44.3436 25.0713C44.4084 24.9499 44.4408 24.8042 44.4408 24.6342C44.4408 24.4966 44.4165 24.3752 44.3679 24.2618C44.3193 24.1566 44.2465 24.0594 44.1412 23.9785C44.036 23.8975 43.8903 23.8409 43.7122 23.7923C43.5341 23.7518 43.3074 23.7275 43.0403 23.7275H41.4536V27.6456H42.8298C43.1698 27.6456 43.445 27.6213 43.6636 27.5647C43.8822 27.5161 44.0603 27.4352 44.1817 27.338C44.3112 27.2409 44.4003 27.1275 44.4489 26.9899C44.4974 26.8523 44.5298 26.7066 44.5298 26.5366C44.5298 26.3423 44.4974 26.1885 44.4246 26.059C44.3598 25.9294 44.2627 25.8323 44.1412 25.7594L44.1331 25.7837Z" fill="#222323"/>
<path fill-rule="evenodd" clip-rule="evenodd" d="M45 24.5287H46.19V27.6615H47.0886V24.5287H48.2705V23.7354H45V24.5287Z" fill="#222323"/>
<path fill-rule="evenodd" clip-rule="evenodd" d="M51.7265 26.1877C51.6779 26.3415 51.6132 26.4792 51.5241 26.6006C51.4351 26.722 51.3217 26.8192 51.1841 26.8839C51.0465 26.9568 50.8927 26.9892 50.7065 26.9892C50.5203 26.9892 50.3584 26.9568 50.2289 26.8839C50.0913 26.8111 49.9779 26.722 49.8889 26.6006C49.7998 26.4792 49.727 26.3415 49.6865 26.1877C49.6379 26.0339 49.6136 25.872 49.6136 25.6939C49.6136 25.5158 49.6379 25.3539 49.6865 25.2001C49.7351 25.0463 49.7998 24.9087 49.897 24.7873C49.986 24.6658 50.0994 24.5768 50.237 24.5039C50.3746 24.4392 50.5284 24.3987 50.7065 24.3987C50.8846 24.3987 51.0303 24.4311 51.1679 24.4958C51.3056 24.5606 51.4189 24.6577 51.5079 24.7711C51.597 24.8844 51.6698 25.0301 51.7184 25.1839C51.767 25.3377 51.7913 25.5077 51.7913 25.6939C51.7913 25.8801 51.767 26.0339 51.7265 26.1877ZM52.2284 24.253C52.0584 24.0668 51.8479 23.9211 51.5889 23.8158C51.3298 23.7106 51.0384 23.6539 50.6984 23.6539C50.2532 23.6539 49.8727 23.743 49.5732 23.9292C49.2736 24.1073 49.047 24.3582 48.8932 24.6658C48.7394 24.9735 48.6665 25.3216 48.6665 25.702C48.6665 25.9692 48.707 26.2282 48.7879 26.4711C48.8689 26.7139 48.9903 26.9325 49.1603 27.1187C49.3303 27.313 49.5408 27.4587 49.7998 27.5639C50.0589 27.6692 50.3665 27.7258 50.7146 27.7258C51.1517 27.7258 51.516 27.6368 51.8156 27.4587C52.1151 27.2806 52.3417 27.0377 52.4956 26.7301C52.6494 26.4225 52.7303 26.0744 52.7303 25.6858C52.7303 25.4025 52.6898 25.1354 52.6008 24.8925C52.5198 24.6496 52.3903 24.4311 52.2203 24.2449L52.2284 24.253Z" fill="#222323"/>
<path fill-rule="evenodd" clip-rule="evenodd" d="M55.799 25.7674C55.6775 25.6945 55.5399 25.6459 55.3942 25.6135V25.5488C55.5966 25.5002 55.7666 25.395 55.9123 25.2493C56.0499 25.1036 56.1147 24.9012 56.1147 24.6502C56.1147 24.4559 56.058 24.2859 55.9528 24.1402C55.8475 23.9945 55.6856 23.8731 55.4671 23.7921C55.2485 23.7112 54.9814 23.6626 54.6575 23.6626C54.528 23.6626 54.3985 23.6626 54.2771 23.6869C54.1556 23.7031 54.0342 23.7274 53.929 23.7597C53.8237 23.7921 53.7185 23.8245 53.6214 23.865C53.5242 23.9055 53.4433 23.9459 53.3623 23.9864L53.4675 24.7797C53.5647 24.7069 53.6618 24.6502 53.7509 24.6016C53.848 24.5531 53.9371 24.5126 54.0261 24.4802C54.1152 24.4478 54.2042 24.4316 54.2852 24.4155C54.3661 24.3993 54.4471 24.3993 54.528 24.3993C54.6494 24.3993 54.7628 24.4155 54.8599 24.4478C54.9571 24.4802 55.0299 24.5288 55.0866 24.6016C55.1433 24.6745 55.1675 24.7555 55.1675 24.8688C55.1675 24.9578 55.1433 25.0469 55.0866 25.1197C55.038 25.2007 54.9571 25.2574 54.8518 25.3059C54.7466 25.3545 54.609 25.3788 54.4471 25.3788H54.0504V26.0102H54.5199C54.7628 26.0102 54.9409 26.0507 55.0704 26.1155C55.1918 26.1883 55.2566 26.3097 55.2566 26.4878C55.2566 26.585 55.2323 26.674 55.1918 26.7469C55.1433 26.8278 55.0785 26.8845 54.9733 26.9331C54.8761 26.9816 54.7385 27.0059 54.5685 27.0059C54.4794 27.0059 54.3904 27.0059 54.3013 26.9816C54.2042 26.9655 54.1071 26.9412 54.018 26.9169C53.9209 26.8926 53.8237 26.8521 53.7266 26.8116C53.6294 26.7712 53.5323 26.7307 53.4433 26.674L53.3866 27.4512C53.4514 27.4916 53.5404 27.524 53.6375 27.5564C53.7347 27.5888 53.848 27.6212 53.9614 27.6455C54.0747 27.6697 54.2042 27.694 54.3256 27.7021C54.4552 27.7183 54.5766 27.7183 54.698 27.7183C55.0704 27.7183 55.3699 27.6697 55.5885 27.5564C55.8071 27.4512 55.9609 27.3055 56.058 27.1355C56.1552 26.9574 56.1956 26.7631 56.1956 26.5526C56.1956 26.3421 56.1552 26.1802 56.0904 26.0507C56.0175 25.9212 55.9204 25.824 55.799 25.7512V25.7674Z" fill="#222323"/>
<path fill-rule="evenodd" clip-rule="evenodd" d="M58.5347 24.5042L59.0123 26.1638H57.9923L58.478 24.5042H58.5428H58.5347ZM59.9352 26.3338L59.498 24.99C59.4171 24.7552 59.3442 24.5366 59.2876 24.3423C59.2228 24.148 59.158 23.9457 59.0933 23.7433H57.9276C57.8628 23.9376 57.798 24.14 57.7333 24.3342C57.6685 24.5285 57.5957 24.7471 57.5147 24.99L57.0695 26.3338C57.0047 26.5442 56.9319 26.7628 56.8509 26.9976C56.7699 27.2323 56.7052 27.4509 56.6323 27.6614H57.539C57.5957 27.4509 57.6604 27.2404 57.7252 27.0138C57.7414 26.9571 57.7576 26.9004 57.7738 26.8357H59.1823C59.1985 26.8923 59.2147 26.949 59.2309 27.0138C59.2957 27.2323 59.3523 27.4509 59.409 27.6533H60.3399C60.2752 27.4428 60.2023 27.2242 60.1295 26.9976C60.0566 26.7709 59.9838 26.5442 59.9109 26.3257L59.9352 26.3338Z" fill="#222323"/>
<path fill-rule="evenodd" clip-rule="evenodd" d="M61.0449 24.3668V27.6615H61.9516V24.4963H63.4735V27.6615H64.3802V23.7354H61.053V24.3587L61.0449 24.3668Z" fill="#222323"/>
<path fill-rule="evenodd" clip-rule="evenodd" d="M67.4796 24.3667V25.4919C67.423 25.5243 67.3501 25.5567 67.2854 25.5728C67.2125 25.5971 67.1396 25.6133 67.0587 25.6295C66.9777 25.6376 66.8887 25.6457 66.7915 25.6457C66.6215 25.6457 66.4839 25.6214 66.3868 25.5728C66.2815 25.5243 66.2087 25.4595 66.1682 25.3705C66.1196 25.2814 66.1034 25.1762 66.1034 25.0548V23.7352H65.1968V25.1762C65.1968 25.4352 65.2454 25.6619 65.3587 25.8319C65.4639 26.01 65.6177 26.1476 65.812 26.2367C66.0063 26.3257 66.2411 26.3743 66.5082 26.3743C66.6458 26.3743 66.7753 26.3743 66.8968 26.35C67.0101 26.3338 67.1234 26.3095 67.2206 26.2852C67.3177 26.2609 67.4149 26.2286 67.4958 26.1881V27.6614H68.4025V23.7433H67.4958V24.3667H67.4796Z" fill="#222323"/>
<path fill-rule="evenodd" clip-rule="evenodd" d="M70.96 24.5042L71.4376 26.1638H70.4176L70.9033 24.5042H70.9681H70.96ZM72.3605 26.3338L71.9233 24.99C71.8424 24.7552 71.7695 24.5366 71.7129 24.3423C71.6481 24.148 71.5833 23.9457 71.5186 23.7433H70.3529C70.2881 23.9376 70.2233 24.14 70.1586 24.3342C70.0938 24.5285 70.0209 24.7471 69.94 24.99L69.4948 26.3338C69.43 26.5442 69.3571 26.7628 69.2762 26.9976C69.1952 27.2323 69.1305 27.4509 69.0576 27.6614H69.9643C70.0209 27.4509 70.0857 27.2404 70.1505 27.0138C70.1667 26.9571 70.1829 26.9004 70.199 26.8357H71.6076C71.6238 26.8923 71.64 26.949 71.6562 27.0138C71.7209 27.2323 71.7776 27.4509 71.8343 27.6533H72.7652C72.7005 27.4428 72.6276 27.2242 72.5548 26.9976C72.4819 26.7709 72.409 26.5442 72.3362 26.3257L72.3605 26.3338Z" fill="#222323"/>
<path fill-rule="evenodd" clip-rule="evenodd" d="M74.6285 24.5772C74.7985 24.4801 75.0009 24.4315 75.2275 24.4315C75.3328 24.4315 75.4542 24.4396 75.5756 24.472C75.697 24.4962 75.8266 24.5367 75.9561 24.5934C76.0856 24.6501 76.2232 24.7229 76.369 24.812L76.4418 23.9701C76.3609 23.9296 76.2799 23.8891 76.1828 23.8567C76.0856 23.8243 75.9804 23.792 75.867 23.7596C75.7537 23.7353 75.6323 23.711 75.5109 23.6948C75.3894 23.6786 75.2599 23.6705 75.1385 23.6705C74.7256 23.6705 74.3694 23.7596 74.0618 23.9377C73.7623 24.1158 73.5356 24.3586 73.3737 24.6662C73.2118 24.9739 73.1309 25.322 73.1309 25.7186C73.1309 26.0182 73.1794 26.2934 73.2766 26.5443C73.3737 26.7953 73.5113 27.0058 73.6894 27.192C73.8675 27.3701 74.0861 27.5077 74.3451 27.6048C74.6042 27.702 74.8875 27.7505 75.2032 27.7505C75.3085 27.7505 75.4218 27.7505 75.5351 27.7343C75.6485 27.7262 75.7537 27.7101 75.859 27.6858C75.9642 27.6696 76.0613 27.6372 76.1585 27.6048C76.2556 27.5724 76.3447 27.532 76.4175 27.4915L76.369 26.6658C76.2799 26.7305 76.1909 26.7872 76.1018 26.8277C76.0128 26.8762 75.9237 26.9086 75.8428 26.9329C75.7537 26.9572 75.6647 26.9815 75.5837 26.9896C75.4947 26.9977 75.4137 27.0058 75.3247 27.0058C75.1142 27.0058 74.9361 26.9734 74.7742 26.9005C74.6204 26.8358 74.4909 26.7386 74.3856 26.6172C74.2804 26.4958 74.2075 26.3582 74.1509 26.2043C74.1023 26.0505 74.0699 25.8886 74.0699 25.7105C74.0699 25.4353 74.1185 25.2086 74.2237 25.0143C74.3209 24.8201 74.4585 24.6824 74.6366 24.5853V24.5772H74.6285Z" fill="#222323"/>
<path fill-rule="evenodd" clip-rule="evenodd" d="M77 24.5286H78.19V27.6614H79.0886V24.5286H80.2705V23.7352H77V24.5286Z" fill="#222323"/>
<path fill-rule="evenodd" clip-rule="evenodd" d="M83.5648 23.7433C83.3867 24.0104 83.2167 24.2695 83.0467 24.5123C82.8848 24.7552 82.7229 24.99 82.561 25.2328L81.9296 26.1719H81.8648V23.7514H80.9824V27.6695H81.7353C81.8891 27.4428 82.0429 27.2161 82.2048 26.9733C82.3667 26.7304 82.5448 26.4714 82.7391 26.188L83.3786 25.249H83.4434V27.6695H84.3258V23.7514H83.5486L83.5648 23.7433Z" fill="#222323"/>
<path fill-rule="evenodd" clip-rule="evenodd" d="M13.7839 14.1747L21.9601 8.96948H17.7991L10.5134 13.3409V8.96948H7.38867V20.4161H10.5134V16.2552L13.0068 14.6685L17.7991 20.4161H21.9601L16.7549 14.1747H13.7758H13.7839Z" fill="#222323"/>
</svg>
