<svg width="162" height="26" viewBox="0 0 162 26" fill="none" xmlns="http://www.w3.org/2000/svg">
<g clip-path="url(#clip0_2001_696)">
<path d="M42.4561 14.9176C41.4501 16.2171 40.5511 16.7898 38.903 16.7898C36.6128 16.7898 34.6724 15.0498 34.6724 12.693C34.6724 10.4023 36.5271 8.64017 38.9244 8.64017C40.3585 8.64017 41.4715 9.36704 42.2635 10.4904L44.7678 7.89131C43.3123 5.77683 41.1291 5.02795 38.6462 5.02795C34.2369 5.02795 30.7554 8.33184 30.7554 12.8031C30.7554 17.2964 34.2583 20.4902 38.6462 20.4902C41.2789 20.4902 43.3979 19.4549 45.0032 17.3845L42.4561 14.9176Z" fill="#13AB7B"/>
<path d="M46.8979 20.1611H50.5911L50.7102 11.549L53.3788 16.0914H55.4278L58.0964 11.5523L58.2155 20.1611H61.9131L61.6748 5.46985H58.0837L54.3946 11.3999L50.7102 5.46985H47.1363L46.8979 20.1611Z" fill="#13AB7B"/>
<path d="M64.0889 15.0237H67.6203H71.1524V11.9919H67.6203H64.0889V15.0237Z" fill="#13AB7B"/>
<path d="M77.369 14.1247H78.2681C79.3169 14.1247 80.1975 15.217 80.6897 16.2522L82.6588 20.1611H86.982L84.2423 14.6533C83.5791 13.3978 82.851 12.6269 81.567 12.2084C82.5946 11.7679 83.2565 11.1291 83.9415 9.71948L86.1677 5.46985H81.9936L80.2173 8.94861C79.7039 10.0719 79.1029 10.5565 78.011 10.5565H77.369V5.46985H73.5806V20.1611H77.369V14.1247Z" fill="#13AB7B"/>
<path d="M90.8297 9.41309C90.8297 15.3438 90.2023 16.9674 88.0688 16.9674V20.1592C88.0688 20.1592 88.4969 20.1553 88.7321 20.1553C91.8361 20.1553 93.9762 17.8971 93.9762 12.5408H95.667V20.1612H99.2845V9.41309H90.8297Z" fill="#13AB7B"/>
<path d="M112.101 20.1612V9.41309H108.976L105.144 14.9014V9.41309H101.698V20.1612H104.609L108.655 14.6722V20.1612H112.101Z" fill="#13AB7B"/>
<path d="M121.283 9.41309V13.1873H118.137V9.41309H114.519V20.1612H118.137V16.2191H121.283V20.1612H124.9V9.41309H121.283Z" fill="#13AB7B"/>
<path d="M137.722 20.1612V9.41309H134.596L130.765 14.9014V9.41309H127.319V20.1612H130.23L134.275 14.6482V20.1612H137.722Z" fill="#13AB7B"/>
<path d="M143.693 16.0992H144.335C145.106 16.0992 145.574 16.8475 145.896 17.4422L147.202 20.1612H151.056L149.344 16.5838C148.68 15.3504 148.081 14.7336 147.075 14.4032C147.91 14.1169 148.488 13.6861 149.065 12.5628L150.606 9.41309H146.925L145.726 11.9461C145.362 12.717 145.063 12.9716 144.314 12.9716H143.693V9.41309H140.14V20.1612H143.693V16.0992Z" fill="#13AB7B"/>
<path d="M161.5 20.1612V13.8177C161.5 10.8882 159.595 9.34644 156.812 9.34644C154.415 9.34644 152.58 10.0934 151.83 11.0044L153.497 12.8265C154.097 12.386 155.014 12.0556 156.298 12.0556C157.026 12.0556 157.968 12.2979 157.968 13.3772V13.5754C157.476 13.5093 157.198 13.4873 156.534 13.4873C153.944 13.4873 151.718 14.7868 151.718 17.3418C151.718 19.8528 153.538 20.5136 154.865 20.5136C156.234 20.5136 157.048 20.1832 157.968 19.192V20.1612H161.5ZM157.968 16.2846C157.857 17.7053 156.939 18.0769 156.19 18.0769C155.397 18.0769 154.999 17.5841 154.999 16.7912C154.999 16.0644 155.785 15.4916 156.984 15.4916C157.455 15.4916 157.775 15.5137 157.968 15.5798V16.2846Z" fill="#13AB7B"/>
<path d="M1.08691 8.19391C1.08691 4.61006 1.08691 2.81814 2.1934 1.70479C3.29988 0.591431 5.08074 0.591431 8.64246 0.591431H17.9345C21.4962 0.591431 23.277 0.591431 24.3835 1.70479C25.49 2.81814 25.49 4.61006 25.49 8.19391V17.5436C25.49 21.1274 25.49 22.9194 24.3835 24.0327C23.277 25.1461 21.4962 25.1461 17.9345 25.1461H8.64246C5.08074 25.1461 3.29988 25.1461 2.1934 24.0327C1.08691 22.9194 1.08691 21.1274 1.08691 17.5436V8.19391Z" fill="#13AB7B"/>
<path fill-rule="evenodd" clip-rule="evenodd" d="M8.59837 1.80568e-07H17.98C19.7229 -1.03989e-05 21.0909 -1.87059e-05 22.1587 0.144443C23.2526 0.292427 24.1192 0.60169 24.7998 1.28655C25.4804 1.9714 25.7878 2.84329 25.9348 3.94399C26.0784 5.01848 26.0784 6.39497 26.0784 8.1486V17.5887C26.0784 19.3423 26.0784 20.7188 25.9348 21.7933C25.7878 22.8939 25.4804 23.7659 24.7998 24.4507C24.1192 25.1356 23.2526 25.4449 22.1587 25.5928C21.0909 25.7373 19.7229 25.7373 17.9801 25.7373H8.5983C6.85549 25.7373 5.4875 25.7373 4.41965 25.5928C3.32575 25.4449 2.45923 25.1356 1.7786 24.4507C1.09798 23.7659 0.790622 22.8939 0.643551 21.7933C0.499981 20.7188 0.49999 19.3423 0.5 17.5886V8.14867C0.49999 6.39498 0.499981 5.01849 0.643551 3.94399C0.790622 2.8433 1.09798 1.9714 1.7786 1.28655C2.45923 0.601691 3.32574 0.292427 4.41965 0.144443C5.4875 -1.86761e-05 6.8555 -1.03989e-05 8.59837 1.80568e-07ZM4.57625 1.3165C3.61268 1.44685 3.03552 1.69427 2.60967 2.12277C2.18381 2.55127 1.93792 3.13201 1.80837 4.10157C1.67655 5.08815 1.67531 6.38514 1.67531 8.1938V17.5435C1.67531 19.3521 1.67655 20.6491 1.80837 21.6357C1.93792 22.6053 2.18381 23.186 2.60967 23.6145C3.03552 24.043 3.61268 24.2904 4.57625 24.4207C5.55674 24.5534 6.84573 24.5547 8.64322 24.5547H17.9352C19.7327 24.5547 21.0217 24.5534 22.0021 24.4207C22.9657 24.2904 23.5429 24.043 23.9687 23.6145C24.3946 23.186 24.6405 22.6053 24.77 21.6357C24.9018 20.6491 24.9031 19.3521 24.9031 17.5435V8.1938C24.9031 6.38513 24.9018 5.08814 24.77 4.10157C24.6405 3.13201 24.3946 2.55127 23.9687 2.12277C23.5429 1.69427 22.9657 1.44685 22.0021 1.3165C21.0217 1.18386 19.7327 1.18261 17.9352 1.18261H8.64322C6.84572 1.18261 5.55673 1.18386 4.57625 1.3165Z" fill="#F2FFFB"/>
<path fill-rule="evenodd" clip-rule="evenodd" d="M13.4646 20.1913C8.52088 20.1913 4.19936 16.9294 4.29542 13.4499C4.17277 10.9053 5.58593 8.21687 8.76615 6.78707C9.95451 6.25092 11.9802 5.80411 13.9466 5.78283C14.3799 5.76986 14.6606 5.71454 15.0424 5.63929C15.2867 5.59115 15.5724 5.53484 15.966 5.47625C16.6151 5.37961 17.5028 5.28296 18.2771 5.5956C19.1838 6.05617 20.066 6.73273 20.066 7.06793C20.066 7.40313 19.4719 7.9892 19.0877 8.03753C18.4232 8.12107 17.5757 7.9872 16.5287 7.8218C15.7204 7.69413 14.7931 7.54767 13.7395 7.46793C9.28632 7.40413 6.01895 10.4257 6.12045 13.3533C6.22194 17.0937 10.8722 18.7175 13.7395 18.7175C21.728 18.7643 21.4722 11.6012 19.5992 11.2589C18.987 11.147 18.5014 12.2141 17.9663 13.3902C17.3457 14.754 16.6585 16.2643 15.6299 16.2529C14.6642 16.2428 13.9036 14.6253 13.2696 13.2769C12.8263 12.3341 12.445 11.5229 12.0986 11.4849C11.4824 11.4175 11.0114 12.8813 10.599 14.1633C10.3211 15.0269 10.0699 15.8079 9.81855 15.9829C9.2422 16.5629 7.73204 15.3064 7.94545 14.8231C8.15416 14.3507 8.34815 14.53 8.55904 14.7249C8.73647 14.8889 8.9259 15.0639 9.14613 14.8715C9.22835 14.7987 9.34562 14.4513 9.50676 13.9738C9.96749 12.6088 10.7871 10.1807 12.1719 10.0672C13.1684 9.98987 13.9621 11.7973 14.5932 13.2344C15.0039 14.1697 15.3458 14.9481 15.6299 14.9481C15.9562 14.9417 16.2806 14.2213 16.6766 13.3422C17.3376 11.8745 18.198 9.9642 19.5992 10.1957C23.189 10.7888 23.4704 20.1956 13.4646 20.1913ZM18.0732 6.37204C18.0732 6.5366 17.8224 6.54336 17.306 6.52007C16.9186 6.50843 16.6744 6.39197 16.735 6.19157C16.7956 5.99117 17.1362 5.96992 17.5059 6.05729C17.6837 6.0993 18.0732 6.20749 18.0732 6.37204Z" fill="#F2FFFB"/>
</g>
<defs>
<clipPath id="clip0_2001_696">
<rect width="161" height="26" fill="white" transform="translate(0.5)"/>
</clipPath>
</defs>
</svg>
