<svg width="85" height="52" viewBox="0 0 85 52" fill="none" xmlns="http://www.w3.org/2000/svg">
<path d="M83.62 7.48114C78.4516 -3.11916 55.358 -2.31946 32.0537 9.26771C29.8447 10.3652 27.7031 11.5307 25.6543 12.7302C45.8053 2.82756 74.3455 1.75562 79.4633 12.2453C81.2929 15.9886 81.7061 20.387 79.5139 25.0576C84.2355 18.5408 85.9555 12.2623 83.62 7.48114Z" fill="#4D82B9"/>
<path d="M8.04106 41.4344C4.01087 36.1427 5.57067 26.6909 10.8656 20.0721C2.40891 28.6307 -1.45266 37.4359 1.59949 43.6889C6.76793 54.2892 29.853 53.4895 53.1658 41.9023C58.8991 39.0523 64.1097 35.8109 68.6289 32.3995C66.7909 33.5224 64.7758 34.6539 62.5246 35.7684C44.4646 44.7183 14.8705 50.4012 8.04106 41.4344Z" fill="#4D82B9"/>
<path d="M72.3977 24.513L78.072 19.0427H73.2661L69.2865 23.0668H67.4569V19.0427H63.9579V30.5108H67.4569V26.0359H69.2865L73.7045 30.5108H78.7634L72.3977 24.513ZM57.4404 27.4226C57.0526 27.6098 56.083 27.7033 54.54 27.7033C52.82 27.7033 51.8167 27.5757 51.53 27.329C51.2349 27.0738 51.0916 26.223 51.0916 24.7853C51.0916 23.3475 51.2433 22.5053 51.5469 22.2416C51.8504 21.9778 52.8453 21.8502 54.54 21.8502C56.0661 21.8502 57.0441 21.9608 57.4826 22.1905C57.7102 22.3011 57.862 22.5308 57.9463 22.8371H61.5128C61.4537 21.1696 61.1249 20.1232 60.5347 19.6978C59.7843 19.1533 57.7861 18.8811 54.54 18.8811C51.2771 18.8811 49.2873 19.1874 48.579 19.8084C47.9214 20.3869 47.5926 22.0374 47.5926 24.7683C47.5926 27.5077 47.9298 29.1751 48.6128 29.7707C49.2957 30.3662 51.2686 30.6724 54.54 30.6724C57.803 30.6724 59.8096 30.4002 60.5685 29.8557C61.1418 29.4389 61.4537 28.3669 61.5043 26.6569H57.9547C57.8788 27.0313 57.7102 27.295 57.4404 27.4226ZM12.771 30.5108H16.27V22.0119H24.1449V30.5108H27.6439V19.0427H12.771V30.5108ZM41.3955 23.0838H33.841V19.0427H30.342V30.5108H33.841V26.0529H41.3955V30.5108H44.8945V19.0427H41.3955V23.0838Z" fill="#1D3865"/>
<path d="M51.4456 10.2716H48.6211V9.91431C48.6211 9.3358 48.6885 8.84237 48.8403 8.44252C48.9836 8.04267 49.1691 7.72789 49.3883 7.5067C49.6075 7.2855 49.9364 7.10684 50.3495 6.97923C50.7711 6.86013 51.1842 6.78356 51.5889 6.74953C51.9936 6.7155 52.5248 6.69849 53.174 6.69849C53.4101 6.69849 53.6124 6.69849 53.7979 6.70699C53.9834 6.7155 54.1942 6.72401 54.4387 6.74953C54.6832 6.77505 54.894 6.80058 55.0879 6.83461C55.2818 6.86864 55.4758 6.91968 55.695 6.99625C55.9142 7.07282 56.0997 7.14938 56.2599 7.24296C56.4201 7.33655 56.5803 7.45565 56.732 7.60028C56.8838 7.7449 57.0103 7.90655 57.1115 8.0852C57.2126 8.26386 57.2885 8.47655 57.3475 8.71476C57.4066 8.95296 57.4403 9.2167 57.4403 9.50595C57.4403 9.75267 57.4234 9.98237 57.3981 10.178C57.3728 10.3822 57.3138 10.5779 57.2379 10.7821C57.162 10.9777 57.0609 11.1479 56.9344 11.2925C56.8079 11.4371 56.6477 11.5562 56.4454 11.6498C56.243 11.7434 56.0069 11.82 55.7456 11.8455V11.9561C56.4201 11.9816 56.8922 12.1943 57.1705 12.5857C57.4487 12.977 57.5836 13.5045 57.5836 14.1765C57.5836 14.6955 57.5077 15.1464 57.3644 15.5292C57.2211 15.9121 57.0187 16.2098 56.7742 16.4395C56.5297 16.6692 56.2177 16.8479 55.8215 16.9755C55.4336 17.1116 55.0289 17.1967 54.6242 17.2392C54.2195 17.2818 53.7389 17.3073 53.1909 17.3073C52.862 17.3073 52.5838 17.3073 52.3477 17.2988C52.1117 17.2903 51.8503 17.2733 51.5636 17.2477C51.2769 17.2222 51.0324 17.1882 50.8301 17.1457C50.6277 17.1031 50.4085 17.0351 50.1893 16.9585C49.9617 16.8819 49.7762 16.7883 49.6244 16.6777C49.4726 16.5671 49.3209 16.4395 49.1691 16.2779C49.0173 16.1162 48.8993 15.9376 48.815 15.7334C48.7307 15.5292 48.6548 15.2995 48.6042 15.0273C48.5536 14.7551 48.5283 14.4658 48.5283 14.1425V13.5895H51.3528V13.9383C51.3528 14.1255 51.3697 14.2957 51.4034 14.4318C51.4371 14.5679 51.4962 14.687 51.572 14.7721C51.6479 14.8571 51.7322 14.9337 51.8166 14.9848C51.9009 15.0358 52.0189 15.0783 52.1707 15.0954C52.3224 15.1209 52.4573 15.1379 52.5838 15.1464C52.7103 15.1549 52.8705 15.1549 53.0728 15.1549C53.3426 15.1549 53.5618 15.1464 53.722 15.1294C53.8822 15.1124 54.0424 15.0783 54.1942 15.0358C54.346 14.9933 54.4556 14.9167 54.5315 14.8231C54.6073 14.7295 54.6664 14.6019 54.7085 14.4403C54.7507 14.2786 54.776 14.083 54.776 13.8448C54.776 13.6831 54.7675 13.564 54.7507 13.4704C54.7338 13.3768 54.6917 13.2918 54.6326 13.2067C54.5736 13.1216 54.4809 13.0621 54.3544 13.0195C54.2279 12.977 54.0593 12.943 53.8569 12.9259C53.6546 12.9004 53.3932 12.8919 53.0728 12.8919H52.3562V10.8671H53.0728C53.4438 10.8671 53.7305 10.8586 53.9328 10.8416C54.1352 10.8246 54.2869 10.7821 54.3966 10.7055C54.5062 10.6374 54.5736 10.5524 54.5989 10.4588C54.6242 10.3652 54.6326 10.2206 54.6326 10.0249C54.6326 9.85476 54.6326 9.72714 54.6242 9.63356C54.6158 9.54849 54.5989 9.4464 54.5652 9.34431C54.5315 9.24222 54.4893 9.16565 54.4218 9.11461C54.3544 9.06356 54.2701 9.02102 54.152 8.97849C54.034 8.93595 53.8907 8.90192 53.7136 8.8849C53.5366 8.86789 53.3258 8.85938 53.0644 8.85938C52.4911 8.85938 52.0779 8.94446 51.8334 9.11461C51.5889 9.28476 51.4624 9.59953 51.4624 10.0674V10.2716H51.4456Z" fill="#1D3865"/>
<path d="M62.2042 6.72405C62.474 6.71554 62.8113 6.70703 63.216 6.70703C63.6207 6.70703 63.958 6.71554 64.2278 6.72405C64.4976 6.73255 64.8095 6.76658 65.1636 6.81763C65.5178 6.86867 65.8129 6.94524 66.0489 7.03882C66.2766 7.1324 66.5211 7.26852 66.774 7.44718C67.027 7.62584 67.2293 7.84703 67.3727 8.10226C67.516 8.35748 67.6425 8.67226 67.7352 9.05509C67.828 9.43793 67.8785 9.87181 67.8785 10.3567V13.6236C67.8785 14.0064 67.8533 14.3552 67.7942 14.67C67.7352 14.9848 67.6593 15.257 67.5666 15.4952C67.4738 15.7334 67.3474 15.9461 67.1956 16.1333C67.0438 16.3205 66.8837 16.4736 66.7235 16.6012C66.5633 16.7288 66.3693 16.8394 66.1333 16.9245C65.9056 17.0181 65.6864 17.0861 65.484 17.1372C65.2817 17.1882 65.0372 17.2223 64.7589 17.2563C64.4807 17.2818 64.2278 17.2988 64.0086 17.3073C63.7893 17.3158 63.528 17.3158 63.2244 17.3158C62.9209 17.3158 62.6595 17.3158 62.4403 17.3073C62.2211 17.2988 61.9682 17.2818 61.6899 17.2563C61.4117 17.2308 61.1672 17.1882 60.9648 17.1372C60.7625 17.0861 60.5433 17.0181 60.3156 16.9245C60.088 16.8309 59.8856 16.7288 59.7254 16.6012C59.5652 16.4736 59.405 16.3205 59.2533 16.1333C59.1015 15.9461 58.975 15.7334 58.8823 15.4952C58.7895 15.257 58.7137 14.9848 58.6546 14.67C58.5956 14.3552 58.5703 14.0064 58.5703 13.6236V10.3567C58.5703 9.87181 58.6209 9.43793 58.7137 9.05509C58.8064 8.67226 58.9244 8.35748 59.0762 8.10226C59.2195 7.84703 59.4219 7.63434 59.6748 7.44718C59.9278 7.26852 60.1723 7.1324 60.3999 7.03882C60.6276 6.94524 60.9227 6.86867 61.2852 6.81763C61.6478 6.76658 61.9429 6.73255 62.2042 6.72405ZM63.8736 8.87643C63.7135 8.86793 63.4942 8.85942 63.2244 8.85942C62.9546 8.85942 62.7354 8.86793 62.5752 8.87643C62.415 8.89345 62.2548 8.91897 62.0946 8.97002C61.9429 9.02106 61.8248 9.08061 61.7405 9.16569C61.6562 9.25076 61.5972 9.36136 61.5297 9.51449C61.4707 9.66763 61.4286 9.83778 61.4117 10.042C61.3948 10.2461 61.3864 10.4929 61.3864 10.7991V13.1727C61.3864 13.4705 61.3948 13.7257 61.4117 13.9299C61.4286 14.134 61.4707 14.3127 61.5297 14.4658C61.5887 14.619 61.6646 14.7381 61.7405 14.8232C61.8248 14.9082 61.9344 14.9763 62.0862 15.0273C62.238 15.0784 62.3982 15.1124 62.5668 15.1294C62.7354 15.1464 62.9546 15.1549 63.216 15.1549C63.4774 15.1549 63.705 15.1464 63.8652 15.1379C64.0338 15.1209 64.194 15.0954 64.3458 15.0443C64.4976 14.9933 64.6156 14.9252 64.6915 14.8402C64.7674 14.7551 64.8433 14.636 64.9023 14.4829C64.9613 14.3297 65.0035 14.1511 65.0203 13.9469C65.0372 13.7427 65.0456 13.4875 65.0456 13.1897V10.7736C65.0456 10.4758 65.0372 10.2206 65.0203 10.0164C65.0035 9.81226 64.9613 9.64211 64.9023 9.49748C64.8433 9.35285 64.7758 9.23375 64.6915 9.15718C64.6156 9.07211 64.4976 9.01255 64.3374 8.96151C64.1772 8.91046 64.0338 8.88494 63.8736 8.87643Z" fill="#1D3865"/>
<path d="M69.6321 13.2493H72.5831V16.9245H71.6135V14.1H70.5596V15.6399C70.5596 16.0567 70.4668 16.38 70.2898 16.6097C70.1043 16.8394 69.8345 16.9585 69.4804 16.9585C69.3033 16.9585 69.1347 16.9415 68.9829 16.916V16.1248C69.0588 16.1503 69.1515 16.1588 69.278 16.1588C69.4129 16.1588 69.5056 16.1248 69.5562 16.0482C69.6068 15.9717 69.6406 15.844 69.6406 15.6569V13.2493H69.6321Z" fill="#1D3865"/>
<path d="M73.9829 14.049V14.7211H75.5343V15.4017H73.9829V16.1163H75.6692V16.916H73.0049V13.2493H75.6355V14.049H73.9829Z" fill="#1D3865"/>
<path d="M77.8358 14.1V16.9245H76.8662V14.1H75.8882V13.2493H78.8223V14.1H77.8358Z" fill="#1D3865"/>
</svg>
