<svg width="116" height="19" viewBox="0 0 116 19" fill="none" xmlns="http://www.w3.org/2000/svg">
<path d="M10.2318 19C7.40769 19 5.0677 18.05 3.21183 16.3083C1.35597 14.4875 0.387695 12.1917 0.387695 9.5C0.387695 6.80833 1.35597 4.5125 3.13114 2.77083C5.0677 0.95 7.40769 0 10.1511 0C12.4911 0 14.5084 0.554167 16.0415 1.74167C17.6553 2.92917 18.7042 4.35417 19.1884 5.9375L19.2691 6.175L18.2201 6.4125C16.7677 6.72917 15.3153 6.33333 14.1856 5.225C13.9436 4.9875 13.7015 4.82917 13.4594 4.67083C12.5718 4.0375 11.4422 3.72083 10.2318 3.72083C8.53735 3.72083 7.24632 4.275 6.19735 5.38333C5.14839 6.49167 4.66425 7.8375 4.66425 9.42083C4.66425 11.0042 5.22907 12.35 6.19735 13.5375C7.24632 14.6458 8.61804 15.2 10.2318 15.2C11.5229 15.2 12.5718 14.8833 13.4594 14.3292C13.7015 14.1708 13.9436 13.9333 14.1856 13.775C15.3153 12.6667 16.8484 12.2708 18.3008 12.6667L19.2691 12.9042L19.1884 13.1417C18.7042 14.725 17.6553 16.15 16.1222 17.3375C14.5084 18.4458 12.4911 19 10.2318 19Z" fill="#78B997"/>
<path d="M30.3236 19C27.4995 19 25.1595 18.05 23.3036 16.3083C21.4478 14.4875 20.4795 12.1917 20.4795 9.5C20.4795 6.80833 21.4478 4.5125 23.3036 2.77083C25.2402 0.95 27.5802 0 30.3236 0C33.0671 0 35.4878 0.95 37.2629 2.69167C39.1188 4.5125 40.0064 6.72917 40.0064 9.42083C40.0064 12.1125 39.0381 14.4083 37.2629 16.2292C35.4878 18.05 33.1478 19 30.3236 19ZM30.3236 3.72083C28.6291 3.72083 27.2574 4.275 26.2085 5.38333C25.1595 6.49167 24.6754 7.8375 24.6754 9.5C24.6754 11.1625 25.2402 12.5083 26.2085 13.6167C27.2574 14.725 28.6291 15.2792 30.3236 15.2792C32.0181 15.2792 33.3898 14.725 34.4388 13.6167C35.4878 12.5083 35.9719 11.1625 35.9719 9.5C35.9719 7.91667 35.4071 6.49167 34.4388 5.38333C33.3898 4.275 32.0181 3.72083 30.3236 3.72083Z" fill="#78B997"/>
<path d="M62.0347 18.8417H61.7926C59.614 18.8417 57.9195 17.1 57.9195 15.0417V7.44171L52.2713 15.1209L46.623 7.44171V15.0417C46.623 17.1792 44.8478 18.8417 42.7499 18.8417H42.5078V0.237549H46.3809L52.2713 8.62921L58.1616 0.237549H62.0347V18.8417Z" fill="#78B997"/>
<path d="M69.3774 18.8417H65.2622V0.237549H79.2215V0.475049C79.2215 2.37505 77.6077 3.95838 75.6712 3.95838H69.3774V7.99588H77.8498V8.23338C77.8498 10.1334 76.236 11.7167 74.2994 11.7167H69.2967V18.8417H69.3774Z" fill="#78B997"/>
<path d="M96.0855 18.8417H81.9648V0.237549H96.1662V0.475049C96.1662 2.37505 94.5524 3.95838 92.6159 3.95838H86.08V15.2H92.6159C94.5524 15.2 96.1662 16.7834 96.1662 18.6834V18.8417H96.0855Z" fill="#78B997"/>
<path d="M115.532 18.8417H113.03C111.578 18.8417 110.287 18.1292 109.48 16.9417L106.575 11.6375H102.944V18.8417H98.8291V0.237549H108.108C112.788 0.237549 114.725 3.08755 114.725 5.93755C114.725 7.44171 114.564 10.5292 111.094 11.5584L115.532 18.8417ZM103.025 7.91672H107.947C108.835 7.91672 110.771 7.75838 110.771 5.93755C110.771 4.19588 109.077 3.87922 108.108 3.87922H103.106V7.91672H103.025Z" fill="#78B997"/>
<path d="M91.4057 11.6375H87.2905V11.4C87.2905 9.50002 88.9043 7.99585 90.7602 7.99585H94.8754V8.23335C94.8754 10.1333 93.2616 11.6375 91.4057 11.6375Z" fill="#78B997"/>
</svg>
