<svg width="116" height="63" viewBox="0 0 116 63" fill="none" xmlns="http://www.w3.org/2000/svg">
<path d="M29.2598 7.57931V1.66598C29.2598 1.08664 29.7322 0.61731 30.3164 0.61731C30.8997 0.61731 31.3727 1.08664 31.3727 1.66598V7.37331L29.2598 7.57931Z" fill="#F5732C"/>
<path d="M105.34 56.027H16.8279C15.7683 56.027 14.9087 55.1736 14.9087 54.1223V29.8066H105.34C106.257 29.8066 107.106 30.29 107.569 31.0766L114.547 42.9163L107.569 54.757C107.106 55.5436 106.257 56.027 105.34 56.027ZM16.9031 54.0476H105.678L112.238 42.9163L105.678 31.786H16.9031V54.0476Z" fill="#F5732C"/>
<path d="M54.7882 31.807H11.1604C10.279 31.807 9.4581 31.3607 8.98332 30.623L1.61963 19.1733L8.98332 7.72333C9.4581 6.98566 10.279 6.53833 11.1604 6.53833H54.7882V31.807ZM10.8371 29.8287H52.7948V8.51766H10.8371L3.98477 19.1733L10.8371 29.8287Z" fill="#F5732C"/>
<path d="M76.3295 31.8077H52.7949V6.5387H76.3295C77.3898 6.5387 78.2484 7.39103 78.2484 8.4437V29.903C78.2484 30.9547 77.3898 31.8077 76.3295 31.8077ZM54.7884 29.8287H76.2549V8.5177H54.7884V29.8287Z" fill="#F5732C"/>
<path d="M69.6871 16.5623L67.597 20.3973L64.3514 14.4417V13.2873H66.9969L66.0078 12.0943L66.9969 10.901H62.8851H62.8559V14.4417L56.2695 26.5277H65.5108H70.9378H75.1188L69.6871 16.5623ZM64.888 18.5473L63.6037 20.0307L62.3184 18.5473L63.6037 16.1897L64.888 18.5473ZM65.5108 25.0433H58.778L61.5565 19.945L63.6037 22.307L65.6498 19.945L68.4286 25.0433H65.5108ZM70.1286 25.0433L68.4471 21.957L69.6871 19.6813L72.6096 25.0433H70.129H70.1286Z" fill="#F5732C"/>
<path d="M31.3729 55.4503V61.482C31.3729 62.0613 30.8998 62.5307 30.3159 62.5307C29.733 62.5307 29.2603 62.0613 29.2603 61.482V55.4503H31.3729Z" fill="#F5732C"/>
<path d="M22.8866 20.1727V26.799H20.79V12.3964H22.8866V18.037V20.1727Z" fill="#F5732C"/>
<path d="M34.7967 26.799H32.59L31.8544 14.5137C31.8544 14.429 31.8054 14.386 31.7073 14.386H31.5968C31.4985 14.386 31.4508 14.429 31.4508 14.5137L30.7148 26.799H28.4712L29.685 13.145C29.7216 12.646 29.9667 12.3964 30.4203 12.3964H32.7925C33.2827 12.3964 33.5463 12.646 33.5836 13.145L34.7967 26.799Z" fill="#F5732C"/>
<path d="M41.7041 24.3894C41.7041 25.9967 41.1024 26.799 39.9017 26.799H36.4997V24.828H39.1294C39.448 24.828 39.6079 24.6027 39.6079 24.1524V22.8744H37.787C36.5981 22.8744 36.0034 22.0714 36.0034 20.4644V12.3964H38.0996V20.228C38.0996 20.6904 38.2527 20.9217 38.5593 20.9217H39.5891V12.3964H41.7041V24.3894Z" fill="#F5732C"/>
<path d="M48.985 24.444C48.985 26.014 48.385 26.799 47.1836 26.799H44.2598C43.7085 26.799 43.4321 26.5197 43.4321 25.959V13.2357C43.4321 12.6764 43.7085 12.3964 44.2598 12.3964H48.3783V14.3677H45.7127C45.5904 14.3677 45.5283 14.4407 45.5283 14.5867V17.781H47.1836C48.385 17.781 48.985 18.5604 48.985 20.1184V24.444ZM46.5215 24.828C46.8284 24.828 46.9812 24.6027 46.9812 24.153V20.374C46.9812 19.911 46.8284 19.68 46.5215 19.68H45.5287V24.627C45.5287 24.7614 45.5904 24.828 45.7127 24.828H46.5219H46.5215Z" fill="#F5732C"/>
<path d="M25.4848 26.7989L23.1758 19.2843L25.6312 12.4113L27.7402 12.4293L25.2753 19.3313L27.5663 26.7913L25.4848 26.7989Z" fill="#F5732C"/>
<path d="M26.5035 50.158H24.4066V37.9457C24.4066 37.7997 24.3462 37.727 24.2233 37.727H23.1015C22.9793 37.727 22.9181 37.7997 22.9181 37.9457V50.158H20.8213V36.595C20.8213 36.0357 21.0973 35.755 21.6493 35.755H25.6761C26.2275 35.755 26.5035 36.0357 26.5035 36.595V50.158Z" fill="#F5732C"/>
<path d="M30.2909 50.158H28.1943V36.595C28.1943 36.035 28.4703 35.755 29.0223 35.755H31.9455C33.1476 35.755 33.7476 36.5403 33.7476 38.11V42.254C33.7476 43.8113 33.1476 44.5907 31.9455 44.5907H30.2909V50.158ZM31.2834 42.692C31.5903 42.692 31.7431 42.4667 31.7431 42.017V38.4203C31.7431 37.9707 31.5903 37.7447 31.2834 37.7447H30.4745C30.3523 37.7447 30.2909 37.8123 30.2909 37.9457V42.692H31.2834Z" fill="#F5732C"/>
<path d="M39.301 50.158V41.9073C39.301 41.834 39.2765 41.7977 39.2271 41.7977H39.1721C39.0989 41.7977 39.0616 41.834 39.0616 41.9073L37.3341 49.6467C37.2602 49.9883 37.0453 50.158 36.6894 50.158H35.8812C35.6841 50.158 35.5532 50.1123 35.4853 50.0213C35.4175 49.93 35.3843 49.7933 35.3843 49.6103V35.755H37.3885V43.258C37.3885 43.3313 37.413 43.3677 37.4623 43.3677H37.5177C37.5668 43.3677 37.6027 43.3313 37.6282 43.258L39.0989 36.266C39.1721 35.926 39.3863 35.755 39.7429 35.755H40.7908C41.1826 35.755 41.3794 35.944 41.3794 36.321V50.158H39.3013H39.301Z" fill="#F5732C"/>
<path d="M56.973 50.158H54.7657L54.0307 37.873C54.0307 37.7877 53.9813 37.7447 53.8829 37.7447H53.7731C53.6748 37.7447 53.6261 37.7877 53.6261 37.873L52.8904 50.158H50.6465L51.8606 36.5033C51.8979 36.0047 52.1427 35.755 52.5963 35.755H54.9685C55.458 35.755 55.7216 36.0047 55.7589 36.5033L56.973 50.158Z" fill="#F5732C"/>
<path d="M66.724 47.8213C66.724 49.3793 66.1233 50.1587 64.9223 50.1587H62.9359C61.7466 50.1587 61.1527 49.3793 61.1527 47.8213V43.824H60.3435V50.1587H58.3208V35.755H60.3435V41.9073H61.1527V38.11C61.1527 36.5403 61.7466 35.755 62.9359 35.755H64.9223C66.123 35.755 66.724 36.5403 66.724 38.11V47.8213ZM64.1682 48.1867C64.4868 48.1867 64.6463 47.9613 64.6463 47.5117V38.4203C64.6463 37.9707 64.4868 37.7447 64.1682 37.7447H63.6538C63.3466 37.7447 63.1934 37.9707 63.1934 38.4203V47.5117C63.1934 47.9613 63.3466 48.1867 63.6538 48.1867H64.1682Z" fill="#F5732C"/>
<path d="M73.8041 50.158H71.6891V44.5907H70.0529C68.8505 44.5907 68.2505 43.812 68.2505 42.254V35.755H70.2362V42.017C70.2362 42.4667 70.3954 42.692 70.714 42.692H71.6891V35.755H73.8041V50.158Z" fill="#F5732C"/>
<path d="M79.9268 50.158H76.3593C75.7959 50.158 75.5132 49.8787 75.5132 49.3183V36.595C75.5132 36.0357 75.7959 35.755 76.3593 35.755H79.9268V37.7447H77.7934C77.6712 37.7447 77.61 37.812 77.61 37.9453V41.9073H79.9268V43.8237H77.61V47.9857C77.61 48.1197 77.6712 48.1863 77.7934 48.1863H79.9268V50.1577V50.158Z" fill="#F5732C"/>
<path d="M87.2447 50.158H85.1669V43.824H83.6956V50.158H81.6001V35.755H83.6956V41.9073H85.1669V35.755H87.2447V50.158Z" fill="#F5732C"/>
<path d="M92.8899 50.158V41.9073C92.8899 41.834 92.8647 41.7977 92.816 41.7977H92.7616C92.6877 41.7977 92.6505 41.834 92.6505 41.9073L90.9223 49.6467C90.8491 49.9883 90.6342 50.158 90.2783 50.158H89.4701C89.2737 50.158 89.1414 50.1123 89.0742 50.0213C89.0071 49.93 88.9731 49.7933 88.9731 49.6103V35.755H90.9773V43.258C90.9773 43.3313 91.0022 43.3677 91.0512 43.3677H91.1059C91.155 43.3677 91.1922 43.3313 91.2164 43.258L92.6877 36.266C92.7616 35.926 92.9758 35.755 93.3311 35.755H94.379C94.7712 35.755 94.9683 35.944 94.9683 36.321V50.158H92.8902H92.8899Z" fill="#F5732C"/>
<path d="M100.613 50.158V41.9073C100.613 41.834 100.587 41.7977 100.539 41.7977H100.484C100.41 41.7977 100.373 41.834 100.373 41.9073L98.6449 49.6467C98.5717 49.9883 98.3568 50.158 98.0016 50.158H97.1927C96.9966 50.158 96.864 50.1123 96.7969 50.0213C96.7297 49.93 96.6958 49.7933 96.6958 49.6103V35.755H98.7003V43.258C98.7003 43.3313 98.7248 43.3677 98.7742 43.3677H98.8286C98.8779 43.3677 98.9142 43.3313 98.9391 43.258L100.41 36.266C100.484 35.926 100.698 35.755 101.054 35.755H102.102C102.494 35.755 102.691 35.944 102.691 36.321V50.158H100.613H100.613Z" fill="#F5732C"/>
<path d="M100.776 33.6397C100.776 34.2837 100.249 34.806 99.6014 34.806C98.9527 34.806 98.4272 34.2837 98.4272 33.6397C98.4272 32.9963 98.9527 32.474 99.6014 32.474C100.249 32.474 100.776 32.9963 100.776 33.6397Z" fill="#F5732C"/>
<path d="M45.2043 43.532V50.158H43.1074V35.755H45.2043V41.3963V43.532Z" fill="#F5732C"/>
<path d="M47.8024 50.158L45.4937 42.6437L47.9488 35.771L50.0577 35.788L47.5929 42.69L49.8841 50.15L47.8024 50.158Z" fill="#F5732C"/>
</svg>
