<svg width="110" height="28" viewBox="0 0 110 28" fill="none" xmlns="http://www.w3.org/2000/svg">
<g clip-path="url(#clip0_476_2063)">
<path d="M26.7593 20.0943V0.331973H33.431C34.9797 0.331973 36.4203 0.583876 37.7527 1.0901C39.0851 1.59633 40.2134 2.28665 41.1377 3.16346C42.0596 4.04028 42.7823 5.08907 43.3059 6.30498C43.8271 7.52332 44.0901 8.82401 44.0901 10.2119C44.0901 11.5901 43.8295 12.886 43.3059 14.0994C42.7848 15.3129 42.062 16.3593 41.1377 17.241C40.2134 18.1226 39.0851 18.8202 37.7527 19.3289C36.4178 19.8375 34.9773 20.0943 33.431 20.0943H26.7593ZM28.2441 18.7451H33.4335C34.7954 18.7451 36.0515 18.5247 37.202 18.0839C38.3525 17.643 39.3161 17.0399 40.0905 16.2721C40.8649 15.5043 41.4647 14.6008 41.8949 13.5569C42.3226 12.5154 42.5389 11.4012 42.5389 10.2143C42.5389 9.04685 42.3251 7.94478 41.8949 6.90567C41.4647 5.86657 40.8649 4.96554 40.0905 4.19772C39.3161 3.4299 38.3525 2.82194 37.202 2.37142C36.0491 1.9209 34.7929 1.69564 33.4335 1.69564H28.2441V18.7451ZM49.1542 20.0943V0.331973H63.422V1.69564H50.6365V9.45619H62.1339V10.8053H50.6365V18.7451H63.5621V20.0943H49.1542ZM67.4634 10.2143C67.4634 8.88215 67.7019 7.60083 68.1763 6.37038C68.6508 5.13993 69.312 4.05239 70.1552 3.11017C70.9984 2.16796 72.0481 1.41467 73.3018 0.850314C74.5555 0.285955 75.9101 0.00256348 77.3654 0.00256348C78.9214 0.00256348 80.2686 0.215712 81.4018 0.644432C82.5351 1.07073 83.634 1.72229 84.6959 2.59426L83.7298 3.69633C82.835 2.93336 81.8886 2.3472 80.8905 1.94028C79.8925 1.53094 78.6904 1.32747 77.2818 1.32747C75.6962 1.32747 74.2679 1.73197 72.9945 2.54097C71.7211 3.34997 70.7378 4.43024 70.0421 5.78664C69.3465 7.14304 68.9998 8.61813 68.9998 10.2167C68.9998 11.4932 69.199 12.6776 69.5947 13.7652C69.9905 14.8527 70.5535 15.7949 71.2811 16.5894C72.0088 17.3839 72.9134 18.0064 73.9951 18.4569C75.0767 18.9074 76.2739 19.1327 77.5891 19.1327C78.801 19.1327 79.976 18.9219 81.1142 18.4981C82.2524 18.0766 83.2087 17.5389 83.9806 16.8849V11.2074H77.2818V9.85585H85.4211V17.4759C84.4329 18.3406 83.2529 19.0503 81.8812 19.605C80.5095 20.1597 79.0591 20.4382 77.5301 20.4382C75.9813 20.4382 74.5703 20.1693 73.292 19.6316C72.0137 19.0939 70.9542 18.3624 70.111 17.4347C69.2678 16.5071 68.6139 15.4219 68.1517 14.1818C67.6945 12.9417 67.4634 11.6192 67.4634 10.2143ZM89.0741 20.0943L98.418 0.193911H99.8438L109.188 20.0943H107.551L105.004 14.5669H93.1696L90.6228 20.0943H89.0741ZM93.8014 13.2323H104.377L99.1039 1.80706L93.8014 13.2323ZM30.0853 25.0427C30.0853 25.3988 30.0706 25.7088 30.0435 25.9704C30.0165 26.2295 29.9821 26.4282 29.9452 26.5614C29.9083 26.6922 29.8616 26.7963 29.8075 26.869C29.7387 26.9586 29.6944 26.9901 29.6699 26.9998C29.6305 27.0143 29.5887 27.0216 29.5396 27.0216C29.4388 27.0216 29.3601 27.0095 29.306 26.9853L29.2667 26.9683L29.1954 27.2469L27.9933 25.7572L29.1512 24.5946L29.2741 24.4711H28.6595L28.6374 24.4929L27.1526 26.014V24.4711H26.688V27.3825H27.1526V26.5953L27.6713 26.077L28.6988 27.3534L28.721 27.3801H29.3036L29.2569 27.3195C29.365 27.3558 29.4781 27.3752 29.5937 27.3752C29.6944 27.3752 29.7854 27.3607 29.8616 27.3316C29.9403 27.3026 30.0214 27.2372 30.1025 27.1403C30.1812 27.0458 30.2476 26.915 30.2967 26.7552C30.3459 26.5977 30.3877 26.3773 30.4196 26.1012C30.4516 25.8251 30.4663 25.4981 30.4663 25.1251V24.861H31.5873V27.3437H31.9782V24.505H30.0878V25.0427H30.0853ZM34.7265 24.4687H34.6897L34.6675 24.4977L33.1237 26.6098V24.4662H32.6591V27.3776H33.0795L33.1016 27.3462L34.6405 25.234V27.3776H35.1002V24.4662H34.7265V24.4687ZM37.7576 24.4687H37.6838V25.6967H36.2113V24.4687H35.7467V27.3801H36.2113V26.1351H37.6838V27.3801H38.1485V24.4687H37.7576ZM40.8624 24.4687H40.8255L40.8034 24.4977L39.2596 26.6098V24.4662H38.795V27.3776H39.2154L39.2375 27.3462L40.7764 25.234V27.3776H41.2361V24.4662H40.8624V24.4687ZM46.2436 24.4929L46.2239 24.4493H45.833L45.8134 24.4929L44.5351 27.2783L44.4933 27.3704L44.4072 27.2638L43.1928 25.7572L44.3507 24.5946L44.4736 24.4711H43.859L43.8369 24.4929L42.3521 26.014V24.4711H41.8875V27.3825H42.3521V26.5953L42.8708 26.077L43.8984 27.3534L43.9205 27.3801H44.9751L44.9948 27.3365L45.307 26.6486H46.7401L47.0499 27.3365L47.0695 27.3801H47.576L47.5292 27.2783L46.2436 24.4929ZM46.5459 26.2223H45.4938L46.0223 25.0621L46.5459 26.2223ZM50.0809 24.459C49.84 24.459 49.636 24.4977 49.4688 24.5776C49.3041 24.6552 49.1394 24.7714 48.9772 24.924L48.9501 24.9482L49.2009 25.2147L49.2279 25.1904C49.4934 24.9434 49.781 24.8174 50.0859 24.8174C50.3587 24.8174 50.5923 24.9095 50.784 25.0887C50.9659 25.2607 51.079 25.4787 51.1183 25.7379H49.7122V26.0939H51.1232C51.0888 26.3555 50.9757 26.5783 50.7889 26.7576C50.5947 26.9441 50.3563 27.0385 50.0834 27.0385C49.9113 27.0385 49.7589 27.0071 49.6311 26.9441C49.5008 26.8811 49.3631 26.7794 49.2181 26.6413L49.1935 26.6171L48.9059 26.8714L48.9329 26.8981C49.0927 27.0579 49.2648 27.1815 49.4467 27.2662C49.6286 27.351 49.8449 27.3946 50.0908 27.3946C50.5038 27.3946 50.8504 27.2517 51.1232 26.9707C51.3961 26.6898 51.5338 26.3385 51.5338 25.9292C51.5338 25.5247 51.3937 25.1735 51.1183 24.8901C50.8479 24.6019 50.4964 24.459 50.0809 24.459ZM54.3485 26.6413C54.2084 26.7721 54.0683 26.8714 53.9331 26.9344C53.8003 26.9974 53.643 27.0289 53.4684 27.0289C53.1734 27.0289 52.9227 26.9223 52.7211 26.7116C52.5195 26.4984 52.4188 26.2344 52.4188 25.9244C52.4188 25.6119 52.5195 25.3455 52.7187 25.1347C52.9178 24.924 53.1685 24.8174 53.4684 24.8174C53.7757 24.8174 54.0633 24.941 54.3264 25.1856L54.3534 25.2098L54.6115 24.9361L54.5845 24.9119C54.4247 24.7617 54.2575 24.6479 54.0904 24.5704C53.9208 24.4929 53.7118 24.4541 53.4734 24.4541C53.0579 24.4541 52.7088 24.597 52.431 24.8828C52.1557 25.1662 52.0156 25.515 52.0156 25.9219C52.0156 26.3337 52.1533 26.6825 52.4261 26.9635C52.699 27.2444 53.0481 27.3873 53.4586 27.3873C53.7069 27.3873 53.9208 27.3462 54.1002 27.2662C54.2772 27.1863 54.4493 27.0652 54.6091 26.9078L54.6337 26.8835L54.3755 26.6147L54.3485 26.6413ZM54.9336 24.4687H54.8598V24.8998H55.8013V27.3825H56.2709V24.8998H57.2124V24.4687H54.9336ZM58.1244 26.9513V26.1278H59.6559V25.6991H58.1244V24.8998H59.8378V24.4687H57.6598V27.3801H59.8575V26.9513H58.1244ZM60.2213 24.4687H60.1476V24.8998H61.0891V27.3825H61.5586V24.8998H62.5002V24.4687H60.2213ZM65.0125 24.4687H64.9756L64.9535 24.4977L63.4097 26.6098V24.4662H62.9451V27.3776H63.3655L63.3876 27.3462L64.9265 25.234V27.3776H65.3862V24.4662H65.0125V24.4687ZM67.783 24.4687H67.7092V25.796C67.429 25.9534 67.1684 26.0334 66.9324 26.0334C66.7554 26.0334 66.6251 25.9898 66.5317 25.9001C66.4383 25.8105 66.3941 25.6918 66.3941 25.5344V24.4687H65.9295V25.5853C65.9295 25.8687 66.0204 26.0915 66.1999 26.2441C66.3769 26.3943 66.6153 26.4718 66.9103 26.4718C67.043 26.4718 67.1979 26.4427 67.3725 26.3846C67.4954 26.3434 67.6085 26.2974 67.7092 26.2489V27.3801H68.1739V24.4687H67.783ZM66.4801 25.9534C66.5194 25.9922 66.5661 26.0237 66.6178 26.0479C66.5661 26.0212 66.5219 25.9898 66.4801 25.9534C66.3719 25.8517 66.3203 25.7112 66.3203 25.5344C66.3203 25.7112 66.3744 25.8493 66.4801 25.9534ZM66.9103 26.3991C66.989 26.3991 67.075 26.3894 67.1709 26.3676C67.075 26.387 66.989 26.3991 66.9103 26.3991ZM69.285 26.9513V26.1278H70.8165V25.6991H69.285V24.8998H70.9984V24.4687H68.8204V27.3801H71.0181V26.9513H69.285ZM73.7541 26.6413C73.614 26.7721 73.4739 26.8714 73.3387 26.9344C73.2059 26.9974 73.0486 27.0289 72.8741 27.0289C72.5791 27.0289 72.3283 26.9223 72.1268 26.7116C71.9252 26.4984 71.8244 26.2344 71.8244 25.9244C71.8244 25.6119 71.9252 25.3455 72.1243 25.1347C72.3234 24.924 72.5742 24.8174 72.8741 24.8174C73.1814 24.8174 73.469 24.941 73.732 25.1856L73.7591 25.2098L74.0172 24.9361L73.9901 24.9119C73.8304 24.7617 73.6632 24.6479 73.4936 24.5704C73.3239 24.4929 73.115 24.4541 72.8765 24.4541C72.4611 24.4541 72.112 24.597 71.8342 24.8828C71.5589 25.1662 71.4188 25.515 71.4188 25.9219C71.4188 26.3337 71.5564 26.6825 71.8293 26.9635C72.1022 27.2444 72.4513 27.3873 72.8618 27.3873C73.1101 27.3873 73.3239 27.3462 73.5034 27.2662C73.6804 27.1863 73.85 27.0652 74.0123 26.9078L74.0368 26.8835L73.7787 26.6147L73.7541 26.6413ZM75.7748 25.7548L76.9327 24.5922L77.0556 24.4687H76.441L76.4189 24.4904L74.9341 26.0116V24.4687H74.4695V27.3801H74.9341V26.5953L75.4528 26.077L76.4804 27.3534L76.5025 27.3801H77.0876L76.9917 27.2614L75.7748 25.7548ZM78.7371 24.459C78.3118 24.459 77.9553 24.6043 77.68 24.8901C77.4047 25.1759 77.2646 25.5247 77.2646 25.9244C77.2646 26.3264 77.4022 26.6752 77.6751 26.961C77.948 27.2468 78.302 27.3922 78.7297 27.3922C79.155 27.3922 79.5114 27.2468 79.7868 26.961C80.0621 26.6752 80.2022 26.3264 80.2022 25.9268C80.2022 25.5247 80.0645 25.1759 79.7917 24.8901C79.5163 24.6019 79.1624 24.459 78.7371 24.459ZM79.799 25.9244C79.799 26.2344 79.6983 26.4984 79.4991 26.7116C79.3 26.9223 79.0444 27.0289 78.7371 27.0289C78.4323 27.0289 78.1741 26.9199 77.9725 26.7091C77.771 26.496 77.6677 26.232 77.6677 25.9244C77.6677 25.6143 77.7685 25.3479 77.9676 25.1372C78.1668 24.9264 78.4224 24.8199 78.7297 24.8199C79.0345 24.8199 79.2926 24.9289 79.4942 25.1396C79.6958 25.3527 79.799 25.6167 79.799 25.9244ZM81.188 26.7237V24.505H80.7971V27.3437H81.1634L82.7785 25.1251V27.3437H83.1644V24.505H82.808L81.188 26.7237ZM81.596 24.2022C81.7067 24.2991 81.8443 24.3475 82.0017 24.3475C82.159 24.3475 82.2967 24.2991 82.4073 24.2022C82.5179 24.1053 82.5867 23.9818 82.6113 23.8316L82.6162 23.7977L82.3311 23.7396L82.3212 23.7711C82.2721 23.9406 82.1664 24.0206 81.9992 24.0206C81.832 24.0206 81.7263 23.9382 81.6772 23.7711L81.6673 23.7396L81.3822 23.7977L81.3871 23.8316C81.4166 23.9818 81.4854 24.1077 81.596 24.2022ZM87.491 24.4687H87.4517L87.4295 24.5001L86.4684 25.9195L85.5072 24.5001L85.485 24.4687H85.0524V27.3801H85.5096V25.3067L86.3971 26.5905L86.4192 26.6219H86.5151L86.5372 26.5905L87.4246 25.3043V27.3825H87.8892V24.4711H87.491V24.4687ZM88.9979 26.9513V26.1278H90.5294V25.6991H88.9979V24.8998H90.7113V24.4687H88.5333V27.3801H90.731V26.9513H88.9979ZM93.5236 24.505H91.6135V25.0233C91.6135 25.888 91.4759 26.5493 91.2055 26.9877H90.9006V27.9614H91.2399L91.2964 27.3437H93.5039V27.9614H93.8407L93.8923 26.9877H93.5261V24.505H93.5236ZM93.1327 24.8635V26.9877H91.6455C91.7463 26.8012 91.8298 26.5517 91.8913 26.2441C91.9577 25.905 91.9921 25.5489 91.9921 25.1856V24.8635H93.1327ZM96.3113 24.4687H96.2744L96.2523 24.4977L94.7085 26.6098V24.4662H94.2439V27.3776H94.6642L94.6864 27.3462L96.2253 25.234V27.3776H96.685V24.4662H96.3113V24.4687ZM99.7185 26.9513V24.4687H99.2539V26.9513H97.7961V24.4687H97.3315V27.3801H99.6226V27.9977H100.031L100.033 27.9299L100.082 27.0289L100.087 26.9513H99.7185ZM102.467 24.4687H102.43L102.408 24.4977L100.864 26.6098V24.4662H100.399V27.3776H100.82L100.842 27.3462L102.381 25.234V27.3776H102.84V24.4662H102.467V24.4687ZM105.498 24.4687H105.424V25.6967H103.952V24.4687H103.487V27.3801H103.952V26.1351H105.424V27.3801H105.889V24.4687H105.498ZM109.407 24.4687H109.016V27.3801H109.48V24.4687H109.407ZM108.465 25.7548C108.251 25.6119 107.973 25.5417 107.637 25.5417H107V24.4711H106.535V27.3825H107.683C108.018 27.3825 108.29 27.2977 108.492 27.1282C108.696 26.9562 108.802 26.7212 108.802 26.4282C108.802 26.1278 108.689 25.9026 108.465 25.7548ZM108.17 26.8157C108.054 26.9053 107.887 26.9513 107.676 26.9513H107V25.9655H107.656C107.877 25.9655 108.05 26.0067 108.17 26.0915C108.283 26.169 108.337 26.2828 108.337 26.4354C108.337 26.605 108.283 26.7285 108.17 26.8157ZM107.656 25.8929C107.787 25.8929 107.902 25.9074 108 25.9365C107.902 25.9074 107.789 25.8929 107.656 25.8929ZM108.165 26.9078C108.153 26.915 108.138 26.9223 108.123 26.9296C108.138 26.9247 108.153 26.9174 108.165 26.9078ZM108.399 26.3095C108.394 26.2828 108.386 26.2586 108.377 26.2368C108.386 26.261 108.394 26.2853 108.399 26.3095ZM0.507324 0.24962V27.3898H19.5836V0.24962H0.507324ZM11.159 1.36381H18.4503V8.54789C17.7497 6.94685 16.759 5.5081 15.5004 4.26796C14.2466 3.03024 12.784 2.05412 11.159 1.36381ZM12.1718 26.106L12.2382 26.0721C12.2653 26.0576 12.2898 26.0406 12.3144 26.0261C12.3341 26.0116 12.3538 25.9994 12.3734 25.9898C12.7987 25.7572 13.1429 25.5489 13.4551 25.3334C13.4723 25.3212 13.487 25.3091 13.5018 25.2994C13.5141 25.2898 13.5264 25.2801 13.5362 25.2728C15.1832 24.1538 16.5353 22.7562 17.5481 21.1188C17.88 20.5835 18.1823 19.9998 18.4503 19.3821V26.278H11.8326C11.9457 26.2199 12.0588 26.1642 12.1718 26.106ZM18.4527 13.9735C18.4527 14.1382 18.4503 14.3078 18.4429 14.4797C18.2635 18.9074 15.6896 22.9693 11.7244 25.079C11.6999 25.0911 11.6753 25.1057 11.6482 25.1178V20.9808H11.6532V19.8666H6.59648V20.9808H10.5174V25.6119C10.0626 25.7839 9.67915 25.9026 9.31041 25.9873C8.58276 26.1545 7.94607 26.2271 7.36837 26.215C6.74397 26.2005 6.1294 26.0818 5.54433 25.8687C4.99368 25.6676 4.47744 25.3818 4.01283 25.0233C3.55804 24.6721 3.1598 24.2555 2.83039 23.788C2.49361 23.3084 2.23549 22.7828 2.06341 22.2233C1.87904 21.6275 1.79792 21.005 1.82005 20.3728C1.84217 19.76 1.96263 19.1593 2.18141 18.5877C2.38791 18.0475 2.67798 17.5413 3.04426 17.0835C3.40563 16.633 3.83091 16.2406 4.31274 15.9161C4.80685 15.5818 5.34767 15.3299 5.91799 15.1652C6.43915 15.015 6.97997 14.9375 7.5257 14.9375C7.59945 14.9375 7.6732 14.9399 7.74695 14.9424C8.37627 14.9666 8.99084 15.0901 9.57345 15.3105C9.85123 15.4147 10.1216 15.543 10.3773 15.6884L10.4412 15.7247L11.0066 14.7607L10.9427 14.7244C10.633 14.5475 10.3085 14.3949 9.97661 14.2714C9.27846 14.0074 8.54343 13.8597 7.78874 13.8306C7.04634 13.8039 6.30886 13.8936 5.59841 14.0994C4.91256 14.2981 4.26357 14.6008 3.67113 15.0005C3.09589 15.388 2.58457 15.8579 2.15437 16.3981C1.97491 16.6233 1.80283 16.8728 1.63813 17.1586V2.01536C2.94839 1.58907 4.30044 1.37108 5.65495 1.37108C7.38312 1.37108 9.05967 1.70533 10.6379 2.36173C12.162 2.99633 13.5313 3.90706 14.7063 5.06484C15.8814 6.22263 16.8057 7.57176 17.4498 9.07349C18.1135 10.6212 18.4527 12.2707 18.4527 13.9735ZM3.31222 25.8977C3.47692 26.0261 3.65638 26.1472 3.86287 26.2756H1.63567V23.9963C1.7168 24.1392 1.80038 24.2821 1.89625 24.4178C2.29203 24.9797 2.76894 25.4763 3.31222 25.8977Z" fill="#BCA489"/>
</g>
<defs>
<clipPath id="clip0_476_2063">
<rect width="109" height="28" fill="white" transform="translate(0.5)"/>
</clipPath>
</defs>
</svg>
