<svg width="50" height="50" viewBox="0 0 50 50" fill="none" xmlns="http://www.w3.org/2000/svg">
<path d="M24.5871 1.26562C37.6988 1.2658 48.3312 11.8966 48.3312 25.0107C48.3311 38.1247 37.6987 48.7547 24.5871 48.7549C11.4706 48.7549 0.842157 38.1249 0.84198 25.0107C0.84198 11.8965 11.4705 1.26562 24.5871 1.26562Z" fill="white" stroke="white"/>
<path fill-rule="evenodd" clip-rule="evenodd" d="M41.66 24.8945C41.66 23.664 41.5496 22.4807 41.3445 21.3448H25V28.0577H34.3397C33.9374 30.227 32.7147 32.065 30.8767 33.2955V37.6499H36.4853C39.7668 34.6287 41.66 30.1797 41.66 24.8945Z" fill="#4285F4"/>
<path fill-rule="evenodd" clip-rule="evenodd" d="M25 41.8542C29.6856 41.8542 33.614 40.3002 36.4853 37.6498L30.8767 33.2955C29.3228 34.3367 27.3349 34.952 25 34.952C20.48 34.952 16.6542 31.8992 15.2895 27.7973H9.49164V32.2936C12.3472 37.9653 18.2161 41.8542 25 41.8542Z" fill="#34A853"/>
<path fill-rule="evenodd" clip-rule="evenodd" d="M15.2895 27.7974C14.9424 26.7562 14.7452 25.6439 14.7452 24.5001C14.7452 23.3563 14.9424 22.2441 15.2895 21.2028V16.7065H9.49164C8.31629 19.0493 7.64578 21.6998 7.64578 24.5001C7.64578 27.3005 8.31629 29.9509 9.49164 32.2937L15.2895 27.7974Z" fill="#FBBC05"/>
<path fill-rule="evenodd" clip-rule="evenodd" d="M25 14.0481C27.5479 14.0481 29.8355 14.9237 31.634 16.6434L36.6115 11.6659C33.6061 8.86555 29.6777 7.1459 25 7.1459C18.2161 7.1459 12.3472 11.0348 9.49164 16.7065L15.2895 21.2028C16.6542 17.1009 20.48 14.0481 25 14.0481Z" fill="#EA4335"/>
</svg>
