<svg width="24" height="24" viewBox="0 0 24 24" fill="none" xmlns="http://www.w3.org/2000/svg">
<path d="M11.0621 1.5345C11.3843 0.663887 12.6157 0.663887 12.9379 1.53451L15.3516 8.05758C15.4529 8.3313 15.6687 8.54711 15.9424 8.64839L22.4655 11.0621C23.3361 11.3843 23.3361 12.6157 22.4655 12.9379L15.9424 15.3516C15.6687 15.4529 15.4529 15.6687 15.3516 15.9424L12.9379 22.4655C12.6157 23.3361 11.3843 23.3361 11.0621 22.4655L8.64839 15.9424C8.54711 15.6687 8.3313 15.4529 8.05758 15.3516L1.5345 12.9379C0.663887 12.6157 0.663887 11.3843 1.53451 11.0621L8.05758 8.64839C8.3313 8.54711 8.54711 8.3313 8.64839 8.05758L11.0621 1.5345Z" fill="black"/>
</svg>
