<svg width="50" height="49" viewBox="0 0 50 49" fill="none" xmlns="http://www.w3.org/2000/svg">
<path d="M25.0952 1.25C37.9339 1.25 48.3452 11.6591 48.3452 24.5C48.3452 37.3409 37.9339 47.75 25.0952 47.75C12.2519 47.75 1.84521 37.341 1.84521 24.5C1.84521 11.659 12.2519 1.25 25.0952 1.25Z" fill="#FC3F1D" stroke="white"/>
<path d="M28.1348 14.2068H25.9403C21.9171 14.2068 19.8009 16.2446 19.8009 19.249C19.8009 22.6452 21.264 24.2365 24.2683 26.2766L26.7502 27.9486L19.6181 38.6052H14.2886L20.6892 29.072C17.008 26.4333 14.9417 23.8707 14.9417 19.5363C14.9417 14.1023 18.7298 10.3926 25.9142 10.3926H33.0463V38.5791H28.1348V14.2068Z" fill="white"/>
</svg>
