<svg width="99" height="99" viewBox="0 0 99 99" fill="none" xmlns="http://www.w3.org/2000/svg">
<path d="M49.6924 2.51514C75.6372 2.51514 96.6776 23.5501 96.6777 49.4995C96.6777 75.4491 75.6373 96.4849 49.6924 96.4849C23.7381 96.4847 2.70801 75.4491 2.70801 49.4995C2.70818 23.55 23.7382 2.51531 49.6924 2.51514Z" fill="#FC3F1D" stroke="white" stroke-width="2"/>
<path d="M55.8337 28.7034H51.3999C43.2713 28.7034 38.9959 32.8205 38.9959 38.8906C38.9959 45.7524 41.9518 48.9673 48.0218 53.0892L53.0362 56.4674L38.6264 77.9981H27.8586L40.7905 58.737C33.3529 53.4059 29.1782 48.2284 29.1782 39.4712C29.1782 28.4923 36.8318 20.9971 51.3472 20.9971H65.757V77.9453H55.8337V28.7034Z" fill="white"/>
</svg>
