<svg width="99" height="99" viewBox="0 0 99 99" fill="none" xmlns="http://www.w3.org/2000/svg">
<path d="M49.1729 2.03125C75.6726 2.03125 97.1629 23.516 97.1631 50.0205C97.1631 76.5251 75.6727 98.0107 49.1729 98.0107C22.6635 98.0106 1.18359 76.5251 1.18359 50.0205C1.18377 23.5161 22.6636 2.03142 49.1729 2.03125Z" fill="white" stroke="white"/>
<path fill-rule="evenodd" clip-rule="evenodd" d="M83.32 49.7889C83.32 47.3278 83.0992 44.9613 82.689 42.6895H50V56.1153H68.6794C67.8748 60.4538 65.4295 64.1298 61.7535 66.5909V75.2996H72.9706C79.5337 69.2571 83.32 60.3592 83.32 49.7889Z" fill="#4285F4"/>
<path fill-rule="evenodd" clip-rule="evenodd" d="M49.9991 83.7085C59.3704 83.7085 67.2271 80.6005 72.9697 75.2996L61.7526 66.591C58.6446 68.6735 54.669 69.904 49.9991 69.904C40.9591 69.904 33.3075 63.7985 30.5782 55.5947H18.9824V64.5874C24.6935 75.9307 36.4313 83.7085 49.9991 83.7085Z" fill="#34A853"/>
<path fill-rule="evenodd" clip-rule="evenodd" d="M30.5785 55.5949C29.8843 53.5124 29.4899 51.2879 29.4899 49.0003C29.4899 46.7127 29.8843 44.4882 30.5785 42.4057V33.4131H18.9827C16.632 38.0987 15.291 43.3996 15.291 49.0003C15.291 54.601 16.632 59.9019 18.9827 64.5875L30.5785 55.5949Z" fill="#FBBC05"/>
<path fill-rule="evenodd" clip-rule="evenodd" d="M49.9993 28.0965C55.0952 28.0965 59.6704 29.8477 63.2674 33.2869L73.2224 23.332C67.2115 17.7313 59.3548 14.292 49.9993 14.292C36.4315 14.292 24.6938 22.0698 18.9827 33.4132L30.5784 42.4058C33.3078 34.202 40.9594 28.0965 49.9993 28.0965Z" fill="#EA4335"/>
</svg>
