<svg width="94" height="81" viewBox="0 0 94 81" fill="none" xmlns="http://www.w3.org/2000/svg">
<path fill-rule="evenodd" clip-rule="evenodd" d="M78.8916 39.0284C78.9259 41.1728 78.7697 43.316 78.4246 45.4321C82.504 42.2124 88.9974 41.2224 93.3498 43.461C92.8388 51.1133 83.9489 60.2104 75.6317 54.6094C75.0179 55.9372 74.3265 57.2267 73.5612 58.4713C78.4511 57.6953 84.0634 59.2829 87.1383 62.7612C83.7022 70.2886 71.8431 76.2374 65.4202 67.8449C61.9659 70.7426 58.1506 73.1684 54.0721 75.0601C56.31 75.6666 58.6536 76.2106 61.1206 76.6744L59.473 81C55.2505 80.275 51.0886 79.2255 47.0236 77.8606C42.9593 79.2279 38.7972 80.2775 34.5742 81L32.9266 76.6744C77.6845 68.3354 82.2661 36.112 66.2308 14.93C61.5876 11.6122 63.7638 3.12156 67.288 0C71.1383 3.13048 76.0986 10.3636 70.6977 14.7873C71.7192 16.239 72.6575 17.7487 73.5083 19.3091C74.3013 14.8497 79.2264 10.6579 83.1295 9.95331C85.1295 15.367 85.6846 25.8554 76.3453 25.5611C77.0936 27.6134 77.6828 29.7217 78.1075 31.8667C80.6802 26.3103 88.4687 22.8587 93.9666 24.8119C94.5393 32.3661 87.6846 42.9437 78.8916 39.0284ZM35.2967 72.5629C32.9469 71.1819 30.7159 69.6037 28.627 67.8449C22.2041 76.2374 10.345 70.2886 6.90888 62.7612C9.98378 59.2829 15.5961 57.6953 20.486 58.4713C19.7208 57.2267 19.0294 55.9372 18.4155 54.6094C10.0983 60.2104 1.20841 51.1133 0.697397 43.461C5.00579 41.2224 11.5433 42.2124 15.6226 45.4321C15.2776 43.316 15.1213 41.1728 15.1556 39.0284C6.345 42.9437 -0.492036 32.3661 0.0277898 24.8119C5.54323 22.8587 13.3318 26.3103 15.8869 31.8667C16.3116 29.7217 16.9008 27.6134 17.649 25.5611C8.30977 25.8554 8.8384 15.367 10.8648 9.95331C14.7679 10.6579 19.6755 14.8319 20.486 19.3091C21.3368 17.7487 22.2752 16.239 23.2966 14.7873C17.9486 10.3636 22.8825 3.13048 26.7592 0C30.3275 3.12156 32.4949 11.5944 27.8429 14.93C14.8649 32.0361 15.3759 56.3397 39.6227 69.4502L35.2967 72.5629Z" fill="url(#paint0_linear_803_6252)"/>
<path d="M34 53V48.972L41.6709 41.9986C44.1013 39.7832 46.0591 37.8783 47.5443 36.2839C49.0295 34.6727 50.1097 33.221 50.7848 31.9287C51.4599 30.6364 51.7975 29.3273 51.7975 28.0014C51.7975 26.0713 51.1308 24.5692 49.7975 23.4951C48.481 22.4042 46.6414 21.8587 44.2785 21.8587C42.7089 21.8587 41.2068 22.1273 39.7722 22.6643C38.3376 23.2014 37.1139 23.9818 36.1013 25.0056L34.0253 20.9021C35.4599 19.6266 37.1139 18.6615 38.9873 18.007C40.8608 17.3357 42.827 17 44.8861 17C47.3333 17 49.4684 17.4364 51.2911 18.3091C53.1308 19.165 54.557 20.3818 55.5696 21.9594C56.5992 23.5203 57.1139 25.3496 57.1139 27.4476C57.1139 28.9077 56.8186 30.3678 56.2278 31.828C55.654 33.2713 54.616 34.8993 53.1139 36.7119C51.6287 38.5245 49.519 40.6979 46.7848 43.2322L41.3418 48.2168H58V53H34Z" fill="url(#paint1_linear_803_6252)"/>
<defs>
<linearGradient id="paint0_linear_803_6252" x1="47" y1="0" x2="47" y2="81" gradientUnits="userSpaceOnUse">
<stop stop-color="#ED1A3B"/>
<stop offset="1" stop-color="#FF526D"/>
</linearGradient>
<linearGradient id="paint1_linear_803_6252" x1="46" y1="17" x2="46" y2="53" gradientUnits="userSpaceOnUse">
<stop stop-color="#ED1A3B"/>
<stop offset="1" stop-color="#FF526D"/>
</linearGradient>
</defs>
</svg>
