<svg width="94" height="81" viewBox="0 0 94 81" fill="none" xmlns="http://www.w3.org/2000/svg">
<path fill-rule="evenodd" clip-rule="evenodd" d="M78.8916 39.0284C78.9259 41.1728 78.7697 43.316 78.4246 45.4321C82.504 42.2124 88.9974 41.2224 93.3498 43.461C92.8388 51.1133 83.9489 60.2104 75.6317 54.6094C75.0179 55.9372 74.3265 57.2267 73.5612 58.4713C78.4511 57.6953 84.0634 59.2829 87.1383 62.7612C83.7022 70.2886 71.8431 76.2374 65.4202 67.8449C61.9659 70.7426 58.1506 73.1684 54.0721 75.0601C56.31 75.6666 58.6536 76.2106 61.1206 76.6744L59.473 81C55.2505 80.275 51.0886 79.2255 47.0236 77.8606C42.9593 79.2279 38.7972 80.2775 34.5742 81L32.9266 76.6744C77.6845 68.3354 82.2661 36.112 66.2308 14.93C61.5876 11.6122 63.7638 3.12156 67.288 0C71.1383 3.13048 76.0986 10.3636 70.6977 14.7873C71.7192 16.239 72.6575 17.7487 73.5083 19.3091C74.3013 14.8497 79.2264 10.6579 83.1295 9.95331C85.1295 15.367 85.6846 25.8554 76.3453 25.5611C77.0936 27.6134 77.6828 29.7217 78.1075 31.8667C80.6802 26.3103 88.4687 22.8587 93.9666 24.8119C94.5393 32.3661 87.6846 42.9437 78.8916 39.0284ZM35.2967 72.5629C32.9469 71.1819 30.7159 69.6037 28.627 67.8449C22.2041 76.2374 10.345 70.2886 6.90888 62.7612C9.98378 59.2829 15.5961 57.6953 20.486 58.4713C19.7208 57.2267 19.0294 55.9372 18.4155 54.6094C10.0983 60.2104 1.20841 51.1133 0.697397 43.461C5.00579 41.2224 11.5433 42.2124 15.6226 45.4321C15.2776 43.316 15.1213 41.1728 15.1556 39.0284C6.345 42.9437 -0.492036 32.3661 0.0277898 24.8119C5.54323 22.8587 13.3318 26.3103 15.8869 31.8667C16.3116 29.7217 16.9008 27.6134 17.649 25.5611C8.30977 25.8554 8.8384 15.367 10.8648 9.95331C14.7679 10.6579 19.6755 14.8319 20.486 19.3091C21.3368 17.7487 22.2752 16.239 23.2966 14.7873C17.9486 10.3636 22.8825 3.13048 26.7592 0C30.3275 3.12156 32.4949 11.5944 27.8429 14.93C14.8649 32.0361 15.3759 56.3397 39.6227 69.4502L35.2967 72.5629Z" fill="#B2B5BE"/>
<path d="M45.6339 53C44.2385 53 42.8591 52.8531 41.4958 52.5594C40.1485 52.2657 38.9055 51.866 37.7667 51.3601C36.644 50.838 35.7218 50.2424 35 49.5734L36.8044 45.0699C37.8149 46.0326 39.098 46.7995 40.6538 47.3706C42.2096 47.9417 43.7573 48.2273 45.2971 48.2273C46.8208 48.2273 48.144 47.9662 49.2667 47.4441C50.3895 46.9219 51.2556 46.1876 51.8651 45.2413C52.4906 44.2949 52.8033 43.1772 52.8033 41.8881C52.8033 39.9301 52.0976 38.4044 50.6862 37.3112C49.2908 36.2179 47.4303 35.6713 45.1046 35.6713C44.4791 35.6713 43.8295 35.7203 43.1559 35.8182C42.4822 35.8998 41.8006 36.0221 41.1109 36.1853L39.5471 32.5874L50.0847 22.6014H35.2646V18H56.4843V22.2343L46.4519 32.1469C48.4568 32.1142 50.3414 32.465 52.1056 33.1993C53.8699 33.9336 55.2894 35.0513 56.364 36.5524C57.4547 38.0373 58 39.9138 58 42.1818C58 44.3357 57.4707 46.2284 56.4121 47.8601C55.3536 49.4755 53.894 50.7401 52.0335 51.6538C50.1729 52.5513 48.0397 53 45.6339 53Z" fill="#B2B5BE"/>
</svg>
