<svg width="93" height="81" viewBox="0 0 93 81" fill="none" xmlns="http://www.w3.org/2000/svg">
<rect width="24" height="24" rx="4" fill="#743FDD" fill-opacity="0.12"/>
<rect x="1" y="1" width="22" height="22" rx="3" stroke="#743FDD" stroke-opacity="0.24" stroke-width="2"/>
<path d="M32.672 16.24C31.8347 16.24 31.0587 16.0933 30.344 15.8C29.6347 15.5013 29.0133 15.088 28.48 14.56C27.952 14.032 27.5413 13.4133 27.248 12.704C26.9547 11.9947 26.808 11.2267 26.808 10.4C26.808 9.568 26.9547 8.79733 27.248 8.088C27.5413 7.37867 27.952 6.76 28.48 6.232C29.0133 5.704 29.6347 5.29333 30.344 5C31.0587 4.70667 31.8347 4.56 32.672 4.56C33.504 4.56 34.2747 4.70933 34.984 5.008C35.6933 5.30667 36.3147 5.72267 36.848 6.256C37.3813 6.78933 37.7947 7.41067 38.088 8.12C38.3867 8.824 38.536 9.584 38.536 10.4C38.536 11.2267 38.3867 11.9947 38.088 12.704C37.7947 13.4133 37.3813 14.032 36.848 14.56C36.3147 15.088 35.6933 15.5013 34.984 15.8C34.2747 16.0933 33.504 16.24 32.672 16.24ZM32.672 14.808C33.2747 14.808 33.8347 14.704 34.352 14.496C34.8747 14.288 35.3307 13.992 35.72 13.608C36.1093 13.2187 36.4133 12.752 36.632 12.208C36.856 11.664 36.968 11.0613 36.968 10.4C36.968 9.50933 36.776 8.73333 36.392 8.072C36.0133 7.41067 35.4987 6.89867 34.848 6.536C34.1973 6.168 33.472 5.984 32.672 5.984C32.0693 5.984 31.5067 6.09067 30.984 6.304C30.4667 6.512 30.0107 6.81067 29.616 7.2C29.2267 7.584 28.9227 8.048 28.704 8.592C28.4853 9.13067 28.376 9.73333 28.376 10.4C28.376 11.2853 28.5653 12.0587 28.944 12.72C29.328 13.3813 29.8453 13.896 30.496 14.264C31.1467 14.6267 31.872 14.808 32.672 14.808ZM40.6158 16V8.16H42.0878V14.752H46.1758V8.16H47.6478V16H40.6158ZM48.2798 18.4V16H46.8478V14.752H49.6318V18.4H48.2798ZM54.6594 16.24C53.8274 16.24 53.094 16.0667 52.4594 15.72C51.8247 15.3733 51.3287 14.8907 50.9714 14.272C50.614 13.648 50.4354 12.9227 50.4354 12.096C50.4354 11.4987 50.5367 10.944 50.7394 10.432C50.9474 9.92 51.2354 9.47733 51.6034 9.104C51.9767 8.73067 52.4114 8.44 52.9074 8.232C53.4087 8.024 53.9527 7.92 54.5394 7.92C55.174 7.92 55.7394 8.032 56.2354 8.256C56.7367 8.48 57.15 8.79467 57.4754 9.2C57.806 9.6 58.0434 10.072 58.1874 10.616C58.3314 11.1547 58.3607 11.7413 58.2754 12.376H51.8914C51.8754 12.8987 51.982 13.3573 52.2114 13.752C52.4407 14.1413 52.7714 14.4453 53.2034 14.664C53.6407 14.8827 54.158 14.992 54.7554 14.992C55.1927 14.992 55.6194 14.9227 56.0354 14.784C56.4514 14.6453 56.8194 14.44 57.1394 14.168L57.7634 15.264C57.5074 15.472 57.2034 15.6507 56.8514 15.8C56.5047 15.944 56.142 16.0533 55.7634 16.128C55.3847 16.2027 55.0167 16.24 54.6594 16.24ZM51.9714 11.232H56.8034C56.782 10.5707 56.5767 10.056 56.1874 9.688C55.798 9.31467 55.2407 9.128 54.5154 9.128C53.8114 9.128 53.23 9.31467 52.7714 9.688C52.3127 10.056 52.046 10.5707 51.9714 11.232ZM60.1783 16V8.16H61.6503V11.248H65.8983V8.16H67.3703V16H65.8983V12.496H61.6503V16H60.1783ZM75.1686 16L72.5206 11.816L74.8966 8.16H76.4806L74.1126 11.744L76.9446 16H75.1686ZM69.9126 16V8.16H71.3846V11.248H73.7286V12.496H71.3846V16H69.9126ZM80.7681 16.24C80.2135 16.24 79.7308 16.1387 79.3201 15.936C78.9095 15.7333 78.5921 15.448 78.3681 15.08C78.1441 14.7067 78.0321 14.2667 78.0321 13.76C78.0321 13.344 78.1388 12.9653 78.3521 12.624C78.5655 12.2773 78.9015 11.992 79.3601 11.768C79.8188 11.5387 80.4135 11.3867 81.1441 11.312C81.8748 11.232 82.7575 11.2453 83.7921 11.352L83.8321 12.432C83.0321 12.3253 82.3521 12.2853 81.7921 12.312C81.2321 12.3333 80.7788 12.408 80.4321 12.536C80.0855 12.6587 79.8295 12.824 79.6641 13.032C79.5041 13.2347 79.4241 13.464 79.4241 13.72C79.4241 14.1307 79.5708 14.4533 79.8641 14.688C80.1628 14.9173 80.5708 15.032 81.0881 15.032C81.5308 15.032 81.9255 14.952 82.2721 14.792C82.6241 14.6267 82.9015 14.4 83.1041 14.112C83.3121 13.8187 83.4161 13.48 83.4161 13.096V10.904C83.4161 10.536 83.3335 10.216 83.1681 9.944C83.0081 9.672 82.7708 9.46133 82.4561 9.312C82.1415 9.16267 81.7548 9.088 81.2961 9.088C80.8855 9.088 80.4775 9.14933 80.0721 9.272C79.6668 9.39467 79.2775 9.59467 78.9041 9.872L78.4561 8.736C78.9415 8.40533 79.4428 8.17333 79.9601 8.04C80.4775 7.90667 80.9735 7.84 81.4481 7.84C82.1681 7.84 82.7815 7.95467 83.2881 8.184C83.7948 8.408 84.1815 8.74667 84.4481 9.2C84.7148 9.65333 84.8481 10.2187 84.8481 10.896V16H83.4961V15.04C83.2241 15.4293 82.8481 15.728 82.3681 15.936C81.8881 16.1387 81.3548 16.24 80.7681 16.24Z" fill="black"/>
<g clip-path="url(#clip0_2056_14644)">
<rect y="40" width="24" height="24" rx="4" fill="#743FDD"/>
<path d="M19.8695 47.5242L10.5142 57.8558C10.4314 57.9481 10.3186 58 10.2009 58C10.0832 58 9.97045 57.9481 9.88759 57.8558L5.13053 52.6023C5.04699 52.5108 5 52.3863 5 52.2563C5 52.1264 5.04699 52.0018 5.13053 51.9103L5.74833 51.228C5.83119 51.1358 5.94398 51.0839 6.06164 51.0839C6.17931 51.0839 6.2921 51.1358 6.37496 51.228L10.1965 55.4484L18.625 46.1402C18.7996 45.9533 19.0771 45.9533 19.2517 46.1402L19.8695 46.8322C19.953 46.9237 20 47.0483 20 47.1782C20 47.3082 19.953 47.4327 19.8695 47.5242Z" fill="white"/>
</g>
<path d="M29.68 56V46.184H26.472V44.8H34.392V46.184H31.184V56H29.68ZM39.3474 56.24C38.6434 56.24 38.022 56.104 37.4834 55.832C36.9447 55.5547 36.5207 55.1787 36.2114 54.704C35.9074 54.224 35.7554 53.6747 35.7554 53.056C35.7554 52.592 35.8647 52.1547 36.0834 51.744C36.302 51.3333 36.6114 50.968 37.0114 50.648C37.4167 50.3227 37.902 50.056 38.4674 49.848C38.1154 49.5013 37.838 49.1893 37.6354 48.912C37.4327 48.6293 37.2887 48.3547 37.2034 48.088C37.118 47.8213 37.0754 47.528 37.0754 47.208C37.0754 46.7227 37.2087 46.28 37.4754 45.88C37.7474 45.4747 38.1074 45.1547 38.5554 44.92C39.0087 44.68 39.5047 44.56 40.0434 44.56C40.614 44.56 41.1234 44.672 41.5714 44.896C42.0194 45.12 42.3714 45.4293 42.6274 45.824C42.8887 46.2187 43.0194 46.672 43.0194 47.184C43.0194 47.7867 42.8007 48.3307 42.3634 48.816C41.926 49.296 41.2914 49.7253 40.4594 50.104L43.0594 52.768C43.3687 52.3733 43.6567 51.9173 43.9234 51.4C44.1954 50.8773 44.446 50.2667 44.6754 49.568L45.8994 50.072C45.75 50.504 45.5714 50.936 45.3634 51.368C45.1554 51.7947 44.9234 52.2053 44.6674 52.6C44.4167 52.9893 44.158 53.3467 43.8914 53.672L46.0914 56H44.3074L43.0194 54.656C42.4914 55.1627 41.9074 55.5547 41.2674 55.832C40.6327 56.104 39.9927 56.24 39.3474 56.24ZM39.4274 54.96C39.934 54.96 40.4194 54.8587 40.8834 54.656C41.3474 54.448 41.7794 54.1413 42.1794 53.736L39.2674 50.72C38.6007 50.944 38.086 51.2587 37.7234 51.664C37.366 52.064 37.1874 52.5173 37.1874 53.024C37.1874 53.616 37.3874 54.088 37.7874 54.44C38.1927 54.7867 38.7394 54.96 39.4274 54.96ZM39.6754 49.32C40.3367 49.0747 40.8327 48.7787 41.1634 48.432C41.4994 48.0853 41.6674 47.696 41.6674 47.264C41.6674 46.8267 41.518 46.4667 41.2194 46.184C40.9207 45.9013 40.5367 45.76 40.0674 45.76C39.6087 45.76 39.222 45.8987 38.9074 46.176C38.598 46.448 38.4434 46.7973 38.4434 47.224C38.4434 47.5707 38.534 47.8987 38.7154 48.208C38.902 48.512 39.222 48.8827 39.6754 49.32ZM48.254 56V44.8H49.718L54.39 52.36H53.814L58.326 44.8H59.75V56H58.278L58.294 46.848L58.59 46.944L54.59 53.48H53.43L49.382 46.944L49.614 46.848L49.63 56H48.254Z" fill="black"/>
<defs>
<clipPath id="clip0_2056_14644">
<rect y="40" width="24" height="24" rx="4" fill="white"/>
</clipPath>
</defs>
</svg>
