<svg width="93" height="81" viewBox="0 0 93 81" fill="none" xmlns="http://www.w3.org/2000/svg">
<path fill-rule="evenodd" clip-rule="evenodd" d="M90 40.2622C89.0542 45.1284 83.0741 50.6221 78.0474 47.2938C77.6286 48.7755 77.0982 50.2232 76.4608 51.6244C79.7484 50.033 84.5004 50.4997 87.0557 52.818C85.3624 57.7838 77.7804 62.191 73.2648 56.8503C72.3914 57.9411 71.4185 58.9478 70.3587 59.8573C74.0276 59.8573 77.9864 62.0379 79.5653 65.1368C75.8201 69.6358 66.3694 71.3879 63.9895 63.7825C62.0247 64.6129 59.9799 65.2385 57.8874 65.6494L57.7882 62.2216C74.8972 58.1051 77.4219 42.8407 76.5981 28.4637C72.7843 26.0536 75.1794 19.9095 78.0779 18.0273C80.3662 20.4604 83.0359 25.6787 79.1916 28.2036C79.3034 29.2595 79.395 30.3154 79.4661 31.3713C80.3561 30.239 81.4957 29.3291 82.7954 28.7131C84.0951 28.0971 85.5194 27.7918 86.9566 27.821C87.3303 31.7615 85.8353 38.816 79.5729 36.7961C79.5348 38.2498 79.4356 39.673 79.2755 41.0809C82.1892 38.7166 87.0633 38.2498 90 40.2622ZM21.5719 41.9072V3H69.3442V41.9072C69.3442 52.9711 68.9704 53.5067 45.4542 62.3899C21.9152 53.7056 21.5719 52.9022 21.5719 41.9072ZM31.6023 61.8008L31.5413 65.3051C29.9929 64.9165 28.4778 64.4048 27.0105 63.7748C24.6306 71.3803 15.1799 69.6281 11.4347 65.1291C13.006 62.0685 16.9724 59.8803 20.6413 59.8497C19.5815 58.9401 18.6086 57.9334 17.7352 56.8427C13.2196 62.1986 5.63764 57.7761 3.94429 52.8104C6.49957 50.515 11.2516 50.0253 14.5392 51.6168C13.9018 50.2156 13.3714 48.7679 12.9526 47.2861C7.92595 50.6145 1.94583 45.1208 1 40.2545C3.93666 38.2422 8.81076 38.7242 11.7398 41.0732C11.5796 39.6654 11.4805 38.2422 11.4423 36.7884C5.17998 38.8084 3.68495 31.7538 4.05871 27.8134C5.49585 27.7841 6.9202 28.0895 8.21986 28.7055C9.51952 29.3215 10.6591 30.2313 11.5491 31.3636C11.6203 30.3077 11.7118 29.2518 11.8237 28.1959C8.00986 25.6863 10.649 20.4528 12.9374 18.0196C15.8359 19.9019 18.2233 26.0459 14.4171 28.4561C13.6162 42.3739 15.9579 57.1105 31.6023 61.7854V61.8008Z" fill="#B2B5BE"/>
<path d="M44.9867 42.9999C43.6304 42.9999 42.3266 42.7888 41.0754 42.3664C39.8347 41.944 38.8096 41.3789 38 40.6712L39.1355 37.5547C39.861 38.2397 40.7284 38.7648 41.7378 39.1301C42.7472 39.484 43.767 39.6609 44.7974 39.6609C45.8278 39.6609 46.7215 39.4783 47.4786 39.113C48.2356 38.7362 48.8191 38.1997 49.2292 37.5034C49.6392 36.807 49.8443 35.9623 49.8443 34.9691C49.8443 34.0559 49.6287 33.2739 49.1976 32.6232C48.7666 31.9611 48.1672 31.4531 47.3997 31.0993C46.6427 30.7454 45.7805 30.5684 44.8132 30.5684C44.1929 30.5684 43.5515 30.6483 42.8891 30.8082C42.2267 30.968 41.5485 31.2134 40.8546 31.5445L39.4036 29.8493L40.5392 18.5479L52.7146 18.5308V21.8869H43.0468L42.3844 28.1369C42.9312 27.9429 43.4726 27.7945 44.0089 27.6917C44.5556 27.589 45.0971 27.5376 45.6333 27.5376C47.0843 27.5376 48.3828 27.8401 49.5288 28.4451C50.6749 29.0388 51.5791 29.9006 52.2415 31.0308C52.9144 32.1609 53.2509 33.5136 53.2509 35.089C53.2509 36.6872 52.8986 38.0798 52.1942 39.2671C51.5002 40.4543 50.5329 41.3732 49.2923 42.0239C48.0516 42.6746 46.6164 42.9999 44.9867 42.9999Z" fill="#F3F7FA"/>
</svg>
