<svg width="93" height="81" viewBox="0 0 93 81" fill="none" xmlns="http://www.w3.org/2000/svg">
<g clip-path="url(#clip0_803_6290)">
<path d="M41.7611 19.4239C41.7611 26.0197 45.5942 31.7197 51.1525 34.4208L43.2038 12.6423C42.2792 14.7147 41.7611 17.0081 41.7611 19.4239ZM69.6737 18.583C69.6737 16.5236 68.9339 15.0974 68.2995 13.9874C67.4548 12.6148 66.663 11.4524 66.663 10.0798C66.663 8.54798 67.8248 7.1221 69.4612 7.1221C69.5351 7.1221 69.6052 7.13129 69.6771 7.13541C66.7125 4.41937 62.7627 2.76107 58.4245 2.76107C52.6031 2.76107 47.4814 5.7479 44.5019 10.2719C44.8928 10.2836 45.2612 10.2919 45.5742 10.2919C47.3171 10.2919 50.0151 10.0804 50.0151 10.0804C50.9134 10.0274 51.0193 11.3468 50.122 11.453C50.122 11.453 49.2193 11.5592 48.2148 11.6119L54.2829 29.6612L57.9296 18.7244L55.3334 11.6112C54.4361 11.5586 53.586 11.4524 53.586 11.4524C52.688 11.3997 52.7933 10.0268 53.6913 10.0798C53.6913 10.0798 56.4431 10.2912 58.0805 10.2912C59.8231 10.2912 62.5214 10.0798 62.5214 10.0798C63.4203 10.0268 63.5259 11.3461 62.6283 11.4524C62.6283 11.4524 61.7237 11.5586 60.7211 11.6112L66.743 29.524L68.4051 23.9698C69.1254 21.665 69.6737 20.0095 69.6737 18.583ZM58.7169 20.8815L53.7173 35.4095C55.21 35.8483 56.7888 36.0883 58.4245 36.0883C60.365 36.0883 62.2259 35.7529 63.9581 35.1438C63.9134 35.0724 63.8728 34.9966 63.8395 34.9142L58.7169 20.8815ZM73.046 11.4292C73.1177 11.96 73.1583 12.5298 73.1583 13.1427C73.1583 14.8336 72.8425 16.7345 71.8913 19.1113L66.8013 33.8276C71.7552 30.9387 75.0874 25.5716 75.0874 19.4242C75.0877 16.5271 74.3476 13.8028 73.046 11.4292ZM58.4245 0C47.7141 0 39 8.71349 39 19.4239C39 30.1356 47.7141 38.8488 58.4245 38.8488C69.1346 38.8488 77.85 30.1356 77.85 19.4239C77.8497 8.71349 69.1346 0 58.4245 0ZM58.4245 37.9584C48.2053 37.9584 39.8907 29.6438 39.8907 19.4239C39.8907 9.20463 48.205 0.890659 58.4245 0.890659C68.6435 0.890659 76.9575 9.20463 76.9575 19.4239C76.9575 29.6438 68.6435 37.9584 58.4245 37.9584Z" fill="#B2B5BE"/>
</g>
<g clip-path="url(#clip1_803_6290)">
<path d="M38.8795 5.28708C38.8795 2.46121 36.5887 0.17041 33.7628 0.17041C31.1826 0.17041 29.0496 2.08059 28.6982 4.56382C28.6653 4.54642 28.6463 4.53659 28.6463 4.53659C24.4619 2.64925 20.9372 5.99203 20.9372 5.99203L11.6138 15.3611L15.2977 18.9087L22.802 11.5362C26.3062 8.03186 28.2142 10.4037 28.2142 10.4037C30.8522 12.6322 28.3051 15.2702 28.3051 15.2702L32.0801 18.9087C35.1627 15.5794 35.3415 12.6737 34.4045 10.3621C36.9272 10.0463 38.8795 7.89541 38.8795 5.28708Z" fill="#B2B5BE"/>
<path d="M34.452 28.8184C34.4694 28.7858 34.4792 28.7667 34.4792 28.7667C36.3667 24.5822 33.0238 21.0576 33.0238 21.0576L23.6545 11.7339L20.1071 15.418L27.4796 22.9222C30.9839 26.4266 28.612 28.3346 28.612 28.3346C26.3836 30.9726 23.7456 28.4256 23.7456 28.4256L20.1071 32.2004C23.4362 35.283 26.3421 35.4618 28.6535 34.5248C28.9694 37.0476 31.1204 38.9999 33.7287 38.9999C36.5546 38.9999 38.8452 36.7091 38.8452 33.8832C38.8452 31.303 36.9352 29.17 34.452 28.8184Z" fill="#B2B5BE"/>
<path d="M23.7343 20.0913L16.23 27.4637C12.7256 30.9682 10.8176 28.5964 10.8176 28.5964C8.17959 26.3678 10.7267 23.73 10.7267 23.73L6.95182 20.0915C3.86924 23.4206 3.69043 26.3264 4.62729 28.6379C2.10443 28.9538 0.152344 31.1045 0.152344 33.713C0.152344 36.5388 2.44314 38.8295 5.26901 38.8295C7.8492 38.8296 9.98222 36.9196 10.3336 34.4364C10.3665 34.4538 10.3855 34.4634 10.3855 34.4634C14.57 36.3511 18.0946 33.008 18.0946 33.008L27.4182 23.6388L23.7343 20.0913Z" fill="#B2B5BE"/>
<path d="M11.5522 16.0776C8.04782 12.5733 10.4194 10.6652 10.4194 10.6652C12.6482 8.02725 15.286 10.5743 15.286 10.5743L18.9245 6.79963C15.5954 3.71704 12.6896 3.53823 10.3783 4.4751C10.0622 1.95209 7.91152 0 5.30289 0C2.47717 0 0.186522 2.2908 0.186371 5.11667C0.186371 7.69701 2.0964 9.83003 4.57963 10.1814C4.56223 10.2143 4.55255 10.2333 4.55255 10.2333C2.66475 14.4177 6.00784 17.9421 6.00784 17.9421L15.3772 27.2658L18.9247 23.5819L11.5522 16.0776Z" fill="#B2B5BE"/>
</g>
<g clip-path="url(#clip2_803_6290)">
<mask id="mask0_803_6290" style="mask-type:luminance" maskUnits="userSpaceOnUse" x="-328" y="-45" width="739" height="738">
<path d="M-327.776 692.932H410.78V-44.8289H-327.776V692.932Z" fill="white"/>
</mask>
<g mask="url(#mask0_803_6290)">
<path d="M40.4739 75.9447C38.9665 75.8443 37.2283 75.5803 35.8573 75.1837C35.6005 75.1093 34.5372 74.7189 34.2668 74.595C29.4938 72.3865 26.1687 67.5653 26.1687 61.9721C26.1687 54.3005 32.4169 48.0516 40.1017 48.0516C47.7184 48.0516 53.9243 54.1939 54.031 61.7788H59.0645C58.9578 51.4227 50.495 43.0297 40.1017 43.0297C29.6464 43.0297 21.1365 51.5256 21.1365 61.9721C21.1365 69.174 25.1911 75.4378 31.1278 78.6378C32.1998 79.2042 33.7382 79.7879 34.2606 79.9478C35.9529 80.451 38.0298 80.7856 39.8784 80.9256C40.5062 80.9727 42.6985 80.9975 43.3375 81H78V75.9917H43.3958C42.9355 75.9917 40.9243 75.9744 40.4739 75.9447ZM43.3958 68.0809C43.0298 68.0809 41.1154 68.0685 40.7618 68.0388C40.1625 67.988 39.294 67.8987 38.7357 67.7711C38.1055 67.6025 37.5137 67.3794 37.2469 67.2332C35.3772 66.2231 34.103 64.2476 34.103 61.9721C34.103 58.6618 36.7866 55.9773 40.1017 55.9773C43.3474 55.9773 45.9864 58.5564 46.0918 61.7788H50.928C50.8263 55.8918 46.0223 51.1475 40.1017 51.1475C34.1154 51.1475 29.263 55.9934 29.263 61.9721C29.263 66.1884 31.6824 69.8297 35.206 71.6131C35.7481 71.9304 36.768 72.2625 37.0583 72.3381C38.0534 72.5996 39.3896 72.7781 40.4739 72.8574C40.8747 72.8909 42.8375 72.9057 43.2519 72.9082V72.9157H77.9988V68.0809H43.3958ZM18.0347 80.9814H12.9677V48.0628H5.56328V43H18.0347V80.9814ZM0 50.5923V55.4605H5.56328V80.9814H10.4318V50.5923H0Z" fill="#B2B5BE"/>
<path d="M69.0467 43.3536C67.2216 43.3536 65.7079 44.8073 65.7079 46.6317C65.7079 48.456 67.2216 49.968 69.0467 49.968C70.9276 49.968 72.3829 48.456 72.3829 46.6317C72.3829 44.8073 70.9276 43.3536 69.0467 43.3536ZM69.0467 49.4301C67.5392 49.4301 66.2402 48.2465 66.2402 46.6317C66.2402 45.0986 67.5392 43.8852 69.0467 43.8852C70.5529 43.8852 71.8457 45.0986 71.8457 46.6317C71.8457 48.2465 70.5529 49.4301 69.0467 49.4301Z" fill="#B2B5BE"/>
<path d="M70.3179 47.5299C70.3179 47.1618 70.2633 46.8197 69.8415 46.6846C70.37 46.5012 70.4221 46.1554 70.4221 45.946C70.4221 45.0995 69.6529 44.9917 69.3365 44.9917H67.8812V48.2698H68.4879V46.9251H68.9655C69.6529 46.9251 69.7099 47.2411 69.7099 47.5299C69.7099 48.0888 69.7099 48.1942 69.8415 48.2698H70.4494C70.3179 48.1372 70.37 48.0343 70.3179 47.5299ZM69.2037 46.4467H68.4879V45.4143H69.1008C69.5251 45.4143 69.8129 45.5481 69.8129 45.946C69.8129 46.1554 69.7099 46.4467 69.2037 46.4467Z" fill="#B2B5BE"/>
</g>
</g>
<defs>
<clipPath id="clip0_803_6290">
<rect width="39" height="39" fill="white" transform="translate(39)"/>
</clipPath>
<clipPath id="clip1_803_6290">
<rect width="39" height="39" fill="white"/>
</clipPath>
<clipPath id="clip2_803_6290">
<rect width="78" height="38" fill="white" transform="translate(0 43)"/>
</clipPath>
</defs>
</svg>
