<svg width="93" height="81" viewBox="0 0 93 81" fill="none" xmlns="http://www.w3.org/2000/svg">
<path fill-rule="evenodd" clip-rule="evenodd" d="M90 40.2622C89.0542 45.1284 83.0741 50.6221 78.0474 47.2938C77.6286 48.7755 77.0982 50.2232 76.4608 51.6244C79.7484 50.033 84.5004 50.4997 87.0557 52.818C85.3624 57.7838 77.7804 62.191 73.2648 56.8503C72.3914 57.9411 71.4185 58.9478 70.3587 59.8573C74.0276 59.8573 77.9864 62.0379 79.5653 65.1368C75.8201 69.6358 66.3694 71.3879 63.9895 63.7825C62.0247 64.6129 59.9799 65.2385 57.8874 65.6494L57.7882 62.2216C74.8972 58.1051 77.4219 42.8407 76.5981 28.4637C72.7843 26.0536 75.1794 19.9095 78.0779 18.0273C80.3662 20.4604 83.0359 25.6787 79.1916 28.2036C79.3034 29.2595 79.395 30.3154 79.4661 31.3713C80.3561 30.239 81.4957 29.3291 82.7954 28.7131C84.0951 28.0971 85.5194 27.7918 86.9566 27.821C87.3303 31.7615 85.8353 38.816 79.5729 36.7961C79.5348 38.2498 79.4356 39.673 79.2755 41.0809C82.1892 38.7166 87.0633 38.2498 90 40.2622ZM21.5719 41.9072V3H69.3442V41.9072C69.3442 52.9711 68.9704 53.5067 45.4542 62.3899C21.9152 53.7056 21.5719 52.9022 21.5719 41.9072ZM31.6023 61.8008L31.5413 65.3051C29.9929 64.9165 28.4778 64.4048 27.0105 63.7748C24.6306 71.3803 15.1799 69.6281 11.4347 65.1291C13.006 62.0685 16.9724 59.8803 20.6413 59.8497C19.5815 58.9401 18.6086 57.9334 17.7352 56.8427C13.2196 62.1986 5.63764 57.7761 3.94429 52.8104C6.49957 50.515 11.2516 50.0253 14.5392 51.6168C13.9018 50.2156 13.3714 48.7679 12.9526 47.2861C7.92595 50.6145 1.94583 45.1208 1 40.2545C3.93666 38.2422 8.81076 38.7242 11.7398 41.0732C11.5796 39.6654 11.4805 38.2422 11.4423 36.7884C5.17998 38.8084 3.68495 31.7538 4.05871 27.8134C5.49585 27.7841 6.9202 28.0895 8.21986 28.7055C9.51952 29.3215 10.6591 30.2313 11.5491 31.3636C11.6203 30.3077 11.7118 29.2518 11.8237 28.1959C8.00986 25.6863 10.649 20.4528 12.9374 18.0196C15.8359 19.9019 18.2233 26.0459 14.4171 28.4561C13.6162 42.3739 15.9579 57.1105 31.6023 61.7854V61.8008Z" fill="url(#paint0_linear_803_6269)"/>
<path d="M35.6397 42.4863V22.5548L29.9147 24.8322L29 21.8527L38.6678 18H38.9202V42.4863H35.6397Z" fill="#F3F7FA"/>
<path d="M50.7358 43C49.3795 43 48.0757 42.7888 46.8245 42.3664C45.5839 41.9441 44.5587 41.379 43.7491 40.6712L44.8847 37.5548C45.6102 38.2397 46.4776 38.7648 47.4869 39.1301C48.4963 39.484 49.5162 39.661 50.5466 39.661C51.577 39.661 52.4707 39.4783 53.2277 39.113C53.9847 38.7363 54.5683 38.1998 54.9783 37.5034C55.3884 36.8071 55.5934 35.9623 55.5934 34.9692C55.5934 34.0559 55.3779 33.274 54.9468 32.6233C54.5157 31.9612 53.9164 31.4532 53.1488 31.0993C52.3918 30.7454 51.5297 30.5685 50.5623 30.5685C49.942 30.5685 49.3006 30.6484 48.6382 30.8082C47.9759 30.968 47.2977 31.2135 46.6037 31.5445L45.1528 29.8493L46.2883 18.5479L58.4638 18.5308V21.887H48.796L48.1336 28.137C48.6803 27.9429 49.2218 27.7945 49.758 27.6918C50.3047 27.589 50.8462 27.5377 51.3825 27.5377C52.8334 27.5377 54.1319 27.8402 55.278 28.4452C56.424 29.0388 57.3282 29.9007 57.9906 31.0308C58.6635 32.161 59 33.5137 59 35.089C59 36.6872 58.6478 38.0799 57.9433 39.2671C57.2494 40.4543 56.2821 41.3733 55.0414 42.024C53.8007 42.6747 52.3655 43 50.7358 43Z" fill="#F3F7FA"/>
<defs>
<linearGradient id="paint0_linear_803_6269" x1="45.5" y1="3" x2="45.5" y2="69" gradientUnits="userSpaceOnUse">
<stop stop-color="#ED1A3B"/>
<stop offset="1" stop-color="#FF526D"/>
</linearGradient>
</defs>
</svg>
