<svg width="93" height="81" viewBox="0 0 93 81" fill="none" xmlns="http://www.w3.org/2000/svg">
<g clip-path="url(#clip0_2056_14671)">
<rect width="38" height="38" rx="19" fill="#B2B5BE"/>
<path d="M19 9.5C20.8897 9.5 22.7019 10.236 24.0381 11.5461C25.3743 12.8562 26.125 14.6331 26.125 16.4858C26.125 18.3386 25.3743 20.1154 24.0381 21.4255C22.7019 22.7356 20.8897 23.4716 19 23.4716C17.1103 23.4716 15.2981 22.7356 13.9619 21.4255C12.6257 20.1154 11.875 18.3386 11.875 16.4858C11.875 14.6331 12.6257 12.8562 13.9619 11.5461C15.2981 10.236 17.1103 9.5 19 9.5ZM19 26.9645C26.8731 26.9645 33.25 30.0907 33.25 33.9503V46.8214H4.75V33.9503C4.75 30.0907 11.1269 26.9645 19 26.9645Z" fill="white"/>
</g>
<g clip-path="url(#clip1_2056_14671)">
<rect x="44" width="38" height="38" rx="19" fill="#ED1A3B"/>
<path d="M63 9.5C64.8897 9.5 66.7019 10.236 68.0381 11.5461C69.3743 12.8562 70.125 14.6331 70.125 16.4858C70.125 18.3386 69.3743 20.1154 68.0381 21.4255C66.7019 22.7356 64.8897 23.4716 63 23.4716C61.1103 23.4716 59.2981 22.7356 57.9619 21.4255C56.6257 20.1154 55.875 18.3386 55.875 16.4858C55.875 14.6331 56.6257 12.8562 57.9619 11.5461C59.2981 10.236 61.1103 9.5 63 9.5ZM63 26.9645C70.8731 26.9645 77.25 30.0907 77.25 33.9503V46.8214H48.75V33.9503C48.75 30.0907 55.1269 26.9645 63 26.9645Z" fill="white"/>
</g>
<g clip-path="url(#clip2_2056_14671)">
<rect y="41" width="38" height="38" rx="19" fill="#B2B5BE"/>
<path d="M19 50.5C20.8897 50.5 22.7019 51.236 24.0381 52.5461C25.3743 53.8562 26.125 55.6331 26.125 57.4858C26.125 59.3386 25.3743 61.1154 24.0381 62.4255C22.7019 63.7356 20.8897 64.4716 19 64.4716C17.1103 64.4716 15.2981 63.7356 13.9619 62.4255C12.6257 61.1154 11.875 59.3386 11.875 57.4858C11.875 55.6331 12.6257 53.8562 13.9619 52.5461C15.2981 51.236 17.1103 50.5 19 50.5ZM19 67.9645C26.8731 67.9645 33.25 71.0907 33.25 74.9503V87.8214H4.75V74.9503C4.75 71.0907 11.1269 67.9645 19 67.9645Z" fill="white"/>
</g>
<g clip-path="url(#clip3_2056_14671)">
<rect x="44" y="41" width="38" height="38" rx="19" fill="#B2B5BE"/>
<path d="M63 50.5C64.8897 50.5 66.7019 51.236 68.0381 52.5461C69.3743 53.8562 70.125 55.6331 70.125 57.4858C70.125 59.3386 69.3743 61.1154 68.0381 62.4255C66.7019 63.7356 64.8897 64.4716 63 64.4716C61.1103 64.4716 59.2981 63.7356 57.9619 62.4255C56.6257 61.1154 55.875 59.3386 55.875 57.4858C55.875 55.6331 56.6257 53.8562 57.9619 52.5461C59.2981 51.236 61.1103 50.5 63 50.5ZM63 67.9645C70.8731 67.9645 77.25 71.0907 77.25 74.9503V87.8214H48.75V74.9503C48.75 71.0907 55.1269 67.9645 63 67.9645Z" fill="white"/>
</g>
<defs>
<clipPath id="clip0_2056_14671">
<rect width="38" height="38" rx="19" fill="white"/>
</clipPath>
<clipPath id="clip1_2056_14671">
<rect x="44" width="38" height="38" rx="19" fill="white"/>
</clipPath>
<clipPath id="clip2_2056_14671">
<rect y="41" width="38" height="38" rx="19" fill="white"/>
</clipPath>
<clipPath id="clip3_2056_14671">
<rect x="44" y="41" width="38" height="38" rx="19" fill="white"/>
</clipPath>
</defs>
</svg>
