<svg width="97" height="97" viewBox="0 0 97 97" fill="none" xmlns="http://www.w3.org/2000/svg">
<path d="M48.5 1C74.7335 1 96 22.2665 96 48.5C96 74.7335 74.7335 96 48.5 96C22.2665 96 1 74.7335 1 48.5C1 22.2665 22.2665 1 48.5 1Z" fill="#0088CC" stroke="white" stroke-width="2"/>
<path d="M24.3685 47.7894C37.5218 42.2856 46.2927 38.6572 50.6813 36.9042C63.2115 31.8988 65.8152 31.0293 67.5122 31.0003C67.8855 30.9943 68.72 31.0831 69.2606 31.5044C69.7171 31.8601 69.8427 32.3406 69.9028 32.6779C69.9629 33.0152 70.0377 33.7835 69.9782 34.3838C69.2992 41.2358 66.3611 57.8637 64.8664 65.538C64.2339 68.7853 62.9885 69.8741 61.7828 69.9807C59.1627 70.2122 57.173 68.3176 54.6352 66.72C50.6641 64.2199 48.4207 62.6636 44.566 60.2241C40.1113 57.4047 42.9991 55.8552 45.5378 53.3227C46.2022 52.66 57.7468 42.5751 57.9703 41.6602C57.9982 41.5458 58.0242 41.1193 57.7603 40.8941C57.4965 40.6689 57.1071 40.7459 56.8262 40.8072C56.4279 40.894 50.084 44.921 37.7944 52.8883C35.9937 54.0759 34.3627 54.6545 32.9014 54.6241C31.2904 54.5907 28.1914 53.7493 25.8877 53.0301C23.0621 52.148 20.8163 51.6816 21.0119 50.1835C21.1137 49.4032 22.2326 48.6051 24.3685 47.7894Z" fill="white"/>
</svg>
