<svg width="66" height="66" viewBox="0 0 66 66" fill="none" xmlns="http://www.w3.org/2000/svg">
<path d="M33.1289 2.01025C50.2412 2.01049 64.1182 15.885 64.1182 33.0005C64.1179 50.1158 50.2411 63.9895 33.1289 63.9897C16.0102 63.9897 2.13891 50.116 2.13867 33.0005C2.13867 15.8847 16.0101 2.01025 33.1289 2.01025Z" fill="#FC3F1D" stroke="white" stroke-width="2"/>
<path d="M37.2223 19.1361H34.2665C28.8474 19.1361 25.9971 21.8808 25.9971 25.9275C25.9971 30.5021 27.9677 32.6454 32.0144 35.3933L35.3573 37.6454L25.7508 51.9992H18.5723L27.1935 39.1585C22.2351 35.6044 19.452 32.1527 19.452 26.3146C19.452 18.9953 24.5544 13.9985 34.2313 13.9985H43.8378V51.964H37.2223V19.1361Z" fill="white"/>
</svg>
