<svg width="23" height="24" viewBox="0 0 23 24" fill="none" xmlns="http://www.w3.org/2000/svg">
<path d="M10.3121 1.5345C10.6343 0.663887 11.8657 0.663887 12.1879 1.53451L14.6016 8.05758C14.7029 8.3313 14.9187 8.54711 15.1924 8.64839L21.7155 11.0621C22.5861 11.3843 22.5861 12.6157 21.7155 12.9379L15.1924 15.3516C14.9187 15.4529 14.7029 15.6687 14.6016 15.9424L12.1879 22.4655C11.8657 23.3361 10.6343 23.3361 10.3121 22.4655L7.89839 15.9424C7.79711 15.6687 7.5813 15.4529 7.30758 15.3516L0.784505 12.9379C-0.0861132 12.6157 -0.0861129 11.3843 0.784505 11.0621L7.30758 8.64839C7.5813 8.54711 7.79711 8.3313 7.89839 8.05758L10.3121 1.5345Z" fill="black"/>
</svg>
