<svg width="212" height="34" viewBox="0 0 212 34" fill="none" xmlns="http://www.w3.org/2000/svg">
<g clip-path="url(#clip0_1747_6490)">
<path d="M55.1754 19.5075C53.8525 21.2069 52.6703 21.9558 50.5029 21.9558C47.491 21.9558 44.9392 19.6804 44.9392 16.5985C44.9392 13.603 47.3784 11.2986 50.531 11.2986C52.417 11.2986 53.8807 12.2492 54.9221 13.7181L58.2155 10.3194C56.3014 7.55427 53.4303 6.57497 50.1651 6.57497C44.3665 6.57497 39.7881 10.8954 39.7881 16.7425C39.7881 22.6183 44.3947 26.7948 50.1651 26.7948C53.6273 26.7948 56.414 25.441 58.5251 22.7335L55.1754 19.5075Z" fill="black"/>
<path d="M61.0176 26.3646H65.8743L66.031 15.1025L69.5403 21.0426H72.235L75.7444 15.1069L75.9011 26.3646H80.7636L80.4503 7.15286H75.7277L70.8762 14.9075L66.031 7.15286H61.331L61.0176 26.3646Z" fill="black"/>
<path d="M83.625 19.6465H88.2691H92.9141V15.6819H88.2691H83.625V19.6465Z" fill="black"/>
<path d="M101.089 18.4707H102.271C103.65 18.4707 104.808 19.8991 105.456 21.2529L108.045 26.3646H113.73L110.127 19.162C109.255 17.5202 108.298 16.5121 106.609 15.9648C107.961 15.3887 108.831 14.5535 109.732 12.7101L112.66 7.15286H107.17L104.834 11.702C104.159 13.1709 103.369 13.8046 101.933 13.8046H101.089V7.15286H96.1064V26.3646H101.089V18.4707Z" fill="black"/>
<path d="M118.79 12.3094C118.79 20.065 117.965 22.1881 115.159 22.1881V26.362C115.159 26.362 115.722 26.3569 116.031 26.3569C120.113 26.3569 122.928 23.4039 122.928 16.3994H125.151V26.3646H129.909V12.3094H118.79Z" fill="black"/>
<path d="M146.763 26.3646V12.3094H142.653L137.615 19.4865V12.3094H133.083V26.3646H136.912L142.232 19.1867V26.3646H146.763Z" fill="black"/>
<path d="M158.839 12.3094V17.2449H154.702V12.3094H149.944V26.3646H154.702V21.2096H158.839V26.3646H163.596V12.3094H158.839Z" fill="black"/>
<path d="M180.457 26.3646V12.3094H176.347L171.308 19.4865V12.3094H166.776V26.3646H170.605L175.924 19.1553V26.3646H180.457Z" fill="black"/>
<path d="M188.31 21.0528H189.155C190.168 21.0528 190.784 22.0313 191.207 22.809L192.924 26.3646H197.993L195.741 21.6865C194.869 20.0735 194.08 19.267 192.758 18.835C193.855 18.4605 194.615 17.8972 195.375 16.4283L197.402 12.3094H192.561L190.984 15.6218C190.505 16.6298 190.111 16.9628 189.126 16.9628H188.31V12.3094H183.638V26.3646H188.31V21.0528Z" fill="black"/>
<path d="M211.726 26.3646V18.0693C211.726 14.2384 209.221 12.2222 205.562 12.2222C202.409 12.2222 199.996 13.1991 199.01 14.3904L201.203 16.7731C201.991 16.1971 203.198 15.765 204.887 15.765C205.843 15.765 207.082 16.0818 207.082 17.4932V17.7524C206.435 17.666 206.069 17.6372 205.196 17.6372C201.79 17.6372 198.863 19.3366 198.863 22.6777C198.863 25.9613 201.256 26.8254 203.001 26.8254C204.802 26.8254 205.872 26.3933 207.082 25.0972V26.3646H211.726ZM207.082 21.2952C206.937 23.153 205.728 23.639 204.744 23.639C203.702 23.639 203.177 22.9945 203.177 21.9576C203.177 21.0072 204.211 20.2582 205.788 20.2582C206.407 20.2582 206.829 20.2871 207.082 20.3735V21.2952Z" fill="black"/>
<path d="M22.9287 0.77272C27.6125 0.77272 29.9551 0.772891 31.4102 2.22878C32.8653 3.6847 32.8652 6.02853 32.8652 10.7151V22.9417C32.8652 27.6279 32.8652 29.9711 31.4102 31.427C29.9551 32.883 27.6126 32.8831 22.9287 32.8831H10.709C6.02537 32.8831 3.68359 32.8829 2.22852 31.427C0.773441 29.9712 0.773438 27.628 0.773438 22.9417V10.7151C0.773438 6.02853 0.773408 3.6847 2.22852 2.22878C3.68359 0.773071 6.0255 0.77272 10.709 0.77272H22.9287ZM23.3789 7.31667C22.3607 6.90795 21.1935 7.03502 20.3398 7.16139C19.8223 7.23801 19.4463 7.31132 19.125 7.37428C18.623 7.47268 18.2533 7.54482 17.6836 7.56178C15.0977 7.58968 12.4338 8.17419 10.8711 8.87526C6.68905 10.745 4.8309 14.2606 4.99219 17.5882C4.86593 22.1381 10.5486 26.4034 17.0498 26.4036C30.2082 26.4092 29.8381 14.1078 25.1172 13.3323C23.2748 13.03 22.1437 15.5283 21.2744 17.4475C20.7538 18.5971 20.3266 19.5388 19.8975 19.5471C19.524 19.5468 19.0742 18.5288 18.5342 17.3059C17.7044 15.4269 16.6608 13.0638 15.3506 13.1643C13.5296 13.3127 12.4516 16.4876 11.8457 18.2727C11.634 18.8966 11.4792 19.3509 11.3711 19.4465C11.0815 19.6982 10.832 19.4695 10.5986 19.2551C10.3214 19.0003 10.0664 18.7665 9.79199 19.384C9.51198 20.0161 11.4968 21.6582 12.2549 20.9007C12.5854 20.6718 12.9158 19.6501 13.2812 18.5208C13.8236 16.8443 14.4435 14.9306 15.2539 15.0188C15.7094 15.0688 16.2111 16.1289 16.7939 17.3616C17.6277 19.1247 18.6276 21.2398 19.8975 21.2532C21.2501 21.2681 22.1536 19.2934 22.9697 17.51C23.6734 15.9723 24.3123 14.5772 25.1172 14.7229C27.5804 15.1706 27.9166 24.538 17.4111 24.4768C13.6405 24.4766 7.52541 22.353 7.3916 17.4622C7.25813 13.6338 11.5552 9.68268 17.4111 9.76588C18.7968 9.87015 20.0171 10.0609 21.0801 10.2278C22.4568 10.4441 23.5716 10.6193 24.4453 10.51C24.9506 10.4465 25.7314 9.68069 25.7314 9.24245C25.7314 8.80411 24.5712 7.91895 23.3789 7.31667ZM21.3506 8.09596C21.4305 7.83415 21.8791 7.80695 22.3652 7.92116C22.5992 7.97617 23.1102 8.11729 23.1104 8.33229C23.1104 8.54748 22.7807 8.5561 22.1016 8.52565C21.5923 8.51037 21.271 8.35797 21.3506 8.09596Z" fill="#15AB7B"/>
</g>
<defs>
<clipPath id="clip0_1747_6490">
<rect width="211.727" height="34" fill="white"/>
</clipPath>
</defs>
</svg>
