<svg width="16" height="16" viewBox="0 0 16 16" fill="none" xmlns="http://www.w3.org/2000/svg">
<path fill-rule="evenodd" clip-rule="evenodd" d="M15.48 8.17725C15.48 7.62475 15.4304 7.0935 15.3383 6.5835H8V9.59746H12.1933C12.0127 10.5714 11.4638 11.3966 10.6385 11.9491V13.9041H13.1567C14.63 12.5477 15.48 10.5502 15.48 8.17725Z" fill="#4285F4"/>
<path fill-rule="evenodd" clip-rule="evenodd" d="M8.00004 15.7917C10.1038 15.7917 11.8675 15.094 13.1567 13.904L10.6386 11.949C9.94087 12.4165 9.04837 12.6928 8.00004 12.6928C5.97066 12.6928 4.25295 11.3221 3.64024 9.48047H1.03711V11.4992C2.31919 14.0457 4.9542 15.7917 8.00004 15.7917Z" fill="#34A853"/>
<path fill-rule="evenodd" clip-rule="evenodd" d="M3.63989 9.48057C3.48406 9.01307 3.39551 8.51369 3.39551 8.00015C3.39551 7.48661 3.48406 6.98723 3.63989 6.51973V4.50098H1.03676C0.50905 5.55285 0.208008 6.74286 0.208008 8.00015C0.208008 9.25744 0.50905 10.4474 1.03676 11.4993L3.63989 9.48057Z" fill="#FBBC05"/>
<path fill-rule="evenodd" clip-rule="evenodd" d="M8.00004 3.30746C9.144 3.30746 10.1711 3.70059 10.9786 4.47267L13.2134 2.23787C11.864 0.980581 10.1002 0.208496 8.00004 0.208496C4.9542 0.208496 2.31919 1.95454 1.03711 4.501L3.64024 6.51976C4.25295 4.67809 5.97066 3.30746 8.00004 3.30746Z" fill="#EA4335"/>
</svg>
