<svg width="964" height="534" viewBox="0 0 964 534" fill="none" xmlns="http://www.w3.org/2000/svg">
<rect x="780" y="31" width="184" height="498" rx="8" fill="#B2E8EC"/>
<path d="M839.36 514V512.306L843.644 508.316C845.025 507.037 846.159 505.913 847.046 504.942C847.933 503.971 848.586 503.08 849.006 502.268C849.426 501.447 849.636 500.621 849.636 499.79C849.636 498.577 849.216 497.625 848.376 496.934C847.545 496.234 846.393 495.884 844.918 495.884C844.05 495.884 843.215 496.024 842.412 496.304C841.609 496.575 840.947 496.971 840.424 497.494L839.57 495.94C840.298 495.287 841.138 494.797 842.09 494.47C843.051 494.143 844.078 493.98 845.17 493.98C846.458 493.98 847.592 494.213 848.572 494.68C849.552 495.147 850.313 495.805 850.854 496.654C851.405 497.503 851.68 498.507 851.68 499.664C851.68 500.485 851.517 501.311 851.19 502.142C850.873 502.973 850.289 503.911 849.44 504.956C848.6 506.001 847.401 507.243 845.842 508.68L842.118 512.11H852.17V514H839.36ZM863.368 514.42C862.155 514.42 861.063 514.154 860.092 513.622C859.131 513.09 858.305 512.353 857.614 511.41C856.933 510.467 856.41 509.38 856.046 508.148C855.692 506.916 855.514 505.6 855.514 504.2C855.514 502.791 855.692 501.47 856.046 500.238C856.41 499.006 856.933 497.923 857.614 496.99C858.305 496.047 859.131 495.31 860.092 494.778C861.063 494.246 862.155 493.98 863.368 493.98C864.563 493.98 865.641 494.246 866.602 494.778C867.573 495.31 868.399 496.047 869.08 496.99C869.771 497.923 870.298 499.006 870.662 500.238C871.036 501.47 871.222 502.791 871.222 504.2C871.222 505.6 871.036 506.916 870.662 508.148C870.298 509.38 869.771 510.467 869.08 511.41C868.399 512.353 867.573 513.09 866.602 513.622C865.641 514.154 864.563 514.42 863.368 514.42ZM863.368 512.446C864.208 512.446 864.974 512.255 865.664 511.872C866.364 511.489 866.966 510.939 867.47 510.22C867.974 509.501 868.362 508.633 868.632 507.616C868.903 506.599 869.038 505.46 869.038 504.2C869.038 502.511 868.8 501.05 868.324 499.818C867.848 498.577 867.186 497.625 866.336 496.962C865.487 496.29 864.498 495.954 863.368 495.954C862.519 495.954 861.744 496.145 861.044 496.528C860.354 496.911 859.756 497.461 859.252 498.18C858.758 498.899 858.375 499.767 858.104 500.784C857.834 501.792 857.698 502.931 857.698 504.2C857.698 505.889 857.932 507.35 858.398 508.582C858.874 509.814 859.537 510.766 860.386 511.438C861.245 512.11 862.239 512.446 863.368 512.446ZM874.141 514V512.306L878.425 508.316C879.807 507.037 880.941 505.913 881.827 504.942C882.714 503.971 883.367 503.08 883.787 502.268C884.207 501.447 884.417 500.621 884.417 499.79C884.417 498.577 883.997 497.625 883.157 496.934C882.327 496.234 881.174 495.884 879.699 495.884C878.831 495.884 877.996 496.024 877.193 496.304C876.391 496.575 875.728 496.971 875.205 497.494L874.351 495.94C875.079 495.287 875.919 494.797 876.871 494.47C877.833 494.143 878.859 493.98 879.951 493.98C881.239 493.98 882.373 494.213 883.353 494.68C884.333 495.147 885.094 495.805 885.635 496.654C886.186 497.503 886.461 498.507 886.461 499.664C886.461 500.485 886.298 501.311 885.971 502.142C885.654 502.973 885.071 503.911 884.221 504.956C883.381 506.001 882.182 507.243 880.623 508.68L876.899 512.11H886.951V514H874.141ZM899.312 514V509.744H889.26V508.022L896.834 494.4H899.102L891.57 507.868H899.312V503.164H901.258V507.868H904.52V509.744H901.258V514H899.312Z" fill="black"/>
<circle cx="872" cy="30" r="30" fill="#743FDD"/>
<path d="M851.391 39.024L855.723 33.012L851.631 27H855.507L857.847 30.852L860.115 27H863.895L859.923 32.94L864.219 39H860.283L857.739 35.064L855.159 38.976L851.391 39.024ZM870.855 39.36C870.143 39.36 869.443 39.284 868.755 39.132C868.067 38.98 867.435 38.776 866.859 38.52C866.291 38.256 865.831 37.956 865.479 37.62L866.475 35.1C866.963 35.58 867.591 35.964 868.359 36.252C869.127 36.54 869.895 36.684 870.663 36.684C871.367 36.684 871.979 36.568 872.499 36.336C873.019 36.096 873.419 35.764 873.699 35.34C873.987 34.916 874.131 34.42 874.131 33.852C874.131 32.964 873.807 32.276 873.159 31.788C872.519 31.3 871.671 31.056 870.615 31.056C870.311 31.056 869.991 31.076 869.655 31.116C869.319 31.156 868.979 31.22 868.635 31.308L867.759 29.304L872.727 24.78H865.635V22.2H876.351V24.576L871.659 29.124C872.603 29.132 873.487 29.32 874.311 29.688C875.143 30.048 875.815 30.592 876.327 31.32C876.839 32.048 877.095 32.956 877.095 34.044C877.095 35.092 876.827 36.016 876.291 36.816C875.763 37.608 875.031 38.232 874.095 38.688C873.159 39.136 872.079 39.36 870.855 39.36ZM886.443 39.36C885.171 39.36 884.039 39.088 883.047 38.544C882.055 37.992 881.275 37.204 880.707 36.18C880.147 35.148 879.867 33.912 879.867 32.472C879.867 31.056 880.135 29.752 880.671 28.56C881.207 27.36 881.955 26.3 882.915 25.38C883.875 24.452 884.999 23.688 886.287 23.088C887.575 22.48 888.971 22.064 890.475 21.84L891.543 24.192C890.391 24.32 889.363 24.556 888.459 24.9C887.555 25.236 886.771 25.656 886.107 26.16C885.451 26.656 884.903 27.212 884.463 27.828C884.031 28.436 883.703 29.08 883.479 29.76C883.895 29.264 884.415 28.876 885.039 28.596C885.663 28.308 886.339 28.164 887.067 28.164C888.155 28.164 889.131 28.396 889.995 28.86C890.859 29.316 891.539 29.948 892.035 30.756C892.539 31.564 892.791 32.496 892.791 33.552C892.791 34.36 892.635 35.12 892.323 35.832C892.011 36.536 891.571 37.152 891.003 37.68C890.443 38.208 889.775 38.62 888.999 38.916C888.231 39.212 887.379 39.36 886.443 39.36ZM886.443 36.78C887.099 36.78 887.679 36.648 888.183 36.384C888.695 36.12 889.095 35.756 889.383 35.292C889.679 34.828 889.827 34.3 889.827 33.708C889.827 33.116 889.675 32.588 889.371 32.124C889.075 31.66 888.671 31.296 888.159 31.032C887.655 30.76 887.083 30.624 886.443 30.624C885.803 30.624 885.227 30.76 884.715 31.032C884.203 31.296 883.799 31.66 883.503 32.124C883.207 32.588 883.059 33.116 883.059 33.708C883.059 34.3 883.203 34.828 883.491 35.292C883.779 35.756 884.179 36.12 884.691 36.384C885.203 36.648 885.787 36.78 886.443 36.78Z" fill="white"/>
<rect x="585" y="177" width="184" height="352" rx="8" fill="#B2E8EC"/>
<path d="M644.161 514V512.306L648.445 508.316C649.826 507.037 650.96 505.913 651.847 504.942C652.733 503.971 653.387 503.08 653.807 502.268C654.227 501.447 654.437 500.621 654.437 499.79C654.437 498.577 654.017 497.625 653.177 496.934C652.346 496.234 651.193 495.884 649.719 495.884C648.851 495.884 648.015 496.024 647.213 496.304C646.41 496.575 645.747 496.971 645.225 497.494L644.371 495.94C645.099 495.287 645.939 494.797 646.891 494.47C647.852 494.143 648.879 493.98 649.971 493.98C651.259 493.98 652.393 494.213 653.373 494.68C654.353 495.147 655.113 495.805 655.655 496.654C656.205 497.503 656.481 498.507 656.481 499.664C656.481 500.485 656.317 501.311 655.991 502.142C655.673 502.973 655.09 503.911 654.241 504.956C653.401 506.001 652.201 507.243 650.643 508.68L646.919 512.11H656.971V514H644.161ZM668.169 514.42C666.956 514.42 665.864 514.154 664.893 513.622C663.932 513.09 663.106 512.353 662.415 511.41C661.734 510.467 661.211 509.38 660.847 508.148C660.492 506.916 660.315 505.6 660.315 504.2C660.315 502.791 660.492 501.47 660.847 500.238C661.211 499.006 661.734 497.923 662.415 496.99C663.106 496.047 663.932 495.31 664.893 494.778C665.864 494.246 666.956 493.98 668.169 493.98C669.364 493.98 670.442 494.246 671.403 494.778C672.374 495.31 673.2 496.047 673.881 496.99C674.572 497.923 675.099 499.006 675.463 500.238C675.836 501.47 676.023 502.791 676.023 504.2C676.023 505.6 675.836 506.916 675.463 508.148C675.099 509.38 674.572 510.467 673.881 511.41C673.2 512.353 672.374 513.09 671.403 513.622C670.442 514.154 669.364 514.42 668.169 514.42ZM668.169 512.446C669.009 512.446 669.774 512.255 670.465 511.872C671.165 511.489 671.767 510.939 672.271 510.22C672.775 509.501 673.162 508.633 673.433 507.616C673.704 506.599 673.839 505.46 673.839 504.2C673.839 502.511 673.601 501.05 673.125 499.818C672.649 498.577 671.986 497.625 671.137 496.962C670.288 496.29 669.298 495.954 668.169 495.954C667.32 495.954 666.545 496.145 665.845 496.528C665.154 496.911 664.557 497.461 664.053 498.18C663.558 498.899 663.176 499.767 662.905 500.784C662.634 501.792 662.499 502.931 662.499 504.2C662.499 505.889 662.732 507.35 663.199 508.582C663.675 509.814 664.338 510.766 665.187 511.438C666.046 512.11 667.04 512.446 668.169 512.446ZM678.942 514V512.306L683.226 508.316C684.607 507.037 685.741 505.913 686.628 504.942C687.515 503.971 688.168 503.08 688.588 502.268C689.008 501.447 689.218 500.621 689.218 499.79C689.218 498.577 688.798 497.625 687.958 496.934C687.127 496.234 685.975 495.884 684.5 495.884C683.632 495.884 682.797 496.024 681.994 496.304C681.191 496.575 680.529 496.971 680.006 497.494L679.152 495.94C679.88 495.287 680.72 494.797 681.672 494.47C682.633 494.143 683.66 493.98 684.752 493.98C686.04 493.98 687.174 494.213 688.154 494.68C689.134 495.147 689.895 495.805 690.436 496.654C690.987 497.503 691.262 498.507 691.262 499.664C691.262 500.485 691.099 501.311 690.772 502.142C690.455 502.973 689.871 503.911 689.022 504.956C688.182 506.001 686.983 507.243 685.424 508.68L681.7 512.11H691.752V514H678.942ZM700.808 514.42C700.034 514.42 699.268 514.341 698.512 514.182C697.766 514.033 697.066 513.823 696.412 513.552C695.768 513.281 695.227 512.969 694.788 512.614L695.614 510.766C696.249 511.279 697.028 511.69 697.952 511.998C698.886 512.306 699.8 512.46 700.696 512.46C701.714 512.46 702.596 512.287 703.342 511.942C704.089 511.597 704.663 511.107 705.064 510.472C705.475 509.837 705.68 509.086 705.68 508.218C705.68 506.911 705.204 505.894 704.252 505.166C703.31 504.438 702.04 504.074 700.444 504.074C700.08 504.074 699.702 504.097 699.31 504.144C698.918 504.191 698.517 504.256 698.106 504.34L697.406 502.856L704.21 496.29H694.9V494.4H706.954V496.136L700.36 502.534C701.686 502.459 702.918 502.623 704.056 503.024C705.195 503.425 706.11 504.065 706.8 504.942C707.491 505.81 707.836 506.921 707.836 508.274C707.836 509.506 707.538 510.584 706.94 511.508C706.343 512.432 705.512 513.151 704.448 513.664C703.394 514.168 702.18 514.42 700.808 514.42Z" fill="black"/>
<circle cx="677" cy="177" r="30" fill="#743FDD"/>
<path d="M657.387 186.024L661.719 180.012L657.627 174H661.503L663.843 177.852L666.111 174H669.891L665.919 179.94L670.215 186H666.279L663.735 182.064L661.155 185.976L657.387 186.024ZM671.871 186V183.852L675.483 180.564C676.619 179.524 677.527 178.644 678.207 177.924C678.887 177.196 679.375 176.544 679.671 175.968C679.967 175.384 680.115 174.8 680.115 174.216C680.115 173.352 679.823 172.684 679.239 172.212C678.663 171.732 677.847 171.492 676.791 171.492C676.055 171.492 675.347 171.624 674.667 171.888C673.995 172.152 673.407 172.544 672.903 173.064L671.799 170.796C672.511 170.164 673.327 169.68 674.247 169.344C675.167 169.008 676.123 168.84 677.115 168.84C678.307 168.84 679.343 169.048 680.223 169.464C681.111 169.88 681.799 170.468 682.287 171.228C682.775 171.98 683.019 172.864 683.019 173.88C683.019 174.568 682.883 175.252 682.611 175.932C682.339 176.612 681.851 177.376 681.147 178.224C680.451 179.072 679.463 180.096 678.183 181.296L675.915 183.396H683.451V186H671.871ZM686.524 186L693.412 171.996H685.624V169.2H696.88V171.468L689.836 186H686.524Z" fill="white"/>
<rect x="390" y="337" width="184" height="192" rx="8" fill="#B2E8EC"/>
<path d="M449.065 514V512.306L453.349 508.316C454.73 507.037 455.864 505.913 456.751 504.942C457.638 503.971 458.291 503.08 458.711 502.268C459.131 501.447 459.341 500.621 459.341 499.79C459.341 498.577 458.921 497.625 458.081 496.934C457.25 496.234 456.098 495.884 454.623 495.884C453.755 495.884 452.92 496.024 452.117 496.304C451.314 496.575 450.652 496.971 450.129 497.494L449.275 495.94C450.003 495.287 450.843 494.797 451.795 494.47C452.756 494.143 453.783 493.98 454.875 493.98C456.163 493.98 457.297 494.213 458.277 494.68C459.257 495.147 460.018 495.805 460.559 496.654C461.11 497.503 461.385 498.507 461.385 499.664C461.385 500.485 461.222 501.311 460.895 502.142C460.578 502.973 459.994 503.911 459.145 504.956C458.305 506.001 457.106 507.243 455.547 508.68L451.823 512.11H461.875V514H449.065ZM473.073 514.42C471.86 514.42 470.768 514.154 469.797 513.622C468.836 513.09 468.01 512.353 467.319 511.41C466.638 510.467 466.115 509.38 465.751 508.148C465.397 506.916 465.219 505.6 465.219 504.2C465.219 502.791 465.397 501.47 465.751 500.238C466.115 499.006 466.638 497.923 467.319 496.99C468.01 496.047 468.836 495.31 469.797 494.778C470.768 494.246 471.86 493.98 473.073 493.98C474.268 493.98 475.346 494.246 476.307 494.778C477.278 495.31 478.104 496.047 478.785 496.99C479.476 497.923 480.003 499.006 480.367 500.238C480.741 501.47 480.927 502.791 480.927 504.2C480.927 505.6 480.741 506.916 480.367 508.148C480.003 509.38 479.476 510.467 478.785 511.41C478.104 512.353 477.278 513.09 476.307 513.622C475.346 514.154 474.268 514.42 473.073 514.42ZM473.073 512.446C473.913 512.446 474.679 512.255 475.369 511.872C476.069 511.489 476.671 510.939 477.175 510.22C477.679 509.501 478.067 508.633 478.337 507.616C478.608 506.599 478.743 505.46 478.743 504.2C478.743 502.511 478.505 501.05 478.029 499.818C477.553 498.577 476.891 497.625 476.041 496.962C475.192 496.29 474.203 495.954 473.073 495.954C472.224 495.954 471.449 496.145 470.749 496.528C470.059 496.911 469.461 497.461 468.957 498.18C468.463 498.899 468.08 499.767 467.809 500.784C467.539 501.792 467.403 502.931 467.403 504.2C467.403 505.889 467.637 507.35 468.103 508.582C468.579 509.814 469.242 510.766 470.091 511.438C470.95 512.11 471.944 512.446 473.073 512.446ZM483.846 514V512.306L488.13 508.316C489.512 507.037 490.646 505.913 491.532 504.942C492.419 503.971 493.072 503.08 493.492 502.268C493.912 501.447 494.122 500.621 494.122 499.79C494.122 498.577 493.702 497.625 492.862 496.934C492.032 496.234 490.879 495.884 489.404 495.884C488.536 495.884 487.701 496.024 486.898 496.304C486.096 496.575 485.433 496.971 484.91 497.494L484.056 495.94C484.784 495.287 485.624 494.797 486.576 494.47C487.538 494.143 488.564 493.98 489.656 493.98C490.944 493.98 492.078 494.213 493.058 494.68C494.038 495.147 494.799 495.805 495.34 496.654C495.891 497.503 496.166 498.507 496.166 499.664C496.166 500.485 496.003 501.311 495.676 502.142C495.359 502.973 494.776 503.911 493.926 504.956C493.086 506.001 491.887 507.243 490.328 508.68L486.604 512.11H496.656V514H483.846ZM500.253 514V512.306L504.537 508.316C505.918 507.037 507.052 505.913 507.939 504.942C508.825 503.971 509.479 503.08 509.899 502.268C510.319 501.447 510.529 500.621 510.529 499.79C510.529 498.577 510.109 497.625 509.269 496.934C508.438 496.234 507.285 495.884 505.811 495.884C504.943 495.884 504.107 496.024 503.305 496.304C502.502 496.575 501.839 496.971 501.317 497.494L500.463 495.94C501.191 495.287 502.031 494.797 502.983 494.47C503.944 494.143 504.971 493.98 506.063 493.98C507.351 493.98 508.485 494.213 509.465 494.68C510.445 495.147 511.205 495.805 511.747 496.654C512.297 497.503 512.573 498.507 512.573 499.664C512.573 500.485 512.409 501.311 512.083 502.142C511.765 502.973 511.182 503.911 510.333 504.956C509.493 506.001 508.293 507.243 506.735 508.68L503.011 512.11H513.063V514H500.253Z" fill="black"/>
<circle cx="482" cy="337" r="30" fill="#743FDD"/>
<path d="M463.57 346.024L467.902 340.012L463.81 334H467.686L470.026 337.852L472.294 334H476.074L472.102 339.94L476.398 346H472.462L469.918 342.064L467.338 345.976L463.57 346.024ZM481.847 346V332.524L477.683 334.036L476.867 331.612L484.511 328.84H484.727V346H481.847ZM495.944 346V342.652H487.712V340.36L493.496 329.2H496.628L490.952 340.096H495.944V336.52H498.584V340.096H501.08V342.652H498.584V346H495.944Z" fill="white"/>
<rect x="195" y="443" width="184" height="86" rx="8" fill="#B2E8EC"/>
<path d="M256.137 514V512.306L260.421 508.316C261.803 507.037 262.937 505.913 263.823 504.942C264.71 503.971 265.363 503.08 265.783 502.268C266.203 501.447 266.413 500.621 266.413 499.79C266.413 498.577 265.993 497.625 265.153 496.934C264.323 496.234 263.17 495.884 261.695 495.884C260.827 495.884 259.992 496.024 259.189 496.304C258.387 496.575 257.724 496.971 257.201 497.494L256.347 495.94C257.075 495.287 257.915 494.797 258.867 494.47C259.829 494.143 260.855 493.98 261.947 493.98C263.235 493.98 264.369 494.213 265.349 494.68C266.329 495.147 267.09 495.805 267.631 496.654C268.182 497.503 268.457 498.507 268.457 499.664C268.457 500.485 268.294 501.311 267.967 502.142C267.65 502.973 267.067 503.911 266.217 504.956C265.377 506.001 264.178 507.243 262.619 508.68L258.895 512.11H268.947V514H256.137ZM280.146 514.42C278.932 514.42 277.84 514.154 276.87 513.622C275.908 513.09 275.082 512.353 274.392 511.41C273.71 510.467 273.188 509.38 272.824 508.148C272.469 506.916 272.292 505.6 272.292 504.2C272.292 502.791 272.469 501.47 272.824 500.238C273.188 499.006 273.71 497.923 274.392 496.99C275.082 496.047 275.908 495.31 276.87 494.778C277.84 494.246 278.932 493.98 280.146 493.98C281.34 493.98 282.418 494.246 283.38 494.778C284.35 495.31 285.176 496.047 285.858 496.99C286.548 497.923 287.076 499.006 287.44 500.238C287.813 501.47 288 502.791 288 504.2C288 505.6 287.813 506.916 287.44 508.148C287.076 509.38 286.548 510.467 285.858 511.41C285.176 512.353 284.35 513.09 283.38 513.622C282.418 514.154 281.34 514.42 280.146 514.42ZM280.146 512.446C280.986 512.446 281.751 512.255 282.442 511.872C283.142 511.489 283.744 510.939 284.248 510.22C284.752 509.501 285.139 508.633 285.41 507.616C285.68 506.599 285.816 505.46 285.816 504.2C285.816 502.511 285.578 501.05 285.102 499.818C284.626 498.577 283.963 497.625 283.114 496.962C282.264 496.29 281.275 495.954 280.146 495.954C279.296 495.954 278.522 496.145 277.822 496.528C277.131 496.911 276.534 497.461 276.03 498.18C275.535 498.899 275.152 499.767 274.882 500.784C274.611 501.792 274.476 502.931 274.476 504.2C274.476 505.889 274.709 507.35 275.176 508.582C275.652 509.814 276.314 510.766 277.164 511.438C278.022 512.11 279.016 512.446 280.146 512.446ZM295.96 514V496.542L290.458 498.6L289.898 496.976L297.808 493.98H297.976V514H295.96ZM304.99 514.42L304.22 512.684C305.807 512.516 307.197 512.161 308.392 511.62C309.596 511.069 310.618 510.383 311.458 509.562C312.298 508.731 312.965 507.812 313.46 506.804C313.964 505.796 314.3 504.755 314.468 503.682C313.927 504.569 313.194 505.278 312.27 505.81C311.355 506.333 310.343 506.594 309.232 506.594C308.009 506.594 306.903 506.328 305.914 505.796C304.925 505.264 304.136 504.527 303.548 503.584C302.969 502.641 302.68 501.559 302.68 500.336C302.68 499.132 302.979 498.054 303.576 497.102C304.183 496.141 305.009 495.38 306.054 494.82C307.109 494.26 308.313 493.98 309.666 493.98C311.066 493.98 312.312 494.288 313.404 494.904C314.496 495.511 315.355 496.402 315.98 497.578C316.605 498.745 316.918 500.173 316.918 501.862C316.918 503.542 316.619 505.091 316.022 506.51C315.434 507.919 314.599 509.17 313.516 510.262C312.443 511.354 311.183 512.255 309.736 512.964C308.289 513.673 306.707 514.159 304.99 514.42ZM309.666 504.676C310.571 504.676 311.383 504.485 312.102 504.102C312.83 503.719 313.404 503.197 313.824 502.534C314.253 501.862 314.468 501.115 314.468 500.294C314.468 499.435 314.263 498.679 313.852 498.026C313.441 497.373 312.872 496.859 312.144 496.486C311.425 496.113 310.599 495.926 309.666 495.926C308.733 495.926 307.902 496.113 307.174 496.486C306.446 496.859 305.877 497.373 305.466 498.026C305.055 498.679 304.85 499.435 304.85 500.294C304.85 501.115 305.065 501.862 305.494 502.534C305.923 503.197 306.497 503.719 307.216 504.102C307.944 504.485 308.761 504.676 309.666 504.676Z" fill="black"/>
<rect y="474" width="184" height="55" rx="8" fill="#B2E8EC"/>
<path d="M61.3015 514V512.306L65.5855 508.316C66.9668 507.037 68.1008 505.913 68.9875 504.942C69.8741 503.971 70.5275 503.08 70.9475 502.268C71.3675 501.447 71.5775 500.621 71.5775 499.79C71.5775 498.577 71.1575 497.625 70.3175 496.934C69.4868 496.234 68.3341 495.884 66.8595 495.884C65.9915 495.884 65.1561 496.024 64.3535 496.304C63.5508 496.575 62.8881 496.971 62.3655 497.494L61.5115 495.94C62.2395 495.287 63.0795 494.797 64.0315 494.47C64.9928 494.143 66.0195 493.98 67.1115 493.98C68.3995 493.98 69.5335 494.213 70.5135 494.68C71.4935 495.147 72.2541 495.805 72.7955 496.654C73.3461 497.503 73.6215 498.507 73.6215 499.664C73.6215 500.485 73.4581 501.311 73.1315 502.142C72.8141 502.973 72.2308 503.911 71.3815 504.956C70.5415 506.001 69.3421 507.243 67.7835 508.68L64.0595 512.11H74.1115V514H61.3015ZM85.3097 514.42C84.0964 514.42 83.0044 514.154 82.0337 513.622C81.0724 513.09 80.2464 512.353 79.5557 511.41C78.8744 510.467 78.3517 509.38 77.9877 508.148C77.633 506.916 77.4557 505.6 77.4557 504.2C77.4557 502.791 77.633 501.47 77.9877 500.238C78.3517 499.006 78.8744 497.923 79.5557 496.99C80.2464 496.047 81.0724 495.31 82.0337 494.778C83.0044 494.246 84.0964 493.98 85.3097 493.98C86.5044 493.98 87.5824 494.246 88.5437 494.778C89.5144 495.31 90.3404 496.047 91.0217 496.99C91.7124 497.923 92.2397 499.006 92.6037 500.238C92.977 501.47 93.1637 502.791 93.1637 504.2C93.1637 505.6 92.977 506.916 92.6037 508.148C92.2397 509.38 91.7124 510.467 91.0217 511.41C90.3404 512.353 89.5144 513.09 88.5437 513.622C87.5824 514.154 86.5044 514.42 85.3097 514.42ZM85.3097 512.446C86.1497 512.446 86.915 512.255 87.6057 511.872C88.3057 511.489 88.9077 510.939 89.4117 510.22C89.9157 509.501 90.303 508.633 90.5737 507.616C90.8444 506.599 90.9797 505.46 90.9797 504.2C90.9797 502.511 90.7417 501.05 90.2657 499.818C89.7897 498.577 89.127 497.625 88.2777 496.962C87.4284 496.29 86.439 495.954 85.3097 495.954C84.4604 495.954 83.6857 496.145 82.9857 496.528C82.295 496.911 81.6977 497.461 81.1937 498.18C80.699 498.899 80.3164 499.767 80.0457 500.784C79.775 501.792 79.6397 502.931 79.6397 504.2C79.6397 505.889 79.873 507.35 80.3397 508.582C80.8157 509.814 81.4784 510.766 82.3277 511.438C83.1864 512.11 84.1804 512.446 85.3097 512.446ZM101.124 514V496.542L95.6216 498.6L95.0616 496.976L102.972 493.98H103.14V514H101.124ZM114.97 514.42C113.579 514.42 112.371 514.159 111.344 513.636C110.317 513.104 109.524 512.395 108.964 511.508C108.404 510.621 108.124 509.632 108.124 508.54C108.124 507.747 108.269 507.042 108.558 506.426C108.847 505.81 109.263 505.273 109.804 504.816C110.355 504.359 111.022 503.981 111.806 503.682C110.994 503.374 110.285 502.851 109.678 502.114C109.081 501.367 108.782 500.434 108.782 499.314C108.782 498.287 109.048 497.373 109.58 496.57C110.112 495.758 110.845 495.123 111.778 494.666C112.711 494.209 113.78 493.98 114.984 493.98C116.216 493.98 117.303 494.213 118.246 494.68C119.189 495.137 119.926 495.772 120.458 496.584C120.99 497.387 121.256 498.297 121.256 499.314C121.256 500.061 121.116 500.723 120.836 501.302C120.556 501.881 120.187 502.371 119.73 502.772C119.273 503.173 118.773 503.477 118.232 503.682C119.333 504.13 120.211 504.755 120.864 505.558C121.527 506.361 121.858 507.355 121.858 508.54C121.858 509.632 121.573 510.621 121.004 511.508C120.435 512.395 119.637 513.104 118.61 513.636C117.583 514.159 116.37 514.42 114.97 514.42ZM114.984 512.516C115.824 512.516 116.599 512.367 117.308 512.068C118.027 511.769 118.601 511.331 119.03 510.752C119.469 510.164 119.688 509.441 119.688 508.582C119.688 507.723 119.478 507 119.058 506.412C118.647 505.824 118.087 505.381 117.378 505.082C116.669 504.774 115.871 504.62 114.984 504.62C113.631 504.62 112.511 504.961 111.624 505.642C110.737 506.314 110.294 507.294 110.294 508.582C110.294 509.441 110.504 510.164 110.924 510.752C111.353 511.331 111.923 511.769 112.632 512.068C113.351 512.367 114.135 512.516 114.984 512.516ZM115.012 502.73C115.824 502.73 116.543 502.599 117.168 502.338C117.803 502.067 118.297 501.685 118.652 501.19C119.007 500.686 119.184 500.093 119.184 499.412C119.184 498.385 118.801 497.531 118.036 496.85C117.271 496.159 116.263 495.814 115.012 495.814C114.191 495.814 113.467 495.973 112.842 496.29C112.217 496.598 111.727 497.023 111.372 497.564C111.027 498.105 110.854 498.721 110.854 499.412C110.854 500.429 111.241 501.237 112.016 501.834C112.8 502.431 113.799 502.73 115.012 502.73Z" fill="black"/>
<circle cx="287" cy="442" r="30" fill="#743FDD"/>
<path d="M273.484 451.024L277.816 445.012L273.724 439H277.6L279.94 442.852L282.208 439H285.988L282.016 444.94L286.312 451H282.376L279.832 447.064L277.252 450.976L273.484 451.024ZM287.969 451V448.852L291.581 445.564C292.717 444.524 293.625 443.644 294.305 442.924C294.985 442.196 295.473 441.544 295.769 440.968C296.065 440.384 296.213 439.8 296.213 439.216C296.213 438.352 295.921 437.684 295.337 437.212C294.761 436.732 293.945 436.492 292.889 436.492C292.153 436.492 291.445 436.624 290.765 436.888C290.093 437.152 289.505 437.544 289.001 438.064L287.897 435.796C288.609 435.164 289.425 434.68 290.345 434.344C291.265 434.008 292.221 433.84 293.213 433.84C294.405 433.84 295.441 434.048 296.321 434.464C297.209 434.88 297.897 435.468 298.385 436.228C298.873 436.98 299.117 437.864 299.117 438.88C299.117 439.568 298.981 440.252 298.709 440.932C298.437 441.612 297.949 442.376 297.245 443.224C296.549 444.072 295.561 445.096 294.281 446.296L292.013 448.396H299.549V451H287.969Z" fill="white"/>
</svg>
