<svg width="60" height="60" viewBox="0 0 60 60" fill="none" xmlns="http://www.w3.org/2000/svg">
<circle cx="30" cy="30" r="30" fill="#743FDD"/>
<path d="M20.467 45.6511C20.14 45.5347 19.789 45.4603 19.4892 45.2935C18.5172 44.7526 18.0118 43.8979 18.0093 42.7913C17.9986 37.8677 17.9953 32.9441 18.0093 28.0206C18.0143 26.4011 19.2373 25.2111 20.8584 25.1806C21.1359 25.1756 21.4134 25.1806 21.7272 25.1806C21.7338 25.055 21.7445 24.946 21.7445 24.837C21.747 23.9617 21.7321 23.0855 21.7528 22.2101C21.8626 17.4665 25.7828 13.8057 30.5272 14.008C34.5159 14.1781 37.953 17.3295 38.3865 21.2876C38.5112 22.4289 38.4501 23.5909 38.4741 24.7429C38.4766 24.8742 38.4741 25.0063 38.4741 25.1781C38.7507 25.1781 38.9943 25.1773 39.2371 25.1781C41.0201 25.1872 42.2134 26.3846 42.2151 28.1742C42.2175 32.9945 42.2167 37.8157 42.2151 42.636C42.2151 44.2067 41.3686 45.2597 39.835 45.6082C39.8061 45.6148 39.7805 45.6354 39.7533 45.6494H20.467V45.6511ZM30.111 43.7963C33.1393 43.7963 36.1675 43.7963 39.1958 43.7963C39.9911 43.7963 40.3619 43.423 40.3619 42.6195C40.3619 37.8091 40.3619 32.9995 40.3619 28.189C40.3619 27.4045 39.9928 27.0337 39.2107 27.0329C33.1442 27.0329 27.0769 27.0329 21.0104 27.0329C20.2283 27.0329 19.8608 27.4045 19.8608 28.1899C19.8608 33.0003 19.8608 37.8099 19.8608 42.6203C19.8608 43.4238 20.2308 43.7955 21.0277 43.7955C24.056 43.7955 27.0843 43.7955 30.1126 43.7955L30.111 43.7963ZM36.6201 25.1657C36.6201 25.0129 36.6226 24.8907 36.6201 24.7685C36.5978 23.6569 36.6721 22.5338 36.5342 21.4371C36.1139 18.1016 33.1244 15.6869 29.7385 15.8628C26.4055 16.0354 23.7026 18.7994 23.6117 22.1465C23.5861 23.083 23.6035 24.0211 23.6035 24.9592C23.6035 25.0261 23.6249 25.0939 23.6348 25.1541H25.4558C25.4558 25.0179 25.4558 24.9056 25.4558 24.7941C25.4574 23.7948 25.4393 22.7948 25.464 21.7963C25.5062 20.0753 26.6053 18.5674 28.2124 17.9687C28.9251 17.7027 29.6634 17.7069 30.4066 17.7093C32.9287 17.7168 34.7537 19.5286 34.7653 22.0482C34.7694 22.9756 34.7653 23.903 34.767 24.8296C34.767 24.9386 34.7769 25.0484 34.7826 25.1674H36.6201V25.1657ZM32.9055 25.1591C32.9055 24.0343 32.9254 22.9335 32.8998 21.8343C32.8742 20.7186 32.0814 19.8069 30.9814 19.6186C30.5998 19.5534 30.2026 19.5674 29.8128 19.5666C28.314 19.5641 27.3197 20.5576 27.3114 22.0598C27.3073 22.8939 27.3106 23.7279 27.3106 24.562C27.3106 24.7553 27.3106 24.9485 27.3106 25.1599H32.9055V25.1591Z" fill="white"/>
<path d="M29.1827 37.9322C29.1827 37.4994 29.1695 37.0667 29.1885 36.6348C29.1976 36.4176 29.1191 36.3218 28.9267 36.226C27.9324 35.7305 27.3692 34.9221 27.3337 33.8055C27.2974 32.6626 27.8143 31.7955 28.8136 31.2521C30.1803 30.5088 31.8889 31.0622 32.5917 32.4471C33.297 33.8361 32.742 35.5299 31.3381 36.2021C31.092 36.3202 31.0251 36.4507 31.0309 36.7091C31.0491 37.5325 31.0392 38.3575 31.0367 39.1817C31.035 39.8118 30.6643 40.2222 30.1043 40.2197C29.5477 40.2172 29.1852 39.8043 29.1835 39.1701C29.1827 38.758 29.1835 38.3459 29.1835 37.9338L29.1827 37.9322ZM31.04 33.7205C31.0441 33.2085 30.6436 32.7939 30.1341 32.7832C29.6088 32.7724 29.1835 33.1812 29.1794 33.7023C29.1753 34.2201 29.6014 34.6495 30.1159 34.6454C30.6188 34.6413 31.0359 34.2242 31.04 33.7205Z" fill="white"/>
</svg>
