<svg width="46" height="46" viewBox="0 0 46 46" fill="none" xmlns="http://www.w3.org/2000/svg">
<path fill-rule="evenodd" clip-rule="evenodd" d="M45.7161 26.6243C45.903 25.4437 46 24.2332 46 23C46 10.2975 35.7025 0 23 0C10.2975 0 0 10.2975 0 23C0 35.7025 10.2975 46 23 46C33.018 46 41.54 39.5951 44.6947 30.6569C44.5263 29.8013 44.0627 29.0465 43.1287 28.5777C41.1718 27.5953 37.4995 29.4831 34.1166 31.2221C31.7104 32.4591 29.4506 33.6208 28.0586 33.6208C26.0851 33.6208 26.05 32.2588 26.0122 30.796C25.9859 29.7764 25.9583 28.7078 25.2722 28.0174C25.0556 27.7994 24.4255 28.3325 23.4942 29.1204C21.1335 31.1178 16.8373 34.7528 12.4345 31.9398C7.42891 28.7417 13.5508 11.7672 26.9426 11.767C33.1075 11.7669 32.6997 17.9021 32.4169 22.1565C32.3081 23.7943 32.2178 25.1533 32.5281 25.7763C33.0635 26.8515 33.7274 26.3795 34.8277 25.5972C36.0213 24.7486 37.7284 23.5349 40.3422 23.5349C43.6726 23.5349 45.1886 25.2026 45.7161 26.6243ZM24.6072 16.0459C25.463 16.9018 24.6073 20.3251 23.0025 21.3948C23.0025 21.8226 25.1421 21.9297 26.212 21.9297C24.6072 25.139 19.5793 28.4552 18.7234 24.6041C17.6537 19.7901 23.5374 14.9762 24.6072 16.0459Z" fill="#ED1A3B"/>
</svg>
