<svg width="323" height="54" viewBox="0 0 323 54" fill="none" xmlns="http://www.w3.org/2000/svg">
<g clip-path="url(#clip0_1498_313)">
<path d="M84.118 30.6836C82.1044 33.3426 80.305 34.5144 77.0061 34.5144C72.422 34.5144 68.538 30.9541 68.538 26.1317C68.538 21.4446 72.2505 17.839 77.049 17.839C79.9195 17.839 82.1473 19.3263 83.7324 21.6248L88.7451 16.3067C85.8318 11.9802 81.4618 10.4479 76.492 10.4479C67.6663 10.4479 60.6978 17.2081 60.6978 26.357C60.6978 35.551 67.7092 42.086 76.492 42.086C81.7616 42.086 86.0031 39.9676 89.2163 35.7313L84.118 30.6836Z" fill="black"/>
<path d="M93.0083 41.4128H100.4L100.639 23.791L105.98 33.0855H110.082L115.423 23.7979L115.662 41.4128H123.063L122.586 11.3521H115.398L108.014 23.4859L100.639 11.3521H93.4853L93.0083 41.4128Z" fill="black"/>
<path d="M127.418 30.901H134.487H141.557V24.6975H134.487H127.418V30.901Z" fill="black"/>
<path d="M154 29.0613H155.8C157.899 29.0613 159.661 31.2963 160.647 33.4145L164.588 41.4128H173.241L167.758 30.1428C166.43 27.574 164.973 25.9967 162.403 25.1403C164.459 24.2389 165.784 22.9319 167.156 20.0475L171.611 11.3521H163.257L159.701 18.4702C158.673 20.7686 157.471 21.7602 155.285 21.7602H154V11.3521H146.417V41.4128H154V29.0613Z" fill="black"/>
<path d="M180.942 19.4206C180.942 31.5558 179.687 34.8778 175.416 34.8778V41.4088C175.416 41.4088 176.273 41.4008 176.744 41.4008C182.957 41.4008 187.24 36.7802 187.24 25.8203H190.625V41.4128H197.866V19.4206H180.942Z" fill="black"/>
<path d="M223.519 41.4128V19.4206H217.263L209.594 30.6506V19.4206H202.697V41.4128H208.524L216.622 30.1816V41.4128H223.519Z" fill="black"/>
<path d="M241.898 19.4206V27.1432H235.6V19.4206H228.359V41.4128H235.6V33.3467H241.898V41.4128H249.138V19.4206H241.898Z" fill="black"/>
<path d="M274.802 41.4128V19.4206H268.546L260.877 30.6506V19.4206H253.979V41.4128H259.807L267.903 30.1325V41.4128H274.802Z" fill="black"/>
<path d="M286.753 33.1014H288.039C289.582 33.1014 290.519 34.6325 291.162 35.8494L293.776 41.4128H301.492L298.064 34.093C296.736 31.5692 295.536 30.3072 293.523 29.6312C295.194 29.0453 296.35 28.1638 297.507 25.8654L300.592 19.4206H293.223L290.823 24.6035C290.095 26.1808 289.495 26.7018 287.996 26.7018H286.753V19.4206H279.642V41.4128H286.753V33.1014Z" fill="black"/>
<path d="M322.395 41.4128V28.4331C322.395 22.4389 318.582 19.2842 313.012 19.2842C308.214 19.2842 304.541 20.8127 303.04 22.6767L306.378 26.4049C307.578 25.5037 309.415 24.8276 311.985 24.8276C313.441 24.8276 315.327 25.3233 315.327 27.5317V27.9374C314.341 27.802 313.784 27.757 312.455 27.757C307.271 27.757 302.817 30.4161 302.817 35.644C302.817 40.7818 306.459 42.1339 309.115 42.1339C311.856 42.1339 313.485 41.4578 315.327 39.4298V41.4128H322.395ZM315.327 33.4807C315.105 36.3877 313.266 37.1481 311.767 37.1481C310.181 37.1481 309.383 36.1397 309.383 34.5173C309.383 33.0301 310.957 31.8582 313.356 31.8582C314.299 31.8582 314.941 31.9034 315.327 32.0385V33.4807Z" fill="black"/>
<path d="M35.0358 1.36996C42.1645 1.36996 45.7293 1.37023 47.944 3.64828C50.1585 5.9264 50.1588 9.5929 50.1588 16.9256V36.0565C50.1588 43.3891 50.1585 47.0558 47.944 49.3338C45.7293 51.612 42.1645 51.6122 35.0358 51.6122H16.4362C9.30717 51.6122 5.74266 51.612 3.52795 49.3338C1.31341 47.0558 1.31311 43.3893 1.31311 36.0565V16.9256C1.31311 9.59275 1.31342 5.92639 3.52795 3.64828C5.74266 1.37021 9.30717 1.36996 16.4362 1.36996H35.0358ZM35.7213 11.6092C34.1715 10.9697 32.3946 11.1673 31.0953 11.3651C30.3078 11.4849 29.7357 11.5996 29.2467 11.6981C28.4827 11.852 27.9204 11.9655 27.0533 11.992C23.1174 12.0356 19.0627 12.9497 16.6842 14.0467C10.3188 16.9723 7.49048 22.4738 7.73596 27.6805C7.544 34.7998 16.1935 41.4743 26.0885 41.4745C46.1161 41.4832 45.5532 22.2348 38.3678 21.0213C35.5633 20.5478 33.8414 24.4567 32.5182 27.4598C31.7257 29.2586 31.0756 30.7328 30.4225 30.7459C29.8541 30.7451 29.1701 29.1523 28.3483 27.2391C27.0851 24.2986 25.4962 20.6006 23.5016 20.7586C20.7298 20.9908 19.0889 25.9588 18.1666 28.7518C17.8441 29.7288 17.6095 30.4398 17.4449 30.5887C17.0042 30.9825 16.6253 30.6243 16.2701 30.2889C15.848 29.89 15.4594 29.5235 15.0416 30.4901C14.615 31.479 17.6369 34.0492 18.7906 32.8631C19.2937 32.5051 19.797 30.9066 20.3531 29.1395C21.1787 26.5164 22.1217 23.521 23.3551 23.659C24.0483 23.7373 24.8117 25.3972 25.6989 27.326C26.9678 30.0847 28.4898 33.3948 30.4225 33.4159C32.4814 33.4392 33.857 30.348 35.0992 27.5575C36.1703 25.1512 37.1425 22.9684 38.3678 23.1971C42.1169 23.8976 42.6289 38.5535 26.6393 38.4579C20.9002 38.4579 11.5924 35.1357 11.3893 27.4823C11.1863 21.4919 17.726 15.3097 26.6393 15.4403C28.7482 15.6034 30.6044 15.9027 32.2223 16.1639C34.3179 16.5023 36.0144 16.7762 37.3444 16.6053C38.1133 16.5062 39.302 15.3078 39.3024 14.6219C39.3024 13.936 37.536 12.5516 35.7213 11.6092ZM32.6354 12.828C32.7572 12.4184 33.4385 12.3749 34.1783 12.5536C34.5343 12.6396 35.3131 12.8615 35.3131 13.1981C35.3127 13.5344 34.8112 13.5484 33.778 13.5008C33.0025 13.477 32.5142 13.238 32.6354 12.828Z" fill="#15AB7B"/>
</g>
<defs>
<clipPath id="clip0_1498_313">
<rect width="322.258" height="53.2" fill="white" transform="translate(0.138306 0.160004)"/>
</clipPath>
</defs>
</svg>
