<svg width="47" height="46" viewBox="0 0 47 46" fill="none" xmlns="http://www.w3.org/2000/svg">
<path fill-rule="evenodd" clip-rule="evenodd" d="M46.2161 26.6243C46.403 25.4437 46.5 24.2332 46.5 23C46.5 10.2975 36.2025 0 23.5 0C10.7975 0 0.5 10.2975 0.5 23C0.5 35.7025 10.7975 46 23.5 46C33.518 46 42.04 39.5951 45.1947 30.6569C45.0263 29.8013 44.5627 29.0465 43.6287 28.5777C41.6718 27.5953 37.9995 29.4831 34.6166 31.2221C32.2104 32.4591 29.9506 33.6208 28.5586 33.6208C26.5851 33.6208 26.55 32.2588 26.5122 30.796C26.4859 29.7764 26.4583 28.7078 25.7722 28.0174C25.5556 27.7994 24.9255 28.3325 23.9942 29.1204C21.6335 31.1178 17.3373 34.7528 12.9345 31.9398C7.92891 28.7417 14.0508 11.7672 27.4426 11.767C33.6075 11.7669 33.1997 17.9021 32.9169 22.1565C32.8081 23.7943 32.7178 25.1533 33.0281 25.7763C33.5635 26.8515 34.2274 26.3795 35.3277 25.5972C36.5213 24.7486 38.2284 23.5349 40.8422 23.5349C44.1726 23.5349 45.6886 25.2026 46.2161 26.6243ZM25.1072 16.0459C25.963 16.9018 25.1073 20.3251 23.5025 21.3948C23.5025 21.8226 25.6421 21.9297 26.712 21.9297C25.1072 25.139 20.0793 28.4552 19.2234 24.6041C18.1537 19.7901 24.0374 14.9762 25.1072 16.0459Z" fill="#ED1A3B"/>
</svg>
