<svg width="283" height="43" viewBox="0 0 283 43" fill="none" xmlns="http://www.w3.org/2000/svg">
<path d="M73.1311 24.9563C71.3521 27.2152 69.7647 28.2222 66.8635 28.2222C62.8129 28.2222 59.419 25.2013 59.419 21.0918C59.419 17.0911 62.676 14.043 66.9183 14.043C69.4363 14.043 71.4069 15.2949 72.8027 17.2544L77.2092 12.7367C74.6365 9.06266 70.8047 7.75633 66.4256 7.75633C58.6527 7.75633 52.5219 13.4987 52.5219 21.3095C52.5219 29.1475 58.7074 34.6994 66.4256 34.6994C71.0784 34.6994 74.8007 32.9032 77.6197 29.2835L73.1311 24.9563Z" fill="#27926D"/>
<path d="M80.9588 34.0734H87.4727L87.6917 19.0779L92.3992 26.9975H96.012L100.72 19.0779L100.938 34.0734H107.452L107.042 8.4912H100.72L94.2056 18.833L87.7191 8.4912H81.4241L80.9588 34.0734Z" fill="#27926D"/>
<path d="M111.257 25.1468H117.47H123.71V19.8671H117.497H111.284V25.1468H111.257Z" fill="#27926D"/>
<path d="M134.658 23.5684H136.245C138.106 23.5684 139.639 25.4735 140.515 27.2696L143.991 34.0734H151.599L146.782 24.4937C145.605 22.3165 144.319 20.9558 142.075 20.2482C143.881 19.4861 145.058 18.3703 146.262 15.9209L150.176 8.51841H142.814L139.694 14.5874C138.79 16.5469 137.723 17.3906 135.807 17.3906H134.658V8.4912H127.979V34.0734H134.658V23.5684Z" fill="#27926D"/>
<path d="M158.387 15.3493C158.387 25.6911 157.292 28.4943 153.515 28.4943V34.0462C153.515 34.0462 154.282 34.0462 154.692 34.0462C160.166 34.0462 163.943 30.1 163.943 20.7924H166.926V34.0734H173.303V15.3493H158.387Z" fill="#27926D"/>
<path d="M195.883 34.0734V15.3493H190.382L183.622 24.9019V15.3493H177.546V34.0734H182.691L189.834 24.5209V34.0734H195.883Z" fill="#27926D"/>
<path d="M212.058 15.3493V21.9354H206.502V15.3493H200.125V34.0734H206.502V27.2152H212.058V34.0734H218.436V15.3493H212.058Z" fill="#27926D"/>
<path d="M241.043 34.0734V15.3493H235.541L228.781 24.9019V15.3493H222.705V34.0734H227.823L234.967 24.4664V34.0734H241.043Z" fill="#27926D"/>
<path d="M251.553 26.9974H252.675C254.043 26.9974 254.864 28.3038 255.412 29.338L257.711 34.0734H264.498L261.488 27.8411C260.311 25.6911 259.271 24.6297 257.492 24.031C258.97 23.5411 259.982 22.7791 260.995 20.8196L263.705 15.3221H257.218L255.111 19.731C254.481 21.0645 253.934 21.5272 252.62 21.5272H251.525V15.3493H245.258V34.0734H251.525V26.9974H251.553Z" fill="#27926D"/>
<path d="M282.945 34.0734V23.0241C282.945 17.9076 279.579 15.2405 274.68 15.2405C270.465 15.2405 267.235 16.5468 265.894 18.1253L268.823 21.3095C269.89 20.5475 271.505 19.976 273.749 19.976C275.036 19.976 276.705 20.4114 276.705 22.2892V22.643C275.829 22.5342 275.337 22.4797 274.187 22.4797C269.616 22.4797 265.703 24.7386 265.703 29.2019C265.703 33.5835 268.905 34.7266 271.259 34.7266C273.667 34.7266 275.118 34.1551 276.732 32.4405V34.1278H282.945V34.0734ZM276.732 27.3241C276.541 29.8006 274.926 30.4538 273.585 30.4538C272.189 30.4538 271.477 29.5829 271.477 28.2222C271.477 26.943 272.873 25.9633 274.981 25.9633C275.802 25.9633 276.377 25.9905 276.705 26.1266V27.3241H276.732Z" fill="#27926D"/>
<path d="M0.218983 13.4715C0.218983 7.13038 0.218982 3.9462 2.18958 1.95949C4.16018 2.59544e-07 7.3624 0 13.7668 0H29.6685C36.0455 0 39.2478 2.59544e-07 41.2457 1.95949C43.2163 3.9462 43.2163 7.10317 43.2163 13.4715V29.2835C43.2163 35.6247 43.2163 38.8089 41.2457 40.7956C39.2478 42.7551 36.0729 42.7551 29.6685 42.7551H13.7668C7.38977 42.7551 4.18755 42.7551 2.18958 40.7956C0.191613 38.8361 0.218983 35.6519 0.218983 29.2835V13.4715Z" fill="#27926D"/>
<path fill-rule="evenodd" clip-rule="evenodd" d="M22.0324 34.1278C13.3289 34.1278 5.69287 28.4399 5.85708 22.3709C5.63813 17.9348 8.12875 13.2538 13.7395 10.7772C15.8196 9.85189 19.405 9.06265 22.8809 9.03544C23.6472 9.00822 24.1399 8.92658 24.8241 8.7905C25.262 8.70886 25.7547 8.6 26.4663 8.51835C27.6158 8.35506 29.1758 8.19177 30.5443 8.73607C32.1317 9.52531 33.6918 10.7228 33.6918 11.2943C33.6918 11.8658 32.6517 12.9 31.9675 12.9816C30.7906 13.1177 29.3127 12.9 27.4515 12.6006C26.0284 12.3829 24.3862 12.1108 22.5251 11.9747C14.67 11.8658 8.92246 17.1184 9.08668 22.2348C9.27826 28.7392 17.4617 31.5696 22.5251 31.5696C36.5929 31.6513 36.155 19.1867 32.8433 18.588C31.7759 18.3975 30.9001 20.2481 29.9695 22.2892C28.8748 24.657 27.6705 27.2968 25.8368 27.2696C24.1399 27.2424 22.7988 24.4392 21.6766 22.0715C20.8829 20.4386 20.226 19.0234 19.6239 18.9418C18.5291 18.8329 17.7081 21.3639 16.9691 23.5956C16.4764 25.0924 16.0385 26.4532 15.6006 26.7525C14.5879 27.7595 11.9331 25.5823 12.2889 24.7386C12.6447 23.9221 13.0005 24.2215 13.3837 24.5753C13.6847 24.8475 14.0405 25.174 14.4237 24.8202C14.5606 24.6842 14.7795 24.0854 15.0532 23.2418C15.8743 20.874 17.2975 16.6285 19.7608 16.438C21.5124 16.3019 22.9082 19.4589 24.0304 21.9627C24.742 23.5956 25.3441 24.9563 25.8641 24.9563C26.4389 24.9563 27.0137 23.7044 27.6979 22.1532C28.8748 19.5949 30.3801 16.2747 32.8433 16.6829C39.1657 17.7443 39.6583 34.1278 22.0324 34.1278ZM30.1611 10.0696C30.1611 10.3418 29.7232 10.369 28.82 10.3418C28.1358 10.3146 27.6979 10.124 27.8073 9.77025C27.9168 9.41645 28.519 9.38924 29.1758 9.52531C29.4495 9.57974 30.1611 9.77025 30.1611 10.0696Z" fill="white"/>
</svg>
