<svg width="100" height="89" viewBox="0 0 100 89" fill="none" xmlns="http://www.w3.org/2000/svg">
<path fill-rule="evenodd" clip-rule="evenodd" d="M83.0324 45.0574C88.9034 60.6637 88.5808 74.4333 50.5055 88.7615C12.3873 74.7985 13.0647 60.5026 20.1077 43.5752C26.5593 28.1622 11.8281 18.8715 11.8281 18.8715L23.8174 1.68629C23.8174 1.68629 39.6453 12.0833 51.7744 0C64.4948 12.6956 78.9572 2.14814 78.9572 2.14814L89.2152 19.7307C89.2152 19.7307 77.312 29.8807 83.0324 45.0574Z" fill="#B2B5BE"/>
<path d="M28.256 52V35.2H30.368L39.368 48.04V35.2H41.576V52H39.464L30.476 39.016V52H28.256ZM45.6119 52V35.2H50.6999C52.3479 35.2 53.8039 35.56 55.0679 36.28C56.3399 36.992 57.3359 37.984 58.0559 39.256C58.7759 40.52 59.1359 41.972 59.1359 43.612C59.1359 44.836 58.9279 45.96 58.5119 46.984C58.1039 48.008 57.5239 48.896 56.7719 49.648C56.0199 50.392 55.1279 50.972 54.0959 51.388C53.0639 51.796 51.9319 52 50.6999 52H45.6119ZM47.8679 49.9H50.3279C51.3039 49.9 52.1839 49.756 52.9679 49.468C53.7599 49.172 54.4399 48.752 55.0079 48.208C55.5759 47.656 56.0119 46.996 56.3159 46.228C56.6279 45.452 56.7839 44.58 56.7839 43.612C56.7839 42.324 56.5159 41.208 55.9799 40.264C55.4439 39.312 54.6919 38.58 53.7239 38.068C52.7639 37.556 51.6319 37.3 50.3279 37.3H47.8679V49.9ZM59.7114 52L66.3234 35.2H68.6634L75.4794 52H72.9354L71.2674 47.788H63.7794L62.1834 52H59.7114ZM64.4154 45.82H70.6074L67.4394 37.996L64.4154 45.82Z" fill="#F3F7FA"/>
</svg>
