<svg width="235" height="48" viewBox="0 0 235 48" fill="none" xmlns="http://www.w3.org/2000/svg">
<g clip-path="url(#clip0_476_3175)">
<path d="M67.4666 6.70234V0H33.9834V6.70234H40.6799V13.4046H60.7702V20.107H40.6799V26.8105H33.9834V33.5128V46.9175H40.6799H47.3763V33.5128H67.4666V26.8105H74.1631V20.107V13.4046V6.70234H67.4666Z" fill="#ED1C24"/>
<path d="M33.9832 6.70234V0H0.5V6.70234V13.4046H27.2868V20.107H7.19643H0.5V46.9175H7.19643H13.8928V33.5128H33.9832V26.8105H40.6796V20.107V13.4046V6.70234H33.9832Z" fill="#1E1E1E"/>
<path d="M99.0653 33.8041H109.165V37.1735H99.0653V33.8041ZM99.0653 33.8041H95.6992V47.282H99.0653V40.543H109.165H112.532V33.8041V30.4346H99.0653V33.8041Z" fill="#ED1C24"/>
<path d="M129.364 37.1737H119.264V30.4346H115.897V40.5431H119.264H129.364V43.9126H115.897V47.2821H132.731V43.9126V30.4346H129.364V37.1737Z" fill="#ED1C24"/>
<path d="M149.563 37.1737H139.464V30.4346H136.097V47.2821H139.464V40.5431H149.563V47.2821H152.93V30.4346H149.563V37.1737Z" fill="#ED1C24"/>
<path d="M156.296 30.4348V47.2822H159.663H173.128V43.9127H159.663V40.5433H166.396V37.1738H159.663V33.8043H173.128V30.4348H159.663H156.296Z" fill="#ED1C24"/>
<path d="M176.495 33.8043V37.1738H179.861V33.8043H183.228V47.2822H186.594V33.8043H189.96V37.1738H193.327V33.8043V30.4348H176.495V33.8043Z" fill="#ED1C24"/>
<path d="M200.061 30.4348V33.8043H210.16V37.1738H200.061V33.8043H196.694V47.2822H200.061V40.5433H210.16V47.2822H213.527V40.5433V37.1738V33.8043V30.4348H200.061Z" fill="#ED1C24"/>
<path d="M109.165 10.2179H99.0662V6.84844H102.432H109.165V3.47894H102.432H95.6992V6.84844V20.3264H99.0662V13.5874H109.165H112.532V10.2179V6.84844H109.165V10.2179Z" fill="#1E1E1E"/>
<path d="M115.898 3.479V16.957V20.3265H132.731V16.957H119.265V13.5875H132.731V10.218H119.265V6.8485H132.731V3.479H119.265H115.898Z" fill="#1E1E1E"/>
<path d="M149.563 6.84273L139.464 13.015V3.47894H136.097V20.3264H139.464V16.9569L149.563 10.7847V20.3264H152.93V3.47894H149.563V6.84273Z" fill="#1E1E1E"/>
<path d="M146.197 0.109741H142.83V3.47923H146.197V0.109741Z" fill="#1E1E1E"/>
<path d="M156.296 6.8485V10.218H159.663V6.8485H163.029V20.3265H166.396V6.8485H169.762V10.218H173.128V6.8485V3.479H156.296V6.8485Z" fill="#1E1E1E"/>
<path d="M220.26 3.479H216.893V20.3265H220.26V6.8485H233.725V3.479H220.26Z" fill="#1E1E1E"/>
<path d="M210.16 10.2179H200.06V3.47894H196.694V20.3264H200.06V13.5874H210.16V20.3264H213.526V3.47894H210.16V10.2179Z" fill="#1E1E1E"/>
<path d="M189.961 6.84273L179.862 13.015V3.47894H176.495V20.3264H179.862V16.9569L189.961 10.7847V20.3264H193.327V3.47894H189.961V6.84273Z" fill="#1E1E1E"/>
</g>
<defs>
<clipPath id="clip0_476_3175">
<rect width="234" height="48" fill="white" transform="translate(0.5)"/>
</clipPath>
</defs>
</svg>
