<svg width="29" height="17" viewBox="0 0 29 17" fill="none" xmlns="http://www.w3.org/2000/svg">
<path d="M17.7188 0H28.7793C28.6926 0.250674 28.6347 0.45507 28.5537 0.647896C26.3651 5.8947 24.1669 11.1396 21.9918 16.3922C21.8125 16.826 21.6139 17.0073 21.1145 16.9996C18.9066 16.9668 16.6988 16.9841 14.4196 16.9841C15.5283 11.2765 16.6236 5.63631 17.7188 0Z" fill="#DAE2E8"/>
<path d="M0 16.9842C1.10489 11.292 2.19822 5.66531 3.29733 0.00585938H14.3598C14.2711 0.256534 14.2017 0.49371 14.1072 0.719317C11.934 5.92177 9.75123 11.1184 7.5935 16.3267C7.39296 16.8126 7.16542 17.0112 6.61009 16.9996C4.42729 16.9611 2.24257 16.9842 0 16.9842Z" fill="#DAE2E8"/>
</svg>
