<svg width="21" height="20" viewBox="0 0 21 20" fill="none" xmlns="http://www.w3.org/2000/svg">
<g clip-path="url(#clip0_743_2117)">
<path d="M12.4286 11.9286C10.8571 13.55 10.7429 15.5714 10.6071 20C14.7357 20 17.5857 19.9857 19.0571 18.5571C20.4857 17.0857 20.5 14.1 20.5 10.1071C16.0714 10.25 14.05 10.3571 12.4286 11.9286ZM0.5 10.1071C0.5 14.1 0.514286 17.0857 1.94286 18.5571C3.41429 19.9857 6.26429 20 10.3929 20C10.25 15.5714 10.1429 13.55 8.57143 11.9286C6.95 10.3571 4.92857 10.2429 0.5 10.1071ZM10.3929 0C6.27143 0 3.41429 0.0142857 1.94286 1.44286C0.514286 2.91429 0.5 5.9 0.5 9.89286C4.92857 9.75 6.95 9.64286 8.57143 8.07143C10.1429 6.45 10.2571 4.42857 10.3929 0ZM12.4286 8.07143C10.8571 6.45 10.7429 4.42857 10.6071 0C14.7357 0 17.5857 0.0142857 19.0571 1.44286C20.4857 2.91429 20.5 5.9 20.5 9.89286C16.0714 9.75 14.05 9.64286 12.4286 8.07143Z" fill="black"/>
<path d="M20.5 10.1071V9.89286C16.0714 9.75 14.05 9.64286 12.4286 8.07143C10.8571 6.45 10.7429 4.42857 10.6071 0H10.3929C10.25 4.42857 10.1429 6.45 8.57143 8.07143C6.95 9.64286 4.92857 9.75714 0.5 9.89286V10.1071C4.92857 10.25 6.95 10.3571 8.57143 11.9286C10.1429 13.55 10.2571 15.5714 10.3929 20H10.6071C10.75 15.5714 10.8571 13.55 12.4286 11.9286C14.05 10.3571 16.0714 10.2429 20.5 10.1071Z" fill="white"/>
</g>
<defs>
<clipPath id="clip0_743_2117">
<rect width="20" height="20" fill="white" transform="translate(0.5)"/>
</clipPath>
</defs>
</svg>
