<svg width="22" height="22" viewBox="0 0 22 22" fill="none" xmlns="http://www.w3.org/2000/svg">
<g clip-path="url(#clip0_1747_6100)">
<path d="M11.043 0.336914C16.9312 0.336914 21.706 5.11076 21.7061 11C21.7061 16.8893 16.9312 21.6631 11.043 21.6631C5.15266 21.663 0.379883 16.8893 0.379883 11C0.37998 5.11082 5.15272 0.337011 11.043 0.336914Z" fill="#FC3F1D"/>
<path d="M11.043 0.336914C16.9312 0.336914 21.706 5.11076 21.7061 11C21.7061 16.8893 16.9312 21.6631 11.043 21.6631C5.15266 21.663 0.379883 16.8893 0.379883 11C0.37998 5.11082 5.15272 0.337011 11.043 0.336914Z" stroke="white"/>
<path d="M12.4071 6.37854H11.4218C9.61547 6.37854 8.66537 7.29344 8.66537 8.64235C8.66537 10.1672 9.32223 10.8816 10.6711 11.7976L11.7854 12.5483L8.58327 17.3329H6.19043L9.06418 13.0527C7.41137 11.868 6.48367 10.7174 6.48367 8.77137C6.48367 6.33162 8.18446 4.66602 11.4101 4.66602H14.6123V17.3212H12.4071V6.37854Z" fill="white"/>
</g>
<defs>
<clipPath id="clip0_1747_6100">
<rect width="22" height="22" fill="white"/>
</clipPath>
</defs>
</svg>
