<svg width="96" height="96" viewBox="0 0 96 96" fill="none" xmlns="http://www.w3.org/2000/svg">
<path d="M48 1.2002C73.8469 1.2002 94.7998 22.1531 94.7998 48C94.7998 73.8469 73.8469 94.7998 48 94.7998C22.1531 94.7998 1.2002 73.8469 1.2002 48C1.2002 22.1531 22.1531 1.2002 48 1.2002Z" fill="#0077FF" stroke="white" stroke-width="2.4"/>
<path d="M48.6422 64.8001C31.5559 64.8001 21.8137 53.1095 21.4141 33.6251H30.0072C30.282 47.9136 36.5769 53.9588 41.5729 55.2078V33.6251H49.6414V45.9402C54.5625 45.4156 59.7583 39.7951 61.5069 33.6001H69.5505C68.8946 36.8069 67.5845 39.8441 65.702 42.5218C63.8194 45.1995 61.4049 47.4602 58.6093 49.1626C61.7291 50.7154 64.4843 52.912 66.6932 55.6074C68.9021 58.3029 70.5144 61.436 71.424 64.8001H62.5561C60.6576 58.8798 55.9114 54.2835 49.6414 53.659V64.8001H48.6672H48.6422Z" fill="white"/>
</svg>
