<svg width="96" height="96" viewBox="0 0 96 96" fill="none" xmlns="http://www.w3.org/2000/svg">
<g clip-path="url(#clip0_2323_14708)">
<path d="M49.2031 1.2002C75.0461 1.2002 96.0029 22.1524 96.0029 48C96.0029 73.8476 75.0461 94.7998 49.2031 94.7998C23.3507 94.7998 2.40332 73.8477 2.40332 48C2.40332 22.1523 23.3507 1.2002 49.2031 1.2002Z" fill="#FC3F1D" stroke="white" stroke-width="2.4"/>
<path d="M54.6363 25.7324H50.4246C42.7032 25.7324 38.6419 29.7194 38.6419 35.5977C38.6419 42.2427 41.4497 45.3561 47.2157 49.3477L51.9789 52.6191L38.2909 73.4695H28.0625L40.3466 54.8171C33.2815 49.6544 29.316 44.6404 29.316 36.1599C29.316 25.5279 36.5862 18.2695 50.3745 18.2695H64.0625V73.4184H54.6363V25.7324Z" fill="white"/>
</g>
<defs>
<clipPath id="clip0_2323_14708">
<rect width="96" height="96" fill="white"/>
</clipPath>
</defs>
</svg>
