<svg width="96" height="96" viewBox="0 0 96 96" fill="none" xmlns="http://www.w3.org/2000/svg">
<path d="M48 1.2002C73.8469 1.2002 94.7998 22.1531 94.7998 48C94.7998 73.8469 73.8469 94.7998 48 94.7998C22.1531 94.7998 1.2002 73.8469 1.2002 48C1.2002 22.1531 22.1531 1.2002 48 1.2002Z" fill="#FF8800" stroke="white" stroke-width="2.4"/>
<path fill-rule="evenodd" clip-rule="evenodd" d="M62.6288 34.4108C62.6288 42.4184 56.1008 48.9464 48.0928 48.9464C39.9982 48.9464 33.4702 42.4184 33.4702 34.4108C33.4702 26.403 39.9982 19.875 48.0928 19.875C56.1008 19.875 62.6288 26.403 62.6288 34.4108ZM54.0988 34.4108C54.0988 31.1032 51.4004 28.405 48.0928 28.405C44.6984 28.405 42 31.1032 42.0872 34.4108C42.0872 37.7183 44.7856 40.4164 48.0928 40.4164C51.4004 40.4164 54.0988 37.7183 54.0988 34.4108Z" fill="white"/>
<path d="M62.3676 57.3896C59.7564 59.0432 56.884 60.1748 53.9248 60.8712L62.1936 68.8788C63.8472 70.5328 63.8472 73.2308 62.1936 74.8848C60.54 76.5384 57.8416 76.5384 56.188 74.8848L48.18 66.8768L40.1724 74.8848C39.302 75.668 38.2575 76.1032 37.126 76.1032C35.9945 76.1032 34.95 75.7552 34.0796 74.8848C32.4258 73.2308 32.4258 70.5328 34.0796 68.8788L42.1744 60.784C39.2149 60.0876 36.3426 58.9564 33.7314 57.3024C31.7294 56.084 31.1202 53.4728 32.2517 51.4708C33.5573 49.4688 36.1685 48.9468 38.1705 50.1652C44.0892 53.908 51.8356 53.908 57.7544 50.1652C59.7564 48.8596 62.4548 49.4688 63.6732 51.4708C64.9788 53.4728 64.3696 56.1708 62.3676 57.3896Z" fill="white"/>
</svg>
