<svg width="96" height="96" viewBox="0 0 96 96" fill="none" xmlns="http://www.w3.org/2000/svg">
<path d="M48 1.2002C73.8469 1.2002 94.7998 22.1531 94.7998 48C94.7998 73.8469 73.8469 94.7998 48 94.7998C22.1531 94.7998 1.2002 73.8469 1.2002 48C1.2002 22.1531 22.1531 1.2002 48 1.2002Z" fill="#37AEE2" stroke="white" stroke-width="2.4"/>
<path d="M37.9464 71.9129C36.1978 71.9129 36.4949 71.2048 35.8919 69.4191L30.75 51.2684L70.3299 26.0835" fill="#C8DAEA"/>
<path d="M39.0703 71.9123C39.9225 71.9123 40.299 71.1649 40.7747 70.2781L45.3198 61.803L39.6504 55.2471" fill="#A9C9DD"/>
<path d="M35.6665 56.994L58.0547 73.3147C60.6095 74.7056 62.4534 73.9855 63.0898 70.9743L72.2029 28.6009C73.136 24.91 70.777 23.2359 68.3329 24.3307L14.8207 44.6904C11.168 46.136 11.1893 48.1468 14.1549 49.0427L27.8873 53.2719L59.6794 33.4813C61.1802 32.5833 62.5577 33.0661 61.4271 34.0562" fill="url(#paint0_linear_2323_14712)"/>
<defs>
<linearGradient id="paint0_linear_2323_14712" x1="51.8535" y1="45.8431" x2="60.3538" y2="65.447" gradientUnits="userSpaceOnUse">
<stop stop-color="#EFF7FC"/>
<stop offset="1" stop-color="white"/>
</linearGradient>
</defs>
</svg>
