<svg width="31" height="31" viewBox="0 0 31 31" fill="none" xmlns="http://www.w3.org/2000/svg">
<mask id="mask0_1942_6658" style="mask-type:alpha" maskUnits="userSpaceOnUse" x="0" y="0" width="31" height="31">
<path fill-rule="evenodd" clip-rule="evenodd" d="M7.61459 28.3131L8.15868 28.6357C10.446 29.9924 13.0678 30.7102 15.7411 30.7113H15.7471C23.9583 30.7113 30.6413 24.0314 30.6446 15.821C30.6461 11.8424 29.0981 8.10128 26.2854 5.28681C23.4726 2.47216 19.7322 0.921215 15.7531 0.919922C7.53561 0.919922 0.852521 7.59909 0.849244 15.8089C0.848123 18.6225 1.63571 21.3626 3.12698 23.7332L3.48119 24.2967L1.97621 29.7913L7.61459 28.3131ZM24.777 20.0822C24.6651 19.8953 24.3666 19.7834 23.9187 19.5593C23.4709 19.3352 21.269 18.2523 20.8585 18.1028C20.448 17.9536 20.1494 17.879 19.8509 18.327C19.5524 18.775 18.6941 19.7834 18.4327 20.0822C18.1715 20.3809 17.9103 20.4183 17.4625 20.1942C17.0147 19.9702 15.5716 19.4974 13.861 17.9724C12.5295 16.7854 11.6307 15.3196 11.3695 14.8715C11.1083 14.4234 11.3416 14.181 11.5658 13.9579C11.7673 13.7573 12.0137 13.4351 12.2377 13.1737C12.4616 12.9124 12.5362 12.7255 12.6855 12.4269C12.8348 12.1281 12.7601 11.8668 12.6482 11.6427C12.5362 11.4185 11.6406 9.21519 11.2674 8.31889C10.9038 7.44612 10.5345 7.56427 10.2596 7.55049C9.99873 7.53756 9.69987 7.53471 9.40136 7.53471C9.10276 7.53471 8.61757 7.64666 8.20705 8.0949C7.79653 8.54297 6.63956 9.62603 6.63956 11.8292C6.63956 14.0326 8.24439 16.161 8.46831 16.4598C8.69224 16.7587 11.6263 21.2798 16.1189 23.219C17.1874 23.6802 18.0217 23.9556 18.6721 24.1619C19.745 24.5026 20.7212 24.4546 21.493 24.3392C22.3534 24.2108 24.1427 23.2564 24.5159 22.2109C24.889 21.165 24.889 20.2688 24.777 20.0822Z" fill="black"/>
</mask>
<g mask="url(#mask0_1942_6658)">
<path d="M40.3598 -9H-10.0001V41.36H40.3598V-9Z" fill="url(#paint0_linear_1942_6658)"/>
</g>
<defs>
<linearGradient id="paint0_linear_1942_6658" x1="15.18" y1="41.36" x2="15.18" y2="-9" gradientUnits="userSpaceOnUse">
<stop stop-color="#25CF43"/>
<stop offset="1" stop-color="#61FD7D"/>
</linearGradient>
</defs>
</svg>
