<svg width="36" height="36" viewBox="0 0 36 36" fill="none" xmlns="http://www.w3.org/2000/svg">
<path d="M18 36C27.9411 36 36 27.9411 36 18C36 8.05888 27.9411 0 18 0C8.05888 0 0 8.05888 0 18C0 27.9411 8.05888 36 18 36Z" fill="url(#paint0_linear_1942_5078)"/>
<path d="M14.7 26.25C14.1168 26.25 14.2159 26.0298 14.0148 25.4746L12.3 19.8309L25.5 12" fill="#C8DAEA"/>
<path d="M14.7 26.2491C15.15 26.2491 15.3488 26.0433 15.6 25.7991L18 23.4654L15.0063 21.6602" fill="#A9C9DD"/>
<path d="M15.006 21.6606L22.26 27.02C23.0878 27.4767 23.6852 27.2402 23.8914 26.2515L26.8442 12.337C27.1465 11.125 26.3821 10.5753 25.5903 10.9348L8.25175 17.6204C7.06824 18.0951 7.07514 18.7554 8.03602 19.0496L12.4855 20.4384L22.7864 13.9396C23.2727 13.6447 23.719 13.8033 23.3527 14.1284" fill="url(#paint1_linear_1942_5078)"/>
<defs>
<linearGradient id="paint0_linear_1942_5078" x1="24.0012" y1="6.0012" x2="15.0012" y2="27" gradientUnits="userSpaceOnUse">
<stop stop-color="#37AEE2"/>
<stop offset="1" stop-color="#1E96C8"/>
</linearGradient>
<linearGradient id="paint1_linear_1942_5078" x1="20.2507" y1="17.999" x2="23.0676" y2="24.4089" gradientUnits="userSpaceOnUse">
<stop stop-color="#EFF7FC"/>
<stop offset="1" stop-color="white"/>
</linearGradient>
</defs>
</svg>
