<svg width="36" height="36" viewBox="0 0 36 36" fill="none" xmlns="http://www.w3.org/2000/svg">
<path d="M0 18C0 8.05888 8.05888 0 18 0C27.9411 0 36 8.05888 36 18C36 27.9411 27.9411 36 18 36C8.05888 36 0 27.9411 0 18Z" fill="#FF8800"/>
<path fill-rule="evenodd" clip-rule="evenodd" d="M23.4858 12.904C23.4858 15.9069 21.0378 18.3549 18.0348 18.3549C14.9993 18.3549 12.5513 15.9069 12.5513 12.904C12.5513 9.90114 14.9993 7.45312 18.0348 7.45312C21.0378 7.45312 23.4858 9.90114 23.4858 12.904ZM20.2871 12.904C20.2871 11.6637 19.2752 10.6519 18.0348 10.6519C16.7619 10.6519 15.75 11.6637 15.7827 12.904C15.7827 14.1444 16.7946 15.1562 18.0348 15.1562C19.2752 15.1562 20.2871 14.1444 20.2871 12.904Z" fill="white"/>
<path d="M23.3879 21.5211C22.4087 22.1412 21.3315 22.5655 20.2218 22.8267L23.3226 25.8296C23.9427 26.4498 23.9427 27.4616 23.3226 28.0818C22.7025 28.7019 21.6906 28.7019 21.0705 28.0818L18.0675 25.0788L15.0647 28.0818C14.7382 28.3755 14.3466 28.5387 13.9222 28.5387C13.4979 28.5387 13.1062 28.4082 12.7798 28.0818C12.1597 27.4616 12.1597 26.4498 12.7798 25.8296L15.8154 22.794C14.7056 22.5329 13.6285 22.1086 12.6493 21.4884C11.8985 21.0315 11.6701 20.0523 12.0944 19.3016C12.584 18.5508 13.5632 18.3551 14.3139 18.812C16.5335 20.2155 19.4384 20.2155 21.6579 18.812C22.4087 18.3224 23.4206 18.5508 23.8775 19.3016C24.3671 20.0523 24.1386 21.064 23.3879 21.5211Z" fill="white"/>
</svg>
