<svg width="36" height="36" viewBox="0 0 36 36" fill="none" xmlns="http://www.w3.org/2000/svg">
<g clip-path="url(#clip0_1366_22312)">
<path d="M36 18C36 8.05888 27.9411 0 18 0C8.05888 0 0 8.05888 0 18C0 27.9411 8.05888 36 18 36C27.9411 36 36 27.9411 36 18Z" fill="#0077FF"/>
<path d="M19.024 25.0492C11.728 25.0492 7.56801 20.0572 7.39734 11.7372H11.0667C11.184 17.8386 13.872 20.4199 16.0053 20.9532V11.7372H19.4507V16.9959C21.552 16.7719 23.7707 14.3719 24.5173 11.7266H27.952C27.672 13.0959 27.1125 14.3928 26.3087 15.5362C25.5048 16.6796 24.4738 17.6449 23.28 18.3719C24.6122 19.035 25.7887 19.9729 26.7319 21.1239C27.6751 22.2749 28.3636 23.6127 28.752 25.0492H24.9653C24.1547 22.5212 22.128 20.5586 19.4507 20.2919V25.0492H19.0347H19.024Z" fill="white"/>
</g>
<defs>
<clipPath id="clip0_1366_22312">
<rect width="36" height="36" fill="white"/>
</clipPath>
</defs>
</svg>
