<svg width="681" height="193" viewBox="0 0 681 193" fill="none" xmlns="http://www.w3.org/2000/svg">
<rect opacity="0.2" x="170" width="28" height="226.384" rx="10" fill="#A08CFB"/>
<rect x="170.032" y="91.0488" width="28.072" height="160.845" rx="10" fill="url(#paint0_linear_1397_9045)"/>
<rect x="170.032" y="149.914" width="28.072" height="101.979" rx="10" fill="url(#paint1_linear_1397_9045)"/>
<rect opacity="0.2" x="338" width="29" height="226.384" rx="10" fill="#A08CFB"/>
<rect x="338.465" y="78.6123" width="28.072" height="173.281" rx="10" fill="url(#paint2_linear_1397_9045)"/>
<rect x="338.465" y="141.623" width="28.072" height="110.27" rx="10" fill="url(#paint3_linear_1397_9045)"/>
<rect opacity="0.2" x="226" width="28" height="226.384" rx="10" fill="#A08CFB"/>
<rect x="226.176" y="52.9102" width="28.072" height="198.984" rx="10" fill="url(#paint4_linear_1397_9045)"/>
<rect x="226.176" y="125.871" width="28.072" height="126.023" rx="10" fill="url(#paint5_linear_1397_9045)"/>
<rect opacity="0.2" x="395" width="28" height="226.384" rx="10" fill="#A08CFB"/>
<rect x="394.607" y="33.0117" width="28.072" height="218.882" rx="10" fill="url(#paint6_linear_1397_9045)"/>
<rect x="394.607" y="113.435" width="28.072" height="138.459" rx="10" fill="url(#paint7_linear_1397_9045)"/>
<rect opacity="0.2" x="282" width="28" height="226.384" rx="10" fill="#A08CFB"/>
<rect x="282.319" y="125.871" width="28.072" height="126.023" rx="10" fill="url(#paint8_linear_1397_9045)"/>
<rect x="282.319" y="172.3" width="28.072" height="79.5934" rx="10" fill="url(#paint9_linear_1397_9045)"/>
<rect opacity="0.2" x="451" width="28" height="226.384" rx="10" fill="#A08CFB"/>
<rect x="450.752" y="164.838" width="28.072" height="87.0553" rx="10" fill="url(#paint10_linear_1397_9045)"/>
<rect opacity="0.2" x="507" width="28" height="226.384" rx="10" fill="#A08CFB"/>
<rect x="506.896" y="91.0488" width="28.072" height="160.845" rx="10" fill="url(#paint11_linear_1397_9045)"/>
<rect x="506.896" y="149.914" width="28.072" height="101.979" rx="10" fill="url(#paint12_linear_1397_9045)"/>
<defs>
<linearGradient id="paint0_linear_1397_9045" x1="184.068" y1="91.0488" x2="184.068" y2="251.894" gradientUnits="userSpaceOnUse">
<stop stop-color="#B09FFF"/>
<stop offset="1" stop-color="#8D79F6"/>
</linearGradient>
<linearGradient id="paint1_linear_1397_9045" x1="184.068" y1="149.914" x2="184.068" y2="251.893" gradientUnits="userSpaceOnUse">
<stop stop-color="#FFD572"/>
<stop offset="1" stop-color="#FEBD38"/>
</linearGradient>
<linearGradient id="paint2_linear_1397_9045" x1="352.501" y1="78.6123" x2="352.501" y2="251.894" gradientUnits="userSpaceOnUse">
<stop stop-color="#B09FFF"/>
<stop offset="1" stop-color="#8D79F6"/>
</linearGradient>
<linearGradient id="paint3_linear_1397_9045" x1="352.501" y1="141.623" x2="352.501" y2="251.893" gradientUnits="userSpaceOnUse">
<stop stop-color="#FFD572"/>
<stop offset="1" stop-color="#FEBD38"/>
</linearGradient>
<linearGradient id="paint4_linear_1397_9045" x1="240.212" y1="52.9102" x2="240.212" y2="251.894" gradientUnits="userSpaceOnUse">
<stop stop-color="#B09FFF"/>
<stop offset="1" stop-color="#8D79F6"/>
</linearGradient>
<linearGradient id="paint5_linear_1397_9045" x1="240.212" y1="125.871" x2="240.212" y2="251.894" gradientUnits="userSpaceOnUse">
<stop stop-color="#FFD572"/>
<stop offset="1" stop-color="#FEBD38"/>
</linearGradient>
<linearGradient id="paint6_linear_1397_9045" x1="408.643" y1="33.0117" x2="408.643" y2="251.894" gradientUnits="userSpaceOnUse">
<stop stop-color="#B09FFF"/>
<stop offset="1" stop-color="#8D79F6"/>
</linearGradient>
<linearGradient id="paint7_linear_1397_9045" x1="408.643" y1="113.435" x2="408.643" y2="251.894" gradientUnits="userSpaceOnUse">
<stop stop-color="#FFD572"/>
<stop offset="1" stop-color="#FEBD38"/>
</linearGradient>
<linearGradient id="paint8_linear_1397_9045" x1="296.355" y1="125.871" x2="296.355" y2="251.894" gradientUnits="userSpaceOnUse">
<stop stop-color="#B09FFF"/>
<stop offset="1" stop-color="#8D79F6"/>
</linearGradient>
<linearGradient id="paint9_linear_1397_9045" x1="296.355" y1="172.3" x2="296.355" y2="251.893" gradientUnits="userSpaceOnUse">
<stop stop-color="#FFD572"/>
<stop offset="1" stop-color="#FEBD38"/>
</linearGradient>
<linearGradient id="paint10_linear_1397_9045" x1="464.788" y1="164.838" x2="464.788" y2="251.893" gradientUnits="userSpaceOnUse">
<stop stop-color="#B09FFF"/>
<stop offset="1" stop-color="#8D79F6"/>
</linearGradient>
<linearGradient id="paint11_linear_1397_9045" x1="520.931" y1="91.0488" x2="520.931" y2="251.894" gradientUnits="userSpaceOnUse">
<stop stop-color="#B09FFF"/>
<stop offset="1" stop-color="#8D79F6"/>
</linearGradient>
<linearGradient id="paint12_linear_1397_9045" x1="520.931" y1="149.914" x2="520.931" y2="251.893" gradientUnits="userSpaceOnUse">
<stop stop-color="#FFD572"/>
<stop offset="1" stop-color="#FEBD38"/>
</linearGradient>
</defs>
</svg>
