<svg width="449" height="193" viewBox="0 0 449 193" fill="none" xmlns="http://www.w3.org/2000/svg">
<path d="M397.001 184.045C401.419 183.978 404.964 180.34 404.701 175.929C404.626 174.677 404.538 173.427 404.438 172.181C404.082 167.778 400.063 164.672 395.68 165.223L346.426 171.414C342.938 171.852 340.481 174.995 340.728 178.502C340.975 182.007 343.85 184.854 347.364 184.801L397.001 184.045Z" fill="#B2B5BE"/>
<path d="M394.876 159.613C399.24 158.916 402.231 154.809 401.339 150.481C401.085 149.252 400.819 148.027 400.541 146.807C399.558 142.5 395.136 140.003 390.878 141.176L342.997 154.366C339.621 155.296 337.651 158.764 338.395 162.186C339.138 165.607 342.374 167.988 345.831 167.436L394.876 159.613Z" fill="#B2B5BE"/>
<path d="M389.275 135.744C393.494 134.429 395.866 129.935 394.362 125.779C393.935 124.599 393.495 123.424 393.044 122.255C391.454 118.134 386.721 116.296 382.675 118.066L337.186 137.963C333.972 139.369 332.522 143.101 333.75 146.386C334.978 149.67 338.523 151.554 341.87 150.511L389.275 135.744Z" fill="#B2B5BE"/>
<path d="M380.308 112.919C384.297 111.015 386.002 106.227 383.92 102.328C383.329 101.221 382.726 100.12 382.112 99.026C379.951 95.1747 375.005 94.0289 371.252 96.3561L329.079 122.506C326.087 124.361 325.182 128.281 326.873 131.369C328.562 134.455 332.35 135.811 335.524 134.296L380.308 112.919Z" fill="#B2B5BE"/>
<path d="M368.174 91.5977C371.853 89.1462 372.86 84.1644 370.246 80.6001C369.503 79.5875 368.75 78.5827 367.986 77.5861C365.301 74.0804 360.243 73.6464 356.857 76.4815L318.829 108.324C316.123 110.59 315.782 114.611 317.899 117.436C320.014 120.258 323.965 121.062 326.899 119.106L368.174 91.5977Z" fill="#B2B5BE"/>
<path d="M353.136 72.2065C356.43 69.2591 356.722 64.1847 353.63 61.0259C352.751 60.1285 351.863 59.24 350.966 58.3608C347.811 55.2703 342.743 55.5565 339.793 58.8422L306.659 95.7405C304.3 98.3673 304.533 102.398 307.029 104.895C309.522 107.389 313.546 107.625 316.174 105.274L353.136 72.2065Z" fill="#B2B5BE"/>
<path d="M335.503 55.1372C338.347 51.7529 337.918 46.6882 334.409 43.9997C333.412 43.2358 332.406 42.482 331.393 41.7385C327.832 39.1266 322.855 40.1301 320.402 43.8019L292.843 85.0415C290.886 87.9698 291.69 91.9183 294.508 94.0313C297.323 96.1423 301.328 95.8055 303.592 93.1118L335.503 55.1372Z" fill="#B2B5BE"/>
<path d="M315.63 40.7438C317.963 36.9894 316.818 32.0375 312.962 29.8767C311.866 29.2627 310.763 28.6599 309.653 28.0682C305.756 25.9908 300.973 27.6956 299.07 31.6808L277.686 76.451C276.173 79.6184 277.534 83.4014 280.613 85.0855C283.69 86.7682 287.589 85.8647 289.44 82.886L315.63 40.7438Z" fill="#B2B5BE"/>
<path d="M293.911 29.3347C295.683 25.2852 293.84 20.5487 289.715 18.9625C288.543 18.5121 287.365 18.0735 286.182 17.6468C282.026 16.1491 277.537 18.5225 276.225 22.74L261.484 70.1191C260.443 73.4656 262.341 77.0126 265.625 78.2364C268.907 79.4595 272.62 78.0047 274.023 74.7959L293.911 29.3347Z" fill="#B2B5BE"/>
<path d="M270.78 21.1538C271.952 16.8926 269.45 12.4699 265.141 11.4905C263.918 11.2126 262.69 10.947 261.457 10.6939C257.13 9.80533 253.024 12.795 252.327 17.1572L244.501 66.1267C243.946 69.6007 246.356 72.8562 249.795 73.6009C253.232 74.3452 256.694 72.3605 257.627 68.9699L270.78 21.1538Z" fill="#B2B5BE"/>
<path d="M246.706 16.3578C247.26 11.9738 244.156 7.95278 239.752 7.59179C239.125 7.54039 238.496 7.49214 237.867 7.44708C237.238 7.40198 236.608 7.36017 235.98 7.32164C231.57 7.05133 227.924 10.5878 227.847 15.0053L226.98 64.526C226.918 68.0768 229.749 70.9881 233.291 71.2418C236.834 71.4956 240.051 69.0177 240.496 65.4942L246.706 16.3578Z" fill="#B2B5BE"/>
<path d="M222.17 14.9989C222.102 10.5812 218.464 7.03592 214.054 7.29871C212.798 7.37358 211.544 7.46148 210.294 7.56228C205.889 7.91742 202.783 11.9373 203.335 16.3216L209.528 65.523C209.967 69.0126 213.112 71.4714 216.621 71.2245C220.13 70.9776 222.98 68.0997 222.926 64.5824L222.17 14.9989Z" fill="#B2B5BE"/>
<path d="M197.719 17.1187C197.022 12.7565 192.917 9.76657 188.59 10.6568C187.357 10.9105 186.129 11.1769 184.905 11.4558C180.596 12.4376 178.097 16.8623 179.272 21.1226L192.468 68.9525C193.399 72.3294 196.867 74.2992 200.291 73.5564C203.716 72.8132 206.1 69.5736 205.547 66.1129L197.719 17.1187Z" fill="#743FDD"/>
<path d="M173.832 22.712C172.517 18.4955 168.026 16.1257 163.871 17.6264C162.688 18.054 161.51 18.4936 160.338 18.9452C156.213 20.5342 154.373 25.2716 156.147 29.3202L176.053 74.7627C177.461 77.9756 181.191 79.4262 184.477 78.1992C187.766 76.9713 189.652 73.4212 188.607 70.0704L173.832 22.712Z" fill="#743FDD"/>
<path d="M150.989 31.6686C149.084 27.684 144.301 25.9808 140.404 28.0584C139.294 28.6501 138.191 29.2531 137.094 29.8673C133.238 32.0278 132.091 36.9792 134.423 40.7344L160.587 82.8672C162.443 85.8568 166.36 86.7616 169.448 85.0733C172.538 83.3836 173.897 79.59 172.378 76.4123L150.989 31.6686Z" fill="#743FDD"/>
<path d="M129.649 43.7911C127.197 40.118 122.221 39.1118 118.658 41.7209C117.644 42.4635 116.638 43.2165 115.64 43.9799C112.129 46.6653 111.694 51.7294 114.534 55.1167L146.397 93.1121C148.663 95.8148 152.68 96.155 155.504 94.0413C158.331 91.9255 159.136 87.9691 157.176 85.0324L129.649 43.7911Z" fill="#743FDD"/>
<path d="M110.241 58.8175C107.294 55.5285 102.226 55.2367 99.068 58.3234C98.1698 59.2014 97.2806 60.0888 96.4007 60.9855C93.3045 64.1406 93.591 69.2154 96.8822 72.1665L133.807 105.275C136.433 107.629 140.458 107.397 142.954 104.905C145.453 102.411 145.689 98.382 143.333 95.7525L110.241 58.8175Z" fill="#743FDD"/>
<path d="M93.1564 76.4369C89.7736 73.5984 84.7152 74.0271 82.0268 77.5305C81.2628 78.5261 80.5089 79.53 79.7652 80.5423C77.148 84.1046 78.1527 89.087 81.8297 91.5405L123.103 119.08C126.029 121.033 129.972 120.231 132.084 117.418C134.198 114.602 133.861 110.592 131.164 108.329L93.1564 76.4369Z" fill="#743FDD"/>
<path d="M78.7508 96.2965C74.9984 93.9679 70.0521 95.112 67.8907 98.9631C67.2771 100.056 66.6745 101.157 66.0831 102.265C64.0013 106.164 65.7078 110.951 69.6974 112.854L114.508 134.226C117.672 135.735 121.449 134.376 123.133 131.301C124.818 128.224 123.914 124.323 120.933 122.473L78.7508 96.2965Z" fill="#743FDD"/>
<path d="M67.3328 118.001C63.2855 116.234 58.5534 118.074 56.9663 122.196C56.5163 123.364 56.0781 124.539 55.6519 125.719C54.151 129.876 56.5261 134.369 60.7467 135.68L108.172 150.414C111.515 151.452 115.057 149.557 116.28 146.278C117.505 142.996 116.05 139.282 112.84 137.88L67.3328 118.001Z" fill="#743FDD"/>
<path d="M59.1468 141.117C54.8874 139.948 50.4676 142.448 49.4873 146.755C49.2098 147.974 48.9446 149.198 48.6917 150.428C47.8014 154.756 50.7923 158.863 55.156 159.56L104.176 167.382C107.647 167.936 110.898 165.528 111.643 162.094C112.388 158.658 110.403 155.196 107.013 154.265L59.1468 141.117Z" fill="#743FDD"/>
<path d="M45.4407 174.009C45.4857 173.381 45.5339 172.754 45.5852 172.129C45.9466 167.726 49.9664 164.622 54.3493 165.175L103.54 171.383C107.061 171.828 109.537 175.042 109.283 178.582C109.029 182.121 106.12 184.95 102.571 184.888L52.999 184.022C48.5813 183.944 45.0446 180.298 45.3155 175.888C45.354 175.262 45.3957 174.636 45.4407 174.009Z" fill="#743FDD"/>
<path d="M206.165 111.727V135H201.938V117.114H201.744C201.593 117.348 201.305 117.602 200.881 117.875C200.456 118.14 199.911 118.367 199.244 118.557C198.585 118.746 197.816 118.841 196.938 118.841V115.432C197.741 115.432 198.456 115.292 199.085 115.011C199.714 114.731 200.248 114.383 200.688 113.966C201.134 113.549 201.479 113.136 201.722 112.727C201.964 112.318 202.097 111.985 202.119 111.727H206.165ZM212.952 135L222.849 115.409V115.25H211.361V111.727H227.213V115.33L217.327 135H212.952ZM243.324 130.636V129.409C243.324 128.508 243.513 127.678 243.892 126.92C244.278 126.163 244.839 125.553 245.574 125.091C246.309 124.629 247.199 124.398 248.244 124.398C249.32 124.398 250.222 124.629 250.949 125.091C251.676 125.545 252.225 126.152 252.597 126.909C252.975 127.667 253.165 128.5 253.165 129.409V130.636C253.165 131.538 252.975 132.367 252.597 133.125C252.218 133.883 251.661 134.492 250.926 134.955C250.199 135.417 249.305 135.648 248.244 135.648C247.184 135.648 246.286 135.417 245.551 134.955C244.816 134.492 244.259 133.883 243.881 133.125C243.509 132.367 243.324 131.538 243.324 130.636ZM246.29 129.409V130.636C246.29 131.235 246.434 131.784 246.722 132.284C247.009 132.784 247.517 133.034 248.244 133.034C248.979 133.034 249.483 132.788 249.756 132.295C250.036 131.795 250.176 131.242 250.176 130.636V129.409C250.176 128.803 250.044 128.25 249.778 127.75C249.513 127.242 249.002 126.989 248.244 126.989C247.532 126.989 247.028 127.242 246.733 127.75C246.438 128.25 246.29 128.803 246.29 129.409ZM231.494 117.318V116.091C231.494 115.182 231.688 114.348 232.074 113.591C232.46 112.833 233.021 112.227 233.756 111.773C234.491 111.311 235.381 111.08 236.426 111.08C237.494 111.08 238.392 111.311 239.119 111.773C239.854 112.227 240.407 112.833 240.778 113.591C241.15 114.348 241.335 115.182 241.335 116.091V117.318C241.335 118.227 241.146 119.061 240.767 119.818C240.396 120.568 239.843 121.17 239.108 121.625C238.373 122.08 237.479 122.307 236.426 122.307C235.358 122.307 234.456 122.08 233.722 121.625C232.994 121.17 232.441 120.564 232.062 119.807C231.684 119.049 231.494 118.22 231.494 117.318ZM234.483 116.091V117.318C234.483 117.924 234.623 118.477 234.903 118.977C235.191 119.47 235.699 119.716 236.426 119.716C237.153 119.716 237.653 119.47 237.926 118.977C238.206 118.477 238.347 117.924 238.347 117.318V116.091C238.347 115.485 238.214 114.932 237.949 114.432C237.684 113.924 237.176 113.67 236.426 113.67C235.706 113.67 235.203 113.924 234.915 114.432C234.627 114.939 234.483 115.492 234.483 116.091ZM232.79 135L248.79 111.727H251.631L235.631 135H232.79Z" fill="black"/>
<path d="M218.791 147.818H220.024V155.097C220.024 155.746 219.904 156.298 219.666 156.752C219.427 157.206 219.091 157.551 218.657 157.786C218.222 158.022 217.71 158.139 217.12 158.139C216.564 158.139 216.068 158.038 215.634 157.836C215.2 157.63 214.858 157.339 214.61 156.961C214.361 156.583 214.237 156.134 214.237 155.614H215.45C215.45 155.902 215.521 156.154 215.664 156.369C215.81 156.581 216.008 156.747 216.26 156.866C216.512 156.986 216.799 157.045 217.12 157.045C217.475 157.045 217.777 156.971 218.025 156.822C218.274 156.673 218.463 156.454 218.592 156.165C218.725 155.874 218.791 155.518 218.791 155.097V147.818ZM224.583 158.179C224.099 158.179 223.66 158.088 223.265 157.906C222.871 157.72 222.558 157.453 222.326 157.105C222.094 156.754 221.978 156.33 221.978 155.832C221.978 155.395 222.064 155.04 222.236 154.768C222.408 154.493 222.639 154.278 222.927 154.122C223.216 153.966 223.534 153.85 223.882 153.774C224.233 153.695 224.586 153.632 224.941 153.585C225.405 153.526 225.781 153.481 226.069 153.451C226.361 153.418 226.573 153.363 226.706 153.287C226.842 153.211 226.909 153.078 226.909 152.889V152.849C226.909 152.359 226.775 151.978 226.507 151.706C226.242 151.434 225.839 151.298 225.299 151.298C224.739 151.298 224.299 151.421 223.981 151.666C223.663 151.911 223.439 152.173 223.31 152.452L222.196 152.054C222.395 151.59 222.66 151.229 222.992 150.97C223.327 150.708 223.691 150.526 224.086 150.423C224.483 150.317 224.874 150.264 225.259 150.264C225.504 150.264 225.786 150.294 226.104 150.354C226.426 150.41 226.735 150.528 227.034 150.707C227.335 150.886 227.586 151.156 227.784 151.517C227.983 151.878 228.083 152.362 228.083 152.969V158H226.909V156.966H226.85C226.77 157.132 226.638 157.309 226.452 157.498C226.266 157.687 226.02 157.848 225.711 157.98C225.403 158.113 225.027 158.179 224.583 158.179ZM224.762 157.125C225.226 157.125 225.617 157.034 225.935 156.852C226.257 156.669 226.498 156.434 226.661 156.146C226.827 155.857 226.909 155.554 226.909 155.236V154.162C226.86 154.222 226.75 154.276 226.581 154.326C226.416 154.372 226.223 154.414 226.005 154.45C225.789 154.483 225.579 154.513 225.373 154.54C225.171 154.563 225.007 154.583 224.881 154.599C224.576 154.639 224.291 154.704 224.026 154.793C223.764 154.879 223.552 155.01 223.39 155.186C223.23 155.358 223.151 155.594 223.151 155.892C223.151 156.3 223.302 156.608 223.603 156.817C223.908 157.022 224.294 157.125 224.762 157.125ZM231.398 153.406V158H230.224V150.364H231.358V151.557H231.457C231.636 151.169 231.908 150.857 232.273 150.622C232.637 150.384 233.108 150.264 233.684 150.264C234.202 150.264 234.654 150.37 235.042 150.582C235.43 150.791 235.731 151.109 235.947 151.537C236.162 151.961 236.27 152.498 236.27 153.148V158H235.096V153.227C235.096 152.627 234.941 152.16 234.629 151.825C234.318 151.487 233.89 151.318 233.346 151.318C232.972 151.318 232.637 151.399 232.342 151.562C232.05 151.724 231.82 151.961 231.651 152.273C231.482 152.584 231.398 152.962 231.398 153.406Z" fill="#B2B5BE"/>
</svg>
