<svg width="681" height="233" viewBox="0 0 681 233" fill="none" xmlns="http://www.w3.org/2000/svg">
<path d="M680 51.5082C667.878 46.5287 672.015 44.5064 652.45 42.0019C618.97 37.7161 615.732 88.7072 581.848 88.6303C556.687 88.5732 557.951 58.1511 533.361 53.7739C507.69 49.2046 494.552 77.3149 469.445 70.9758C450.238 66.1263 452.93 39.4157 431.977 42.0042C415.888 43.9919 414.648 69.5843 398.467 70.9755C334.217 76.499 400.585 118.137 336.105 114.896C270.028 111.575 330.395 192.265 264.477 197.284C236.546 199.41 231.971 225.11 199.46 225.803C178.415 226.251 179.036 257.684 158.135 259.754C128.373 262.7 140.129 284.171 110.199 285.556C86.506 286.653 83.7397 243.467 67.2213 242.552C45.0054 241.321 54.6225 257.616 32.5086 259.754C18.224 261.134 1.02176e-06 228.519 1.02176e-06 228.519" stroke="url(#paint0_linear_1397_9019)" stroke-width="5" stroke-linecap="round"/>
<path opacity="0.5" d="M384.408 16H483.422V559.122H384.408V16Z" fill="url(#paint1_linear_1397_9019)"/>
<g filter="url(#filter0_d_1397_9019)">
<path d="M456.147 42.4037C456.147 54.5736 446.282 64.4392 434.112 64.4392C421.942 64.4392 412.076 54.5736 412.076 42.4037C412.076 30.2338 421.942 20.3682 434.112 20.3682C446.282 20.3682 456.147 30.2338 456.147 42.4037Z" fill="white"/>
<path d="M434.111 25.8682C443.244 25.8682 450.647 33.2712 450.647 42.4033C450.647 51.5356 443.244 58.9395 434.111 58.9395C424.979 58.9393 417.576 51.5355 417.576 42.4033C417.576 33.2713 424.979 25.8684 434.111 25.8682Z" stroke="url(#paint2_linear_1397_9019)" stroke-width="11"/>
</g>
<path d="M437.893 184.714C437.893 185.183 437.53 185.511 436.961 185.511L429.438 185.517C428.864 185.517 428.506 185.188 428.506 184.714C428.506 184.468 428.612 184.269 428.746 183.987L432.321 176.593C432.578 176.071 432.842 175.878 433.2 175.878C433.557 175.878 433.821 176.071 434.073 176.593L437.653 183.987C437.787 184.263 437.893 184.462 437.893 184.714Z" fill="white"/>
<path d="M437.893 222.174C437.893 222.643 437.53 222.971 436.961 222.971L429.438 222.977C428.864 222.977 428.506 222.648 428.506 222.174C428.506 221.928 428.612 221.729 428.746 221.447L432.321 214.053C432.578 213.531 432.842 213.338 433.2 213.338C433.557 213.338 433.821 213.531 434.073 214.053L437.653 221.447C437.787 221.723 437.893 221.922 437.893 222.174Z" fill="white"/>
<path d="M437.893 147.253C437.893 147.722 437.53 148.05 436.961 148.05L429.438 148.056C428.864 148.056 428.506 147.728 428.506 147.253C428.506 147.007 428.612 146.808 428.746 146.526L432.321 139.132C432.578 138.61 432.842 138.417 433.2 138.417C433.557 138.417 433.821 138.61 434.073 139.132L437.653 146.526C437.787 146.802 437.893 147.001 437.893 147.253Z" fill="white"/>
<path d="M437.893 109.792C437.893 110.261 437.53 110.589 436.961 110.589L429.438 110.595C428.864 110.595 428.506 110.267 428.506 109.792C428.506 109.546 428.612 109.347 428.746 109.065L432.321 101.671C432.578 101.149 432.842 100.956 433.2 100.956C433.557 100.956 433.821 101.149 434.073 101.671L437.653 109.065C437.787 109.341 437.893 109.54 437.893 109.792Z" fill="white"/>
<defs>
<filter id="filter0_d_1397_9019" x="387.076" y="0.368164" width="94.071" height="94.0713" filterUnits="userSpaceOnUse" color-interpolation-filters="sRGB">
<feFlood flood-opacity="0" result="BackgroundImageFix"/>
<feColorMatrix in="SourceAlpha" type="matrix" values="0 0 0 0 0 0 0 0 0 0 0 0 0 0 0 0 0 0 127 0" result="hardAlpha"/>
<feOffset dy="5"/>
<feGaussianBlur stdDeviation="12.5"/>
<feColorMatrix type="matrix" values="0 0 0 0 0 0 0 0 0 0 0 0 0 0 0 0 0 0 0.1 0"/>
<feBlend mode="normal" in2="BackgroundImageFix" result="effect1_dropShadow_1397_9019"/>
<feBlend mode="normal" in="SourceGraphic" in2="effect1_dropShadow_1397_9019" result="shape"/>
</filter>
<linearGradient id="paint0_linear_1397_9019" x1="340" y1="41.7461" x2="340" y2="285.577" gradientUnits="userSpaceOnUse">
<stop stop-color="#FE6C6C"/>
<stop offset="1" stop-color="#FE464B"/>
</linearGradient>
<linearGradient id="paint1_linear_1397_9019" x1="433.915" y1="16" x2="433.915" y2="559.122" gradientUnits="userSpaceOnUse">
<stop offset="0.0104167" stop-color="#FE6C6C" stop-opacity="0"/>
<stop offset="0.28125" stop-color="#FE6C6C"/>
<stop offset="0.666667" stop-color="#FE464B"/>
<stop offset="0.984375" stop-color="#FE464B" stop-opacity="0"/>
</linearGradient>
<linearGradient id="paint2_linear_1397_9019" x1="434.112" y1="20.3682" x2="434.112" y2="64.4392" gradientUnits="userSpaceOnUse">
<stop stop-color="#FE6C6C"/>
<stop offset="1" stop-color="#FE464B"/>
</linearGradient>
</defs>
</svg>
