<svg width="449" height="193" viewBox="0 0 449 193" fill="none" xmlns="http://www.w3.org/2000/svg">
<rect x="112" y="53.6592" width="281.577" height="229.796" rx="14.7458" transform="rotate(-8 112 53.6592)" fill="#B2E8EC"/>
<rect x="128.728" y="37.5576" width="274.243" height="227.761" rx="14.7458" transform="rotate(-8 128.728 37.5576)" fill="white"/>
<rect width="234.733" height="186.702" transform="translate(150.877 63.582) rotate(-8)" fill="white"/>
<g filter="url(#filter0_dd_1397_9201)">
<path fill-rule="evenodd" clip-rule="evenodd" d="M170.957 64.408C171.282 64.653 171.347 65.1153 171.102 65.4405L167.153 70.6807L172.393 74.6295C172.719 74.8746 172.784 75.3369 172.538 75.6621C172.293 75.9873 171.831 76.0522 171.506 75.8072L165.677 71.4147C165.352 71.1696 165.287 70.7073 165.532 70.3821L169.924 64.5531C170.169 64.2279 170.632 64.1629 170.957 64.408Z" fill="#0A1811"/>
<path d="M236.457 56.318L238.672 56.0066L241.814 61.386L241.914 61.372L243.451 55.335L245.666 55.0237L246.86 63.5195L245.118 63.7644L244.341 58.2346L244.27 58.2445L242.843 64.0418L241.657 64.2086L238.684 59.0085L238.613 59.0184L239.393 64.5689L237.651 64.8138L236.457 56.318ZM250.141 63.1811C249.734 63.2383 249.362 63.2187 249.024 63.1223C248.686 63.0232 248.405 62.847 248.18 62.5937C247.958 62.3373 247.817 61.9989 247.758 61.5785C247.708 61.2245 247.732 60.9181 247.828 60.6592C247.924 60.4003 248.074 60.1819 248.277 60.0038C248.481 59.8258 248.719 59.6794 248.994 59.5647C249.271 59.4496 249.565 59.3547 249.876 59.2799C250.241 59.1891 250.535 59.1112 250.757 59.0462C250.979 58.9783 251.136 58.9027 251.228 58.8191C251.321 58.7356 251.358 58.6261 251.339 58.4906L251.335 58.4657C251.298 58.203 251.187 58.0114 251.001 57.8909C250.817 57.77 250.575 57.7307 250.273 57.7731C249.955 57.8178 249.712 57.9239 249.544 58.0914C249.375 58.2561 249.275 58.4478 249.244 58.6665L247.591 58.7635C247.62 58.3646 247.736 58.0071 247.939 57.6908C248.143 57.3717 248.426 57.1091 248.789 56.903C249.154 56.6937 249.592 56.5533 250.1 56.4818C250.454 56.432 250.799 56.4259 251.134 56.4634C251.472 56.5005 251.779 56.5885 252.055 56.7273C252.334 56.8658 252.566 57.0617 252.751 57.3148C252.936 57.5653 253.055 57.8799 253.108 58.2588L253.712 62.5565L252.036 62.7921L251.912 61.9085L251.862 61.9155C251.788 62.129 251.676 62.3238 251.526 62.5C251.375 62.6735 251.186 62.8199 250.957 62.9395C250.728 63.0563 250.456 63.1368 250.141 63.1811ZM250.476 61.8904C250.736 61.8539 250.958 61.7704 251.143 61.6401C251.327 61.507 251.463 61.344 251.552 61.1511C251.64 60.9582 251.669 60.7497 251.637 60.5257L251.542 59.8495C251.492 59.8932 251.421 59.9371 251.328 59.9811C251.238 60.022 251.135 60.0632 251.02 60.1048C250.904 60.1437 250.788 60.1811 250.672 60.2172C250.555 60.2505 250.45 60.2809 250.355 60.3083C250.152 60.3679 249.977 60.4417 249.832 60.5299C249.686 60.618 249.579 60.7248 249.509 60.8502C249.439 60.9729 249.415 61.1172 249.438 61.2832C249.472 61.5238 249.585 61.6954 249.777 61.7982C249.972 61.8977 250.205 61.9285 250.476 61.8904ZM255.419 64.7533L254.188 55.9919L255.93 55.7471L256.081 56.8174L256.159 56.8063C256.213 56.6239 256.3 56.434 256.422 56.2364C256.546 56.0356 256.719 55.8591 256.94 55.7067C257.163 55.5512 257.453 55.4484 257.81 55.3983C258.275 55.333 258.721 55.3944 259.147 55.5826C259.574 55.768 259.939 56.0875 260.242 56.5413C260.546 56.9922 260.748 57.5827 260.851 58.3128C260.951 59.0236 260.92 59.6398 260.76 60.1616C260.601 60.6802 260.343 61.093 259.986 61.3998C259.631 61.7035 259.212 61.8894 258.728 61.9574C258.385 62.0056 258.085 61.9899 257.829 61.9103C257.575 61.8304 257.36 61.7154 257.184 61.5653C257.007 61.4124 256.866 61.2531 256.761 61.0874L256.707 61.095L257.186 64.5049L255.419 64.7533ZM256.365 58.9348C256.419 59.3137 256.518 59.6368 256.662 59.9041C256.807 60.1714 256.99 60.3699 257.211 60.4995C257.432 60.6264 257.685 60.6699 257.97 60.6298C258.258 60.5894 258.49 60.4764 258.667 60.2908C258.844 60.1024 258.963 59.8599 259.026 59.5635C259.091 59.2638 259.097 58.9287 259.045 58.5581C258.994 58.1903 258.897 57.8739 258.755 57.609C258.614 57.3441 258.432 57.1468 258.211 57.0171C257.99 56.8875 257.734 56.843 257.444 56.8838C257.156 56.9243 256.923 57.0345 256.746 57.2146C256.571 57.3943 256.45 57.6312 256.384 57.9253C256.319 58.2194 256.312 58.5559 256.365 58.9348ZM261.158 56.4294L260.963 55.0397L266.738 54.2282L266.933 55.6179L264.88 55.9065L265.58 60.8887L263.896 61.1254L263.195 56.1432L261.158 56.4294ZM271.392 60.0719L271.21 58.7776L273.84 55.5524C274.063 55.2674 274.247 55.013 274.393 54.7894C274.542 54.5654 274.649 54.3516 274.713 54.1479C274.777 53.9415 274.794 53.7263 274.762 53.5023C274.727 53.2534 274.64 53.047 274.502 52.8832C274.363 52.7166 274.188 52.5987 273.978 52.5295C273.768 52.4576 273.538 52.4391 273.289 52.474C273.029 52.5106 272.81 52.595 272.631 52.7273C272.452 52.8596 272.324 53.0313 272.247 53.2424C272.169 53.4536 272.149 53.6946 272.187 53.9657L270.483 54.2053C270.404 53.6494 270.462 53.1491 270.657 52.7044C270.851 52.2598 271.159 51.8936 271.581 51.6058C272.003 51.318 272.51 51.1326 273.102 51.0494C273.71 50.9639 274.255 50.9973 274.736 51.1497C275.22 51.2989 275.614 51.5452 275.919 51.8888C276.224 52.2323 276.41 52.6488 276.479 53.1383C276.524 53.4591 276.505 53.7847 276.422 54.1151C276.341 54.4451 276.168 54.8235 275.9 55.2502C275.633 55.6742 275.245 56.1927 274.736 56.8057L273.666 58.1954L273.674 58.2535L277.242 57.7521L277.448 59.2207L271.392 60.0719ZM282.107 58.7563C281.393 58.8538 280.755 58.7644 280.191 58.4883C279.631 58.2117 279.166 57.7624 278.796 57.1403C278.429 56.5178 278.182 55.7417 278.054 54.8121C277.924 53.8856 277.95 53.0768 278.132 52.3857C278.317 51.6941 278.641 51.1423 279.105 50.7302C279.571 50.315 280.16 50.0575 280.871 49.9576C281.581 49.8577 282.217 49.9432 282.776 50.2143C283.339 50.4849 283.804 50.9271 284.173 51.5409C284.541 52.152 284.788 52.9209 284.916 53.8478C285.047 54.7798 285.02 55.5957 284.837 56.2956C284.656 56.995 284.334 57.5549 283.871 57.9753C283.409 58.3956 282.821 58.656 282.107 58.7563ZM281.898 57.267C282.385 57.1986 282.739 56.8992 282.96 56.3689C283.182 55.8386 283.223 55.0841 283.082 54.1055C282.992 53.4611 282.85 52.9339 282.657 52.5239C282.467 52.1135 282.236 51.8174 281.965 51.6355C281.697 51.4532 281.401 51.3848 281.078 51.4302C280.594 51.4983 280.24 51.7947 280.018 52.3194C279.796 52.8442 279.751 53.5894 279.884 54.555C279.976 55.2077 280.117 55.7433 280.308 56.162C280.502 56.5776 280.735 56.8777 281.006 57.0623C281.277 57.2442 281.574 57.3125 281.898 57.267ZM286.792 57.9074L286.611 56.6131L289.241 53.388C289.463 53.1029 289.648 52.8486 289.794 52.625C289.943 52.401 290.05 52.1871 290.114 51.9835C290.178 51.7771 290.194 51.5619 290.163 51.3379C290.128 51.089 290.041 50.8826 289.902 50.7188C289.763 50.5522 289.589 50.4343 289.379 50.3651C289.169 50.2931 288.939 50.2746 288.69 50.3096C288.43 50.3461 288.211 50.4306 288.032 50.5629C287.853 50.6952 287.725 50.8669 287.647 51.078C287.57 51.2891 287.55 51.5302 287.588 51.8012L285.883 52.0408C285.805 51.485 285.863 50.9847 286.057 50.54C286.252 50.0953 286.56 49.7291 286.982 49.4414C287.404 49.1536 287.911 48.9681 288.503 48.885C289.111 48.7994 289.656 48.8329 290.137 48.9852C290.62 49.1344 291.015 49.3808 291.319 49.7243C291.624 50.0678 291.811 50.4843 291.88 50.9739C291.925 51.2947 291.906 51.6203 291.823 51.9506C291.742 52.2806 291.568 52.659 291.301 53.0858C291.034 53.5097 290.645 54.0282 290.136 54.6412L289.067 56.031L289.075 56.0891L292.643 55.5877L292.849 57.0562L286.792 57.9074ZM297.27 56.5534C296.684 56.6358 296.146 56.6014 295.656 56.4502C295.17 56.2986 294.766 56.0522 294.444 55.711C294.123 55.3698 293.922 54.9553 293.842 54.4673L295.584 54.2224C295.65 54.5488 295.826 54.7963 296.112 54.9648C296.398 55.1333 296.718 55.1927 297.072 55.1429C297.354 55.1033 297.594 55.0061 297.792 54.8513C297.993 54.6934 298.138 54.4938 298.228 54.2527C298.321 54.0085 298.347 53.7398 298.305 53.4466C298.263 53.1479 298.163 52.8941 298.004 52.6852C297.848 52.4759 297.65 52.3232 297.411 52.2271C297.172 52.131 296.909 52.1016 296.624 52.1388C296.375 52.1738 296.14 52.259 295.92 52.3944C295.702 52.5293 295.54 52.6944 295.435 52.8897L293.798 52.8279L293.571 48.2911L298.764 47.5612L298.971 49.0297L295.258 49.5515L295.337 51.7105L295.387 51.7035C295.507 51.4724 295.708 51.2665 295.99 51.0858C296.272 50.9052 296.599 50.7886 296.973 50.7361C297.484 50.6642 297.958 50.7204 298.392 50.9047C298.827 51.0889 299.19 51.3749 299.482 51.7626C299.773 52.1476 299.955 52.6126 300.029 53.1579C300.112 53.7299 300.051 54.2575 299.845 54.7404C299.642 55.2202 299.319 55.621 298.876 55.9426C298.436 56.2612 297.9 56.4647 297.27 56.5534Z" fill="#0A1811"/>
<path fill-rule="evenodd" clip-rule="evenodd" d="M365.833 48.4973C365.508 48.2523 365.443 47.79 365.688 47.4648L369.637 42.2245L364.397 38.2757C364.072 38.0307 364.007 37.5684 364.252 37.2432C364.497 36.918 364.959 36.853 365.284 37.0981L371.113 41.4906C371.439 41.7357 371.504 42.1979 371.259 42.5231L366.866 48.3522C366.621 48.6774 366.159 48.7424 365.833 48.4973Z" fill="#0A1811"/>
</g>
<g filter="url(#filter1_dd_1397_9201)">
<path d="M176.435 97.0026L177.331 103.375L175.999 103.562L175.257 98.2849L172.681 98.647L173.423 103.924L172.091 104.111L171.196 97.739L176.435 97.0026ZM178.613 103.194L177.718 96.8224L179.065 96.633L179.434 99.262L182.169 98.8777L181.8 96.2487L183.144 96.0598L184.039 102.432L182.695 102.621L182.325 99.9884L179.59 100.373L179.96 103.005L178.613 103.194Z" fill="#7B827E"/>
<path d="M202.644 99.8169L201.749 93.445L204.3 93.0865C204.769 93.0206 205.169 93.0351 205.502 93.1301C205.835 93.225 206.097 93.3848 206.29 93.6095C206.482 93.8321 206.6 94.1031 206.645 94.4226C206.68 94.6715 206.661 94.8973 206.588 95.1C206.515 95.3007 206.399 95.4734 206.242 95.6182C206.086 95.7606 205.901 95.8723 205.686 95.9533L205.695 96.0155C205.939 95.9918 206.176 96.0283 206.405 96.1251C206.637 96.2216 206.835 96.3746 207 96.5841C207.164 96.7915 207.268 97.0519 207.312 97.3651C207.36 97.7032 207.318 98.0168 207.188 98.3059C207.059 98.5926 206.842 98.8356 206.538 99.0349C206.234 99.2341 205.844 99.3673 205.366 99.4343L202.644 99.8169ZM203.837 98.5262L204.935 98.3718C205.31 98.3191 205.574 98.209 205.726 98.0417C205.878 97.8723 205.937 97.6673 205.903 97.4267C205.878 97.2504 205.814 97.1008 205.71 96.978C205.606 96.8551 205.47 96.7664 205.301 96.7118C205.135 96.6569 204.944 96.6446 204.728 96.6749L203.599 96.8337L203.837 98.5262ZM203.471 95.9221L204.469 95.7817C204.654 95.7557 204.813 95.7006 204.947 95.6162C205.083 95.5294 205.184 95.42 205.25 95.288C205.318 95.1558 205.341 95.0057 205.317 94.8376C205.285 94.6074 205.177 94.4333 204.993 94.3153C204.811 94.197 204.571 94.1588 204.272 94.2008L203.249 94.3446L203.471 95.9221ZM207.454 93.7758L207.298 92.6651L212.532 91.9296L212.688 93.0403L210.737 93.3145L211.476 98.5756L210.145 98.7628L209.405 93.5016L207.454 93.7758Z" fill="#7B827E"/>
<path d="M237.311 90.7219L235.948 90.9135C235.898 90.7406 235.826 90.5912 235.73 90.4651C235.633 90.3369 235.518 90.2325 235.384 90.1519C235.25 90.0714 235.101 90.0162 234.936 89.9865C234.773 89.9565 234.6 89.9544 234.418 89.98C234.088 90.0264 233.812 90.1487 233.59 90.3469C233.368 90.5431 233.212 90.8062 233.121 91.1363C233.029 91.4643 233.015 91.8492 233.077 92.291C233.141 92.7453 233.262 93.1174 233.44 93.4075C233.62 93.6974 233.844 93.9039 234.111 94.0271C234.378 94.1504 234.672 94.1894 234.993 94.1442C235.174 94.1188 235.338 94.0715 235.484 94.0022C235.633 93.9327 235.761 93.8438 235.869 93.7356C235.976 93.6254 236.06 93.4984 236.12 93.3545C236.182 93.2104 236.217 93.0511 236.224 92.8767L237.588 92.6914C237.593 92.9888 237.545 93.2833 237.442 93.5748C237.341 93.864 237.187 94.132 236.981 94.3789C236.776 94.6234 236.52 94.8308 236.212 95.001C235.905 95.1688 235.548 95.2815 235.139 95.3389C234.571 95.4188 234.045 95.3616 233.56 95.1673C233.078 94.9728 232.673 94.6501 232.346 94.1991C232.02 93.7478 231.808 93.1757 231.711 92.483C231.613 91.7881 231.661 91.1786 231.854 90.6544C232.047 90.1303 232.349 89.7092 232.761 89.3911C233.173 89.0709 233.659 88.8715 234.219 88.7928C234.588 88.7409 234.938 88.7446 235.268 88.804C235.6 88.8631 235.902 88.9751 236.175 89.1398C236.447 89.3024 236.68 89.5161 236.874 89.7807C237.07 90.0451 237.215 90.3589 237.311 90.7219ZM238.859 94.7273L237.963 88.3554L240.477 88.0021C240.961 87.9342 241.385 87.9686 241.751 88.1054C242.117 88.2401 242.412 88.4578 242.636 88.7583C242.862 89.0565 243.005 89.4172 243.064 89.8404C243.124 90.2635 243.085 90.6497 242.948 90.9989C242.811 91.3481 242.582 91.6373 242.261 91.8664C241.942 92.0953 241.538 92.2441 241.048 92.3129L239.446 92.5381L239.294 91.4585L240.679 91.2639C240.938 91.2274 241.145 91.1528 241.301 91.04C241.458 90.9249 241.567 90.7816 241.627 90.6102C241.69 90.4365 241.706 90.2449 241.677 90.0354C241.647 89.8238 241.579 89.6452 241.471 89.4995C241.366 89.3514 241.222 89.2458 241.04 89.1826C240.857 89.1173 240.635 89.103 240.374 89.1398L239.465 89.2674L240.206 94.5379L238.859 94.7273Z" fill="#7B827E"/>
<path d="M261.423 85.0584L262.732 84.8743L263.021 86.9278C263.055 87.1725 263.126 87.3636 263.232 87.501C263.337 87.6363 263.484 87.7246 263.672 87.7659C263.861 87.8048 264.097 87.8045 264.379 87.7648C264.479 87.7508 264.596 87.7313 264.73 87.7061C264.863 87.6789 265.001 87.6479 265.142 87.6133C265.285 87.5784 265.419 87.5415 265.545 87.5027C265.671 87.4639 265.774 87.425 265.855 87.3861L266.005 88.4501C265.922 88.4914 265.817 88.5326 265.689 88.5738C265.563 88.6126 265.43 88.6504 265.289 88.6871C265.148 88.7217 265.011 88.7527 264.877 88.7799C264.744 88.8072 264.628 88.8276 264.531 88.8413C264.018 88.9133 263.562 88.9034 263.162 88.8116C262.762 88.7177 262.436 88.5318 262.186 88.254C261.937 87.9758 261.779 87.5951 261.711 87.1118L261.423 85.0584ZM265.215 84.5254L266.531 84.3404L267.427 90.7123L266.111 90.8973L265.215 84.5254ZM267.777 85.298L267.621 84.1873L272.854 83.4518L273.01 84.5625L271.06 84.8367L271.799 90.0979L270.467 90.285L269.728 85.0238L267.777 85.298Z" fill="#7B827E"/>
<path d="M296.516 80.1264L297.411 86.4983L296.08 86.6854L295.338 81.4087L292.762 81.7708L293.504 87.0475L292.172 87.2346L291.276 80.8627L296.516 80.1264ZM297.712 81.091L297.556 79.9802L302.789 79.2448L302.945 80.3555L300.994 80.6296L301.734 85.8908L300.402 86.078L299.663 80.8168L297.712 81.091Z" fill="#7B827E"/>
<path d="M327.098 78.1032L325.735 78.2948C325.685 78.122 325.612 77.9725 325.516 77.8464C325.42 77.7182 325.305 77.6138 325.171 77.5332C325.037 77.4527 324.887 77.3975 324.723 77.3678C324.56 77.3378 324.387 77.3357 324.205 77.3613C323.875 77.4077 323.599 77.53 323.377 77.7282C323.155 77.9244 322.999 78.1875 322.908 78.5176C322.816 78.8456 322.802 79.2305 322.864 79.6723C322.927 80.1266 323.048 80.4987 323.227 80.7889C323.407 81.0787 323.631 81.2852 323.898 81.4084C324.165 81.5317 324.459 81.5707 324.78 81.5255C324.961 81.5002 325.124 81.4528 325.271 81.3836C325.42 81.314 325.548 81.2251 325.656 81.1169C325.763 81.0067 325.846 80.8797 325.907 80.7358C325.969 80.5917 326.004 80.4324 326.011 80.258L327.374 80.0727C327.38 80.3701 327.332 80.6646 327.229 80.9561C327.128 81.2453 326.974 81.5133 326.768 81.7602C326.563 82.0047 326.307 82.2121 325.998 82.3823C325.692 82.5501 325.335 82.6628 324.926 82.7202C324.358 82.8001 323.831 82.7429 323.347 82.5487C322.865 82.3541 322.46 82.0314 322.132 81.5804C321.807 81.1291 321.595 80.5571 321.498 79.8643C321.4 79.1694 321.448 78.5599 321.641 78.0358C321.833 77.5116 322.136 77.0905 322.548 76.7724C322.96 76.4522 323.446 76.2528 324.006 76.1741C324.375 76.1222 324.725 76.1259 325.055 76.1853C325.386 76.2444 325.689 76.3564 325.961 76.5211C326.234 76.6837 326.467 76.8974 326.661 77.1621C326.857 77.4264 327.002 77.7402 327.098 78.1032ZM328.646 82.1086L327.75 75.7367L331.978 75.1425L332.134 76.2532L329.253 76.6581L329.428 77.9026L330.464 77.757C330.968 77.6862 331.414 77.707 331.803 77.8196C332.192 77.9298 332.508 78.1192 332.749 78.3878C332.989 78.6564 333.138 78.9919 333.195 79.3943C333.251 79.7946 333.201 80.1623 333.045 80.4972C332.889 80.8301 332.639 81.1084 332.296 81.3322C331.955 81.5557 331.533 81.7028 331.029 81.7736L328.646 82.1086ZM329.841 80.8365L330.877 80.6909C331.117 80.6571 331.314 80.585 331.468 80.4745C331.622 80.362 331.731 80.2272 331.795 80.0701C331.862 79.9106 331.883 79.7437 331.858 79.5694C331.823 79.3164 331.696 79.1163 331.479 78.9692C331.263 78.8197 330.975 78.7703 330.614 78.821L329.578 78.9667L329.841 80.8365Z" fill="#7B827E"/>
<path d="M351.949 78.8335L351.054 72.4616L353.605 72.103C354.074 72.0371 354.475 72.0517 354.807 72.1466C355.14 72.2416 355.403 72.4014 355.595 72.6261C355.787 72.8487 355.905 73.1197 355.95 73.4391C355.985 73.688 355.966 73.9138 355.893 74.1166C355.82 74.3172 355.705 74.49 355.547 74.6348C355.392 74.7772 355.207 74.8889 354.992 74.9699L355 75.0321C355.244 75.0083 355.481 75.0449 355.711 75.1417C355.942 75.2382 356.14 75.3912 356.305 75.6007C356.469 75.8081 356.574 76.0684 356.618 76.3816C356.665 76.7197 356.624 77.0333 356.493 77.3224C356.364 77.6092 356.148 77.8522 355.843 78.0514C355.539 78.2507 355.149 78.3838 354.672 78.4509L351.949 78.8335ZM353.142 77.5427L354.24 77.3884C354.615 77.3356 354.879 77.2256 355.031 77.0583C355.183 76.8889 355.242 76.6839 355.208 76.4433C355.183 76.267 355.119 76.1174 355.015 75.9945C354.911 75.8717 354.775 75.7829 354.606 75.7283C354.44 75.6734 354.249 75.6612 354.033 75.6915L352.904 75.8502L353.142 77.5427ZM352.776 74.9386L353.774 74.7982C353.959 74.7723 354.118 74.7171 354.253 74.6327C354.388 74.5459 354.489 74.4366 354.555 74.3046C354.624 74.1723 354.646 74.0222 354.622 73.8542C354.59 73.624 354.482 73.4498 354.298 73.3318C354.117 73.2135 353.876 73.1754 353.578 73.2173L352.554 73.3612L352.776 74.9386ZM362.782 73.0882L361.419 73.2797C361.369 73.1069 361.297 72.9574 361.201 72.8313C361.104 72.7031 360.989 72.5987 360.855 72.5182C360.721 72.4376 360.572 72.3824 360.407 72.3527C360.244 72.3227 360.071 72.3206 359.889 72.3462C359.559 72.3926 359.283 72.5149 359.061 72.7131C358.839 72.9093 358.683 73.1725 358.592 73.5025C358.5 73.8305 358.486 74.2154 358.548 74.6572C358.612 75.1115 358.733 75.4837 358.911 75.7738C359.091 76.0636 359.315 76.2701 359.582 76.3933C359.849 76.5166 360.143 76.5556 360.464 76.5104C360.645 76.4851 360.809 76.4377 360.955 76.3685C361.104 76.2989 361.232 76.21 361.34 76.1019C361.447 75.9916 361.531 75.8646 361.591 75.7208C361.653 75.5766 361.688 75.4173 361.695 75.2429L363.059 75.0576C363.065 75.355 363.016 75.6495 362.913 75.941C362.812 76.2302 362.658 76.4982 362.452 76.7451C362.247 76.9896 361.991 77.197 361.683 77.3672C361.376 77.535 361.019 77.6477 360.61 77.7051C360.042 77.785 359.516 77.7278 359.031 77.5336C358.549 77.339 358.144 77.0163 357.817 76.5653C357.491 76.114 357.279 75.542 357.182 74.8492C357.084 74.1543 357.132 73.5448 357.325 73.0207C357.518 72.4965 357.82 72.0754 358.232 71.7573C358.644 71.4371 359.13 71.2377 359.69 71.159C360.059 71.1071 360.409 71.1108 360.739 71.1702C361.071 71.2294 361.373 71.3413 361.646 71.506C361.918 71.6686 362.151 71.8823 362.345 72.147C362.541 72.4113 362.686 72.7251 362.782 73.0882Z" fill="#7B827E"/>
</g>
<rect width="31.7626" height="24.7903" transform="translate(163.122 122.881) rotate(-8)" fill="white"/>
<path d="M175.635 138.025L175.543 137.371L177.62 134.34C177.863 133.985 178.062 133.678 178.216 133.42C178.369 133.159 178.476 132.919 178.537 132.701C178.599 132.48 178.615 132.256 178.583 132.028C178.546 131.767 178.451 131.55 178.299 131.376C178.148 131.202 177.958 131.078 177.728 131.005C177.498 130.931 177.249 130.913 176.98 130.951C176.695 130.991 176.454 131.085 176.258 131.234C176.063 131.379 175.923 131.566 175.836 131.792C175.752 132.019 175.73 132.274 175.77 132.557L174.913 132.677C174.852 132.242 174.899 131.845 175.053 131.488C175.208 131.131 175.445 130.836 175.766 130.603C176.088 130.37 176.466 130.223 176.899 130.163C177.335 130.101 177.734 130.139 178.096 130.276C178.458 130.412 178.757 130.623 178.992 130.909C179.227 131.194 179.371 131.528 179.425 131.91C179.463 132.183 179.451 132.458 179.389 132.733C179.328 133.006 179.2 133.319 179.003 133.672C178.808 134.023 178.529 134.457 178.168 134.974L176.749 136.994L176.757 137.053L180.213 136.567L180.325 137.365L175.635 138.025ZM183.132 129.287C183.437 129.246 183.75 129.261 184.071 129.332C184.392 129.403 184.696 129.553 184.985 129.781C185.274 130.007 185.526 130.336 185.742 130.767C185.958 131.198 186.114 131.755 186.21 132.437C186.303 133.098 186.322 133.693 186.268 134.224C186.217 134.752 186.098 135.208 185.913 135.592C185.73 135.975 185.484 136.281 185.176 136.51C184.87 136.738 184.507 136.881 184.089 136.94C183.673 136.999 183.29 136.969 182.94 136.85C182.592 136.728 182.293 136.535 182.044 136.269C181.796 136 181.616 135.674 181.503 135.29L182.388 135.165C182.516 135.495 182.714 135.755 182.983 135.944C183.253 136.131 183.585 136.197 183.977 136.142C184.55 136.061 184.967 135.747 185.228 135.199C185.492 134.652 185.56 133.92 185.431 133.006L185.373 133.014C185.266 133.236 185.13 133.434 184.964 133.608C184.799 133.782 184.608 133.924 184.391 134.036C184.175 134.148 183.939 134.222 183.682 134.258C183.256 134.318 182.851 134.268 182.465 134.107C182.082 133.944 181.758 133.692 181.493 133.352C181.23 133.009 181.065 132.597 180.998 132.118C180.934 131.663 180.977 131.233 181.127 130.827C181.279 130.418 181.525 130.075 181.863 129.798C182.205 129.521 182.627 129.35 183.132 129.287ZM183.244 130.085C182.939 130.128 182.675 130.243 182.452 130.43C182.231 130.614 182.067 130.844 181.961 131.121C181.856 131.394 181.825 131.686 181.869 131.996C181.912 132.306 182.02 132.578 182.191 132.813C182.364 133.045 182.58 133.22 182.838 133.337C183.099 133.451 183.381 133.486 183.686 133.443C183.916 133.411 184.124 133.336 184.31 133.219C184.495 133.099 184.651 132.95 184.776 132.772C184.904 132.591 184.996 132.394 185.052 132.181C185.108 131.966 185.121 131.749 185.09 131.528C185.049 131.238 184.941 130.976 184.765 130.741C184.591 130.507 184.371 130.328 184.105 130.205C183.84 130.082 183.554 130.042 183.244 130.085Z" fill="#6C7470"/>
<rect width="31.7626" height="24.7903" transform="translate(195.343 118.354) rotate(-8)" fill="white"/>
<path d="M210.217 133.268C209.738 133.335 209.299 133.313 208.901 133.201C208.505 133.089 208.177 132.902 207.915 132.64C207.656 132.376 207.489 132.05 207.415 131.663L208.33 131.534C208.383 131.771 208.494 131.967 208.664 132.12C208.833 132.272 209.042 132.378 209.29 132.44C209.538 132.501 209.805 132.512 210.09 132.471C210.41 132.427 210.685 132.331 210.916 132.185C211.148 132.039 211.319 131.857 211.432 131.639C211.544 131.421 211.582 131.181 211.545 130.92C211.507 130.646 211.405 130.415 211.241 130.226C211.076 130.034 210.854 129.898 210.576 129.816C210.298 129.734 209.97 129.72 209.593 129.773L208.997 129.856L208.885 129.058L209.48 128.974C209.776 128.933 210.027 128.843 210.235 128.705C210.445 128.567 210.599 128.392 210.698 128.181C210.799 127.97 210.831 127.733 210.794 127.472C210.759 127.22 210.673 127.009 210.535 126.838C210.398 126.667 210.22 126.544 210.002 126.469C209.786 126.393 209.542 126.374 209.269 126.413C209.012 126.449 208.777 126.53 208.562 126.656C208.35 126.78 208.185 126.94 208.067 127.137C207.949 127.331 207.901 127.553 207.924 127.801L207.053 127.924C207.012 127.532 207.082 127.174 207.261 126.85C207.44 126.524 207.695 126.254 208.028 126.039C208.363 125.824 208.745 125.687 209.173 125.627C209.633 125.562 210.04 125.6 210.396 125.74C210.75 125.878 211.038 126.085 211.257 126.363C211.476 126.641 211.61 126.955 211.659 127.306C211.718 127.724 211.658 128.097 211.48 128.423C211.303 128.749 211.036 128.995 210.676 129.161L210.685 129.219C211.165 129.231 211.56 129.379 211.869 129.664C212.177 129.946 212.365 130.323 212.431 130.795C212.488 131.199 212.429 131.578 212.254 131.931C212.081 132.281 211.819 132.574 211.467 132.811C211.115 133.048 210.699 133.2 210.217 133.268ZM216.638 132.366C216.091 132.442 215.605 132.359 215.178 132.115C214.751 131.869 214.396 131.476 214.113 130.936C213.829 130.394 213.631 129.718 213.517 128.91C213.404 128.107 213.41 127.406 213.533 126.809C213.658 126.209 213.892 125.732 214.235 125.378C214.58 125.021 215.023 124.805 215.565 124.728C216.107 124.652 216.592 124.738 217.019 124.987C217.448 125.232 217.805 125.626 218.088 126.169C218.374 126.709 218.573 127.38 218.686 128.184C218.8 128.992 218.795 129.696 218.672 130.296C218.549 130.893 218.316 131.369 217.973 131.723C217.63 132.074 217.185 132.289 216.638 132.366ZM216.526 131.567C217.068 131.491 217.452 131.17 217.679 130.605C217.906 130.041 217.951 129.274 217.815 128.306C217.724 127.662 217.578 127.124 217.377 126.691C217.178 126.257 216.933 125.94 216.644 125.739C216.356 125.538 216.033 125.462 215.675 125.512C215.138 125.588 214.755 125.912 214.527 126.484C214.299 127.054 214.253 127.822 214.388 128.788C214.479 129.431 214.623 129.969 214.822 130.4C215.021 130.831 215.264 131.146 215.551 131.345C215.841 131.544 216.166 131.618 216.526 131.567Z" fill="#6C7470"/>
<rect width="31.7626" height="24.7903" transform="translate(227.564 113.824) rotate(-8)" fill="white"/>
<path d="M243.256 128.625C242.777 128.692 242.339 128.67 241.94 128.558C241.545 128.446 241.216 128.259 240.955 127.997C240.695 127.732 240.529 127.406 240.454 127.02L241.369 126.891C241.422 127.128 241.534 127.323 241.703 127.477C241.873 127.628 242.081 127.735 242.329 127.796C242.577 127.858 242.844 127.868 243.13 127.828C243.449 127.783 243.724 127.688 243.955 127.542C244.187 127.396 244.358 127.214 244.471 126.996C244.583 126.777 244.621 126.538 244.585 126.276C244.546 126.003 244.445 125.772 244.28 125.582C244.115 125.391 243.893 125.254 243.615 125.172C243.337 125.091 243.009 125.076 242.632 125.129L242.037 125.213L241.924 124.414L242.52 124.331C242.815 124.289 243.066 124.2 243.274 124.062C243.484 123.924 243.638 123.749 243.737 123.538C243.838 123.326 243.87 123.09 243.833 122.828C243.798 122.577 243.712 122.366 243.574 122.195C243.437 122.024 243.259 121.901 243.041 121.826C242.826 121.75 242.581 121.731 242.308 121.769C242.051 121.806 241.816 121.887 241.602 122.013C241.39 122.137 241.224 122.297 241.107 122.494C240.988 122.688 240.94 122.909 240.963 123.158L240.092 123.28C240.052 122.889 240.121 122.531 240.3 122.207C240.479 121.881 240.734 121.611 241.067 121.396C241.402 121.181 241.784 121.044 242.212 120.983C242.672 120.919 243.079 120.956 243.435 121.097C243.79 121.234 244.077 121.442 244.296 121.72C244.515 121.997 244.649 122.311 244.699 122.662C244.757 123.081 244.697 123.453 244.519 123.78C244.342 124.105 244.075 124.352 243.716 124.518L243.724 124.576C244.204 124.588 244.599 124.736 244.908 125.02C245.216 125.303 245.404 125.68 245.47 126.152C245.527 126.556 245.468 126.934 245.293 127.287C245.12 127.637 244.858 127.931 244.506 128.168C244.154 128.405 243.738 128.557 243.256 128.625ZM248.807 120.16L249.852 127.594L248.952 127.721L248.04 121.23L247.996 121.237L246.351 122.697L246.222 121.782L247.907 120.287L248.807 120.16Z" fill="#6C7470"/>
<rect width="31.7626" height="24.7903" transform="translate(259.784 109.296) rotate(-8)" fill="white"/>
<path d="M277.774 116.089L278.818 123.523L277.918 123.65L277.006 117.159L276.963 117.166L275.317 118.626L275.188 117.711L276.873 116.216L277.774 116.089Z" fill="#0A1811"/>
<rect width="31.7626" height="24.7903" transform="translate(292.005 104.768) rotate(-8)" fill="white"/>
<path d="M307.707 119.463L307.615 118.81L309.691 115.779C309.935 115.424 310.134 115.117 310.287 114.858C310.441 114.597 310.548 114.358 310.608 114.14C310.671 113.919 310.687 113.694 310.655 113.467C310.618 113.206 310.523 112.988 310.37 112.815C310.22 112.641 310.03 112.517 309.8 112.443C309.57 112.369 309.321 112.351 309.052 112.389C308.767 112.429 308.526 112.524 308.329 112.672C308.135 112.818 307.995 113.004 307.908 113.231C307.824 113.458 307.802 113.712 307.842 113.995L306.985 114.116C306.924 113.68 306.97 113.284 307.125 112.926C307.28 112.569 307.517 112.274 307.837 112.042C308.16 111.809 308.538 111.662 308.971 111.601C309.407 111.54 309.805 111.578 310.168 111.714C310.53 111.851 310.828 112.062 311.063 112.347C311.299 112.632 311.443 112.966 311.497 113.349C311.535 113.622 311.523 113.896 311.461 114.172C311.4 114.444 311.271 114.757 311.074 115.111C310.879 115.461 310.601 115.895 310.239 116.412L308.821 118.433L308.829 118.491L312.284 118.005L312.397 118.804L307.707 119.463Z" fill="#0A1811"/>
<rect width="31.7626" height="24.7903" transform="translate(324.226 100.24) rotate(-8)" fill="white"/>
<path d="M342.294 114.706C341.815 114.773 341.376 114.751 340.978 114.639C340.582 114.527 340.254 114.34 339.992 114.078C339.733 113.813 339.566 113.488 339.492 113.101L340.407 112.972C340.46 113.209 340.571 113.404 340.741 113.558C340.91 113.71 341.119 113.816 341.367 113.877C341.615 113.939 341.882 113.949 342.167 113.909C342.487 113.864 342.762 113.769 342.993 113.623C343.224 113.477 343.396 113.295 343.509 113.077C343.621 112.859 343.659 112.619 343.622 112.357C343.584 112.084 343.482 111.853 343.317 111.664C343.152 111.472 342.931 111.335 342.653 111.254C342.375 111.172 342.047 111.157 341.669 111.21L341.074 111.294L340.962 110.496L341.557 110.412C341.852 110.37 342.104 110.281 342.312 110.143C342.522 110.005 342.676 109.83 342.775 109.619C342.876 109.407 342.908 109.171 342.871 108.91C342.836 108.658 342.749 108.447 342.612 108.276C342.474 108.105 342.297 107.982 342.079 107.907C341.863 107.831 341.619 107.812 341.345 107.851C341.089 107.887 340.853 107.968 340.639 108.094C340.427 108.218 340.262 108.378 340.144 108.575C340.026 108.769 339.978 108.99 340.001 109.239L339.129 109.361C339.089 108.97 339.159 108.612 339.338 108.288C339.516 107.962 339.772 107.692 340.105 107.477C340.44 107.262 340.821 107.125 341.25 107.065C341.709 107 342.117 107.038 342.472 107.178C342.827 107.315 343.114 107.523 343.333 107.801C343.553 108.078 343.687 108.393 343.736 108.744C343.795 109.162 343.735 109.535 343.556 109.861C343.38 110.187 343.112 110.433 342.753 110.599L342.761 110.657C343.242 110.669 343.636 110.817 343.945 111.102C344.254 111.384 344.442 111.761 344.508 112.233C344.565 112.637 344.506 113.016 344.331 113.368C344.158 113.718 343.895 114.012 343.544 114.249C343.192 114.486 342.775 114.638 342.294 114.706Z" fill="#0A1811"/>
<rect width="31.7626" height="24.7903" transform="translate(356.446 95.7109) rotate(-8)" fill="white"/>
<path d="M371.575 108.932L371.471 108.192L374.011 102.564L374.549 102.488L374.71 103.635L374.347 103.686L372.427 107.939L372.436 107.997L376.835 107.379L376.947 108.177L371.575 108.932ZM375.288 109.965L375.042 108.215L374.994 107.871L374.244 102.531L375.1 102.411L376.145 109.845L375.288 109.965Z" fill="#0A1811"/>
<rect width="31.7626" height="24.7903" transform="translate(166.68 148.197) rotate(-8)" fill="white"/>
<path d="M184.705 162.67C184.279 162.73 183.883 162.699 183.518 162.578C183.153 162.456 182.847 162.262 182.6 161.996C182.353 161.73 182.193 161.409 182.121 161.034L182.992 160.912C183.073 161.243 183.265 161.5 183.567 161.682C183.871 161.862 184.213 161.925 184.593 161.871C184.897 161.829 185.158 161.719 185.376 161.543C185.595 161.367 185.755 161.144 185.855 160.876C185.958 160.605 185.987 160.311 185.943 159.994C185.897 159.67 185.785 159.39 185.606 159.156C185.43 158.92 185.208 158.745 184.94 158.632C184.673 158.519 184.38 158.483 184.063 158.526C183.835 158.555 183.607 158.623 183.377 158.729C183.148 158.833 182.963 158.952 182.824 159.085L181.968 159.101L181.903 155.379L185.766 154.837L185.878 155.635L182.771 156.072L182.817 158.301L182.861 158.295C182.996 158.152 183.173 158.025 183.392 157.913C183.611 157.801 183.845 157.727 184.094 157.692C184.549 157.628 184.97 157.68 185.356 157.848C185.744 158.013 186.067 158.269 186.323 158.615C186.581 158.961 186.744 159.375 186.812 159.857C186.878 160.331 186.831 160.77 186.671 161.172C186.512 161.572 186.263 161.906 185.923 162.173C185.583 162.438 185.177 162.604 184.705 162.67Z" fill="#0A1811"/>
<rect width="31.7626" height="24.7903" transform="translate(198.901 143.669) rotate(-8)" fill="white"/>
<path d="M216.991 158.132C216.685 158.17 216.372 158.155 216.052 158.087C215.731 158.018 215.426 157.87 215.138 157.641C214.849 157.411 214.596 157.08 214.38 156.649C214.164 156.215 214.007 155.655 213.91 154.967C213.818 154.309 213.798 153.717 213.85 153.192C213.901 152.664 214.02 152.209 214.206 151.828C214.391 151.444 214.637 151.138 214.943 150.91C215.251 150.681 215.615 150.538 216.034 150.479C216.45 150.42 216.832 150.452 217.179 150.573C217.529 150.692 217.828 150.884 218.075 151.151C218.322 151.417 218.503 151.738 218.618 152.115L217.732 152.239C217.603 151.917 217.404 151.662 217.136 151.475C216.868 151.288 216.538 151.222 216.146 151.278C215.57 151.358 215.151 151.673 214.89 152.22C214.632 152.767 214.565 153.494 214.689 154.399L214.747 154.391C214.854 154.166 214.99 153.968 215.156 153.797C215.324 153.623 215.516 153.48 215.733 153.368C215.949 153.256 216.184 153.182 216.438 153.146C216.864 153.087 217.269 153.138 217.652 153.302C218.035 153.462 218.359 153.714 218.624 154.057C218.889 154.397 219.055 154.807 219.123 155.286C219.187 155.746 219.144 156.181 218.992 156.593C218.839 157.002 218.593 157.345 218.252 157.622C217.913 157.897 217.492 158.067 216.991 158.132ZM216.879 157.334C217.183 157.291 217.446 157.176 217.667 156.99C217.89 156.803 218.053 156.572 218.158 156.295C218.264 156.019 218.296 155.723 218.251 155.409C218.208 155.101 218.1 154.832 217.927 154.599C217.755 154.364 217.54 154.188 217.279 154.072C217.021 153.955 216.739 153.918 216.434 153.961C216.204 153.994 215.997 154.07 215.811 154.19C215.625 154.307 215.468 154.455 215.34 154.633C215.215 154.811 215.124 155.008 215.068 155.223C215.011 155.436 214.999 155.654 215.03 155.876C215.072 156.171 215.179 156.438 215.353 156.675C215.53 156.911 215.75 157.091 216.014 157.215C216.281 157.338 216.569 157.377 216.879 157.334Z" fill="#0A1811"/>
<rect width="31.7626" height="24.7903" transform="translate(231.122 139.141) rotate(-8)" fill="white"/>
<path d="M247.231 153.779L249.631 146.734L249.623 146.676L245.79 147.215L245.678 146.416L250.44 145.747L250.558 146.589L248.174 153.646L247.231 153.779Z" fill="#0A1811"/>
<rect width="31.7626" height="24.7903" transform="translate(263.342 134.612) rotate(-8)" fill="white"/>
<path d="M281.385 149.082C280.886 149.153 280.433 149.126 280.026 149.003C279.621 148.877 279.29 148.674 279.033 148.391C278.776 148.107 278.621 147.763 278.567 147.361C278.52 147.047 278.541 146.748 278.629 146.464C278.717 146.178 278.858 145.93 279.05 145.72C279.245 145.508 279.475 145.358 279.739 145.272L279.733 145.228C279.364 145.186 279.053 145.026 278.799 144.749C278.545 144.468 278.392 144.131 278.339 143.736C278.283 143.359 278.331 143.008 278.483 142.683C278.635 142.358 278.868 142.086 279.183 141.867C279.5 141.647 279.876 141.507 280.311 141.445C280.742 141.385 281.139 141.417 281.502 141.541C281.865 141.665 282.164 141.862 282.4 142.133C282.637 142.403 282.784 142.726 282.839 143.104C282.892 143.498 282.834 143.866 282.665 144.205C282.498 144.542 282.246 144.781 281.911 144.922L281.917 144.966C282.192 144.976 282.45 145.057 282.691 145.208C282.932 145.357 283.135 145.557 283.301 145.808C283.467 146.056 283.573 146.337 283.619 146.651C283.673 147.053 283.615 147.427 283.444 147.771C283.275 148.114 283.013 148.401 282.658 148.633C282.305 148.863 281.881 149.013 281.385 149.082ZM281.273 148.284C281.609 148.237 281.892 148.141 282.121 147.998C282.35 147.855 282.517 147.675 282.622 147.458C282.727 147.24 282.763 146.999 282.728 146.732C282.686 146.452 282.578 146.214 282.405 146.019C282.232 145.823 282.014 145.681 281.749 145.593C281.488 145.503 281.199 145.481 280.885 145.525C280.568 145.57 280.293 145.671 280.062 145.83C279.832 145.988 279.661 146.185 279.549 146.42C279.438 146.655 279.404 146.913 279.446 147.193C279.481 147.46 279.578 147.683 279.737 147.863C279.898 148.043 280.109 148.17 280.371 148.244C280.633 148.318 280.934 148.332 281.273 148.284ZM280.777 144.756C281.043 144.718 281.271 144.632 281.462 144.497C281.655 144.361 281.798 144.189 281.889 143.981C281.981 143.773 282.01 143.541 281.976 143.284C281.939 143.033 281.849 142.822 281.706 142.652C281.564 142.48 281.382 142.357 281.162 142.284C280.942 142.209 280.695 142.191 280.422 142.229C280.143 142.268 279.907 142.355 279.714 142.488C279.52 142.619 279.38 142.787 279.292 142.991C279.205 143.194 279.18 143.421 279.218 143.672C279.251 143.929 279.34 144.145 279.483 144.319C279.628 144.494 279.812 144.62 280.036 144.697C280.259 144.774 280.506 144.794 280.777 144.756Z" fill="#0A1811"/>
<rect width="31.7626" height="24.7903" transform="translate(295.563 130.084) rotate(-8)" fill="white"/>
<path d="M312.478 136.925C312.783 136.884 313.096 136.899 313.417 136.97C313.738 137.041 314.043 137.191 314.331 137.419C314.62 137.645 314.872 137.974 315.088 138.405C315.304 138.836 315.46 139.393 315.556 140.075C315.649 140.736 315.668 141.331 315.615 141.862C315.563 142.39 315.444 142.846 315.259 143.23C315.076 143.613 314.83 143.919 314.522 144.148C314.216 144.376 313.853 144.519 313.435 144.578C313.019 144.637 312.636 144.607 312.286 144.488C311.938 144.366 311.639 144.173 311.39 143.907C311.142 143.638 310.962 143.312 310.849 142.928L311.734 142.803C311.862 143.133 312.06 143.393 312.329 143.582C312.599 143.769 312.931 143.835 313.323 143.78C313.896 143.699 314.313 143.385 314.575 142.837C314.838 142.29 314.906 141.558 314.777 140.644L314.719 140.652C314.612 140.874 314.476 141.072 314.31 141.246C314.145 141.42 313.954 141.562 313.737 141.674C313.521 141.786 313.285 141.86 313.028 141.896C312.602 141.956 312.197 141.906 311.811 141.745C311.428 141.582 311.104 141.33 310.839 140.99C310.576 140.647 310.411 140.236 310.344 139.756C310.28 139.301 310.323 138.871 310.473 138.465C310.625 138.056 310.871 137.713 311.21 137.436C311.551 137.159 311.973 136.988 312.478 136.925ZM312.59 137.723C312.285 137.766 312.021 137.881 311.798 138.068C311.577 138.252 311.413 138.482 311.307 138.759C311.202 139.032 311.171 139.324 311.215 139.634C311.258 139.944 311.366 140.216 311.537 140.451C311.71 140.683 311.926 140.858 312.184 140.975C312.445 141.089 312.727 141.124 313.032 141.081C313.262 141.049 313.47 140.974 313.656 140.857C313.841 140.737 313.997 140.588 314.122 140.41C314.25 140.229 314.342 140.032 314.398 139.819C314.455 139.604 314.467 139.387 314.436 139.166C314.395 138.876 314.287 138.614 314.111 138.379C313.937 138.145 313.717 137.966 313.451 137.843C313.187 137.72 312.9 137.68 312.59 137.723Z" fill="#0A1811"/>
<rect width="31.7626" height="24.7903" transform="translate(327.784 125.556) rotate(-8)" fill="white"/>
<path d="M342.579 132.798L343.623 140.232L342.723 140.358L341.811 133.868L341.768 133.874L340.122 135.334L339.993 134.42L341.678 132.924L342.579 132.798ZM348.2 139.692C347.653 139.769 347.167 139.686 346.74 139.442C346.313 139.196 345.958 138.803 345.675 138.263C345.391 137.72 345.193 137.045 345.079 136.237C344.966 135.433 344.972 134.733 345.095 134.136C345.22 133.536 345.454 133.059 345.797 132.705C346.142 132.348 346.585 132.131 347.127 132.055C347.669 131.979 348.154 132.065 348.581 132.313C349.01 132.559 349.367 132.953 349.65 133.496C349.936 134.035 350.135 134.707 350.248 135.51C350.362 136.319 350.357 137.023 350.234 137.622C350.111 138.219 349.878 138.695 349.535 139.049C349.192 139.401 348.747 139.615 348.2 139.692ZM348.088 138.894C348.63 138.817 349.015 138.497 349.241 137.932C349.468 137.367 349.513 136.601 349.377 135.633C349.287 134.989 349.141 134.451 348.939 134.018C348.74 133.584 348.495 133.267 348.206 133.066C347.918 132.864 347.595 132.789 347.237 132.839C346.7 132.915 346.317 133.238 346.089 133.811C345.861 134.381 345.815 135.149 345.95 136.114C346.041 136.758 346.186 137.295 346.384 137.726C346.583 138.157 346.826 138.473 347.113 138.672C347.403 138.87 347.728 138.944 348.088 138.894Z" fill="#0A1811"/>
<rect width="31.7626" height="24.7903" transform="translate(360.004 121.027) rotate(-8)" fill="white"/>
<path d="M375.618 128.154L376.663 135.588L375.762 135.715L374.85 129.225L374.807 129.231L373.161 130.691L373.033 129.776L374.718 128.281L375.618 128.154ZM380.369 127.487L381.414 134.921L380.514 135.047L379.602 128.557L379.558 128.563L377.913 130.023L377.784 129.109L379.469 127.613L380.369 127.487Z" fill="#0A1811"/>
<rect width="31.7626" height="24.7903" transform="translate(170.238 173.514) rotate(-8)" fill="white"/>
<path d="M185.133 180.742L186.178 188.176L185.278 188.302L184.366 181.812L184.322 181.818L182.677 183.278L182.548 182.364L184.233 180.868L185.133 180.742ZM188.316 187.875L188.224 187.222L190.3 184.191C190.544 183.836 190.743 183.529 190.897 183.271C191.05 183.01 191.157 182.77 191.218 182.552C191.28 182.331 191.296 182.107 191.264 181.879C191.227 181.618 191.132 181.4 190.98 181.227C190.829 181.053 190.639 180.929 190.409 180.855C190.179 180.782 189.93 180.764 189.661 180.801C189.376 180.841 189.135 180.936 188.938 181.084C188.744 181.23 188.604 181.416 188.517 181.643C188.433 181.87 188.411 182.125 188.451 182.408L187.594 182.528C187.533 182.092 187.58 181.696 187.734 181.339C187.889 180.981 188.126 180.686 188.446 180.454C188.769 180.221 189.147 180.074 189.58 180.013C190.016 179.952 190.415 179.99 190.777 180.126C191.139 180.263 191.438 180.474 191.673 180.759C191.908 181.045 192.052 181.378 192.106 181.761C192.144 182.034 192.132 182.309 192.07 182.584C192.009 182.856 191.881 183.169 191.683 183.523C191.488 183.873 191.21 184.307 190.849 184.825L189.43 186.845L189.438 186.903L192.894 186.418L193.006 187.216L188.316 187.875Z" fill="#0A1811"/>
<rect width="31.7626" height="24.7903" transform="translate(202.459 168.985) rotate(-8)" fill="white"/>
<path d="M217.194 176.236L218.239 183.67L217.339 183.796L216.427 177.306L216.383 177.312L214.738 178.773L214.609 177.858L216.294 176.362L217.194 176.236ZM222.903 183.118C222.424 183.185 221.985 183.163 221.587 183.051C221.191 182.939 220.863 182.752 220.601 182.49C220.342 182.226 220.175 181.9 220.101 181.513L221.016 181.384C221.069 181.621 221.18 181.817 221.35 181.97C221.519 182.122 221.728 182.228 221.976 182.29C222.224 182.351 222.491 182.362 222.776 182.321C223.096 182.277 223.371 182.181 223.602 182.035C223.833 181.889 224.005 181.707 224.118 181.489C224.23 181.271 224.268 181.031 224.231 180.77C224.193 180.496 224.091 180.265 223.927 180.076C223.761 179.884 223.54 179.748 223.262 179.666C222.984 179.584 222.656 179.57 222.279 179.623L221.683 179.706L221.571 178.908L222.166 178.824C222.462 178.783 222.713 178.693 222.921 178.555C223.131 178.417 223.285 178.242 223.384 178.031C223.485 177.82 223.517 177.583 223.48 177.322C223.445 177.07 223.358 176.859 223.221 176.688C223.083 176.517 222.906 176.394 222.688 176.319C222.472 176.243 222.228 176.224 221.954 176.263C221.698 176.299 221.463 176.38 221.248 176.506C221.036 176.63 220.871 176.79 220.753 176.987C220.635 177.181 220.587 177.403 220.61 177.651L219.739 177.774C219.698 177.382 219.768 177.024 219.947 176.7C220.126 176.374 220.381 176.104 220.714 175.889C221.049 175.674 221.43 175.537 221.859 175.477C222.319 175.412 222.726 175.45 223.081 175.59C223.436 175.728 223.723 175.935 223.943 176.213C224.162 176.491 224.296 176.805 224.345 177.156C224.404 177.574 224.344 177.947 224.165 178.273C223.989 178.599 223.721 178.845 223.362 179.011L223.371 179.069C223.851 179.081 224.246 179.229 224.555 179.514C224.863 179.796 225.051 180.173 225.117 180.645C225.174 181.049 225.115 181.428 224.94 181.781C224.767 182.131 224.505 182.424 224.153 182.661C223.801 182.898 223.385 183.05 222.903 183.118Z" fill="#0A1811"/>
<rect width="31.7626" height="24.7903" transform="translate(234.68 164.457) rotate(-8)" fill="white"/>
<path d="M249.39 171.71L250.435 179.144L249.534 179.271L248.622 172.78L248.579 172.787L246.933 174.247L246.805 173.332L248.49 171.837L249.39 171.71ZM252.184 177.344L252.08 176.603L254.62 170.975L255.158 170.9L255.319 172.047L254.956 172.098L253.037 176.35L253.045 176.408L257.444 175.79L257.556 176.589L252.184 177.344ZM255.898 178.376L255.652 176.627L255.603 176.282L254.853 170.942L255.709 170.822L256.754 178.256L255.898 178.376Z" fill="#0A1811"/>
<g filter="url(#filter2_dd_1397_9201)">
<rect width="31.7626" height="24.7903" transform="translate(266.9 159.929) rotate(-8)" fill="#EF2041"/>
<path d="M281.924 167.139L282.969 174.573L281.398 174.793L280.562 168.851L280.519 168.858L278.966 170.164L278.771 168.77L280.447 167.346L281.924 167.139ZM287.465 174.044C286.952 174.116 286.482 174.086 286.054 173.954C285.628 173.821 285.274 173.606 284.993 173.307C284.712 173.009 284.536 172.646 284.466 172.219L285.991 172.005C286.048 172.29 286.202 172.507 286.452 172.654C286.702 172.802 286.982 172.854 287.292 172.81C287.539 172.775 287.749 172.69 287.922 172.555C288.098 172.417 288.225 172.242 288.304 172.031C288.385 171.818 288.408 171.582 288.372 171.326C288.335 171.065 288.247 170.842 288.108 170.66C287.971 170.477 287.798 170.343 287.589 170.259C287.379 170.175 287.15 170.149 286.9 170.182C286.683 170.212 286.477 170.287 286.284 170.405C286.093 170.523 285.952 170.668 285.86 170.839L284.427 170.785L284.229 166.815L288.773 166.176L288.954 167.461L285.705 167.918L285.774 169.807L285.818 169.801C285.923 169.598 286.098 169.418 286.345 169.26C286.592 169.102 286.879 169 287.205 168.954C287.653 168.891 288.067 168.94 288.448 169.102C288.828 169.263 289.146 169.513 289.401 169.852C289.655 170.189 289.815 170.596 289.88 171.073C289.952 171.574 289.899 172.035 289.719 172.458C289.541 172.878 289.258 173.228 288.871 173.51C288.486 173.789 288.017 173.967 287.465 174.044Z" fill="white"/>
</g>
<g filter="url(#filter3_dd_1397_9201)">
<rect width="31.7626" height="24.7903" transform="translate(299.121 155.4) rotate(-8)" fill="#EF2041"/>
<path d="M314.065 162.622L315.11 170.055L313.538 170.276L312.703 164.334L312.66 164.34L311.107 165.647L310.911 164.253L312.588 162.829L314.065 162.622ZM319.744 169.508C319.361 169.559 318.983 169.547 318.61 169.471C318.239 169.395 317.893 169.235 317.573 168.991C317.252 168.748 316.977 168.404 316.747 167.96C316.519 167.516 316.357 166.954 316.262 166.274C316.176 165.649 316.169 165.081 316.241 164.57C316.314 164.056 316.459 163.609 316.674 163.228C316.892 162.847 317.173 162.541 317.519 162.31C317.863 162.077 318.266 161.928 318.725 161.863C319.221 161.793 319.673 161.829 320.08 161.969C320.487 162.107 320.828 162.324 321.104 162.621C321.383 162.917 321.575 163.266 321.681 163.669L320.131 163.886C320.034 163.636 319.879 163.451 319.664 163.33C319.45 163.21 319.2 163.17 318.915 163.21C318.431 163.278 318.092 163.54 317.9 163.996C317.71 164.452 317.663 165.043 317.76 165.767L317.811 165.76C317.891 165.524 318.015 165.315 318.182 165.134C318.351 164.95 318.551 164.799 318.781 164.683C319.014 164.564 319.265 164.486 319.536 164.447C319.977 164.386 320.383 164.435 320.756 164.594C321.129 164.752 321.44 164.997 321.689 165.329C321.938 165.662 322.095 166.061 322.16 166.525C322.231 167.029 322.177 167.493 321.997 167.918C321.82 168.343 321.538 168.696 321.15 168.977C320.765 169.256 320.296 169.433 319.744 169.508ZM319.563 168.275C319.805 168.241 320.014 168.152 320.189 168.009C320.364 167.866 320.491 167.688 320.573 167.474C320.654 167.26 320.677 167.03 320.642 166.783C320.607 166.536 320.522 166.323 320.385 166.142C320.251 165.961 320.082 165.825 319.877 165.736C319.672 165.646 319.448 165.618 319.206 165.652C319.025 165.678 318.861 165.735 318.716 165.825C318.573 165.914 318.452 166.027 318.353 166.165C318.256 166.302 318.186 166.455 318.143 166.624C318.1 166.79 318.091 166.963 318.116 167.142C318.15 167.381 318.235 167.593 318.372 167.776C318.511 167.959 318.683 168.096 318.889 168.188C319.097 168.28 319.321 168.309 319.563 168.275Z" fill="white"/>
</g>
<g filter="url(#filter4_dd_1397_9201)">
<rect width="31.7626" height="24.7903" transform="translate(331.342 150.872) rotate(-8)" fill="#EF2041"/>
<path d="M346.62 158.046L347.665 165.48L346.093 165.701L345.258 159.759L345.215 159.765L343.662 161.072L343.466 159.678L345.143 158.254L346.62 158.046ZM349.726 165.191L351.951 158.659L351.943 158.608L348.354 159.113L348.173 157.828L353.389 157.095L353.572 158.398L351.348 164.962L349.726 165.191Z" fill="white"/>
</g>
<g filter="url(#filter5_dd_1397_9201)">
<rect width="31.7626" height="24.7903" transform="translate(363.562 146.344) rotate(-8)" fill="#EF2041"/>
<path d="M378.502 153.566L379.546 161L377.975 161.22L377.139 155.278L377.096 155.285L375.543 156.591L375.348 155.197L377.024 153.773L378.502 153.566ZM384.101 160.463C383.542 160.542 383.032 160.521 382.57 160.401C382.111 160.278 381.736 160.075 381.445 159.793C381.153 159.51 380.98 159.168 380.923 158.766C380.88 158.457 380.91 158.163 381.014 157.884C381.12 157.602 381.283 157.359 381.503 157.153C381.723 156.944 381.981 156.794 382.277 156.703L382.269 156.652C381.861 156.628 381.513 156.481 381.223 156.211C380.933 155.938 380.759 155.599 380.702 155.192C380.648 154.808 380.712 154.449 380.895 154.118C381.078 153.783 381.353 153.503 381.721 153.276C382.091 153.046 382.526 152.896 383.027 152.826C383.528 152.756 383.987 152.78 384.403 152.899C384.822 153.018 385.166 153.213 385.433 153.484C385.7 153.752 385.862 154.077 385.918 154.459C385.973 154.869 385.898 155.243 385.691 155.583C385.485 155.923 385.192 156.16 384.814 156.295L384.821 156.346C385.126 156.352 385.411 156.426 385.678 156.566C385.946 156.703 386.17 156.893 386.35 157.134C386.531 157.373 386.645 157.646 386.691 157.956C386.745 158.358 386.671 158.735 386.469 159.086C386.266 159.438 385.96 159.737 385.551 159.982C385.143 160.224 384.66 160.385 384.101 160.463ZM383.938 159.309C384.188 159.274 384.399 159.198 384.573 159.083C384.746 158.965 384.874 158.818 384.955 158.644C385.039 158.467 385.066 158.273 385.036 158.063C385.006 157.847 384.925 157.665 384.793 157.516C384.661 157.364 384.495 157.254 384.295 157.186C384.095 157.115 383.874 157.097 383.632 157.131C383.393 157.165 383.185 157.243 383.01 157.366C382.835 157.487 382.704 157.639 382.619 157.821C382.535 158.001 382.509 158.198 382.539 158.414C382.569 158.624 382.647 158.803 382.774 158.951C382.9 159.096 383.064 159.201 383.266 159.266C383.467 159.329 383.692 159.344 383.938 159.309ZM383.472 155.988C383.68 155.958 383.859 155.89 384.009 155.782C384.159 155.675 384.27 155.54 384.341 155.377C384.412 155.214 384.433 155.034 384.406 154.838C384.378 154.645 384.309 154.482 384.196 154.35C384.084 154.215 383.942 154.118 383.77 154.058C383.599 153.996 383.406 153.979 383.194 154.009C382.983 154.039 382.803 154.107 382.652 154.215C382.502 154.32 382.391 154.453 382.32 154.613C382.251 154.771 382.23 154.947 382.257 155.14C382.284 155.336 382.355 155.503 382.468 155.64C382.581 155.777 382.724 155.877 382.898 155.939C383.072 156 383.263 156.017 383.472 155.988Z" fill="white"/>
</g>
<rect width="31.7626" height="24.7903" transform="translate(206.017 194.302) rotate(-8)" fill="white"/>
<rect width="31.7626" height="24.7903" transform="translate(238.238 189.773) rotate(-8)" fill="white"/>
<rect width="31.7626" height="24.7903" transform="translate(270.458 185.245) rotate(-8)" fill="white"/>
<path d="M283.066 200.374L282.974 199.721L285.05 196.69C285.294 196.335 285.493 196.028 285.646 195.77C285.8 195.509 285.907 195.269 285.967 195.051C286.03 194.83 286.045 194.606 286.013 194.378C285.977 194.117 285.882 193.9 285.729 193.726C285.579 193.552 285.389 193.428 285.159 193.355C284.929 193.281 284.68 193.263 284.411 193.301C284.125 193.341 283.885 193.435 283.688 193.584C283.494 193.729 283.354 193.916 283.267 194.142C283.183 194.369 283.161 194.624 283.201 194.907L282.344 195.027C282.283 194.592 282.329 194.195 282.484 193.838C282.639 193.481 282.876 193.186 283.196 192.953C283.519 192.72 283.897 192.573 284.33 192.512C284.765 192.451 285.164 192.489 285.526 192.626C285.889 192.762 286.187 192.973 286.422 193.259C286.657 193.544 286.802 193.878 286.856 194.26C286.894 194.533 286.882 194.808 286.819 195.083C286.759 195.356 286.63 195.669 286.433 196.022C286.238 196.373 285.96 196.807 285.598 197.324L284.18 199.344L284.188 199.402L287.643 198.917L287.756 199.715L283.066 200.374ZM289.255 199.505L289.163 198.851L291.239 195.82C291.483 195.465 291.682 195.159 291.835 194.9C291.989 194.639 292.096 194.4 292.156 194.181C292.219 193.96 292.234 193.736 292.202 193.509C292.166 193.247 292.071 193.03 291.918 192.856C291.768 192.682 291.578 192.559 291.348 192.485C291.118 192.411 290.868 192.393 290.6 192.431C290.314 192.471 290.073 192.565 289.877 192.714C289.683 192.86 289.542 193.046 289.456 193.273C289.372 193.499 289.35 193.754 289.389 194.037L288.533 194.158C288.472 193.722 288.518 193.325 288.673 192.968C288.827 192.611 289.065 192.316 289.385 192.083C289.708 191.85 290.086 191.704 290.519 191.643C290.954 191.581 291.353 191.619 291.715 191.756C292.078 191.892 292.376 192.103 292.611 192.389C292.846 192.674 292.991 193.008 293.044 193.39C293.083 193.664 293.071 193.938 293.008 194.213C292.948 194.486 292.819 194.799 292.622 195.152C292.427 195.503 292.149 195.937 291.787 196.454L290.368 198.475L290.377 198.533L293.832 198.047L293.944 198.846L289.255 199.505Z" fill="#0A1811"/>
<rect width="31.7626" height="24.7903" transform="translate(302.679 180.717) rotate(-8)" fill="white"/>
<path d="M315.127 195.869L315.035 195.215L317.111 192.184C317.355 191.829 317.554 191.522 317.707 191.264C317.861 191.003 317.968 190.763 318.028 190.545C318.091 190.324 318.106 190.1 318.074 189.872C318.038 189.611 317.943 189.394 317.79 189.22C317.64 189.046 317.45 188.923 317.22 188.849C316.99 188.775 316.74 188.757 316.472 188.795C316.186 188.835 315.945 188.929 315.749 189.078C315.555 189.223 315.415 189.41 315.328 189.637C315.244 189.863 315.222 190.118 315.261 190.401L314.405 190.521C314.344 190.086 314.39 189.689 314.545 189.332C314.699 188.975 314.937 188.68 315.257 188.447C315.58 188.214 315.958 188.067 316.391 188.007C316.826 187.945 317.225 187.983 317.587 188.12C317.95 188.256 318.248 188.467 318.483 188.753C318.718 189.038 318.863 189.372 318.916 189.754C318.955 190.028 318.943 190.302 318.88 190.577C318.82 190.85 318.691 191.163 318.494 191.516C318.299 191.867 318.021 192.301 317.659 192.818L316.24 194.839L316.249 194.897L319.704 194.411L319.816 195.21L315.127 195.869ZM323.842 194.747C323.363 194.815 322.924 194.793 322.526 194.681C322.13 194.569 321.801 194.381 321.54 194.12C321.281 193.855 321.114 193.529 321.04 193.142L321.955 193.014C322.008 193.251 322.119 193.446 322.289 193.6C322.458 193.751 322.667 193.858 322.915 193.919C323.163 193.98 323.429 193.991 323.715 193.951C324.034 193.906 324.31 193.811 324.541 193.665C324.772 193.519 324.944 193.336 325.056 193.118C325.169 192.9 325.207 192.66 325.17 192.399C325.131 192.126 325.03 191.894 324.865 191.705C324.7 191.514 324.478 191.377 324.2 191.295C323.922 191.213 323.595 191.199 323.217 191.252L322.622 191.336L322.51 190.537L323.105 190.454C323.4 190.412 323.652 190.322 323.859 190.185C324.069 190.047 324.224 189.872 324.322 189.661C324.423 189.449 324.456 189.213 324.419 188.951C324.383 188.7 324.297 188.488 324.159 188.318C324.022 188.147 323.844 188.024 323.626 187.948C323.411 187.873 323.166 187.854 322.893 187.892C322.637 187.928 322.401 188.01 322.187 188.136C321.975 188.259 321.81 188.42 321.692 188.616C321.574 188.811 321.526 189.032 321.548 189.281L320.677 189.403C320.637 189.011 320.706 188.654 320.885 188.33C321.064 188.004 321.32 187.733 321.652 187.519C321.987 187.304 322.369 187.166 322.797 187.106C323.257 187.042 323.665 187.079 324.02 187.219C324.375 187.357 324.662 187.565 324.881 187.842C325.1 188.12 325.235 188.434 325.284 188.785C325.343 189.204 325.283 189.576 325.104 189.902C324.928 190.228 324.66 190.474 324.301 190.641L324.309 190.699C324.789 190.71 325.184 190.858 325.493 191.143C325.802 191.426 325.989 191.803 326.056 192.275C326.112 192.679 326.053 193.057 325.878 193.41C325.705 193.76 325.443 194.054 325.091 194.29C324.74 194.527 324.323 194.68 323.842 194.747Z" fill="#0A1811"/>
<rect width="31.7626" height="24.7903" transform="translate(334.9 176.188) rotate(-8)" fill="white"/>
<path d="M347.402 191.333L347.31 190.679L349.387 187.648C349.63 187.293 349.829 186.986 349.983 186.728C350.136 186.467 350.243 186.227 350.304 186.009C350.366 185.788 350.382 185.564 350.35 185.336C350.313 185.075 350.218 184.858 350.066 184.684C349.915 184.51 349.725 184.387 349.495 184.313C349.265 184.239 349.016 184.221 348.747 184.259C348.462 184.299 348.221 184.393 348.025 184.542C347.83 184.687 347.69 184.874 347.603 185.101C347.519 185.327 347.497 185.582 347.537 185.865L346.68 185.985C346.619 185.55 346.666 185.153 346.82 184.796C346.975 184.439 347.212 184.144 347.533 183.911C347.855 183.678 348.233 183.531 348.666 183.471C349.102 183.409 349.501 183.447 349.863 183.584C350.225 183.72 350.524 183.931 350.759 184.217C350.994 184.502 351.138 184.836 351.192 185.218C351.23 185.492 351.218 185.766 351.156 186.041C351.095 186.314 350.967 186.627 350.77 186.98C350.575 187.331 350.296 187.765 349.935 188.282L348.516 190.302L348.524 190.361L351.98 189.875L352.092 190.673L347.402 191.333ZM353.043 188.985L352.939 188.245L355.479 182.617L356.016 182.541L356.178 183.688L355.815 183.739L353.895 187.992L353.903 188.05L358.303 187.432L358.415 188.23L353.043 188.985ZM356.756 190.018L356.51 188.268L356.462 187.924L355.711 182.584L356.568 182.464L357.613 189.898L356.756 190.018Z" fill="#0A1811"/>
<rect width="31.7626" height="24.7903" transform="translate(367.12 171.659) rotate(-8)" fill="white"/>
<path d="M379.713 186.792L379.621 186.138L381.697 183.107C381.941 182.752 382.14 182.445 382.293 182.187C382.447 181.926 382.554 181.686 382.614 181.468C382.677 181.247 382.692 181.023 382.66 180.795C382.624 180.534 382.529 180.317 382.376 180.143C382.226 179.969 382.036 179.846 381.806 179.772C381.576 179.698 381.326 179.68 381.058 179.718C380.772 179.758 380.531 179.852 380.335 180.001C380.141 180.146 380.001 180.333 379.914 180.56C379.83 180.786 379.808 181.041 379.847 181.324L378.991 181.444C378.93 181.009 378.976 180.612 379.131 180.255C379.285 179.898 379.523 179.603 379.843 179.37C380.166 179.137 380.544 178.99 380.977 178.93C381.412 178.868 381.811 178.906 382.173 179.043C382.536 179.179 382.834 179.39 383.069 179.676C383.304 179.961 383.449 180.295 383.502 180.677C383.541 180.951 383.529 181.225 383.466 181.5C383.406 181.773 383.277 182.086 383.08 182.439C382.885 182.79 382.607 183.224 382.245 183.741L380.826 185.762L380.835 185.82L384.29 185.334L384.402 186.133L379.713 186.792ZM388.239 185.697C387.813 185.757 387.418 185.726 387.053 185.605C386.688 185.483 386.381 185.289 386.134 185.023C385.887 184.757 385.727 184.436 385.655 184.061L386.526 183.939C386.607 184.27 386.799 184.527 387.101 184.709C387.405 184.889 387.747 184.952 388.127 184.898C388.432 184.856 388.693 184.746 388.91 184.57C389.129 184.394 389.289 184.171 389.39 183.903C389.492 183.632 389.521 183.338 389.477 183.021C389.431 182.697 389.319 182.417 389.141 182.183C388.964 181.947 388.742 181.772 388.475 181.659C388.207 181.546 387.915 181.51 387.597 181.553C387.369 181.582 387.141 181.65 386.911 181.756C386.682 181.86 386.497 181.979 386.358 182.112L385.502 182.128L385.438 178.406L389.3 177.864L389.412 178.662L386.305 179.099L386.352 181.328L386.395 181.322C386.531 181.179 386.708 181.052 386.926 180.94C387.145 180.828 387.379 180.754 387.628 180.719C388.083 180.655 388.504 180.707 388.89 180.875C389.278 181.04 389.601 181.296 389.857 181.642C390.115 181.988 390.278 182.402 390.346 182.884C390.412 183.358 390.365 183.797 390.205 184.199C390.046 184.599 389.797 184.933 389.457 185.2C389.117 185.465 388.711 185.631 388.239 185.697Z" fill="#0A1811"/>
<rect width="31.7626" height="24.7903" transform="translate(370.57 196.209) rotate(-8)" fill="white"/>
<defs>
<filter id="filter0_dd_1397_9201" x="158.311" y="31.7598" width="220.168" height="50.124" filterUnits="userSpaceOnUse" color-interpolation-filters="sRGB">
<feFlood flood-opacity="0" result="BackgroundImageFix"/>
<feColorMatrix in="SourceAlpha" type="matrix" values="0 0 0 0 0 0 0 0 0 0 0 0 0 0 0 0 0 0 127 0" result="hardAlpha"/>
<feOffset dy="0.737288"/>
<feGaussianBlur stdDeviation="0.368644"/>
<feColorMatrix type="matrix" values="0 0 0 0 0 0 0 0 0 0 0 0 0 0 0 0 0 0 0.05 0"/>
<feBlend mode="normal" in2="BackgroundImageFix" result="effect1_dropShadow_1397_9201"/>
<feColorMatrix in="SourceAlpha" type="matrix" values="0 0 0 0 0 0 0 0 0 0 0 0 0 0 0 0 0 0 127 0" result="hardAlpha"/>
<feOffset/>
<feGaussianBlur stdDeviation="0.368644"/>
<feColorMatrix type="matrix" values="0 0 0 0 0 0 0 0 0 0 0 0 0 0 0 0 0 0 0.25 0"/>
<feBlend mode="normal" in2="effect1_dropShadow_1397_9201" result="effect2_dropShadow_1397_9201"/>
<feBlend mode="normal" in="SourceGraphic" in2="effect2_dropShadow_1397_9201" result="shape"/>
</filter>
<filter id="filter1_dd_1397_9201" x="161.021" y="64.794" width="223.158" height="43.8955" filterUnits="userSpaceOnUse" color-interpolation-filters="sRGB">
<feFlood flood-opacity="0" result="BackgroundImageFix"/>
<feColorMatrix in="SourceAlpha" type="matrix" values="0 0 0 0 0 0 0 0 0 0 0 0 0 0 0 0 0 0 127 0" result="hardAlpha"/>
<feOffset dy="0.737288"/>
<feGaussianBlur stdDeviation="0.368644"/>
<feColorMatrix type="matrix" values="0 0 0 0 0 0 0 0 0 0 0 0 0 0 0 0 0 0 0.05 0"/>
<feBlend mode="normal" in2="BackgroundImageFix" result="effect1_dropShadow_1397_9201"/>
<feColorMatrix in="SourceAlpha" type="matrix" values="0 0 0 0 0 0 0 0 0 0 0 0 0 0 0 0 0 0 127 0" result="hardAlpha"/>
<feOffset/>
<feGaussianBlur stdDeviation="0.368644"/>
<feColorMatrix type="matrix" values="0 0 0 0 0 0 0 0 0 0 0 0 0 0 0 0 0 0 0.25 0"/>
<feBlend mode="normal" in2="effect1_dropShadow_1397_9201" result="effect2_dropShadow_1397_9201"/>
<feBlend mode="normal" in="SourceGraphic" in2="effect2_dropShadow_1397_9201" result="shape"/>
</filter>
<filter id="filter2_dd_1397_9201" x="266.163" y="154.771" width="36.3782" height="31.1816" filterUnits="userSpaceOnUse" color-interpolation-filters="sRGB">
<feFlood flood-opacity="0" result="BackgroundImageFix"/>
<feColorMatrix in="SourceAlpha" type="matrix" values="0 0 0 0 0 0 0 0 0 0 0 0 0 0 0 0 0 0 127 0" result="hardAlpha"/>
<feOffset dy="0.737288"/>
<feGaussianBlur stdDeviation="0.368644"/>
<feColorMatrix type="matrix" values="0 0 0 0 0 0 0 0 0 0 0 0 0 0 0 0 0 0 0.05 0"/>
<feBlend mode="normal" in2="BackgroundImageFix" result="effect1_dropShadow_1397_9201"/>
<feColorMatrix in="SourceAlpha" type="matrix" values="0 0 0 0 0 0 0 0 0 0 0 0 0 0 0 0 0 0 127 0" result="hardAlpha"/>
<feOffset/>
<feGaussianBlur stdDeviation="0.368644"/>
<feColorMatrix type="matrix" values="0 0 0 0 0 0 0 0 0 0 0 0 0 0 0 0 0 0 0.25 0"/>
<feBlend mode="normal" in2="effect1_dropShadow_1397_9201" result="effect2_dropShadow_1397_9201"/>
<feBlend mode="normal" in="SourceGraphic" in2="effect2_dropShadow_1397_9201" result="shape"/>
</filter>
<filter id="filter3_dd_1397_9201" x="298.384" y="150.242" width="36.3782" height="31.1816" filterUnits="userSpaceOnUse" color-interpolation-filters="sRGB">
<feFlood flood-opacity="0" result="BackgroundImageFix"/>
<feColorMatrix in="SourceAlpha" type="matrix" values="0 0 0 0 0 0 0 0 0 0 0 0 0 0 0 0 0 0 127 0" result="hardAlpha"/>
<feOffset dy="0.737288"/>
<feGaussianBlur stdDeviation="0.368644"/>
<feColorMatrix type="matrix" values="0 0 0 0 0 0 0 0 0 0 0 0 0 0 0 0 0 0 0.05 0"/>
<feBlend mode="normal" in2="BackgroundImageFix" result="effect1_dropShadow_1397_9201"/>
<feColorMatrix in="SourceAlpha" type="matrix" values="0 0 0 0 0 0 0 0 0 0 0 0 0 0 0 0 0 0 127 0" result="hardAlpha"/>
<feOffset/>
<feGaussianBlur stdDeviation="0.368644"/>
<feColorMatrix type="matrix" values="0 0 0 0 0 0 0 0 0 0 0 0 0 0 0 0 0 0 0.25 0"/>
<feBlend mode="normal" in2="effect1_dropShadow_1397_9201" result="effect2_dropShadow_1397_9201"/>
<feBlend mode="normal" in="SourceGraphic" in2="effect2_dropShadow_1397_9201" result="shape"/>
</filter>
<filter id="filter4_dd_1397_9201" x="330.604" y="145.714" width="36.3782" height="31.1816" filterUnits="userSpaceOnUse" color-interpolation-filters="sRGB">
<feFlood flood-opacity="0" result="BackgroundImageFix"/>
<feColorMatrix in="SourceAlpha" type="matrix" values="0 0 0 0 0 0 0 0 0 0 0 0 0 0 0 0 0 0 127 0" result="hardAlpha"/>
<feOffset dy="0.737288"/>
<feGaussianBlur stdDeviation="0.368644"/>
<feColorMatrix type="matrix" values="0 0 0 0 0 0 0 0 0 0 0 0 0 0 0 0 0 0 0.05 0"/>
<feBlend mode="normal" in2="BackgroundImageFix" result="effect1_dropShadow_1397_9201"/>
<feColorMatrix in="SourceAlpha" type="matrix" values="0 0 0 0 0 0 0 0 0 0 0 0 0 0 0 0 0 0 127 0" result="hardAlpha"/>
<feOffset/>
<feGaussianBlur stdDeviation="0.368644"/>
<feColorMatrix type="matrix" values="0 0 0 0 0 0 0 0 0 0 0 0 0 0 0 0 0 0 0.25 0"/>
<feBlend mode="normal" in2="effect1_dropShadow_1397_9201" result="effect2_dropShadow_1397_9201"/>
<feBlend mode="normal" in="SourceGraphic" in2="effect2_dropShadow_1397_9201" result="shape"/>
</filter>
<filter id="filter5_dd_1397_9201" x="362.825" y="141.186" width="36.3782" height="31.1816" filterUnits="userSpaceOnUse" color-interpolation-filters="sRGB">
<feFlood flood-opacity="0" result="BackgroundImageFix"/>
<feColorMatrix in="SourceAlpha" type="matrix" values="0 0 0 0 0 0 0 0 0 0 0 0 0 0 0 0 0 0 127 0" result="hardAlpha"/>
<feOffset dy="0.737288"/>
<feGaussianBlur stdDeviation="0.368644"/>
<feColorMatrix type="matrix" values="0 0 0 0 0 0 0 0 0 0 0 0 0 0 0 0 0 0 0.05 0"/>
<feBlend mode="normal" in2="BackgroundImageFix" result="effect1_dropShadow_1397_9201"/>
<feColorMatrix in="SourceAlpha" type="matrix" values="0 0 0 0 0 0 0 0 0 0 0 0 0 0 0 0 0 0 127 0" result="hardAlpha"/>
<feOffset/>
<feGaussianBlur stdDeviation="0.368644"/>
<feColorMatrix type="matrix" values="0 0 0 0 0 0 0 0 0 0 0 0 0 0 0 0 0 0 0.25 0"/>
<feBlend mode="normal" in2="effect1_dropShadow_1397_9201" result="effect2_dropShadow_1397_9201"/>
<feBlend mode="normal" in="SourceGraphic" in2="effect2_dropShadow_1397_9201" result="shape"/>
</filter>
</defs>
</svg>
