<svg width="681" height="206" viewBox="0 0 681 206" fill="none" xmlns="http://www.w3.org/2000/svg">
<g clip-path="url(#clip0_1397_8951)">
<rect width="702" height="278" transform="translate(-20)" fill="#F3F7FA"/>
<g clip-path="url(#clip1_1397_8951)" filter="url(#filter0_df_1397_8951)">
<path d="M416.775 51.7367L419.18 37.9466L437.083 42.7436L416.775 51.7367ZM479.758 54.1784L459.424 63.1644L461.861 49.3829L479.758 54.1784ZM438.553 41.2718L420.651 36.4751L440.929 27.5809L438.553 41.2718ZM481.228 52.7066L463.332 47.9114L483.578 39.0086L481.228 52.7066ZM440.994 41.0117L443.377 27.3094L461.253 32.0993L440.994 41.0117ZM462.328 46.7282L464.718 33.0279L482.593 37.8173L462.328 46.7282ZM462.722 30.6305L444.846 25.8408L465.076 16.9309L462.722 30.6305ZM484.061 36.3483L466.187 31.5591L486.409 22.6472L484.061 36.3483ZM465.218 30.3494L467.55 16.6684L485.422 21.4573L465.218 30.3494ZM486.89 19.9883L469.019 15.1999L489.287 6.2785L486.89 19.9883Z" fill="#63C4B1"/>
<path d="M435.622 57.731L417.745 52.9411L438.074 43.9327L435.622 57.731ZM456.961 63.4488L439.087 58.6596L459.408 49.6489L456.961 63.4488ZM438.113 57.4538L440.519 43.6639L458.418 48.4602L438.113 57.4538ZM459.89 46.9886L442.019 42.2002L462.268 33.2989L459.89 46.9886ZM419.653 35.2939L422.039 21.5926L439.909 26.3807L419.653 35.2939ZM483.666 52.4462L486.057 38.7462L503.926 43.5341L483.666 52.4462ZM441.378 24.912L423.508 20.1238L443.734 11.2122L441.378 24.912ZM505.394 42.065L487.527 37.2776L507.748 28.3645L505.394 42.065ZM443.88 24.6317L446.183 10.9438L464.086 15.7408L443.88 24.6317ZM486.529 36.0594L488.864 22.3801L506.761 27.1756L486.529 36.0594ZM465.555 14.2713L447.653 9.4743L467.95 0.561713L465.555 14.2713ZM508.23 25.7058L490.333 20.9106L510.599 11.9894L508.23 25.7058ZM468.036 13.9702L470.398 0.288561L488.274 5.07848L468.036 13.9702ZM489.371 19.6869L491.74 6.0071L509.614 10.7965L489.371 19.6869Z" fill="white"/>
</g>
<g clip-path="url(#clip2_1397_8951)" filter="url(#filter1_df_1397_8951)">
<path d="M646.595 64.288L647.426 65.6991C648.686 68.3392 648.404 70.8633 646.445 73.3096C650.22 73.7268 654.097 75.2114 655.005 76.6431L655.935 77.8579L655.159 78.2441C653.742 78.9786 653.354 79.1718 653.16 79.2683C645.768 82.8584 639.789 81.3306 637.08 80.5304C617.254 91.4848 595.249 94.5763 575.105 89.1787C565.802 86.6859 560.896 82.623 560.405 77.0693C559.724 69.7562 567.047 62.4337 569.928 60.2347L570.551 59.8072L626.14 74.7023C629.061 75.4851 631.877 75.4968 633.422 75.3166C633.557 73.7188 634.638 72.1512 635.381 71.3105C637.493 68.9055 640.723 66.6511 644.018 65.3057L646.595 64.288ZM592.035 56.6507L586.177 62.5087L577.719 60.2425L583.577 54.3845L592.035 56.6507ZM602.03 59.3289L596.172 65.1869L587.715 62.9208L593.573 57.0627L602.03 59.3289ZM612.026 62.0071L606.168 67.8652L597.71 65.599L603.568 59.7409L612.026 62.0071ZM622.021 64.6853L616.163 70.5434L607.705 68.2772L613.563 62.4191L622.021 64.6853ZM632.016 67.3636L626.158 73.2216L617.701 70.9554L623.559 65.0974L632.016 67.3636ZM629.051 57.6557L623.192 63.5137L614.735 61.2475L620.593 55.3895L629.051 57.6557ZM619.055 54.9774L613.197 60.8355L604.74 58.5693L610.598 52.7112L619.055 54.9774ZM609.06 52.2992L603.202 58.1573L594.744 55.8911L600.602 50.033L609.06 52.2992ZM636.08 50.626L630.222 56.4841L621.765 54.2179L627.623 48.3598L636.08 50.626Z" fill="#2396ED"/>
</g>
<g filter="url(#filter2_d_1397_8951)">
</g>
<g filter="url(#filter3_d_1397_8951)">
<path d="M5.75345 -19.4767L-48.1056 -33.9082L-67.8743 -14.1395L-41.3731 -7.03852C-40.4289 -6.78554 -40.2237 -6.01961 -40.9149 -5.32846L-60.0473 13.804L-32.6895 21.1345L6.20938 -17.7644C6.54261 -18.0966 6.68182 -18.4637 6.59629 -18.7849C6.51077 -19.1062 6.20753 -19.355 5.75345 -19.4767Z" fill="#8E75FF"/>
<path opacity="0.405" d="M-48.1086 -33.909L-67.8773 -14.1403L-93.1437 -20.9104C-93.4905 -21.0039 -93.6491 -21.2414 -93.5454 -21.5119C-93.4418 -21.7823 -93.0962 -22.0322 -92.6706 -22.1445L-48.1086 -33.909ZM-77.3064 32.9104C-77.7292 33.0214 -78.1478 32.9747 -78.3684 32.7921C-78.589 32.6094 -78.5688 32.3263 -78.317 32.0738L-60.0473 13.8041L-32.6894 21.1346L-77.3041 32.9081L-77.3064 32.9104Z" fill="#8E75FF"/>
</g>
<g filter="url(#filter4_df_1397_8951)">
<path d="M152.65 19.8846L98.7906 5.45312L79.0219 25.2218L105.523 32.3228C106.467 32.5758 106.673 33.3417 105.981 34.0329L86.8489 53.1653L114.207 60.4959L153.106 21.597C153.439 21.2648 153.578 20.8976 153.493 20.5764C153.407 20.2552 153.104 20.0063 152.65 19.8846Z" fill="#8E75FF"/>
<path opacity="0.405" d="M98.7876 5.45235L79.0189 25.2211L53.7525 18.451C53.4058 18.3575 53.2471 18.1199 53.3508 17.8495C53.4545 17.579 53.8 17.3291 54.2256 17.2168L98.7876 5.45235ZM69.5898 72.2717C69.167 72.3827 68.7485 72.336 68.5278 72.1534C68.3072 71.9707 68.3275 71.6877 68.5793 71.4351L86.849 53.1654L114.207 60.4959L69.5921 72.2694L69.5898 72.2717Z" fill="#8E75FF"/>
<path opacity="0.405" d="M79.0189 25.2207L106.38 32.552C106.849 32.6777 106.954 33.0599 106.609 33.4055L86.849 53.1651L60.3478 46.0641C59.4033 45.811 59.1982 45.0454 59.8896 44.354L79.022 25.2215L79.0189 25.2207Z" fill="#8E75FF"/>
</g>
<g filter="url(#filter5_df_1397_8951)">
<g clip-path="url(#clip3_1397_8951)">
<path d="M189.804 99.7199C186.189 95.1981 184.5 89.7837 184.977 84.2524C186.202 70.0521 199.782 56.2894 219.285 49.4831C224.074 47.8116 229.667 46.652 235.247 46.1734L240.166 45.7514L223.979 57.4624C208.484 68.672 207.729 69.2551 206.338 71.0796C203.556 74.7298 202.29 77.4242 201.712 80.9258C200.218 89.9708 206.579 97.1652 217.818 99.1407C228.381 100.998 241.339 97.6959 249.824 90.9855C255.524 86.4781 258.35 82.1809 259.32 76.5465C260.054 72.286 259.178 68.509 256.744 65.4471C254.269 62.3318 254.562 62.3571 250.917 64.9452L247.771 67.1796L249.187 68.8456C254.671 75.2977 250.435 85.1488 239.88 90.4868C236.509 92.1917 232.889 93.2258 228.826 93.6444C222.652 94.2806 217.288 92.8161 214.106 90.4716C208.844 86.5949 208.262 80.6511 211.78 75.0717C211.78 75.0717 212.836 73.5143 213.655 72.6735C218.471 67.7289 231.508 59.4466 231.508 59.4466L249.5 46.5524L250.889 46.774C251.653 46.8959 252.342 47.0431 252.421 47.1012C252.501 47.1593 244.3 53.1278 234.197 60.3646C234.197 60.3646 219.88 69.0641 216.039 73.6038C215.484 74.2588 214.571 75.4041 214.571 75.4041C212.812 78.2416 212.06 81.321 212.968 83.9846C213.657 86.0064 214.057 86.9864 216.631 88.8735C218.313 90.1065 220.48 90.7181 223.2 91.261C226.406 91.9009 231.867 91.3689 235.593 89.9595C245.859 86.0764 251.078 77.6273 247.118 71.3013C245.5 68.7159 245.606 68.7167 242.018 71.2647L238.883 73.4904L239.702 74.7019C242.652 79.0688 236.365 85.5048 228.917 85.7203C226.286 85.7965 224.553 85.4122 222.595 83.9771C220.504 82.4437 220.11 79.8253 221.554 77.3102C222.422 75.7994 223.781 74.7592 224.427 74.3003C230.396 70.0617 241.03 62.3644 241.03 62.3644L259.362 49.2268L260.208 49.5535C260.674 49.7332 262.38 50.584 264 51.4443C269.493 54.3617 274.51 60.8855 275.779 66.7604C277.51 74.77 274.33 84.0185 267.072 92.0823C264.576 94.8561 263.726 95.5714 258.594 99.2154C253.485 102.843 252.448 103.465 248.648 105.183C233.301 112.123 217.312 113.406 203.514 108.805C200.61 107.837 199.473 107.225 195.667 104.58C192.596 102.446 190.779 100.939 189.804 99.7199Z" fill="#C60C30"/>
</g>
</g>
<g filter="url(#filter6_df_1397_8951)">
<g clip-path="url(#clip4_1397_8951)">
<path d="M347.361 148.042C369.912 154.085 401.574 145.601 418.082 129.093C434.59 112.585 429.692 94.3042 407.142 88.2619C384.592 82.2196 352.929 90.7036 336.421 107.212C319.913 123.72 324.811 142 347.361 148.042Z" fill="#1C1C20"/>
<path d="M394.366 121.714L393.147 117.166L402.524 110.755L391.163 109.761L389.979 105.343L415.801 107.197L394.366 121.714Z" fill="#BAFFA9"/>
<path d="M364.764 141.761L354.321 102.784L380.142 104.638L381.326 109.055L362.882 107.731L365.249 116.566L377.32 117.509L367.303 124.231L369.67 133.066L384.981 122.697L386.2 127.244L364.764 141.761Z" fill="#7ACB16"/>
</g>
</g>
<g clip-path="url(#clip5_1397_8951)" filter="url(#filter7_d_1397_8951)">
<path fill-rule="evenodd" clip-rule="evenodd" d="M543.609 131.329C542.206 130.977 539.842 131.145 538.822 130.595C538.415 130.375 537.848 130.176 537.233 130.041C537.222 130.038 537.212 130.035 537.201 130.032C536.574 129.897 535.894 129.833 535.267 129.911C535.242 129.914 535.214 129.916 535.188 129.919C535.152 129.932 535.117 129.944 535.081 129.954C534.085 130.221 532.775 129.919 531.75 130.193C530.913 130.417 529.789 130.975 528.649 131.438C528.638 131.443 528.629 131.449 528.618 131.453C525.102 132.564 521.596 134.151 519.433 135.635C517.655 136.855 515.854 138.664 513.801 139.801C513.227 140.119 510.329 141.955 510.578 142.53C510.748 142.922 512.426 143.636 513.462 143.303C514.02 143.124 517.403 143.208 519.003 142.694C520.886 142.088 522.919 140.714 524.882 139.627C525.195 139.454 525.551 139.277 525.927 139.108C525.763 139.768 525.621 140.305 525.506 140.628C525.268 141.3 524.842 142.203 524.297 143.144C522.861 143.722 522.104 144.836 522.119 145.442C519.688 145.362 519.072 147.174 518.941 147.209C518.715 147.27 518.175 147.286 517.886 147.364C517.529 147.46 517.181 147.766 516.953 147.994C516.733 148.215 516.575 148.42 516.458 148.608C511.341 151.442 505.49 155.138 501.104 156.8C500.279 156.841 499.469 156.849 498.62 156.759C496.912 156.636 492.738 156.182 488.906 156.116C488.643 156.21 488.359 156.296 488.055 156.377C487.527 156.519 486.917 156.356 486.389 156.497C485.979 156.607 485.435 156.214 485.025 156.324C483.807 156.65 482.502 156.639 480.992 156.748C480.824 156.76 480.545 156.541 480.382 156.585C479.512 156.818 478.401 156.789 477.661 156.987C476.214 157.375 474.849 157.852 473.287 158.27C471.735 158.686 471.756 160.982 471.833 161.269C472.06 162.116 473.517 162.632 473.743 163.478C473.839 163.834 475.382 163.806 475.603 164.128C475.702 164.169 475.787 164.211 475.829 164.253C476.62 165.044 478.729 166.037 479.846 166.793C481.384 167.835 481.672 169.595 483.387 170.542C484.693 171.262 486.353 171.904 487.572 172.73C488.082 173.075 489.014 173.182 489.509 173.518C490.436 174.145 491.172 174.813 492.016 175.385C492.309 175.583 492.987 175.553 493.311 175.732C494.039 176.134 494.956 176.44 495.614 176.886C496.787 177.68 499.613 177.477 500.786 178.271C501.558 178.795 508.322 180.101 509.208 179.863C509.86 179.689 510.941 180.422 511.614 180.374C512.198 180.332 513.342 180.833 513.836 180.701C515.111 180.359 516.646 180.74 518.082 180.637C518.687 180.594 519.145 181.001 519.772 180.956C520.132 180.93 520.55 181.192 520.947 181.533C522.071 181.813 523.008 181.957 524.115 182.253C525.431 182.606 527.705 182.635 530.323 182.459C532.805 182.678 535.815 182.971 536.026 182.914C537.63 182.484 539.895 183.339 541.485 182.913C542.611 182.611 543.64 182.642 544.799 182.331C545.832 182.054 547.151 181.774 548.537 181.478C548.991 181.213 549.661 181.028 550.273 180.864C550.53 180.795 553.818 178.835 553.905 178.507C554.066 177.907 553.913 177.335 553.644 176.769C553.491 176.663 553.386 176.569 553.367 176.496C553.178 175.792 551.571 175.261 551.404 174.635C551.134 173.627 550.282 172.559 548.919 171.63C548.678 171.392 548.47 171.151 548.402 170.897C548.315 170.575 546.756 169.776 546.411 169.43C546.225 169.244 545.421 169.24 545.362 169.021C545.22 168.49 543.273 167.618 542.041 166.813C541.796 166.761 541.551 166.529 541.532 166.461C541.52 166.412 540.408 165.945 540.299 165.535C540.286 165.489 541.341 164.223 541.493 164.071C541.549 164.014 541.589 163.738 541.781 163.687C541.811 163.679 541.842 163.669 541.872 163.659C544.483 160.106 547.618 156.25 547.412 155.777C547.107 155.074 549.371 152.249 549.036 151.476C548.685 150.667 548.73 149.898 548.504 149.228C548.505 149.226 548.507 149.225 548.508 149.223C549.312 148.083 550.008 146.746 549.947 146.605C549.848 146.376 550.965 145.757 550.866 145.527C550.556 144.814 552.429 141.609 552.139 140.94C551.759 140.064 552.219 138.985 551.858 138.153C550.967 136.097 549.238 132.93 544.807 131.948C544.661 131.861 544.528 131.767 544.406 131.671C544.213 131.52 543.932 131.41 543.609 131.329L543.609 131.329Z" fill="#3C6991"/>
<path fill-rule="evenodd" clip-rule="evenodd" d="M524.127 149.642C523.816 149.499 523.468 149.402 523.126 149.395C522.557 149.384 522.082 148.922 521.541 148.857C519.494 148.612 517.717 148.59 517.028 148.97C520.275 149.126 521.997 151.181 522.023 152.703C522.034 153.336 520.499 153.878 520.166 154.562C520.091 154.716 519.257 155.613 518.921 155.674C518.219 155.801 517.396 156.681 516.624 156.976C514.809 157.671 513.357 158.145 511.814 158.736C510.224 159.345 507.99 158.954 506.554 158.925C506.236 158.919 506.044 158.704 505.71 158.697C505.631 158.695 505.554 158.678 505.487 158.651C505.492 158.679 505.501 158.708 505.502 158.734C505.504 158.856 506.07 158.892 506.138 159C506.58 159.697 510.307 160.474 511.532 160.498C512.294 160.514 513.082 160.446 513.844 160.461C514.821 160.481 516.489 159.794 517.514 159.484C521.04 158.42 524.672 155.913 525.829 153.538C526.411 152.345 525.786 151.368 525.257 150.533C525.076 150.248 524.646 149.881 524.127 149.642L524.127 149.642Z" fill="#E6B35A" stroke="white" stroke-opacity="0.01" stroke-width="0.781764"/>
<path fill-rule="evenodd" clip-rule="evenodd" d="M530.503 148.757C530.39 148.723 529.545 149.548 529.141 149.94C529.084 149.928 529.037 149.978 528.995 150.039C528.222 150.072 526.572 150.112 526.593 150.214C526.596 150.217 526.594 150.219 526.595 150.221C526.547 150.21 526.488 150.209 526.439 150.255C526.373 150.315 526.604 150.303 526.686 150.328C526.817 150.367 527.68 151.003 528.005 151.273C527.737 151.615 527.713 151.856 527.34 152.23C527.107 152.463 526.849 152.8 526.868 152.805C526.875 152.807 526.895 152.803 526.908 152.802C526.882 152.846 526.873 152.874 526.911 152.865C527.067 152.826 527.404 152.702 527.764 152.557C527.78 152.551 527.793 152.547 527.808 152.541C528.379 152.35 529.069 152.094 529.675 151.858C530.181 152.07 530.652 152.257 530.782 152.292C530.844 152.309 532.727 153.157 532.56 152.535C532.55 152.497 532.529 152.461 532.51 152.425C532.532 152.421 532.548 152.415 532.559 152.404C532.652 152.317 531.854 151.591 531.811 151.385C531.791 151.285 531.701 151.201 531.681 151.102C531.675 151.076 531.776 151.034 531.929 150.976L531.934 150.971C532.237 150.88 532.554 150.789 532.778 150.729C532.885 150.7 533.709 150.317 533.347 150.26C533.104 150.221 532.343 150.06 531.186 150.009C531.186 150.009 531.175 149.694 531.173 149.694C531.028 149.577 530.966 148.896 530.502 148.757L530.503 148.757Z" fill="#E6B35A" stroke="white" stroke-opacity="0.01" stroke-width="0.781764"/>
<path fill-rule="evenodd" clip-rule="evenodd" d="M525.247 147.194C525.154 147.199 524.952 147.27 524.969 147.211C524.986 147.152 525.34 147.188 525.247 147.194C524.97 147.211 523.657 147.521 523.783 147.764C523.888 147.964 525.031 147.949 525.312 148.146C525.354 148.176 525.277 149.048 525.581 148.869C526.077 148.576 526.449 147.952 526.465 147.943C526.693 147.808 527.209 148.027 527.4 148.015C527.559 148.005 527.869 147.996 527.97 147.936C527.998 147.92 528.059 147.866 528.053 147.887C528.048 147.904 528 147.744 527.851 147.639C527.629 147.482 527.278 147.449 527.119 147.337C527.045 147.285 527.59 146.892 527.608 146.828C527.669 146.617 527.804 146.388 527.794 146.424C527.763 146.529 527.454 146.443 527.294 146.499C527.094 146.569 526.496 146.826 526.324 146.778C526.119 146.72 525.43 146.351 525.257 146.453C525.246 146.459 525.39 146.979 525.247 147.194L525.247 147.194Z" fill="#E6B35A"/>
<path d="M525.247 147.194C525.154 147.199 524.952 147.27 524.969 147.211C524.986 147.152 525.34 147.188 525.247 147.194C524.97 147.211 523.657 147.521 523.783 147.764C523.888 147.964 525.031 147.949 525.312 148.146C525.354 148.176 525.277 149.048 525.581 148.869C526.077 148.576 526.449 147.952 526.465 147.943C526.693 147.808 527.209 148.027 527.4 148.015C527.559 148.005 527.869 147.996 527.97 147.936C527.998 147.92 528.059 147.866 528.053 147.887C528.048 147.904 528 147.744 527.851 147.639C527.629 147.482 527.278 147.449 527.119 147.337C527.045 147.285 527.59 146.892 527.608 146.828C527.669 146.617 527.804 146.388 527.794 146.424C527.763 146.529 527.454 146.443 527.294 146.499C527.094 146.569 526.496 146.826 526.324 146.778C526.119 146.72 525.43 146.351 525.257 146.453C525.246 146.459 525.39 146.979 525.247 147.194L525.247 147.194V147.194Z" stroke="white" stroke-opacity="0.01" stroke-width="0.532482"/>
<path fill-rule="evenodd" clip-rule="evenodd" d="M527.385 155.274C527.367 155.221 527.238 155.142 527.331 155.115C527.424 155.088 527.403 155.327 527.385 155.274C527.331 155.116 526.728 154.512 526.365 154.743C526.067 154.933 526.2 155.621 525.923 155.917C525.884 155.962 524.529 156.467 524.835 156.539C525.334 156.656 526.33 156.488 526.346 156.491C526.576 156.545 526.288 156.998 526.325 157.107C526.355 157.197 526.4 157.38 526.502 157.404C526.529 157.411 526.617 157.414 526.585 157.423C526.558 157.431 526.801 157.301 526.948 157.143C527.168 156.909 527.186 156.674 527.343 156.506C527.415 156.428 528.074 156.511 528.175 156.482C528.504 156.386 528.871 156.322 528.814 156.339C528.65 156.387 528.752 156.144 528.65 156.082C528.524 156.004 528.07 155.803 528.128 155.667C528.198 155.505 528.7 154.852 528.526 154.811C528.516 154.809 527.729 155.225 527.385 155.274L527.385 155.274Z" fill="#E6B35A"/>
<path d="M527.385 155.274C527.367 155.221 527.238 155.142 527.331 155.115C527.424 155.088 527.403 155.327 527.385 155.274C527.331 155.116 526.728 154.512 526.365 154.743C526.067 154.933 526.2 155.621 525.923 155.917C525.884 155.962 524.529 156.467 524.835 156.539C525.334 156.656 526.33 156.488 526.346 156.491C526.576 156.545 526.288 156.998 526.325 157.107C526.355 157.197 526.4 157.38 526.502 157.404C526.529 157.411 526.617 157.414 526.585 157.423C526.558 157.431 526.801 157.301 526.948 157.143C527.168 156.909 527.186 156.674 527.343 156.506C527.415 156.428 528.074 156.511 528.175 156.482C528.504 156.386 528.871 156.322 528.814 156.339C528.65 156.387 528.752 156.144 528.65 156.082C528.524 156.004 528.07 155.803 528.128 155.667C528.198 155.505 528.7 154.852 528.526 154.811C528.516 154.809 527.729 155.225 527.385 155.274L527.385 155.274V155.274Z" stroke="white" stroke-opacity="0.01" stroke-width="0.532482"/>
<path fill-rule="evenodd" clip-rule="evenodd" d="M540.211 165.687C539.64 166.052 537.311 167.09 536.569 167.289C535.615 167.545 534.72 167.838 533.884 168.062C533.291 168.221 531.672 168.601 531.171 168.735C530.082 169.027 529.886 168.756 528.652 169.087C528.041 169.251 527.325 169.065 526.73 169.225C526.191 169.369 523.56 168.838 522.723 168.898C522.52 168.912 522.214 168.657 522.019 168.709C521.257 168.914 517.662 168.099 517.483 168.147C516.56 168.394 515.591 167.565 514.547 167.64C513.621 167.707 512.45 167.172 511.659 166.96C511.22 166.842 510.062 166.524 508.884 166.181C508.63 166.076 508.43 165.993 508.415 165.997C508.404 166 508.357 166.013 508.328 166.021C508.107 165.955 507.897 165.89 507.686 165.825C507.589 165.751 507.468 165.689 507.309 165.701C507.301 165.701 507.293 165.7 507.285 165.7C506.383 165.417 505.667 165.163 505.546 165.042C505.047 164.543 504.282 164.237 503.3 163.973C501.762 163.561 499.689 161.319 498.934 160.564C498.818 160.448 498.7 159.925 498.533 159.745C498.608 159.668 498.674 159.597 498.664 159.559C498.589 159.278 498.925 158.787 499.018 158.44C499.056 158.296 499.587 157.871 499.533 157.925C499.531 157.927 500.324 157.39 500.323 157.39C500.151 157.344 498.39 157.962 497.811 158.117C497.806 158.118 497.802 158.134 497.796 158.148C497.418 158.287 497.002 158.536 496.574 158.964C495.116 160.422 496.137 160.794 496.414 161.825C496.482 162.078 497.147 162.1 497.199 162.298C497.254 162.5 497.419 162.711 497.652 162.921C497.026 162.992 496.136 162.812 495.657 162.94C495.188 163.066 493.365 163.299 492.727 163.345C492.607 163.354 492.147 163.275 492.055 163.299C487.455 164.532 483.202 164.985 478.954 166.123C478.597 166.219 476.546 168.172 476.174 168.545C475.524 169.195 474.534 169.802 474.69 170.387C474.756 170.633 475.702 170.724 475.761 170.942C475.773 170.989 476.044 171.472 476.162 171.44C476.612 171.32 477.201 170.219 477.471 169.948C478.893 168.527 480.539 167.146 482.647 166.581C486.711 165.492 490.84 165.605 494.52 164.619C495.602 164.329 496.99 164.392 498.322 164.115C498.146 164.254 498.042 164.401 498.073 164.556C498.093 164.659 498.591 164.599 498.666 164.68C499.177 165.228 501.026 166.604 502.444 166.135C502.391 166.361 502.307 166.581 502.343 166.715C502.477 167.214 500.325 168.871 499.701 169.174C497.346 170.317 492.803 174.221 491.391 174.599C491.148 174.665 490.476 175.729 490.423 175.926C490.286 176.439 488.806 177.269 488.864 177.486C488.921 177.699 488.369 178.076 488.426 178.29C488.478 178.484 489.544 178.543 489.596 178.737C489.616 178.814 490.124 179.589 490.459 179.499C490.736 179.425 491.49 177.912 491.552 177.681C491.605 177.482 495.109 174.516 495.314 174.461C495.602 174.384 495.754 173.811 496.041 173.734C496.601 173.584 501.887 168.788 502.579 168.096C502.696 167.979 503.834 167.359 503.763 167.095C503.763 167.094 503.922 166.638 503.988 166.17C504.431 166.321 504.785 166.468 504.816 166.584C504.872 166.793 509.231 167.767 509.931 167.955C512.708 168.699 517.236 169.712 519.165 169.898C519.934 169.972 521.602 170.304 522.814 170.217C523.517 170.167 525.46 170.524 525.836 170.549C526.641 170.602 529.201 170.802 530.255 170.52C531.037 170.31 533.726 169.579 534.503 169.523C535.378 169.46 536.533 168.713 537.294 168.428C537.628 168.155 539.425 167.69 539.521 167.333C539.984 166.574 540.558 165.814 540.211 165.687L540.211 165.687Z" fill="#E6B35A" stroke="white" stroke-opacity="0.01" stroke-width="0.662791"/>
</g>
<g clip-path="url(#clip6_1397_8951)" filter="url(#filter8_d_1397_8951)">
<path fill-rule="evenodd" clip-rule="evenodd" d="M660.508 156.855L740.534 178.298L681.951 236.881L601.926 215.438L660.508 156.855Z" fill="#F7DF1E"/>
<path fill-rule="evenodd" clip-rule="evenodd" d="M632.594 211.451L641.431 210.378C641.079 212.229 640.856 213.814 643.434 214.505C645.905 215.167 648.171 214.877 650.924 212.124L669.642 193.406L677.163 195.421L658.366 214.217C652.664 219.919 645.503 221.291 638.842 219.506C632.825 217.894 631.614 214.678 632.594 211.45" fill="black"/>
<path fill-rule="evenodd" clip-rule="evenodd" d="M659.776 217.986L668.495 217.031C668.18 219.39 668.859 221.367 672.565 222.36C675.681 223.195 678.809 222.587 680.382 221.014C682.27 219.127 680.897 217.911 678.56 215.889L677.27 214.795C673.535 211.651 672.059 208.563 676.542 204.08C680.672 199.951 688.115 197.956 694.83 199.755C699.611 201.036 701.83 203.177 701.115 207.024L692.507 208.208C692.909 206.172 692.181 205.129 690.032 204.553C687.83 203.963 685.411 204.611 684.074 205.948C682.422 207.6 683.15 208.643 685.351 210.529L686.641 211.622C691.028 215.341 692.582 218.35 687.981 222.951C683.026 227.906 674.995 229.194 667.851 227.28C660.867 225.409 658.793 221.762 659.776 217.986" fill="black"/>
</g>
<g clip-path="url(#clip7_1397_8951)" filter="url(#filter9_d_1397_8951)">
<path d="M-33.4899 154.44C-45.2873 152.884 -48.9139 151.329 -52.1223 149.156C-55.2645 146.999 -56.9212 144.054 -56.8583 140.738L-56.9846 140.266C-56.926 137.218 -55.8934 133.993 -50.331 126.437L-40.8788 113.796C-34.7831 105.508 -31.3198 102.643 -26.641 99.9572C-22.1334 97.3088 -16.8431 95.3362 -11.3864 94.2693L-10.4124 94.0925C-5.38548 93.251 -0.347216 92.9961 10.3919 94.4146L28.2661 96.8695C40.0635 98.4257 43.6901 99.981 46.8985 102.154C50.0407 104.311 51.6974 107.256 51.6345 110.572L51.6458 111.159C51.5871 114.207 50.5545 117.432 44.9921 124.987L35.655 137.513C29.5593 145.801 26.096 148.667 21.4172 151.352C16.9414 154.034 11.6316 156.014 6.16259 157.04L5.18864 157.217C0.161662 158.059 -4.8766 158.314 -15.6157 156.895L-33.4899 154.44Z" fill="black"/>
<path d="M21.6244 122.067C15.1048 120.32 5.95056 122.773 1.17788 127.546C-3.59479 132.319 -2.17863 137.604 4.34097 139.351C10.8606 141.098 20.0148 138.645 24.7874 133.872C29.5601 129.099 28.144 123.814 21.6244 122.067ZM18.8397 124.852C23.2584 126.036 24.2183 129.618 20.9835 132.853C17.7488 136.088 11.5444 137.75 7.12564 136.566C2.7069 135.382 1.74708 131.8 4.98182 128.565C8.21656 125.331 14.4209 123.668 18.8397 124.852Z" fill="url(#paint0_linear_1397_8951)"/>
<path d="M10.4161 105.253L-9.41857 102.599C-10.583 102.443 -12.0085 102.971 -12.6025 103.778L-22.7201 117.53C-23.3141 118.338 -22.8516 119.118 -21.6872 119.274L-1.85249 121.928C-0.68805 122.084 0.737432 121.556 1.33141 120.749L11.449 106.997C12.043 106.189 11.5806 105.409 10.4161 105.253ZM6.15667 107.894L-1.80997 118.722L-17.4278 116.633L-9.4612 105.804L6.15667 107.894Z" fill="url(#paint1_linear_1397_8951)"/>
<path d="M-15.3935 126.895L-38.5879 140.523C-40.0643 141.39 -39.9231 142.708 -38.3309 142.922L-14.2647 146.161C-12.6677 146.376 -10.78 145.324 -10.8355 144.25L-11.7073 127.384C-11.7649 126.269 -13.8563 125.992 -15.3935 126.895ZM-16.2858 130.87L-15.6706 142.772L-32.6518 140.486L-16.2858 130.87Z" fill="url(#paint2_linear_1397_8951)"/>
</g>
<g clip-path="url(#clip8_1397_8951)" filter="url(#filter10_df_1397_8951)">
<path d="M121.004 173.753C119.65 169.587 121.214 164.777 125.9 160.09C130.587 155.403 137.272 151.965 144.369 150.064C150.579 148.4 154.703 144.276 153.742 140.69C152.781 137.105 147.148 135.596 140.938 137.26C128.331 140.775 116.223 147.038 107.975 155.287C99.7261 163.535 96.837 172.269 98.8269 179.695C99.7875 183.281 105.421 184.79 111.631 183.126C117.585 181.394 121.709 177.269 121.004 173.753Z" fill="#FAE501"/>
<path d="M144.561 150.115C151.845 148.026 159.354 147.661 165.756 149.376C172.158 151.092 175.917 154.476 177.015 158.573C177.976 162.158 183.61 163.668 189.819 162.004C196.029 160.34 200.153 156.216 199.192 152.631C197.015 145.392 190.146 139.273 178.879 136.254C167.611 133.234 153.993 133.864 141.13 137.311C134.921 138.975 130.796 143.099 131.757 146.684C132.905 150.082 138.539 151.591 144.561 150.115Z" fill="#4FB5E1"/>
<path d="M153.271 182.398C145.987 184.487 138.478 184.852 132.076 183.137C125.674 181.422 121.915 178.037 120.817 173.94C119.856 170.355 114.223 168.845 108.013 170.509C101.803 172.173 97.6789 176.297 98.6396 179.882C100.817 187.121 107.686 193.24 118.954 196.26C130.221 199.279 143.839 198.649 156.702 195.202C162.911 193.539 167.036 189.414 166.075 185.829C164.927 182.431 159.293 180.922 153.271 182.398Z" fill="#F05751"/>
<path d="M136.348 150.291C141.298 151.617 148.249 149.755 151.872 146.131C155.496 142.507 154.421 138.495 149.471 137.168C144.521 135.842 137.57 137.704 133.947 141.328C130.323 144.952 131.398 148.964 136.348 150.291Z" fill="#0681B6"/>
<path d="M103.354 183.285C108.304 184.611 115.255 182.749 118.879 179.125C122.502 175.502 121.427 171.489 116.477 170.162C111.527 168.836 104.576 170.698 100.953 174.322C97.329 177.946 98.4043 181.959 103.354 183.285Z" fill="#CD4739"/>
</g>
<g clip-path="url(#clip9_1397_8951)" filter="url(#filter11_df_1397_8951)">
<path d="M260.302 233.161C248.505 231.605 244.878 230.049 241.67 227.877C238.528 225.719 236.871 222.775 236.934 219.458L236.808 218.987C236.866 215.939 237.899 212.714 243.461 205.158L252.914 192.517C259.009 184.229 262.473 181.364 267.151 178.678C271.659 176.029 276.949 174.057 282.406 172.99L283.38 172.813C288.407 171.972 293.445 171.717 304.184 173.135L322.058 175.59C333.856 177.146 337.482 178.702 340.691 180.875C343.833 183.032 345.49 185.977 345.427 189.293L345.438 189.879C345.379 192.928 344.347 196.153 338.784 203.708L329.447 216.234C323.352 224.522 319.888 227.388 315.21 230.073C310.734 232.755 305.424 234.735 299.955 235.761L298.981 235.938C293.954 236.779 288.916 237.034 278.177 235.616L260.302 233.161Z" fill="black"/>
<path d="M315.417 200.788C308.897 199.041 299.743 201.494 294.97 206.267C290.198 211.039 291.614 216.325 298.133 218.071C304.653 219.818 313.807 217.366 318.58 212.593C323.352 207.82 321.936 202.535 315.417 200.788ZM312.632 203.573C317.051 204.757 318.011 208.339 314.776 211.574C311.541 214.808 305.337 216.471 300.918 215.287C296.499 214.103 295.539 210.521 298.774 207.286C302.009 204.051 308.213 202.389 312.632 203.573Z" fill="url(#paint3_linear_1397_8951)"/>
<path d="M304.208 183.973L284.374 181.319C283.209 181.163 281.784 181.692 281.19 182.499L271.072 196.251C270.478 197.058 270.941 197.839 272.105 197.995L291.94 200.649C293.104 200.805 294.53 200.277 295.124 199.469L305.241 185.717C305.835 184.91 305.373 184.129 304.208 183.973ZM299.949 186.615L291.982 197.443L276.365 195.353L284.331 184.525L299.949 186.615Z" fill="url(#paint4_linear_1397_8951)"/>
<path d="M278.399 205.615L255.204 219.243C253.728 220.111 253.869 221.428 255.461 221.643L279.528 224.881C281.125 225.096 283.012 224.045 282.957 222.971L282.085 206.104C282.027 204.99 279.936 204.712 278.399 205.615ZM277.507 209.591L278.122 221.492L261.141 219.207L277.507 209.591Z" fill="url(#paint5_linear_1397_8951)"/>
</g>
<g filter="url(#filter12_d_1397_8951)">
<circle cx="41.4244" cy="41.4244" r="41.4244" transform="matrix(0.965926 0.258819 -0.707107 0.707107 427.378 203.729)" fill="white"/>
</g>
<g filter="url(#filter13_f_1397_8951)">
</g>
</g>
<defs>
<filter id="filter0_df_1397_8951" x="382.099" y="-18.3396" width="163.145" height="103.156" filterUnits="userSpaceOnUse" color-interpolation-filters="sRGB">
<feFlood flood-opacity="0" result="BackgroundImageFix"/>
<feColorMatrix in="SourceAlpha" type="matrix" values="0 0 0 0 0 0 0 0 0 0 0 0 0 0 0 0 0 0 127 0" result="hardAlpha"/>
<feOffset dy="1.32558"/>
<feGaussianBlur stdDeviation="5.30233"/>
<feComposite in2="hardAlpha" operator="out"/>
<feColorMatrix type="matrix" values="0 0 0 0 0 0 0 0 0 0 0 0 0 0 0 0 0 0 0.12 0"/>
<feBlend mode="normal" in2="BackgroundImageFix" result="effect1_dropShadow_1397_8951"/>
<feBlend mode="normal" in="SourceGraphic" in2="effect1_dropShadow_1397_8951" result="shape"/>
<feGaussianBlur stdDeviation="2.65116" result="effect2_foregroundBlur_1397_8951"/>
</filter>
<filter id="filter1_df_1397_8951" x="528.995" y="21.0217" width="163.145" height="103.156" filterUnits="userSpaceOnUse" color-interpolation-filters="sRGB">
<feFlood flood-opacity="0" result="BackgroundImageFix"/>
<feColorMatrix in="SourceAlpha" type="matrix" values="0 0 0 0 0 0 0 0 0 0 0 0 0 0 0 0 0 0 127 0" result="hardAlpha"/>
<feOffset dy="1.32558"/>
<feGaussianBlur stdDeviation="5.30233"/>
<feComposite in2="hardAlpha" operator="out"/>
<feColorMatrix type="matrix" values="0 0 0 0 0 0 0 0 0 0 0 0 0 0 0 0 0 0 0.12 0"/>
<feBlend mode="normal" in2="BackgroundImageFix" result="effect1_dropShadow_1397_8951"/>
<feBlend mode="normal" in="SourceGraphic" in2="effect1_dropShadow_1397_8951" result="shape"/>
<feGaussianBlur stdDeviation="1.98837" result="effect2_foregroundBlur_1397_8951"/>
</filter>
<filter id="filter2_d_1397_8951" x="675.891" y="60.3821" width="163.145" height="103.156" filterUnits="userSpaceOnUse" color-interpolation-filters="sRGB">
<feFlood flood-opacity="0" result="BackgroundImageFix"/>
<feColorMatrix in="SourceAlpha" type="matrix" values="0 0 0 0 0 0 0 0 0 0 0 0 0 0 0 0 0 0 127 0" result="hardAlpha"/>
<feOffset dy="1.32558"/>
<feGaussianBlur stdDeviation="5.30233"/>
<feComposite in2="hardAlpha" operator="out"/>
<feColorMatrix type="matrix" values="0 0 0 0 0 0 0 0 0 0 0 0 0 0 0 0 0 0 0.12 0"/>
<feBlend mode="normal" in2="BackgroundImageFix" result="effect1_dropShadow_1397_8951"/>
<feBlend mode="normal" in="SourceGraphic" in2="effect1_dropShadow_1397_8951" result="shape"/>
</filter>
<filter id="filter3_d_1397_8951" x="-144.824" y="-50.1873" width="163.145" height="103.156" filterUnits="userSpaceOnUse" color-interpolation-filters="sRGB">
<feFlood flood-opacity="0" result="BackgroundImageFix"/>
<feColorMatrix in="SourceAlpha" type="matrix" values="0 0 0 0 0 0 0 0 0 0 0 0 0 0 0 0 0 0 127 0" result="hardAlpha"/>
<feOffset dy="1.32558"/>
<feGaussianBlur stdDeviation="5.30233"/>
<feComposite in2="hardAlpha" operator="out"/>
<feColorMatrix type="matrix" values="0 0 0 0 0 0 0 0 0 0 0 0 0 0 0 0 0 0 0.12 0"/>
<feBlend mode="normal" in2="BackgroundImageFix" result="effect1_dropShadow_1397_8951"/>
<feBlend mode="normal" in="SourceGraphic" in2="effect1_dropShadow_1397_8951" result="shape"/>
</filter>
<filter id="filter4_df_1397_8951" x="2.07247" y="-12.1515" width="163.145" height="104.481" filterUnits="userSpaceOnUse" color-interpolation-filters="sRGB">
<feFlood flood-opacity="0" result="BackgroundImageFix"/>
<feColorMatrix in="SourceAlpha" type="matrix" values="0 0 0 0 0 0 0 0 0 0 0 0 0 0 0 0 0 0 127 0" result="hardAlpha"/>
<feOffset dy="1.32558"/>
<feGaussianBlur stdDeviation="5.30233"/>
<feComposite in2="hardAlpha" operator="out"/>
<feColorMatrix type="matrix" values="0 0 0 0 0 0 0 0 0 0 0 0 0 0 0 0 0 0 0.12 0"/>
<feBlend mode="normal" in2="BackgroundImageFix" result="effect1_dropShadow_1397_8951"/>
<feBlend mode="normal" in="SourceGraphic" in2="effect1_dropShadow_1397_8951" result="shape"/>
<feGaussianBlur stdDeviation="5.30233" result="effect2_foregroundBlur_1397_8951"/>
</filter>
<filter id="filter5_df_1397_8951" x="148.969" y="28.5344" width="163.145" height="103.156" filterUnits="userSpaceOnUse" color-interpolation-filters="sRGB">
<feFlood flood-opacity="0" result="BackgroundImageFix"/>
<feColorMatrix in="SourceAlpha" type="matrix" values="0 0 0 0 0 0 0 0 0 0 0 0 0 0 0 0 0 0 127 0" result="hardAlpha"/>
<feOffset dy="1.32558"/>
<feGaussianBlur stdDeviation="5.30233"/>
<feComposite in2="hardAlpha" operator="out"/>
<feColorMatrix type="matrix" values="0 0 0 0 0 0 0 0 0 0 0 0 0 0 0 0 0 0 0.12 0"/>
<feBlend mode="normal" in2="BackgroundImageFix" result="effect1_dropShadow_1397_8951"/>
<feBlend mode="normal" in="SourceGraphic" in2="effect1_dropShadow_1397_8951" result="shape"/>
<feGaussianBlur stdDeviation="2.65116" result="effect2_foregroundBlur_1397_8951"/>
</filter>
<filter id="filter6_df_1397_8951" x="295.865" y="67.8948" width="163.145" height="103.156" filterUnits="userSpaceOnUse" color-interpolation-filters="sRGB">
<feFlood flood-opacity="0" result="BackgroundImageFix"/>
<feColorMatrix in="SourceAlpha" type="matrix" values="0 0 0 0 0 0 0 0 0 0 0 0 0 0 0 0 0 0 127 0" result="hardAlpha"/>
<feOffset dy="1.32558"/>
<feGaussianBlur stdDeviation="5.30233"/>
<feComposite in2="hardAlpha" operator="out"/>
<feColorMatrix type="matrix" values="0 0 0 0 0 0 0 0 0 0 0 0 0 0 0 0 0 0 0.12 0"/>
<feBlend mode="normal" in2="BackgroundImageFix" result="effect1_dropShadow_1397_8951"/>
<feBlend mode="normal" in="SourceGraphic" in2="effect1_dropShadow_1397_8951" result="shape"/>
<feGaussianBlur stdDeviation="1.32558" result="effect2_foregroundBlur_1397_8951"/>
</filter>
<filter id="filter7_d_1397_8951" x="442.761" y="107.256" width="163.145" height="103.156" filterUnits="userSpaceOnUse" color-interpolation-filters="sRGB">
<feFlood flood-opacity="0" result="BackgroundImageFix"/>
<feColorMatrix in="SourceAlpha" type="matrix" values="0 0 0 0 0 0 0 0 0 0 0 0 0 0 0 0 0 0 127 0" result="hardAlpha"/>
<feOffset dy="1.32558"/>
<feGaussianBlur stdDeviation="5.30233"/>
<feComposite in2="hardAlpha" operator="out"/>
<feColorMatrix type="matrix" values="0 0 0 0 0 0 0 0 0 0 0 0 0 0 0 0 0 0 0.12 0"/>
<feBlend mode="normal" in2="BackgroundImageFix" result="effect1_dropShadow_1397_8951"/>
<feBlend mode="normal" in="SourceGraphic" in2="effect1_dropShadow_1397_8951" result="shape"/>
</filter>
<filter id="filter8_d_1397_8951" x="589.657" y="146.616" width="163.145" height="103.156" filterUnits="userSpaceOnUse" color-interpolation-filters="sRGB">
<feFlood flood-opacity="0" result="BackgroundImageFix"/>
<feColorMatrix in="SourceAlpha" type="matrix" values="0 0 0 0 0 0 0 0 0 0 0 0 0 0 0 0 0 0 127 0" result="hardAlpha"/>
<feOffset dy="1.32558"/>
<feGaussianBlur stdDeviation="5.30233"/>
<feComposite in2="hardAlpha" operator="out"/>
<feColorMatrix type="matrix" values="0 0 0 0 0 0 0 0 0 0 0 0 0 0 0 0 0 0 0.12 0"/>
<feBlend mode="normal" in2="BackgroundImageFix" result="effect1_dropShadow_1397_8951"/>
<feBlend mode="normal" in="SourceGraphic" in2="effect1_dropShadow_1397_8951" result="shape"/>
</filter>
<filter id="filter9_d_1397_8951" x="-84.1618" y="75.4084" width="163.145" height="103.156" filterUnits="userSpaceOnUse" color-interpolation-filters="sRGB">
<feFlood flood-opacity="0" result="BackgroundImageFix"/>
<feColorMatrix in="SourceAlpha" type="matrix" values="0 0 0 0 0 0 0 0 0 0 0 0 0 0 0 0 0 0 127 0" result="hardAlpha"/>
<feOffset dy="1.32558"/>
<feGaussianBlur stdDeviation="5.30233"/>
<feComposite in2="hardAlpha" operator="out"/>
<feColorMatrix type="matrix" values="0 0 0 0 0 0 0 0 0 0 0 0 0 0 0 0 0 0 0.12 0"/>
<feBlend mode="normal" in2="BackgroundImageFix" result="effect1_dropShadow_1397_8951"/>
<feBlend mode="normal" in="SourceGraphic" in2="effect1_dropShadow_1397_8951" result="shape"/>
</filter>
<filter id="filter10_df_1397_8951" x="62.7343" y="114.769" width="163.145" height="103.156" filterUnits="userSpaceOnUse" color-interpolation-filters="sRGB">
<feFlood flood-opacity="0" result="BackgroundImageFix"/>
<feColorMatrix in="SourceAlpha" type="matrix" values="0 0 0 0 0 0 0 0 0 0 0 0 0 0 0 0 0 0 127 0" result="hardAlpha"/>
<feOffset dy="1.32558"/>
<feGaussianBlur stdDeviation="5.30233"/>
<feComposite in2="hardAlpha" operator="out"/>
<feColorMatrix type="matrix" values="0 0 0 0 0 0 0 0 0 0 0 0 0 0 0 0 0 0 0.12 0"/>
<feBlend mode="normal" in2="BackgroundImageFix" result="effect1_dropShadow_1397_8951"/>
<feBlend mode="normal" in="SourceGraphic" in2="effect1_dropShadow_1397_8951" result="shape"/>
<feGaussianBlur stdDeviation="2.65116" result="effect2_foregroundBlur_1397_8951"/>
</filter>
<filter id="filter11_df_1397_8951" x="209.631" y="154.129" width="163.145" height="103.156" filterUnits="userSpaceOnUse" color-interpolation-filters="sRGB">
<feFlood flood-opacity="0" result="BackgroundImageFix"/>
<feColorMatrix in="SourceAlpha" type="matrix" values="0 0 0 0 0 0 0 0 0 0 0 0 0 0 0 0 0 0 127 0" result="hardAlpha"/>
<feOffset dy="1.32558"/>
<feGaussianBlur stdDeviation="5.30233"/>
<feComposite in2="hardAlpha" operator="out"/>
<feColorMatrix type="matrix" values="0 0 0 0 0 0 0 0 0 0 0 0 0 0 0 0 0 0 0.12 0"/>
<feBlend mode="normal" in2="BackgroundImageFix" result="effect1_dropShadow_1397_8951"/>
<feBlend mode="normal" in="SourceGraphic" in2="effect1_dropShadow_1397_8951" result="shape"/>
<feGaussianBlur stdDeviation="1.32558" result="effect2_foregroundBlur_1397_8951"/>
</filter>
<filter id="filter12_d_1397_8951" x="356.527" y="193.49" width="163.145" height="103.156" filterUnits="userSpaceOnUse" color-interpolation-filters="sRGB">
<feFlood flood-opacity="0" result="BackgroundImageFix"/>
<feColorMatrix in="SourceAlpha" type="matrix" values="0 0 0 0 0 0 0 0 0 0 0 0 0 0 0 0 0 0 127 0" result="hardAlpha"/>
<feOffset dy="1.32558"/>
<feGaussianBlur stdDeviation="5.30233"/>
<feComposite in2="hardAlpha" operator="out"/>
<feColorMatrix type="matrix" values="0 0 0 0 0 0 0 0 0 0 0 0 0 0 0 0 0 0 0.12 0"/>
<feBlend mode="normal" in2="BackgroundImageFix" result="effect1_dropShadow_1397_8951"/>
<feBlend mode="normal" in="SourceGraphic" in2="effect1_dropShadow_1397_8951" result="shape"/>
</filter>
<filter id="filter13_f_1397_8951" x="-19.5235" y="203.653" width="155.191" height="95.2021" filterUnits="userSpaceOnUse" color-interpolation-filters="sRGB">
<feFlood flood-opacity="0" result="BackgroundImageFix"/>
<feBlend mode="normal" in="SourceGraphic" in2="BackgroundImageFix" result="shape"/>
<feGaussianBlur stdDeviation="3.31395" result="effect1_foregroundBlur_1397_8951"/>
</filter>
<linearGradient id="paint0_linear_1397_8951" x1="29.0043" y1="122.886" x2="1.94036" y2="150.187" gradientUnits="userSpaceOnUse">
<stop stop-color="#CC9300"/>
<stop offset="0.48" stop-color="#EA433A"/>
<stop offset="1" stop-color="#B327BF"/>
</linearGradient>
<linearGradient id="paint1_linear_1397_8951" x1="18.7619" y1="97.1901" x2="-6.88475" y2="122.26" gradientUnits="userSpaceOnUse">
<stop stop-color="#CC9300"/>
<stop offset="0.26" stop-color="#EA433A"/>
<stop offset="0.48" stop-color="#B327BF"/>
<stop offset="0.76" stop-color="#6666FF"/>
<stop offset="1" stop-color="#00BF9A"/>
</linearGradient>
<linearGradient id="paint2_linear_1397_8951" x1="-39.5043" y1="143.604" x2="-0.0116244" y2="131.667" gradientUnits="userSpaceOnUse">
<stop stop-color="#B327BF"/>
<stop offset="0.48" stop-color="#6666FF"/>
<stop offset="1" stop-color="#00C09A"/>
</linearGradient>
<linearGradient id="paint3_linear_1397_8951" x1="322.797" y1="201.607" x2="295.733" y2="228.908" gradientUnits="userSpaceOnUse">
<stop stop-color="#CC9300"/>
<stop offset="0.48" stop-color="#EA433A"/>
<stop offset="1" stop-color="#B327BF"/>
</linearGradient>
<linearGradient id="paint4_linear_1397_8951" x1="312.554" y1="175.911" x2="286.908" y2="200.981" gradientUnits="userSpaceOnUse">
<stop stop-color="#CC9300"/>
<stop offset="0.26" stop-color="#EA433A"/>
<stop offset="0.48" stop-color="#B327BF"/>
<stop offset="0.76" stop-color="#6666FF"/>
<stop offset="1" stop-color="#00BF9A"/>
</linearGradient>
<linearGradient id="paint5_linear_1397_8951" x1="254.288" y1="222.325" x2="293.781" y2="210.388" gradientUnits="userSpaceOnUse">
<stop stop-color="#B327BF"/>
<stop offset="0.48" stop-color="#6666FF"/>
<stop offset="1" stop-color="#00C09A"/>
</linearGradient>
<clipPath id="clip0_1397_8951">
<rect width="702" height="278" fill="white" transform="translate(-20)"/>
</clipPath>
<clipPath id="clip1_1397_8951">
<rect width="84.8372" height="84.8372" fill="white" transform="matrix(0.965926 0.258819 -0.707107 0.707107 452.692 -9.06055)"/>
</clipPath>
<clipPath id="clip2_1397_8951">
<rect width="84.8372" height="84.8372" fill="white" transform="matrix(0.965926 0.258819 -0.707107 0.707107 599.589 30.3008)"/>
</clipPath>
<clipPath id="clip3_1397_8951">
<rect width="84.8372" height="84.8372" fill="white" transform="matrix(0.965926 0.258819 -0.707107 0.707107 219.562 37.8135)"/>
</clipPath>
<clipPath id="clip4_1397_8951">
<rect width="84.8372" height="84.8372" fill="white" transform="matrix(0.965926 0.258819 -0.707107 0.707107 366.458 77.1738)"/>
</clipPath>
<clipPath id="clip5_1397_8951">
<rect width="84.8372" height="84.8372" fill="white" transform="matrix(0.965926 0.258819 -0.707107 0.707107 513.355 116.535)"/>
</clipPath>
<clipPath id="clip6_1397_8951">
<rect width="84.8372" height="84.8372" fill="white" transform="matrix(0.965926 0.258819 -0.707107 0.707107 660.251 155.896)"/>
</clipPath>
<clipPath id="clip7_1397_8951">
<rect width="84.8372" height="84.8372" fill="white" transform="matrix(0.965926 0.258819 -0.707107 0.707107 -13.5681 84.6875)"/>
</clipPath>
<clipPath id="clip8_1397_8951">
<rect width="84.8372" height="84.8372" fill="white" transform="matrix(0.965926 0.258819 -0.707107 0.707107 133.328 124.048)"/>
</clipPath>
<clipPath id="clip9_1397_8951">
<rect width="84.8372" height="84.8372" fill="white" transform="matrix(0.965926 0.258819 -0.707107 0.707107 280.224 163.408)"/>
</clipPath>
</defs>
</svg>
