<svg width="449" height="193" viewBox="0 0 449 193" fill="none" xmlns="http://www.w3.org/2000/svg">
<rect opacity="0.15" x="56.708" y="51.877" width="336.809" height="76.7111" rx="9.86127" fill="#743FDD" stroke="#674DDF" stroke-width="3.94451"/>
<rect x="42.291" y="15.5742" width="365.644" height="234.971" rx="9.86127" stroke="#674DDF" stroke-width="3.94451"/>
<rect x="42.291" y="15.5742" width="365.644" height="234.971" rx="9.86127" fill="#E2E2FA" stroke="#674DDF" stroke-width="2"/>
<rect x="56.708" y="156.983" width="156.071" height="76.7111" rx="9.86127" stroke="#674DDF" stroke-width="2"/>
<rect opacity="0.15" x="56.708" y="156.983" width="156.071" height="76.7111" rx="9.86127" fill="#743FDD" stroke="#674DDF" stroke-width="2"/>
<circle cx="57.6975" cy="32.4917" r="2.82628" fill="#743FDD" stroke="#674DDF" stroke-width="0.986126"/>
<circle cx="69.1037" cy="32.4917" r="2.82628" fill="#743FDD" stroke="#674DDF" stroke-width="0.986126"/>
<circle cx="80.511" cy="32.4917" r="2.82628" fill="#743FDD" stroke="#674DDF" stroke-width="0.986126"/>
<path d="M58.9678 231.211L210.911 159.454" stroke="#674DDF" stroke-width="0.986126"/>
<path d="M58.7297 159.308L210.533 231.234" stroke="#674DDF" stroke-width="0.986126"/>
<path d="M367.327 32.4917H390.936" stroke="#674DDF" stroke-width="2" stroke-linecap="round"/>
<path d="M326.051 32.4917H349.66" stroke="#674DDF" stroke-width="2" stroke-linecap="round"/>
<path d="M284.774 32.4917H308.383" stroke="#674DDF" stroke-width="2" stroke-linecap="round"/>
<rect x="56.708" y="60.9756" width="336.809" height="76.7111" rx="9.86127" stroke="#674DDF" stroke-width="2"/>
<rect opacity="0.15" x="56.708" y="60.9756" width="336.809" height="76.7111" rx="9.86127" fill="#743FDD" stroke="#674DDF" stroke-width="2"/>
<path d="M58.873 135.173L391.444 63.2129" stroke="#674DDF" stroke-width="0.986126" stroke-linecap="round"/>
<path d="M58.873 63.213L391.444 135.173" stroke="#674DDF" stroke-width="0.986126" stroke-linecap="round"/>
<path d="M230.097 158.569H390.936" stroke="#674DDF" stroke-width="2" stroke-linecap="round"/>
<path d="M230.097 175.318H390.936" stroke="#674DDF" stroke-width="2" stroke-linecap="round"/>
<path d="M230.097 192.066H317.827" stroke="#674DDF" stroke-width="2" stroke-linecap="round"/>
<path d="M336.157 192.066L390.936 192.066" stroke="#674DDF" stroke-width="2" stroke-linecap="round"/>
</svg>
