<svg width="449" height="210" viewBox="0 0 449 210" fill="none" xmlns="http://www.w3.org/2000/svg">
<g clip-path="url(#clip0_2056_14375)">
<rect x="194.91" width="239.36" height="518" rx="12.2749" fill="white"/>
<rect x="209.641" y="66.2844" width="209.287" height="226.186" rx="6.13744" fill="#D6BBFB"/>
<path fill-rule="evenodd" clip-rule="evenodd" d="M320.226 131.577C320.226 131.258 319.966 131 319.645 131H303.387C299.86 131 297 133.841 297 137.346V169.654C297 173.159 299.86 176 303.387 176H326.613C330.14 176 333 173.159 333 169.654V146.916C333 146.598 332.74 146.339 332.419 146.339H321.968C321.006 146.339 320.226 145.564 320.226 144.609V131.577ZM317.323 152.346C317.323 150.434 318.882 148.885 320.806 148.885C322.731 148.885 324.29 150.434 324.29 152.346C324.29 154.258 322.731 155.808 320.806 155.808C318.882 155.808 317.323 154.258 317.323 152.346ZM312.993 156.044C312.675 155.538 312.117 155.231 311.516 155.231C310.916 155.231 310.357 155.538 310.039 156.044L304.233 165.275C303.897 165.809 303.879 166.481 304.186 167.031C304.493 167.582 305.076 167.923 305.71 167.923H324.29C324.95 167.923 325.553 167.553 325.848 166.966C326.143 166.38 326.08 165.678 325.684 165.154L322.2 160.538C321.871 160.103 321.355 159.846 320.806 159.846C320.258 159.846 319.742 160.103 319.413 160.538L317.453 163.135L312.993 156.044Z" fill="#6941C6"/>
<path d="M323.71 132.325C323.71 131.899 324.157 131.629 324.491 131.896C324.771 132.122 325.024 132.385 325.239 132.684L332.237 142.371C332.397 142.592 332.224 142.878 331.951 142.878H324.29C323.97 142.878 323.71 142.62 323.71 142.301V132.325Z" fill="#6941C6"/>
<g filter="url(#filter0_d_2056_14375)">
<rect x="379.646" y="76.1042" width="29.4597" height="29.4597" rx="6.9317" fill="white"/>
<path d="M397.422 84.7417C396.198 84.7417 395.112 85.2248 394.376 86.0552C393.64 85.2248 392.553 84.7417 391.33 84.7417C390.264 84.743 389.242 85.167 388.488 85.9208C387.734 86.6746 387.31 87.6966 387.309 88.7626C387.309 93.1698 393.755 96.6912 394.029 96.8392C394.136 96.8966 394.255 96.9266 394.376 96.9266C394.497 96.9266 394.616 96.8966 394.722 96.8392C394.996 96.6912 401.443 93.1698 401.443 88.7626C401.441 87.6966 401.017 86.6746 400.264 85.9208C399.51 85.167 398.488 84.743 397.422 84.7417ZM397.087 93.4147C396.239 94.1347 395.332 94.7828 394.376 95.3521C393.42 94.7828 392.512 94.1347 391.664 93.4147C390.344 92.2822 388.771 90.555 388.771 88.7626C388.771 88.084 389.04 87.4332 389.52 86.9533C390 86.4734 390.651 86.2039 391.33 86.2039C392.414 86.2039 393.322 86.7765 393.699 87.6989C393.754 87.8334 393.847 87.9484 393.968 88.0294C394.089 88.1104 394.23 88.1537 394.376 88.1537C394.521 88.1537 394.663 88.1104 394.783 88.0294C394.904 87.9484 394.998 87.8334 395.053 87.6989C395.43 86.7765 396.337 86.2039 397.422 86.2039C398.1 86.2039 398.751 86.4734 399.231 86.9533C399.711 87.4332 399.981 88.084 399.981 88.7626C399.981 90.555 398.408 92.2822 397.087 93.4147Z" fill="#1A1A1A"/>
</g>
<path d="M222.76 44.8031C222.76 44.9862 222.687 45.1618 222.558 45.2913C222.428 45.4208 222.253 45.4936 222.07 45.4936H213.612L216.576 48.4574C216.706 48.5871 216.779 48.763 216.779 48.9464C216.779 49.1299 216.706 49.3058 216.576 49.4355C216.446 49.5652 216.27 49.6381 216.087 49.6381C215.903 49.6381 215.728 49.5652 215.598 49.4355L211.455 45.2927C211.391 45.2286 211.34 45.1524 211.305 45.0685C211.27 44.9845 211.252 44.8945 211.252 44.8037C211.252 44.7128 211.27 44.6228 211.305 44.5389C211.34 44.455 211.391 44.3787 211.455 44.3146L215.598 40.1718C215.662 40.1076 215.738 40.0566 215.822 40.0219C215.906 39.9871 215.996 39.9692 216.087 39.9692C216.178 39.9692 216.268 39.9871 216.352 40.0219C216.435 40.0566 216.512 40.1076 216.576 40.1718C216.64 40.236 216.691 40.3123 216.726 40.3962C216.761 40.4801 216.779 40.5701 216.779 40.6609C216.779 40.7517 216.761 40.8417 216.726 40.9256C216.691 41.0095 216.64 41.0857 216.576 41.15L213.612 44.1126H222.07C222.253 44.1126 222.428 44.1854 222.558 44.3149C222.687 44.4444 222.76 44.62 222.76 44.8031Z" fill="#1A1A1A"/>
<path d="M295.089 51.2109H291.332V40.6349H295.089C298.447 40.6349 300.48 42.7855 300.48 45.864C300.48 48.9425 298.373 51.2109 295.089 51.2109ZM293.571 42.5645V49.2813H294.971C297.077 49.2813 298.182 48.0587 298.182 45.864C298.182 43.7576 297.077 42.5645 294.971 42.5645H293.571ZM305.275 51.3435C302.918 51.3435 301.342 49.7085 301.342 47.2486C301.342 44.9066 302.977 43.1979 305.246 43.1979C307.735 43.1979 309.385 45.2159 309.017 47.7789H303.434C303.566 49.0604 304.185 49.7674 305.231 49.7674C306.129 49.7674 306.733 49.3255 306.969 48.5448H309.002C308.56 50.3271 307.19 51.3435 305.275 51.3435ZM305.201 44.7003C304.244 44.7003 303.64 45.319 303.463 46.4827H306.851C306.792 45.3926 306.174 44.7003 305.201 44.7003ZM315.221 49.2224V51.0047C314.72 51.2551 314.249 51.3582 313.645 51.3582C312.024 51.3582 311.008 50.4303 311.008 48.6627V45.098H309.417V43.3452H311.008V41.0179H313.041V43.3452H315.294V45.098H313.041V48.1913C313.041 49.1046 313.453 49.4728 314.19 49.4728C314.573 49.4728 314.926 49.3844 315.221 49.2224ZM321.229 51.2109V50.2388C320.713 50.9753 319.932 51.3582 318.857 51.3582C317.222 51.3582 316.132 50.4008 316.132 48.9278C316.132 47.3959 317.369 46.571 319.667 46.571C320.109 46.571 320.492 46.6005 320.978 46.6594V46.1881C320.978 45.3043 320.477 44.7887 319.623 44.7887C318.739 44.7887 318.209 45.3043 318.135 46.1881H316.294C316.412 44.3763 317.723 43.1979 319.623 43.1979C321.685 43.1979 322.893 44.3321 322.893 46.2617V51.2109H321.229ZM318.062 48.8689C318.062 49.5317 318.533 49.9442 319.299 49.9442C320.345 49.9442 320.978 49.3697 320.978 48.4565V47.8967C320.492 47.8231 320.153 47.7936 319.8 47.7936C318.636 47.7936 318.062 48.1619 318.062 48.8689ZM327.029 41.5187C327.029 42.211 326.469 42.7265 325.659 42.7265C324.864 42.7265 324.304 42.211 324.304 41.5187C324.304 40.7969 324.864 40.2814 325.659 40.2814C326.469 40.2814 327.029 40.7969 327.029 41.5187ZM326.705 51.2109H324.657V43.3452H326.705V51.2109ZM330.589 51.2109H328.527V40.6349H330.589V51.2109ZM339.068 48.6921C339.068 50.3419 337.816 51.3582 335.577 51.3582C333.338 51.3582 332.086 50.283 331.924 48.5301H333.883C333.898 49.3402 334.59 49.8558 335.607 49.8558C336.402 49.8558 337.006 49.6054 337.006 49.0456C337.006 48.5448 336.682 48.3386 335.931 48.1913L334.517 47.9262C333.103 47.6758 332.248 46.8951 332.248 45.6725C332.248 44.2143 333.5 43.1979 335.459 43.1979C337.433 43.1979 338.788 44.2437 338.936 45.9376H336.977C336.903 45.1717 336.329 44.7003 335.459 44.7003C334.708 44.7003 334.207 44.9802 334.207 45.481C334.207 45.9524 334.532 46.1439 335.239 46.2764L336.756 46.5563C338.288 46.8509 339.068 47.5579 339.068 48.6921Z" fill="#1A1A1A"/>
<path d="M417.16 46.9857C416.66 46.1267 416.395 44.8936 416.395 43.4223C416.395 42.1405 415.886 40.9111 414.98 40.0047C414.073 39.0983 412.844 38.5891 411.562 38.5891C410.28 38.5891 409.051 39.0983 408.144 40.0047C407.238 40.9111 406.729 42.1405 406.729 43.4223C406.729 44.8942 406.465 46.1267 405.965 46.9857C405.863 47.1609 405.809 47.3599 405.809 47.5626C405.808 47.7653 405.861 47.9646 405.961 48.1405C406.061 48.3165 406.206 48.4626 406.382 48.5638C406.557 48.6649 406.756 48.7175 406.959 48.7159H409.041C409.098 49.3451 409.388 49.9303 409.855 50.3564C410.321 50.7826 410.93 51.0188 411.562 51.0188C412.194 51.0188 412.803 50.7826 413.269 50.3564C413.736 49.9303 414.026 49.3451 414.083 48.7159H416.165C416.367 48.7171 416.566 48.6645 416.741 48.5634C416.916 48.4622 417.061 48.3163 417.161 48.1405C417.262 47.9648 417.315 47.7656 417.315 47.563C417.315 47.3603 417.261 47.1612 417.16 46.9857ZM411.562 49.6365C411.297 49.6366 411.04 49.545 410.834 49.3772C410.629 49.2094 410.487 48.9758 410.434 48.7159H412.69C412.637 48.9758 412.495 49.2094 412.29 49.3772C412.084 49.545 411.827 49.6366 411.562 49.6365ZM407.342 47.335C407.851 46.2993 408.11 44.9839 408.11 43.4223C408.11 42.5067 408.473 41.6286 409.121 40.9812C409.768 40.3338 410.646 39.97 411.562 39.97C412.478 39.97 413.356 40.3338 414.003 40.9812C414.651 41.6286 415.014 42.5067 415.014 43.4223C415.014 44.9834 415.272 46.2993 415.781 47.335H407.342Z" fill="#1A1A1A"/>
</g>
<rect x="195.41" y="0.5" width="238.36" height="517" rx="11.7749" stroke="#F4EBFF"/>
<g clip-path="url(#clip1_2056_14375)">
<rect x="15" width="239.36" height="518" rx="12.2749" fill="white"/>
<path d="M42.85 44.8031C42.85 44.9862 42.7773 45.1618 42.6478 45.2913C42.5183 45.4208 42.3427 45.4936 42.1596 45.4936H33.7014L36.6658 48.4574C36.7955 48.5871 36.8684 48.763 36.8684 48.9464C36.8684 49.1299 36.7955 49.3058 36.6658 49.4355C36.5361 49.5652 36.3602 49.6381 36.1767 49.6381C35.9933 49.6381 35.8174 49.5652 35.6876 49.4355L31.5449 45.2927C31.4805 45.2286 31.4294 45.1524 31.3946 45.0685C31.3597 44.9845 31.3418 44.8945 31.3418 44.8037C31.3418 44.7128 31.3597 44.6228 31.3946 44.5389C31.4294 44.455 31.4805 44.3787 31.5449 44.3146L35.6876 40.1718C35.7519 40.1076 35.8281 40.0566 35.912 40.0219C35.996 39.9871 36.0859 39.9692 36.1767 39.9692C36.2676 39.9692 36.3575 39.9871 36.4414 40.0219C36.5253 40.0566 36.6016 40.1076 36.6658 40.1718C36.73 40.236 36.781 40.3123 36.8157 40.3962C36.8505 40.4801 36.8684 40.5701 36.8684 40.6609C36.8684 40.7517 36.8505 40.8417 36.8157 40.9256C36.781 41.0095 36.73 41.0857 36.6658 41.15L33.7014 44.1126H42.1596C42.3427 44.1126 42.5183 44.1854 42.6478 44.3149C42.7773 44.4444 42.85 44.62 42.85 44.8031Z" fill="#1A1A1A"/>
<path d="M100.939 47.9262C100.939 49.9442 99.319 51.3582 96.6676 51.3582C94.0015 51.3582 92.3371 49.9294 92.175 47.6905H94.4434C94.5023 48.8542 95.2536 49.6054 96.6234 49.6054C97.7576 49.6054 98.5678 49.1046 98.5678 48.2502C98.5678 47.5874 98.0522 47.1897 97.1537 47.0129L95.4156 46.6741C93.81 46.3648 92.5727 45.4958 92.5727 43.7429C92.5727 41.8575 94.2372 40.5023 96.5203 40.5023C98.8918 40.5023 100.63 41.8869 100.777 44.0964H98.5089C98.4352 42.9917 97.6693 42.2405 96.5498 42.2405C95.4598 42.2405 94.8411 42.8591 94.8411 43.5956C94.8411 44.3174 95.504 44.6267 96.2699 44.774L98.0817 45.1422C99.9377 45.5105 100.939 46.3648 100.939 47.9262ZM107.098 51.2109V50.2388C106.582 50.9753 105.801 51.3582 104.726 51.3582C103.091 51.3582 102.001 50.4008 102.001 48.9278C102.001 47.3959 103.238 46.571 105.536 46.571C105.978 46.571 106.361 46.6005 106.847 46.6594V46.1881C106.847 45.3043 106.346 44.7887 105.492 44.7887C104.608 44.7887 104.078 45.3043 104.004 46.1881H102.163C102.281 44.3763 103.592 43.1979 105.492 43.1979C107.554 43.1979 108.762 44.3321 108.762 46.2617V51.2109H107.098ZM103.931 48.8689C103.931 49.5317 104.402 49.9442 105.168 49.9442C106.214 49.9442 106.847 49.3697 106.847 48.4565V47.8967C106.361 47.8231 106.022 47.7936 105.669 47.7936C104.505 47.7936 103.931 48.1619 103.931 48.8689ZM117.338 43.3452L114.451 51.2109H112.212L109.31 43.3452H111.52L113.391 48.8836L115.276 43.3452H117.338ZM121.381 51.3435C119.024 51.3435 117.448 49.7085 117.448 47.2486C117.448 44.9066 119.083 43.1979 121.351 43.1979C123.841 43.1979 125.49 45.2159 125.122 47.7789H119.539C119.672 49.0604 120.291 49.7674 121.336 49.7674C122.235 49.7674 122.839 49.3255 123.075 48.5448H125.107C124.665 50.3271 123.296 51.3435 121.381 51.3435ZM121.307 44.7003C120.35 44.7003 119.746 45.319 119.569 46.4827H122.957C122.898 45.3926 122.279 44.7003 121.307 44.7003ZM125.834 47.2781C125.834 44.9507 127.204 43.1979 129.325 43.1979C130.268 43.1979 131.063 43.6103 131.652 44.3616V40.6349H133.685V51.2109H131.814V50.0767C131.196 50.9016 130.341 51.3582 129.325 51.3582C127.204 51.3582 125.834 49.5759 125.834 47.2781ZM127.94 47.2781C127.94 48.7511 128.78 49.5317 129.782 49.5317C130.798 49.5317 131.638 48.7363 131.638 47.2486C131.638 45.7609 130.783 45.0097 129.782 45.0097C128.78 45.0097 127.94 45.7756 127.94 47.2781ZM141.007 51.2109H138.768V40.6349H141.007V51.2109ZM147.883 49.2224V51.0047C147.382 51.2551 146.911 51.3582 146.307 51.3582C144.687 51.3582 143.67 50.4303 143.67 48.6627V45.098H142.079V43.3452H143.67V41.0179H145.703V43.3452H147.957V45.098H145.703V48.1913C145.703 49.1046 146.115 49.4728 146.852 49.4728C147.235 49.4728 147.588 49.3844 147.883 49.2224ZM152.451 51.3435C150.095 51.3435 148.519 49.7085 148.519 47.2486C148.519 44.9066 150.154 43.1979 152.422 43.1979C154.911 43.1979 156.561 45.2159 156.193 47.7789H150.61C150.743 49.0604 151.361 49.7674 152.407 49.7674C153.306 49.7674 153.91 49.3255 154.145 48.5448H156.178C155.736 50.3271 154.366 51.3435 152.451 51.3435ZM152.378 44.7003C151.42 44.7003 150.816 45.319 150.64 46.4827H154.028C153.969 45.3926 153.35 44.7003 152.378 44.7003ZM159.612 51.2109H157.564V43.3452H159.45V44.4647C160.024 43.6692 160.761 43.1979 161.806 43.1979C162.882 43.1979 163.707 43.6987 164.104 44.5972C164.723 43.7282 165.518 43.1979 166.697 43.1979C168.288 43.1979 169.363 44.2437 169.363 46.1291V51.2109H167.33V46.7772C167.33 45.6725 166.859 45.0097 165.96 45.0097C165.15 45.0097 164.487 45.6431 164.487 46.8214V51.2109H162.455V46.7772C162.455 45.6725 161.983 45.0097 161.085 45.0097C160.26 45.0097 159.612 45.6431 159.612 46.8214V51.2109ZM177.758 48.6921C177.758 50.3419 176.506 51.3582 174.267 51.3582C172.028 51.3582 170.776 50.283 170.614 48.5301H172.573C172.588 49.3402 173.28 49.8558 174.296 49.8558C175.092 49.8558 175.696 49.6054 175.696 49.0456C175.696 48.5448 175.371 48.3386 174.62 48.1913L173.206 47.9262C171.792 47.6758 170.938 46.8951 170.938 45.6725C170.938 44.2143 172.19 43.1979 174.149 43.1979C176.123 43.1979 177.478 44.2437 177.625 45.9376H175.666C175.592 45.1717 175.018 44.7003 174.149 44.7003C173.398 44.7003 172.897 44.9802 172.897 45.481C172.897 45.9524 173.221 46.1439 173.928 46.2764L175.445 46.5563C176.977 46.8509 177.758 47.5579 177.758 48.6921Z" fill="#1A1A1A"/>
<path d="M237.25 46.9857C236.75 46.1267 236.485 44.8936 236.485 43.4223C236.485 42.1405 235.976 40.9111 235.069 40.0047C234.163 39.0983 232.934 38.5891 231.652 38.5891C230.37 38.5891 229.141 39.0983 228.234 40.0047C227.328 40.9111 226.819 42.1405 226.819 43.4223C226.819 44.8942 226.555 46.1267 226.055 46.9857C225.953 47.1609 225.899 47.3599 225.898 47.5626C225.898 47.7653 225.95 47.9646 226.051 48.1405C226.151 48.3165 226.296 48.4626 226.472 48.5638C226.647 48.6649 226.846 48.7175 227.049 48.7159H229.131C229.188 49.3451 229.478 49.9303 229.944 50.3564C230.411 50.7826 231.02 51.0188 231.652 51.0188C232.284 51.0188 232.893 50.7826 233.359 50.3564C233.826 49.9303 234.116 49.3451 234.173 48.7159H236.255C236.457 48.7171 236.656 48.6645 236.831 48.5634C237.006 48.4622 237.151 48.3163 237.251 48.1405C237.352 47.9648 237.405 47.7656 237.405 47.563C237.405 47.3603 237.351 47.1612 237.25 46.9857ZM231.652 49.6365C231.387 49.6366 231.129 49.545 230.924 49.3772C230.718 49.2094 230.577 48.9758 230.524 48.7159H232.78C232.727 48.9758 232.585 49.2094 232.38 49.3772C232.174 49.545 231.917 49.6366 231.652 49.6365ZM227.432 47.335C227.941 46.2993 228.2 44.9839 228.2 43.4223C228.2 42.5067 228.563 41.6286 229.211 40.9812C229.858 40.3338 230.736 39.97 231.652 39.97C232.567 39.97 233.446 40.3338 234.093 40.9812C234.74 41.6286 235.104 42.5067 235.104 43.4223C235.104 44.9834 235.362 46.2993 235.871 47.335H227.432Z" fill="#1A1A1A"/>
<rect x="29.7305" y="68.7393" width="98.8128" height="72.7512" rx="6.13744" fill="#F4EBFF"/>
<g filter="url(#filter1_d_2056_14375)">
<rect x="100.311" y="76.1042" width="20.8673" height="20.8673" rx="4.90995" fill="white"/>
<g clip-path="url(#clip2_2056_14375)">
<path d="M110.745 90.2203C105.774 87.6426 106.065 84.6966 106.832 83.5458C108.673 81.7046 110.208 83.0855 110.745 84.0061L111.435 83.0855C113.461 81.6125 114.888 83.3924 115.348 84.4665C115.532 86.8601 112.356 89.2997 110.745 90.2203Z" fill="#ED1010"/>
<path d="M112.902 82.2224C112.035 82.2224 111.265 82.5646 110.744 83.1528C110.223 82.5646 109.453 82.2224 108.586 82.2224C107.831 82.2233 107.107 82.5237 106.573 83.0576C106.04 83.5916 105.739 84.3155 105.738 85.0706C105.738 88.1923 110.304 90.6866 110.499 90.7915C110.574 90.8321 110.658 90.8534 110.744 90.8534C110.83 90.8534 110.914 90.8321 110.99 90.7915C111.184 90.6866 115.75 88.1923 115.75 85.0706C115.749 84.3155 115.449 83.5916 114.915 83.0576C114.381 82.5237 113.657 82.2233 112.902 82.2224ZM112.665 88.3658C112.064 88.8758 111.421 89.3348 110.744 89.7381C110.067 89.3348 109.424 88.8758 108.823 88.3658C107.888 87.5636 106.774 86.3402 106.774 85.0706C106.774 84.5899 106.965 84.1289 107.305 83.789C107.645 83.4491 108.106 83.2581 108.586 83.2581C109.355 83.2581 109.998 83.6638 110.265 84.3171C110.304 84.4123 110.37 84.4939 110.455 84.5512C110.541 84.6086 110.641 84.6392 110.744 84.6392C110.847 84.6392 110.948 84.6086 111.033 84.5512C111.118 84.4939 111.185 84.4123 111.224 84.3171C111.491 83.6638 112.134 83.2581 112.902 83.2581C113.383 83.2581 113.844 83.4491 114.183 83.789C114.523 84.1289 114.714 84.5899 114.714 85.0706C114.714 86.3402 113.6 87.5636 112.665 88.3658Z" fill="#ED1010"/>
</g>
</g>
<path fill-rule="evenodd" clip-rule="evenodd" d="M81 95.25C81 95.1119 80.8881 95 80.75 95H73.75C72.2312 95 71 96.2312 71 97.75V111.75C71 113.269 72.2312 114.5 73.75 114.5H83.75C85.2688 114.5 86.5 113.269 86.5 111.75V101.897C86.5 101.759 86.3881 101.647 86.25 101.647H81.75C81.3358 101.647 81 101.311 81 100.897V95.25ZM79.75 104.25C79.75 103.422 80.4216 102.75 81.25 102.75C82.0784 102.75 82.75 103.422 82.75 104.25C82.75 105.078 82.0784 105.75 81.25 105.75C80.4216 105.75 79.75 105.078 79.75 104.25ZM77.886 105.853C77.7489 105.633 77.5086 105.5 77.25 105.5C76.9914 105.5 76.7511 105.633 76.614 105.853L74.114 109.853C73.9695 110.084 73.9618 110.375 74.094 110.614C74.2262 110.852 74.4774 111 74.75 111H82.75C83.0341 111 83.2938 110.839 83.4208 110.585C83.5479 110.331 83.5204 110.027 83.35 109.8L81.85 107.8C81.7084 107.611 81.4861 107.5 81.25 107.5C81.0139 107.5 80.7916 107.611 80.65 107.8L79.8063 108.925L77.886 105.853Z" fill="#6941C6"/>
<path d="M82.5 95.5741C82.5 95.3896 82.6926 95.2725 82.8362 95.3884C82.9571 95.486 83.0658 95.6004 83.1585 95.7295L86.1717 99.9274C86.2403 100.023 86.166 100.147 86.0483 100.147H82.75C82.6119 100.147 82.5 100.035 82.5 99.8971V95.5741Z" fill="#6941C6"/>
<path d="M29.8255 146.4H29.7616V146.099H29.8797C29.9558 146.099 29.9999 146.134 29.9999 146.197C29.9999 146.237 29.9747 146.27 29.9318 146.284L30.0096 146.4H29.9335L29.8654 146.294H29.8255V146.4ZM29.8255 146.152V146.241H29.8767C29.9154 146.241 29.936 146.226 29.936 146.197C29.936 146.167 29.9154 146.152 29.8767 146.152H29.8255ZM30.1324 146.404C30.0651 146.404 30.0201 146.358 30.0201 146.287C30.0201 146.22 30.0668 146.172 30.1315 146.172C30.2026 146.172 30.2496 146.229 30.2391 146.302H30.0798C30.0836 146.339 30.1013 146.359 30.1311 146.359C30.1567 146.359 30.174 146.347 30.1807 146.324H30.2387C30.2261 146.375 30.187 146.404 30.1324 146.404ZM30.1303 146.215C30.1029 146.215 30.0857 146.232 30.0807 146.265H30.1773C30.1756 146.234 30.158 146.215 30.1303 146.215ZM30.3696 146.486C30.309 146.486 30.2687 146.453 30.2662 146.401H30.3225C30.325 146.427 30.3414 146.44 30.3691 146.44C30.4015 146.44 30.4183 146.423 30.4183 146.391V146.358C30.4061 146.379 30.383 146.392 30.3557 146.392C30.3006 146.392 30.2594 146.345 30.2594 146.282C30.2594 146.217 30.2981 146.172 30.3536 146.172C30.3839 146.172 30.4066 146.183 30.4229 146.207V146.176H30.4763V146.39C30.4763 146.45 30.436 146.486 30.3696 146.486ZM30.3179 146.282C30.3179 146.318 30.3368 146.342 30.367 146.342C30.3977 146.342 30.4179 146.318 30.4179 146.282C30.4179 146.246 30.3977 146.222 30.367 146.222C30.3372 146.222 30.3179 146.245 30.3179 146.282ZM30.6657 146.306V146.176H30.7237V146.4H30.6703V146.371C30.6581 146.391 30.6333 146.405 30.6047 146.405C30.5597 146.405 30.527 146.377 30.527 146.319V146.176H30.5854V146.307C30.5854 146.339 30.6009 146.353 30.6245 146.353C30.6455 146.353 30.6657 146.336 30.6657 146.306ZM30.835 146.4H30.7762V146.099H30.835V146.4ZM31.0211 146.4V146.373C31.0064 146.394 30.9841 146.405 30.9534 146.405C30.9067 146.405 30.8756 146.377 30.8756 146.335C30.8756 146.292 30.911 146.268 30.9765 146.268C30.9891 146.268 31.0001 146.269 31.0139 146.271V146.257C31.0139 146.232 30.9996 146.217 30.9753 146.217C30.95 146.217 30.9349 146.232 30.9328 146.257H30.8803C30.8836 146.205 30.921 146.172 30.9753 146.172C31.0341 146.172 31.0686 146.204 31.0686 146.259V146.4H31.0211ZM30.9307 146.334C30.9307 146.352 30.9442 146.364 30.966 146.364C30.9959 146.364 31.0139 146.348 31.0139 146.322V146.306C31.0001 146.304 30.9904 146.303 30.9803 146.303C30.9471 146.303 30.9307 146.313 30.9307 146.334ZM31.1774 146.292V146.4H31.1189V146.176H31.1727V146.219C31.1891 146.191 31.224 146.173 31.2602 146.173V146.234C31.2106 146.23 31.1774 146.242 31.1774 146.292ZM31.4473 146.4H31.3834V146.099H31.5784V146.154H31.4473V146.23H31.5578V146.285H31.4473V146.4ZM31.6849 146.124C31.6849 146.144 31.669 146.158 31.6458 146.158C31.6231 146.158 31.6072 146.144 31.6072 146.124C31.6072 146.103 31.6231 146.089 31.6458 146.089C31.669 146.089 31.6849 146.103 31.6849 146.124ZM31.6757 146.4H31.6173V146.176H31.6757V146.4ZM31.8672 146.344V146.395C31.8529 146.402 31.8395 146.405 31.8222 146.405C31.776 146.405 31.747 146.378 31.747 146.328V146.226H31.7016V146.176H31.747V146.11H31.805V146.176H31.8693V146.226H31.805V146.314C31.805 146.34 31.8168 146.351 31.8378 146.351C31.8487 146.351 31.8588 146.348 31.8672 146.344ZM32.2295 146.307C32.2295 146.364 32.1833 146.405 32.1076 146.405C32.0315 146.405 31.984 146.364 31.9794 146.3H32.0441C32.0458 146.333 32.0672 146.355 32.1063 146.355C32.1387 146.355 32.1618 146.34 32.1618 146.316C32.1618 146.297 32.1471 146.286 32.1215 146.281L32.0719 146.271C32.026 146.262 31.9907 146.237 31.9907 146.187C31.9907 146.133 32.0382 146.095 32.1034 146.095C32.1711 146.095 32.2207 146.134 32.2249 146.197H32.1601C32.158 146.166 32.1362 146.144 32.1042 146.144C32.0731 146.144 32.0555 146.162 32.0555 146.183C32.0555 146.204 32.0744 146.213 32.0962 146.217L32.1479 146.227C32.2009 146.238 32.2295 146.262 32.2295 146.307ZM32.3304 146.4H32.2716V146.099H32.3304V146.4ZM32.482 146.405C32.4168 146.405 32.3681 146.353 32.3681 146.288C32.3681 146.223 32.4168 146.172 32.482 146.172C32.5472 146.172 32.5959 146.223 32.5959 146.288C32.5959 146.353 32.5472 146.405 32.482 146.405ZM32.482 146.353C32.511 146.353 32.5358 146.33 32.5358 146.288C32.5358 146.247 32.511 146.224 32.482 146.224C32.453 146.224 32.4282 146.247 32.4282 146.288C32.4282 146.33 32.453 146.353 32.482 146.353ZM32.7245 146.486C32.664 146.486 32.6236 146.453 32.6211 146.401H32.6774C32.68 146.427 32.6963 146.44 32.7241 146.44C32.7565 146.44 32.7733 146.423 32.7733 146.391V146.358C32.7611 146.379 32.738 146.392 32.7106 146.392C32.6556 146.392 32.6144 146.345 32.6144 146.282C32.6144 146.217 32.6531 146.172 32.7085 146.172C32.7388 146.172 32.7615 146.183 32.7779 146.207V146.176H32.8313V146.39C32.8313 146.45 32.7909 146.486 32.7245 146.486ZM32.6728 146.282C32.6728 146.318 32.6917 146.342 32.722 146.342C32.7527 146.342 32.7728 146.318 32.7728 146.282C32.7728 146.246 32.7527 146.222 32.722 146.222C32.6921 146.222 32.6728 146.245 32.6728 146.282ZM33.0177 146.4V146.373C33.003 146.394 32.9807 146.405 32.95 146.405C32.9033 146.405 32.8722 146.377 32.8722 146.335C32.8722 146.292 32.9075 146.268 32.9731 146.268C32.9857 146.268 32.9967 146.269 33.0105 146.271V146.257C33.0105 146.232 32.9962 146.217 32.9719 146.217C32.9466 146.217 32.9315 146.232 32.9294 146.257H32.8769C32.8802 146.205 32.9176 146.172 32.9719 146.172C33.0307 146.172 33.0652 146.204 33.0652 146.259V146.4H33.0177ZM32.9273 146.334C32.9273 146.352 32.9407 146.364 32.9626 146.364C32.9924 146.364 33.0105 146.348 33.0105 146.322V146.306C32.9967 146.304 32.987 146.303 32.9769 146.303C32.9437 146.303 32.9273 146.313 32.9273 146.334ZM33.1739 146.278V146.4H33.1155V146.176H33.1693V146.208C33.1857 146.186 33.2088 146.172 33.2383 146.172C33.2832 146.172 33.3143 146.201 33.3143 146.255V146.4H33.2563V146.275C33.2563 146.242 33.2433 146.223 33.2168 146.223C33.1937 146.223 33.1739 146.242 33.1739 146.278Z" fill="#1A1A1A"/>
<path d="M29.8348 162.971H29.8127V162.946C29.7708 162.941 29.7459 162.915 29.7437 162.877H29.7759C29.7774 162.903 29.7935 162.92 29.8244 162.92C29.8499 162.92 29.8701 162.907 29.8701 162.885C29.8701 162.867 29.8581 162.859 29.8354 162.854L29.8071 162.847C29.7784 162.841 29.751 162.828 29.751 162.79C29.751 162.757 29.7762 162.732 29.8127 162.727V162.701H29.8348V162.727C29.8717 162.732 29.8991 162.757 29.9017 162.795H29.8695C29.8679 162.771 29.8503 162.753 29.8247 162.753C29.7989 162.753 29.7834 162.768 29.7834 162.788C29.7834 162.808 29.8001 162.815 29.8187 162.819L29.8471 162.825C29.8815 162.832 29.9042 162.848 29.9042 162.881C29.9042 162.916 29.879 162.943 29.8348 162.946V162.971ZM30.0645 162.943H30.0324V162.758H29.9911V162.73H30.0645V162.943ZM30.1547 162.93C30.1547 162.96 30.131 162.983 30.0964 162.983V162.965C30.1169 162.965 30.1307 162.954 30.1326 162.938C30.1298 162.939 30.1279 162.94 30.1257 162.94C30.1137 162.94 30.1049 162.93 30.1049 162.918C30.1049 162.905 30.115 162.896 30.1279 162.896C30.1452 162.896 30.1547 162.908 30.1547 162.93ZM30.2378 162.943H30.2057V162.758H30.1644V162.73H30.2378V162.943ZM30.351 162.727C30.3964 162.727 30.4289 162.759 30.4289 162.797C30.4289 162.824 30.4198 162.84 30.4008 162.864L30.3368 162.943H30.3003L30.363 162.865C30.3567 162.867 30.3504 162.868 30.3444 162.868C30.3031 162.868 30.2729 162.84 30.2729 162.799C30.2729 162.759 30.3056 162.727 30.351 162.727ZM30.3507 162.754C30.3255 162.754 30.306 162.772 30.306 162.798C30.306 162.826 30.3255 162.843 30.3507 162.843C30.3756 162.843 30.3958 162.828 30.3958 162.798C30.3958 162.772 30.3756 162.754 30.3507 162.754ZM30.4543 162.837C30.4543 162.766 30.4824 162.727 30.5328 162.727C30.5832 162.727 30.6116 162.766 30.6116 162.837C30.6116 162.907 30.5839 162.946 30.5328 162.946C30.4817 162.946 30.4543 162.907 30.4543 162.837ZM30.4871 162.837C30.4871 162.89 30.5029 162.918 30.5328 162.918C30.5628 162.918 30.5788 162.89 30.5788 162.837C30.5788 162.784 30.5628 162.756 30.5328 162.756C30.5035 162.756 30.4871 162.784 30.4871 162.837Z" fill="#808080"/>
<rect x="29.7305" y="189.033" width="98.8128" height="65.4526" rx="6.13744" fill="#F4EBFF"/>
<g filter="url(#filter2_d_2056_14375)">
<rect x="100.311" y="196.398" width="20.8673" height="20.8673" rx="4.90995" fill="white"/>
<g clip-path="url(#clip3_2056_14375)">
<path d="M110.745 210.514C105.774 207.937 106.065 204.991 106.832 203.84C108.673 201.999 110.208 203.379 110.745 204.3L111.435 203.379C113.461 201.906 114.888 203.686 115.348 204.76C115.532 207.154 112.356 209.594 110.745 210.514Z" fill="#ED1010"/>
<path d="M112.902 202.516C112.035 202.516 111.265 202.859 110.744 203.447C110.223 202.859 109.453 202.516 108.586 202.516C107.831 202.517 107.107 202.818 106.573 203.352C106.04 203.886 105.739 204.609 105.738 205.365C105.738 208.486 110.304 210.981 110.499 211.085C110.574 211.126 110.658 211.147 110.744 211.147C110.83 211.147 110.914 211.126 110.99 211.085C111.184 210.981 115.75 208.486 115.75 205.365C115.749 204.609 115.449 203.886 114.915 203.352C114.381 202.818 113.657 202.517 112.902 202.516ZM112.665 208.66C112.064 209.17 111.421 209.629 110.744 210.032C110.067 209.629 109.424 209.17 108.823 208.66C107.888 207.858 106.774 206.634 106.774 205.365C106.774 204.884 106.965 204.423 107.305 204.083C107.645 203.743 108.106 203.552 108.586 203.552C109.355 203.552 109.998 203.958 110.265 204.611C110.304 204.706 110.37 204.788 110.455 204.845C110.541 204.903 110.641 204.933 110.744 204.933C110.847 204.933 110.948 204.903 111.033 204.845C111.118 204.788 111.185 204.706 111.224 204.611C111.491 203.958 112.134 203.552 112.902 203.552C113.383 203.552 113.844 203.743 114.183 204.083C114.523 204.423 114.714 204.884 114.714 205.365C114.714 206.634 113.6 207.858 112.665 208.66Z" fill="#ED1010"/>
</g>
</g>
<rect x="140.203" y="68.7393" width="99" height="73" rx="6.13744" fill="#F4EBFF"/>
<path fill-rule="evenodd" clip-rule="evenodd" d="M192 95.25C192 95.1119 191.888 95 191.75 95H184.75C183.231 95 182 96.2312 182 97.75V111.75C182 113.269 183.231 114.5 184.75 114.5H194.75C196.269 114.5 197.5 113.269 197.5 111.75V101.897C197.5 101.759 197.388 101.647 197.25 101.647H192.75C192.336 101.647 192 101.311 192 100.897V95.25ZM190.75 104.25C190.75 103.422 191.422 102.75 192.25 102.75C193.078 102.75 193.75 103.422 193.75 104.25C193.75 105.078 193.078 105.75 192.25 105.75C191.422 105.75 190.75 105.078 190.75 104.25ZM188.886 105.853C188.749 105.633 188.509 105.5 188.25 105.5C187.991 105.5 187.751 105.633 187.614 105.853L185.114 109.853C184.97 110.084 184.962 110.375 185.094 110.614C185.226 110.852 185.477 111 185.75 111H193.75C194.034 111 194.294 110.839 194.421 110.585C194.548 110.331 194.52 110.027 194.35 109.8L192.85 107.8C192.708 107.611 192.486 107.5 192.25 107.5C192.014 107.5 191.792 107.611 191.65 107.8L190.806 108.925L188.886 105.853Z" fill="#6941C6"/>
<path d="M193.5 95.5741C193.5 95.3896 193.693 95.2725 193.836 95.3884C193.957 95.486 194.066 95.6004 194.159 95.7295L197.172 99.9274C197.24 100.023 197.166 100.147 197.048 100.147H193.75C193.612 100.147 193.5 100.035 193.5 99.8971V95.5741Z" fill="#6941C6"/>
<g filter="url(#filter3_d_2056_14375)">
<rect x="210.783" y="76.1042" width="20.8673" height="20.8673" rx="4.90995" fill="white"/>
<g clip-path="url(#clip4_2056_14375)">
<path d="M221.218 90.2203C216.246 87.6426 216.538 84.6966 217.305 83.5458C219.146 81.7046 220.68 83.0855 221.218 84.0061L221.908 83.0855C223.933 81.6125 225.36 83.3924 225.821 84.4665C226.005 86.8601 222.829 89.2997 221.218 90.2203Z" fill="#ED1010"/>
<path d="M223.374 82.2224C222.508 82.2224 221.738 82.5646 221.217 83.1528C220.695 82.5646 219.926 82.2224 219.059 82.2224C218.304 82.2233 217.58 82.5237 217.046 83.0576C216.512 83.5916 216.212 84.3155 216.211 85.0706C216.211 88.1923 220.777 90.6866 220.971 90.7915C221.047 90.8321 221.131 90.8534 221.217 90.8534C221.302 90.8534 221.387 90.8321 221.462 90.7915C221.657 90.6866 226.223 88.1923 226.223 85.0706C226.222 84.3155 225.921 83.5916 225.387 83.0576C224.853 82.5237 224.13 82.2233 223.374 82.2224ZM223.138 88.3658C222.537 88.8758 221.894 89.3348 221.217 89.7381C220.54 89.3348 219.897 88.8758 219.296 88.3658C218.361 87.5636 217.247 86.3402 217.247 85.0706C217.247 84.5899 217.438 84.1289 217.777 83.789C218.117 83.4491 218.578 83.2581 219.059 83.2581C219.827 83.2581 220.47 83.6638 220.737 84.3171C220.776 84.4123 220.843 84.4939 220.928 84.5512C221.013 84.6086 221.114 84.6392 221.217 84.6392C221.32 84.6392 221.42 84.6086 221.506 84.5512C221.591 84.4939 221.657 84.4123 221.696 84.3171C221.963 83.6638 222.606 83.2581 223.374 83.2581C223.855 83.2581 224.316 83.4491 224.656 83.789C224.996 84.1289 225.187 84.5899 225.187 85.0706C225.187 86.3402 224.073 87.5636 223.138 88.3658Z" fill="#ED1010"/>
</g>
</g>
<rect x="140.203" y="189.033" width="98.8128" height="65.4526" rx="6.13744" fill="#F4EBFF"/>
<g filter="url(#filter4_d_2056_14375)">
<rect x="210.783" y="196.398" width="20.8673" height="20.8673" rx="4.90995" fill="white"/>
<g clip-path="url(#clip5_2056_14375)">
<path d="M221.218 210.514C216.246 207.937 216.538 204.991 217.305 203.84C219.146 201.999 220.68 203.379 221.218 204.3L221.908 203.379C223.933 201.906 225.36 203.686 225.821 204.76C226.005 207.154 222.829 209.594 221.218 210.514Z" fill="#ED1010"/>
<path d="M223.374 202.516C222.508 202.516 221.738 202.859 221.217 203.447C220.695 202.859 219.926 202.516 219.059 202.516C218.304 202.517 217.58 202.818 217.046 203.352C216.512 203.886 216.212 204.609 216.211 205.365C216.211 208.486 220.777 210.981 220.971 211.085C221.047 211.126 221.131 211.147 221.217 211.147C221.302 211.147 221.387 211.126 221.462 211.085C221.657 210.981 226.223 208.486 226.223 205.365C226.222 204.609 225.921 203.886 225.387 203.352C224.853 202.818 224.13 202.517 223.374 202.516ZM223.138 208.66C222.537 209.17 221.894 209.629 221.217 210.032C220.54 209.629 219.897 209.17 219.296 208.66C218.361 207.858 217.247 206.634 217.247 205.365C217.247 204.884 217.438 204.423 217.777 204.083C218.117 203.743 218.578 203.552 219.059 203.552C219.827 203.552 220.47 203.958 220.737 204.611C220.776 204.706 220.843 204.788 220.928 204.845C221.013 204.903 221.114 204.933 221.217 204.933C221.32 204.933 221.42 204.903 221.506 204.845C221.591 204.788 221.657 204.706 221.696 204.611C221.963 203.958 222.606 203.552 223.374 203.552C223.855 203.552 224.316 203.743 224.656 204.083C224.996 204.423 225.187 204.884 225.187 205.365C225.187 206.634 224.073 207.858 223.138 208.66Z" fill="#ED1010"/>
</g>
</g>
</g>
<rect x="15.5" y="0.5" width="238.36" height="517" rx="11.7749" stroke="#F4EBFF"/>
<defs>
<filter id="filter0_d_2056_14375" x="370.982" y="74.3713" width="46.7882" height="46.789" filterUnits="userSpaceOnUse" color-interpolation-filters="sRGB">
<feFlood flood-opacity="0" result="BackgroundImageFix"/>
<feColorMatrix in="SourceAlpha" type="matrix" values="0 0 0 0 0 0 0 0 0 0 0 0 0 0 0 0 0 0 127 0" result="hardAlpha"/>
<feOffset dy="6.9317"/>
<feGaussianBlur stdDeviation="4.33231"/>
<feComposite in2="hardAlpha" operator="out"/>
<feColorMatrix type="matrix" values="0 0 0 0 0.320833 0 0 0 0 0.320833 0 0 0 0 0.320833 0 0 0 0.25 0"/>
<feBlend mode="normal" in2="BackgroundImageFix" result="effect1_dropShadow_2056_14375"/>
<feBlend mode="normal" in="SourceGraphic" in2="effect1_dropShadow_2056_14375" result="shape"/>
</filter>
<filter id="filter1_d_2056_14375" x="94.1731" y="74.8768" width="33.1421" height="33.1421" filterUnits="userSpaceOnUse" color-interpolation-filters="sRGB">
<feFlood flood-opacity="0" result="BackgroundImageFix"/>
<feColorMatrix in="SourceAlpha" type="matrix" values="0 0 0 0 0 0 0 0 0 0 0 0 0 0 0 0 0 0 127 0" result="hardAlpha"/>
<feOffset dy="4.90995"/>
<feGaussianBlur stdDeviation="3.06872"/>
<feComposite in2="hardAlpha" operator="out"/>
<feColorMatrix type="matrix" values="0 0 0 0 0.320833 0 0 0 0 0.320833 0 0 0 0 0.320833 0 0 0 0.25 0"/>
<feBlend mode="normal" in2="BackgroundImageFix" result="effect1_dropShadow_2056_14375"/>
<feBlend mode="normal" in="SourceGraphic" in2="effect1_dropShadow_2056_14375" result="shape"/>
</filter>
<filter id="filter2_d_2056_14375" x="94.1731" y="195.171" width="33.1421" height="33.1421" filterUnits="userSpaceOnUse" color-interpolation-filters="sRGB">
<feFlood flood-opacity="0" result="BackgroundImageFix"/>
<feColorMatrix in="SourceAlpha" type="matrix" values="0 0 0 0 0 0 0 0 0 0 0 0 0 0 0 0 0 0 127 0" result="hardAlpha"/>
<feOffset dy="4.90995"/>
<feGaussianBlur stdDeviation="3.06872"/>
<feComposite in2="hardAlpha" operator="out"/>
<feColorMatrix type="matrix" values="0 0 0 0 0.320833 0 0 0 0 0.320833 0 0 0 0 0.320833 0 0 0 0.25 0"/>
<feBlend mode="normal" in2="BackgroundImageFix" result="effect1_dropShadow_2056_14375"/>
<feBlend mode="normal" in="SourceGraphic" in2="effect1_dropShadow_2056_14375" result="shape"/>
</filter>
<filter id="filter3_d_2056_14375" x="204.646" y="74.8768" width="33.1421" height="33.1421" filterUnits="userSpaceOnUse" color-interpolation-filters="sRGB">
<feFlood flood-opacity="0" result="BackgroundImageFix"/>
<feColorMatrix in="SourceAlpha" type="matrix" values="0 0 0 0 0 0 0 0 0 0 0 0 0 0 0 0 0 0 127 0" result="hardAlpha"/>
<feOffset dy="4.90995"/>
<feGaussianBlur stdDeviation="3.06872"/>
<feComposite in2="hardAlpha" operator="out"/>
<feColorMatrix type="matrix" values="0 0 0 0 0.320833 0 0 0 0 0.320833 0 0 0 0 0.320833 0 0 0 0.25 0"/>
<feBlend mode="normal" in2="BackgroundImageFix" result="effect1_dropShadow_2056_14375"/>
<feBlend mode="normal" in="SourceGraphic" in2="effect1_dropShadow_2056_14375" result="shape"/>
</filter>
<filter id="filter4_d_2056_14375" x="204.646" y="195.171" width="33.1421" height="33.1421" filterUnits="userSpaceOnUse" color-interpolation-filters="sRGB">
<feFlood flood-opacity="0" result="BackgroundImageFix"/>
<feColorMatrix in="SourceAlpha" type="matrix" values="0 0 0 0 0 0 0 0 0 0 0 0 0 0 0 0 0 0 127 0" result="hardAlpha"/>
<feOffset dy="4.90995"/>
<feGaussianBlur stdDeviation="3.06872"/>
<feComposite in2="hardAlpha" operator="out"/>
<feColorMatrix type="matrix" values="0 0 0 0 0.320833 0 0 0 0 0.320833 0 0 0 0 0.320833 0 0 0 0.25 0"/>
<feBlend mode="normal" in2="BackgroundImageFix" result="effect1_dropShadow_2056_14375"/>
<feBlend mode="normal" in="SourceGraphic" in2="effect1_dropShadow_2056_14375" result="shape"/>
</filter>
<clipPath id="clip0_2056_14375">
<rect x="194.91" width="239.36" height="518" rx="12.2749" fill="white"/>
</clipPath>
<clipPath id="clip1_2056_14375">
<rect x="15" width="239.36" height="518" rx="12.2749" fill="white"/>
</clipPath>
<clipPath id="clip2_2056_14375">
<rect width="11.0474" height="11.0474" fill="white" transform="translate(105.221 81.0142)"/>
</clipPath>
<clipPath id="clip3_2056_14375">
<rect width="11.0474" height="11.0474" fill="white" transform="translate(105.221 201.308)"/>
</clipPath>
<clipPath id="clip4_2056_14375">
<rect width="11.0474" height="11.0474" fill="white" transform="translate(215.693 81.0142)"/>
</clipPath>
<clipPath id="clip5_2056_14375">
<rect width="11.0474" height="11.0474" fill="white" transform="translate(215.693 201.308)"/>
</clipPath>
</defs>
</svg>
