<svg width="449" height="194" viewBox="0 0 449 194" fill="none" xmlns="http://www.w3.org/2000/svg">
<path d="M47.233 8.65168H48.446V16.6659H48.5455L54.1136 8.65168H55.3068V18.8335H54.0739V10.8392H53.9744L48.4261 18.8335H47.233V8.65168ZM61.274 14.538V15.6318H57.237V14.538H61.274ZM58.2314 11.1971V18.8335H57.0581V11.1971H58.2314ZM63.6206 18.9926C62.9312 18.9926 62.3263 18.8285 61.8059 18.5004C61.2889 18.1723 60.8845 17.7132 60.5929 17.1233C60.3045 16.5333 60.1603 15.8439 60.1603 15.0551C60.1603 14.2596 60.3045 13.5653 60.5929 12.972C60.8845 12.3787 61.2889 11.918 61.8059 11.5899C62.3263 11.2618 62.9312 11.0977 63.6206 11.0977C64.31 11.0977 64.9132 11.2618 65.4302 11.5899C65.9506 11.918 66.3549 12.3787 66.6433 12.972C66.935 13.5653 67.0808 14.2596 67.0808 15.0551C67.0808 15.8439 66.935 16.5333 66.6433 17.1233C66.3549 17.7132 65.9506 18.1723 65.4302 18.5004C64.9132 18.8285 64.31 18.9926 63.6206 18.9926ZM63.6206 17.9386C64.1442 17.9386 64.5751 17.8044 64.9132 17.5359C65.2512 17.2674 65.5015 16.9145 65.6639 16.477C65.8263 16.0395 65.9075 15.5655 65.9075 15.0551C65.9075 14.5447 65.8263 14.0691 65.6639 13.6282C65.5015 13.1874 65.2512 12.8311 64.9132 12.5593C64.5751 12.2876 64.1442 12.1517 63.6206 12.1517C63.0969 12.1517 62.666 12.2876 62.3279 12.5593C61.9899 12.8311 61.7396 13.1874 61.5772 13.6282C61.4148 14.0691 61.3336 14.5447 61.3336 15.0551C61.3336 15.5655 61.4148 16.0395 61.5772 16.477C61.7396 16.9145 61.9899 17.2674 62.3279 17.5359C62.666 17.8044 63.0969 17.9386 63.6206 17.9386ZM74.1007 14.4784V15.5721H69.8848V14.4784H74.1007ZM70.1632 11.1971V18.8335H68.9899V11.1971H70.1632ZM74.9956 11.1971V18.8335H73.8223V11.1971H74.9956ZM78.1525 13.9613H80.34C81.2349 13.9613 81.9193 14.1884 82.3933 14.6424C82.8672 15.0965 83.1042 15.6716 83.1042 16.3676C83.1042 16.825 82.9982 17.2409 82.786 17.6155C82.5739 17.9867 82.2624 18.2833 81.8514 18.5054C81.4404 18.7241 80.9366 18.8335 80.34 18.8335H77.1383V11.1971H78.3116V17.7397H80.34C80.804 17.7397 81.1852 17.6171 81.4835 17.3718C81.7818 17.1266 81.9309 16.8117 81.9309 16.4272C81.9309 16.0229 81.7818 15.6931 81.4835 15.4379C81.1852 15.1827 80.804 15.0551 80.34 15.0551H78.1525V13.9613Z" fill="#743FDD"/>
<path d="M56.233 36.3182H57.7045L61.1648 44.7699H61.2841L64.7443 36.3182H66.2159V46.5H65.0625V38.7642H64.9631L61.7812 46.5H60.6676L57.4858 38.7642H57.3864V46.5H56.233V36.3182ZM70.7761 46.679C70.2922 46.679 69.853 46.5878 69.4586 46.4055C69.0642 46.2199 68.751 45.9531 68.519 45.6051C68.287 45.2538 68.171 44.8295 68.171 44.3324C68.171 43.8949 68.2572 43.5402 68.4295 43.2685C68.6019 42.9934 68.8322 42.7779 69.1206 42.6222C69.4089 42.4664 69.7271 42.3504 70.0751 42.2741C70.4264 42.1946 70.7794 42.1316 71.1341 42.0852C71.5981 42.0256 71.9743 41.9808 72.2626 41.951C72.5543 41.9179 72.7664 41.8632 72.899 41.7869C73.0349 41.7107 73.1028 41.5781 73.1028 41.3892V41.3494C73.1028 40.8589 72.9686 40.4777 72.7001 40.206C72.435 39.9342 72.0323 39.7983 71.492 39.7983C70.9319 39.7983 70.4927 39.9209 70.1745 40.1662C69.8564 40.4115 69.6326 40.6733 69.5034 40.9517L68.3897 40.554C68.5886 40.09 68.8538 39.7287 69.1852 39.4702C69.5199 39.2083 69.8845 39.026 70.2789 38.9233C70.6767 38.8172 71.0678 38.7642 71.4522 38.7642C71.6975 38.7642 71.9792 38.794 72.2974 38.8537C72.6189 38.91 72.9288 39.0277 73.2271 39.2067C73.5287 39.3857 73.7789 39.6558 73.9778 40.017C74.1767 40.3783 74.2761 40.8622 74.2761 41.4688V46.5H73.1028V45.4659H73.0431C72.9636 45.6316 72.831 45.8089 72.6454 45.9979C72.4598 46.1868 72.2129 46.3475 71.9047 46.4801C71.5964 46.6127 71.2202 46.679 70.7761 46.679ZM70.9551 45.625C71.4191 45.625 71.8102 45.5339 72.1284 45.3516C72.4499 45.1693 72.6918 44.9339 72.8542 44.6456C73.0199 44.3572 73.1028 44.054 73.1028 43.7358V42.6619C73.0531 42.7216 72.9437 42.7763 72.7747 42.826C72.609 42.8724 72.4167 42.9138 72.198 42.9503C71.9825 42.9834 71.7721 43.0133 71.5666 43.0398C71.3644 43.063 71.2003 43.0829 71.0744 43.0994C70.7695 43.1392 70.4844 43.2038 70.2193 43.2933C69.9574 43.3795 69.7453 43.5104 69.5829 43.6861C69.4238 43.8584 69.3443 44.0937 69.3443 44.392C69.3443 44.7997 69.4951 45.108 69.7967 45.3168C70.1016 45.5223 70.4877 45.625 70.9551 45.625ZM77.5909 44.7699L81.2699 38.8636H82.6222V46.5H81.4489V40.5938L77.7898 46.5H76.4176V38.8636H77.5909V44.7699ZM80.4943 36.3182H81.5881C81.5881 36.8551 81.4025 37.2943 81.0312 37.6357C80.66 37.977 80.1563 38.1477 79.5199 38.1477C78.8935 38.1477 78.3946 37.977 78.0234 37.6357C77.6555 37.2943 77.4716 36.8551 77.4716 36.3182H78.5653C78.5653 36.5767 78.6366 36.8037 78.7791 36.9993C78.925 37.1948 79.1719 37.2926 79.5199 37.2926C79.8679 37.2926 80.1165 37.1948 80.2656 36.9993C80.4181 36.8037 80.4943 36.5767 80.4943 36.3182Z" fill="#743FDD"/>
<path d="M34.6506 74.167H33.358L37.0966 63.9852H38.3693L42.108 74.167H40.8153L37.7727 65.596H37.6932L34.6506 74.167ZM35.1278 70.1897H40.3381V71.2835H35.1278V70.1897ZM43.5348 74.167V66.5306H49.5405V74.167H48.3672V67.6244H44.7081V74.167H43.5348ZM51.6832 77.0306V66.5306H52.8168V67.7437H52.956C53.0421 67.6111 53.1615 67.4421 53.3139 67.2366C53.4697 67.0278 53.6918 66.8422 53.9801 66.6798C54.2718 66.5141 54.6662 66.4312 55.1634 66.4312C55.8063 66.4312 56.3731 66.5919 56.8636 66.9134C57.3542 67.2349 57.737 67.6907 58.0121 68.2806C58.2872 68.8706 58.4247 69.5666 58.4247 70.3687C58.4247 71.1774 58.2872 71.8784 58.0121 72.4717C57.737 73.0616 57.3558 73.519 56.8686 73.8438C56.3814 74.1653 55.8196 74.3261 55.1832 74.3261C54.6927 74.3261 54.3 74.2449 54.005 74.0825C53.71 73.9168 53.483 73.7295 53.3239 73.5207C53.1648 73.3086 53.0421 73.1329 52.956 72.9937H52.8565V77.0306H51.6832ZM52.8366 70.3488C52.8366 70.9255 52.9212 71.4343 53.0902 71.8751C53.2592 72.3126 53.5062 72.6556 53.831 72.9042C54.1558 73.1495 54.5535 73.2721 55.0241 73.2721C55.5147 73.2721 55.924 73.1428 56.2521 72.8843C56.5836 72.6225 56.8321 72.2712 56.9979 71.8303C57.1669 71.3862 57.2514 70.8924 57.2514 70.3488C57.2514 69.8119 57.1686 69.328 57.0028 68.8971C56.8404 68.4629 56.5935 68.1199 56.2621 67.868C55.9339 67.6128 55.5213 67.4852 55.0241 67.4852C54.5469 67.4852 54.1458 67.6061 53.821 67.8481C53.4962 68.0867 53.2509 68.4215 53.0852 68.8524C52.9195 69.2799 52.8366 69.7787 52.8366 70.3488ZM63.4162 74.3261C62.6804 74.3261 62.0457 74.1637 61.5121 73.8389C60.9818 73.5107 60.5724 73.0534 60.2841 72.4667C59.9991 71.8767 59.8565 71.1907 59.8565 70.4085C59.8565 69.6263 59.9991 68.9369 60.2841 68.3403C60.5724 67.7404 60.9735 67.2731 61.4872 66.9383C62.0043 66.6002 62.6075 66.4312 63.2969 66.4312C63.6946 66.4312 64.0874 66.4975 64.4751 66.6301C64.8629 66.7626 65.2159 66.9781 65.5341 67.2764C65.8523 67.5713 66.1058 67.9624 66.2947 68.4497C66.4837 68.9369 66.5781 69.5368 66.5781 70.2494V70.7465H60.6918V69.7323H65.3849C65.3849 69.3015 65.2988 68.917 65.1264 68.5789C64.9574 68.2409 64.7154 67.974 64.4006 67.7785C64.089 67.5829 63.7211 67.4852 63.2969 67.4852C62.8295 67.4852 62.4252 67.6012 62.0838 67.8332C61.7457 68.0619 61.4856 68.3602 61.3033 68.7281C61.121 69.096 61.0298 69.4904 61.0298 69.9113V70.5874C61.0298 71.1642 61.1293 71.653 61.3281 72.0541C61.5303 72.4518 61.8104 72.7551 62.1683 72.9639C62.5263 73.1694 62.9422 73.2721 63.4162 73.2721C63.7244 73.2721 64.0028 73.229 64.2514 73.1428C64.5033 73.0534 64.7204 72.9208 64.9027 72.7451C65.085 72.5661 65.2259 72.3441 65.3253 72.0789L66.4588 72.3971C66.3395 72.7816 66.139 73.1196 65.8572 73.4113C65.5755 73.6997 65.2275 73.925 64.8132 74.0874C64.3989 74.2465 63.9332 74.3261 63.4162 74.3261ZM67.6868 74.167V73.0732H67.9652C68.1939 73.0732 68.3845 73.0285 68.5369 72.939C68.6894 72.8462 68.812 72.6855 68.9048 72.4568C69.0009 72.2248 69.0739 71.9033 69.1236 71.4923C69.1766 71.078 69.2147 70.551 69.2379 69.9113L69.3771 66.5306H74.468V74.167H73.2947V67.6244H70.4908L70.3714 70.3488C70.3449 70.9752 70.2886 71.5271 70.2024 72.0044C70.1196 72.4783 69.992 72.876 69.8196 73.1975C69.6506 73.519 69.4252 73.761 69.1435 73.9234C68.8617 74.0858 68.5088 74.167 68.0845 74.167H67.6868ZM77.6349 69.2948H79.8224C80.7173 69.2948 81.4018 69.5219 81.8757 69.9759C82.3497 70.43 82.5866 71.0051 82.5866 71.7011C82.5866 72.1585 82.4806 72.5744 82.2685 72.949C82.0563 73.3202 81.7448 73.6168 81.3338 73.8389C80.9228 74.0576 80.419 74.167 79.8224 74.167H76.6207V66.5306H77.794V73.0732H79.8224C80.2865 73.0732 80.6676 72.9506 80.9659 72.7053C81.2642 72.4601 81.4134 72.1452 81.4134 71.7607C81.4134 71.3564 81.2642 71.0266 80.9659 70.7714C80.6676 70.5162 80.2865 70.3886 79.8224 70.3886H77.6349V69.2948Z" fill="#743FDD"/>
<path d="M49.233 91.6517H50.7045L54.1648 100.103H54.2841L57.7443 91.6517H59.2159V101.833H58.0625V94.0977H57.9631L54.7812 101.833H53.6676L50.4858 94.0977H50.3864V101.833H49.233V91.6517ZM63.7761 102.012C63.2922 102.012 62.853 101.921 62.4586 101.739C62.0642 101.553 61.751 101.287 61.519 100.939C61.287 100.587 61.171 100.163 61.171 99.6659C61.171 99.2284 61.2572 98.8737 61.4295 98.602C61.6019 98.3269 61.8322 98.1114 62.1206 97.9557C62.4089 97.7999 62.7271 97.6839 63.0751 97.6076C63.4264 97.5281 63.7794 97.4651 64.1341 97.4187C64.5981 97.3591 64.9743 97.3143 65.2626 97.2845C65.5543 97.2513 65.7664 97.1967 65.899 97.1204C66.0349 97.0442 66.1028 96.9116 66.1028 96.7227V96.6829C66.1028 96.1924 65.9686 95.8112 65.7001 95.5395C65.435 95.2677 65.0323 95.1318 64.492 95.1318C63.9319 95.1318 63.4927 95.2544 63.1745 95.4997C62.8564 95.745 62.6326 96.0068 62.5034 96.2852L61.3897 95.8875C61.5886 95.4235 61.8538 95.0622 62.1852 94.8037C62.5199 94.5418 62.8845 94.3595 63.2789 94.2568C63.6767 94.1507 64.0678 94.0977 64.4522 94.0977C64.6975 94.0977 64.9792 94.1275 65.2974 94.1872C65.6189 94.2435 65.9288 94.3612 66.2271 94.5402C66.5287 94.7191 66.7789 94.9893 66.9778 95.3505C67.1767 95.7118 67.2761 96.1957 67.2761 96.8022V101.833H66.1028V100.799H66.0431C65.9636 100.965 65.831 101.142 65.6454 101.331C65.4598 101.52 65.2129 101.681 64.9047 101.814C64.5964 101.946 64.2202 102.012 63.7761 102.012ZM63.9551 100.958C64.4191 100.958 64.8102 100.867 65.1284 100.685C65.4499 100.503 65.6918 100.267 65.8542 99.9791C66.0199 99.6907 66.1028 99.3875 66.1028 99.0693V97.9954C66.0531 98.0551 65.9437 98.1098 65.7747 98.1595C65.609 98.2059 65.4167 98.2473 65.198 98.2838C64.9825 98.3169 64.7721 98.3468 64.5666 98.3733C64.3644 98.3965 64.2003 98.4164 64.0744 98.4329C63.7695 98.4727 63.4844 98.5373 63.2193 98.6268C62.9574 98.713 62.7453 98.8439 62.5829 99.0196C62.4238 99.1919 62.3443 99.4272 62.3443 99.7255C62.3443 100.133 62.4951 100.441 62.7967 100.65C63.1016 100.856 63.4877 100.958 63.9551 100.958ZM69.4176 104.697V94.1971H70.5511V95.4102H70.6903C70.7765 95.2776 70.8958 95.1086 71.0483 94.9031C71.2041 94.6943 71.4261 94.5087 71.7145 94.3463C72.0062 94.1806 72.4006 94.0977 72.8977 94.0977C73.5407 94.0977 74.1075 94.2584 74.598 94.5799C75.0885 94.9014 75.4714 95.3572 75.7464 95.9471C76.0215 96.5371 76.1591 97.2331 76.1591 98.0352C76.1591 98.8439 76.0215 99.5449 75.7464 100.138C75.4714 100.728 75.0902 101.186 74.603 101.51C74.1158 101.832 73.554 101.993 72.9176 101.993C72.4271 101.993 72.0343 101.911 71.7393 101.749C71.4444 101.583 71.2173 101.396 71.0582 101.187C70.8991 100.975 70.7765 100.799 70.6903 100.66H70.5909V104.697H69.4176ZM70.571 98.0153C70.571 98.592 70.6555 99.1008 70.8246 99.5416C70.9936 99.9791 71.2405 100.322 71.5653 100.571C71.8902 100.816 72.2879 100.939 72.7585 100.939C73.2491 100.939 73.6584 100.809 73.9865 100.551C74.3179 100.289 74.5665 99.9377 74.7322 99.4968C74.9013 99.0527 74.9858 98.5589 74.9858 98.0153C74.9858 97.4784 74.9029 96.9945 74.7372 96.5636C74.5748 96.1294 74.3279 95.7864 73.9964 95.5345C73.6683 95.2793 73.2557 95.1517 72.7585 95.1517C72.2813 95.1517 71.8802 95.2727 71.5554 95.5146C71.2306 95.7532 70.9853 96.088 70.8196 96.5189C70.6539 96.9464 70.571 97.4452 70.571 98.0153ZM76.9508 95.2909V94.1971H83.1554V95.2909H80.6497V101.833H79.4764V95.2909H76.9508Z" fill="#743FDD"/>
<path d="M28.733 120.531H30.3438C31.0994 120.531 31.7706 120.7 32.3572 121.038C32.9439 121.376 33.4046 121.847 33.7393 122.45C34.0741 123.054 34.2415 123.753 34.2415 124.548C34.2415 125.344 34.0741 126.045 33.7393 126.651C33.4046 127.258 32.9439 127.732 32.3572 128.073C31.7706 128.415 31.0994 128.585 30.3438 128.585H28.733C27.9773 128.585 27.3061 128.416 26.7195 128.078C26.1328 127.74 25.6721 127.269 25.3374 126.666C25.0026 126.063 24.8352 125.364 24.8352 124.568C24.8352 123.773 25.0026 123.072 25.3374 122.465C25.6721 121.859 26.1328 121.385 26.7195 121.043C27.3061 120.702 27.9773 120.531 28.733 120.531ZM28.733 121.625C28.1562 121.625 27.669 121.746 27.2713 121.988C26.8769 122.23 26.5769 122.571 26.3714 123.012C26.1693 123.453 26.0682 123.972 26.0682 124.568C26.0682 125.158 26.1693 125.672 26.3714 126.109C26.5769 126.547 26.8769 126.887 27.2713 127.129C27.669 127.371 28.1562 127.491 28.733 127.491H30.3438C30.9205 127.491 31.406 127.371 31.8004 127.129C32.1982 126.887 32.4981 126.545 32.7003 126.104C32.9058 125.664 33.0085 125.145 33.0085 124.548C33.0085 123.958 32.9058 123.445 32.7003 123.007C32.4981 122.57 32.1982 122.23 31.8004 121.988C31.406 121.746 30.9205 121.625 30.3438 121.625H28.733ZM30.1648 119.139V129.918H28.9318V119.139H30.1648ZM39.3498 129.659C38.614 129.659 37.9793 129.497 37.4457 129.172C36.9154 128.844 36.506 128.386 36.2177 127.8C35.9326 127.21 35.7901 126.524 35.7901 125.741C35.7901 124.959 35.9326 124.27 36.2177 123.673C36.506 123.073 36.9071 122.606 37.4208 122.271C37.9379 121.933 38.5411 121.764 39.2305 121.764C39.6282 121.764 40.021 121.83 40.4087 121.963C40.7965 122.096 41.1495 122.311 41.4677 122.609C41.7859 122.904 42.0394 123.295 42.2283 123.783C42.4173 124.27 42.5117 124.87 42.5117 125.582V126.08H36.6254V125.065H41.3185C41.3185 124.634 41.2324 124.25 41.06 123.912C40.891 123.574 40.649 123.307 40.3342 123.112C40.0226 122.916 39.6547 122.818 39.2305 122.818C38.7631 122.818 38.3588 122.934 38.0174 123.166C37.6793 123.395 37.4192 123.693 37.2369 124.061C37.0546 124.429 36.9634 124.823 36.9634 125.244V125.92C36.9634 126.497 37.0629 126.986 37.2617 127.387C37.4639 127.785 37.744 128.088 38.1019 128.297C38.4599 128.502 38.8758 128.605 39.3498 128.605C39.658 128.605 39.9364 128.562 40.185 128.476C40.4369 128.386 40.654 128.254 40.8363 128.078C41.0186 127.899 41.1594 127.677 41.2589 127.412L42.3924 127.73C42.2731 128.115 42.0726 128.453 41.7908 128.744C41.5091 129.033 41.1611 129.258 40.7468 129.42C40.3325 129.58 39.8668 129.659 39.3498 129.659ZM44.2965 129.5V121.864H47.4187C48.2406 121.864 48.8936 122.049 49.3775 122.42C49.8614 122.792 50.1033 123.282 50.1033 123.892C50.1033 124.356 49.9658 124.716 49.6907 124.971C49.4156 125.223 49.0626 125.393 48.6317 125.483C48.9135 125.523 49.1869 125.622 49.4521 125.781C49.7205 125.94 49.9426 126.159 50.1183 126.438C50.2939 126.713 50.3817 127.051 50.3817 127.452C50.3817 127.843 50.2823 128.192 50.0835 128.501C49.8846 128.809 49.5996 129.053 49.2283 129.232C48.8571 129.411 48.413 129.5 47.896 129.5H44.2965ZM45.4102 128.426H47.896C48.3003 128.426 48.6168 128.33 48.8455 128.138C49.0742 127.946 49.1886 127.684 49.1886 127.352C49.1886 126.958 49.0742 126.648 48.8455 126.423C48.6168 126.194 48.3003 126.08 47.896 126.08H45.4102V128.426ZM45.4102 125.065H47.4187C47.7335 125.065 48.0037 125.022 48.229 124.936C48.4544 124.847 48.6268 124.721 48.7461 124.558C48.8687 124.393 48.93 124.197 48.93 123.972C48.93 123.65 48.7958 123.398 48.5273 123.216C48.2589 123.03 47.8893 122.938 47.4187 122.938H45.4102V125.065ZM52.1578 132.364V121.864H53.2914V123.077H53.4306C53.5167 122.944 53.6361 122.775 53.7885 122.57C53.9443 122.361 54.1664 122.175 54.4547 122.013C54.7464 121.847 55.1408 121.764 55.638 121.764C56.281 121.764 56.8477 121.925 57.3382 122.246C57.8288 122.568 58.2116 123.024 58.4867 123.614C58.7618 124.204 58.8993 124.9 58.8993 125.702C58.8993 126.51 58.7618 127.211 58.4867 127.805C58.2116 128.395 57.8304 128.852 57.3432 129.177C56.856 129.498 56.2942 129.659 55.6578 129.659C55.1673 129.659 54.7746 129.578 54.4796 129.415C54.1846 129.25 53.9576 129.062 53.7985 128.854C53.6394 128.642 53.5167 128.466 53.4306 128.327H53.3311V132.364H52.1578ZM53.3113 125.682C53.3113 126.259 53.3958 126.767 53.5648 127.208C53.7338 127.646 53.9808 127.989 54.3056 128.237C54.6304 128.482 55.0281 128.605 55.4988 128.605C55.9893 128.605 56.3986 128.476 56.7267 128.217C57.0582 127.955 57.3068 127.604 57.4725 127.163C57.6415 126.719 57.726 126.225 57.726 125.682C57.726 125.145 57.6432 124.661 57.4775 124.23C57.315 123.796 57.0681 123.453 56.7367 123.201C56.4086 122.946 55.9959 122.818 55.4988 122.818C55.0215 122.818 54.6204 122.939 54.2956 123.181C53.9708 123.42 53.7256 123.754 53.5598 124.185C53.3941 124.613 53.3113 125.112 53.3113 125.682ZM62.9363 129.679C62.4524 129.679 62.0132 129.588 61.6188 129.406C61.2244 129.22 60.9112 128.953 60.6792 128.605C60.4471 128.254 60.3311 127.83 60.3311 127.332C60.3311 126.895 60.4173 126.54 60.5897 126.268C60.762 125.993 60.9924 125.778 61.2807 125.622C61.5691 125.466 61.8873 125.35 62.2353 125.274C62.5866 125.195 62.9396 125.132 63.2942 125.085C63.7582 125.026 64.1344 124.981 64.4228 124.951C64.7144 124.918 64.9266 124.863 65.0591 124.787C65.195 124.711 65.263 124.578 65.263 124.389V124.349C65.263 123.859 65.1287 123.478 64.8603 123.206C64.5951 122.934 64.1924 122.798 63.6522 122.798C63.092 122.798 62.6529 122.921 62.3347 123.166C62.0165 123.411 61.7928 123.673 61.6635 123.952L60.5499 123.554C60.7488 123.09 61.0139 122.729 61.3453 122.47C61.6801 122.208 62.0447 122.026 62.4391 121.923C62.8368 121.817 63.2279 121.764 63.6124 121.764C63.8577 121.764 64.1394 121.794 64.4576 121.854C64.7791 121.91 65.089 122.028 65.3873 122.207C65.6889 122.386 65.9391 122.656 66.138 123.017C66.3368 123.378 66.4363 123.862 66.4363 124.469V129.5H65.263V128.466H65.2033C65.1238 128.632 64.9912 128.809 64.8056 128.998C64.62 129.187 64.373 129.348 64.0648 129.48C63.7566 129.613 63.3804 129.679 62.9363 129.679ZM63.1152 128.625C63.5792 128.625 63.9703 128.534 64.2885 128.352C64.61 128.169 64.852 127.934 65.0144 127.646C65.1801 127.357 65.263 127.054 65.263 126.736V125.662C65.2132 125.722 65.1039 125.776 64.9348 125.826C64.7691 125.872 64.5769 125.914 64.3581 125.95C64.1427 125.983 63.9322 126.013 63.7267 126.04C63.5246 126.063 63.3605 126.083 63.2346 126.099C62.9296 126.139 62.6446 126.204 62.3794 126.293C62.1176 126.379 61.9055 126.51 61.7431 126.686C61.584 126.858 61.5044 127.094 61.5044 127.392C61.5044 127.8 61.6552 128.108 61.9569 128.317C62.2618 128.522 62.6479 128.625 63.1152 128.625ZM67.9016 129.5V128.406H68.18C68.4087 128.406 68.5993 128.362 68.7518 128.272C68.9042 128.179 69.0269 128.018 69.1197 127.79C69.2158 127.558 69.2887 127.236 69.3384 126.825C69.3915 126.411 69.4296 125.884 69.4528 125.244L69.592 121.864H74.6829V129.5H73.5096V122.957H70.7056L70.5863 125.682C70.5598 126.308 70.5034 126.86 70.4173 127.337C70.3344 127.811 70.2068 128.209 70.0344 128.531C69.8654 128.852 69.64 129.094 69.3583 129.256C69.0766 129.419 68.7236 129.5 68.2994 129.5H67.9016ZM77.8498 124.628H80.0373C80.9322 124.628 81.6166 124.855 82.0906 125.309C82.5645 125.763 82.8015 126.338 82.8015 127.034C82.8015 127.491 82.6954 127.907 82.4833 128.282C82.2712 128.653 81.9596 128.95 81.5487 129.172C81.1377 129.391 80.6339 129.5 80.0373 129.5H76.8356V121.864H78.0089V128.406H80.0373C80.5013 128.406 80.8825 128.284 81.1808 128.038C81.479 127.793 81.6282 127.478 81.6282 127.094C81.6282 126.689 81.479 126.36 81.1808 126.104C80.8825 125.849 80.5013 125.722 80.0373 125.722H77.8498V124.628Z" fill="#743FDD"/>
<path d="M42.1534 157.167H40.9205V148.079H38.7528C38.2027 148.079 37.7602 148.163 37.4254 148.332C37.0907 148.498 36.8471 148.734 36.6946 149.038C36.5421 149.343 36.4659 149.7 36.4659 150.107C36.4659 150.515 36.5405 150.866 36.6896 151.161C36.8421 151.453 37.084 151.678 37.4155 151.837C37.7502 151.997 38.1894 152.076 38.733 152.076H41.4773V153.19H38.6932C37.9044 153.19 37.2564 153.059 36.7493 152.797C36.2422 152.532 35.866 152.167 35.6207 151.703C35.3755 151.239 35.2528 150.707 35.2528 150.107C35.2528 149.507 35.3755 148.972 35.6207 148.502C35.866 148.031 36.2438 147.661 36.7543 147.393C37.2647 147.121 37.9176 146.985 38.7131 146.985H42.1534V157.167ZM37.3608 152.593H38.7528L36.2869 157.167H34.8551L37.3608 152.593ZM49.5772 152.812V153.906H45.3613V152.812H49.5772ZM45.6397 149.531V157.167H44.4664V149.531H45.6397ZM50.4721 149.531V157.167H49.2988V149.531H50.4721ZM52.6149 157.167V149.531H55.737C56.559 149.531 57.2119 149.716 57.6958 150.087C58.1797 150.459 58.4217 150.949 58.4217 151.559C58.4217 152.023 58.2842 152.383 58.0091 152.638C57.734 152.89 57.381 153.06 56.9501 153.15C57.2318 153.19 57.5053 153.289 57.7704 153.448C58.0389 153.607 58.2609 153.826 58.4366 154.104C58.6123 154.38 58.7001 154.718 58.7001 155.119C58.7001 155.51 58.6007 155.859 58.4018 156.168C58.2029 156.476 57.9179 156.72 57.5467 156.899C57.1755 157.078 56.7314 157.167 56.2143 157.167H52.6149ZM53.7285 156.093H56.2143C56.6187 156.093 56.9352 155.997 57.1639 155.805C57.3926 155.613 57.5069 155.351 57.5069 155.019C57.5069 154.625 57.3926 154.315 57.1639 154.09C56.9352 153.861 56.6187 153.747 56.2143 153.747H53.7285V156.093ZM53.7285 152.732H55.737C56.0519 152.732 56.322 152.689 56.5474 152.603C56.7728 152.514 56.9451 152.388 57.0645 152.225C57.1871 152.06 57.2484 151.864 57.2484 151.639C57.2484 151.317 57.1142 151.065 56.8457 150.883C56.5772 150.697 56.2077 150.604 55.737 150.604H53.7285V152.732ZM62.7234 157.346C62.2395 157.346 61.8003 157.255 61.4059 157.073C61.0115 156.887 60.6983 156.62 60.4663 156.272C60.2343 155.921 60.1183 155.497 60.1183 154.999C60.1183 154.562 60.2044 154.207 60.3768 153.935C60.5491 153.66 60.7795 153.445 61.0678 153.289C61.3562 153.133 61.6744 153.017 62.0224 152.941C62.3737 152.862 62.7267 152.799 63.0813 152.752C63.5453 152.693 63.9215 152.648 64.2099 152.618C64.5015 152.585 64.7137 152.53 64.8462 152.454C64.9821 152.378 65.0501 152.245 65.0501 152.056V152.016C65.0501 151.526 64.9158 151.145 64.6474 150.873C64.3822 150.601 63.9795 150.465 63.4393 150.465C62.8791 150.465 62.44 150.588 62.1218 150.833C61.8036 151.078 61.5799 151.34 61.4506 151.619L60.337 151.221C60.5359 150.757 60.801 150.396 61.1325 150.137C61.4672 149.875 61.8318 149.693 62.2262 149.59C62.6239 149.484 63.015 149.431 63.3995 149.431C63.6448 149.431 63.9265 149.461 64.2447 149.521C64.5662 149.577 64.8761 149.695 65.1744 149.874C65.476 150.053 65.7262 150.323 65.9251 150.684C66.1239 151.045 66.2234 151.529 66.2234 152.136V157.167H65.0501V156.133H64.9904C64.9109 156.299 64.7783 156.476 64.5927 156.665C64.4071 156.854 64.1602 157.015 63.8519 157.147C63.5437 157.28 63.1675 157.346 62.7234 157.346ZM62.9023 156.292C63.3664 156.292 63.7575 156.201 64.0756 156.019C64.3971 155.836 64.6391 155.601 64.8015 155.313C64.9672 155.024 65.0501 154.721 65.0501 154.403V153.329C65.0004 153.389 64.891 153.443 64.7219 153.493C64.5562 153.539 64.364 153.581 64.1452 153.617C63.9298 153.65 63.7193 153.68 63.5138 153.707C63.3117 153.73 63.1476 153.75 63.0217 153.766C62.7167 153.806 62.4317 153.871 62.1665 153.96C61.9047 154.046 61.6926 154.177 61.5302 154.353C61.3711 154.525 61.2915 154.761 61.2915 155.059C61.2915 155.467 61.4424 155.775 61.744 155.984C62.0489 156.189 62.435 156.292 62.9023 156.292ZM68.3649 160.031V149.531H69.4984V150.744H69.6376C69.7238 150.611 69.8431 150.442 69.9956 150.237C70.1513 150.028 70.3734 149.842 70.6618 149.68C70.9534 149.514 71.3478 149.431 71.845 149.431C72.488 149.431 73.0547 149.592 73.5453 149.913C74.0358 150.235 74.4186 150.691 74.6937 151.281C74.9688 151.871 75.1064 152.567 75.1064 153.369C75.1064 154.177 74.9688 154.878 74.6937 155.472C74.4186 156.062 74.0375 156.519 73.5502 156.844C73.063 157.165 72.5012 157.326 71.8649 157.326C71.3743 157.326 70.9816 157.245 70.6866 157.082C70.3916 156.917 70.1646 156.729 70.0055 156.521C69.8464 156.309 69.7238 156.133 69.6376 155.994H69.5382V160.031H68.3649ZM69.5183 153.349C69.5183 153.926 69.6028 154.434 69.7718 154.875C69.9409 155.313 70.1878 155.656 70.5126 155.904C70.8374 156.149 71.2351 156.272 71.7058 156.272C72.1963 156.272 72.6056 156.143 72.9338 155.884C73.2652 155.622 73.5138 155.271 73.6795 154.83C73.8485 154.386 73.9331 153.892 73.9331 153.349C73.9331 152.812 73.8502 152.328 73.6845 151.897C73.5221 151.463 73.2752 151.12 72.9437 150.868C72.6156 150.613 72.2029 150.485 71.7058 150.485C71.2285 150.485 70.8275 150.606 70.5027 150.848C70.1779 151.087 69.9326 151.421 69.7669 151.852C69.6011 152.28 69.5183 152.779 69.5183 153.349ZM77.9103 152.295H80.0978C80.9927 152.295 81.6771 152.522 82.1511 152.976C82.6251 153.43 82.862 154.005 82.862 154.701C82.862 155.158 82.756 155.574 82.5439 155.949C82.3317 156.32 82.0202 156.617 81.6092 156.839C81.1982 157.058 80.6944 157.167 80.0978 157.167H76.8961V149.531H78.0694V156.073H80.0978C80.5618 156.073 80.943 155.951 81.2413 155.705C81.5396 155.46 81.6887 155.145 81.6887 154.761C81.6887 154.356 81.5396 154.027 81.2413 153.771C80.943 153.516 80.5618 153.389 80.0978 153.389H77.9103V152.295Z" fill="#743FDD"/>
<mask id="path-13-inside-1_1397_9237" fill="white">
<path d="M100 0H146V194H100V0Z"/>
</mask>
<path d="M100 194H100.5V0H100H99.5V194H100Z" fill="black" fill-opacity="0.4" mask="url(#path-13-inside-1_1397_9237)"/>
<mask id="path-15-inside-2_1397_9237" fill="white">
<path d="M146 0H192V194H146V0Z"/>
</mask>
<path d="M146 194H146.5V0H146H145.5V194H146Z" fill="black" fill-opacity="0.1" mask="url(#path-15-inside-2_1397_9237)"/>
<mask id="path-17-inside-3_1397_9237" fill="white">
<path d="M192 0H238V194H192V0Z"/>
</mask>
<path d="M192 194H192.5V0H192H191.5V194H192Z" fill="black" fill-opacity="0.1" mask="url(#path-17-inside-3_1397_9237)"/>
<mask id="path-19-inside-4_1397_9237" fill="white">
<path d="M238 0H284V194H238V0Z"/>
</mask>
<path d="M238 194H238.5V0H238H237.5V194H238Z" fill="black" fill-opacity="0.1" mask="url(#path-19-inside-4_1397_9237)"/>
<mask id="path-21-inside-5_1397_9237" fill="white">
<path d="M284 0H330V194H284V0Z"/>
</mask>
<path d="M284 194H284.5V0H284H283.5V194H284Z" fill="black" fill-opacity="0.1" mask="url(#path-21-inside-5_1397_9237)"/>
<mask id="path-23-inside-6_1397_9237" fill="white">
<path d="M330 0H376V194H330V0Z"/>
</mask>
<path d="M330 194H330.5V0H330H329.5V194H330Z" fill="black" fill-opacity="0.1" mask="url(#path-23-inside-6_1397_9237)"/>
<path d="M112.375 189.139C111.626 189.139 110.988 188.935 110.461 188.528C109.934 188.117 109.531 187.522 109.253 186.743C108.974 185.961 108.835 185.016 108.835 183.909C108.835 182.809 108.974 181.869 109.253 181.09C109.535 180.308 109.939 179.711 110.466 179.3C110.996 178.886 111.633 178.679 112.375 178.679C113.117 178.679 113.752 178.886 114.279 179.3C114.809 179.711 115.214 180.308 115.492 181.09C115.774 181.869 115.915 182.809 115.915 183.909C115.915 185.016 115.776 185.961 115.497 186.743C115.219 187.522 114.816 188.117 114.289 188.528C113.762 188.935 113.124 189.139 112.375 189.139ZM112.375 188.045C113.117 188.045 113.694 187.687 114.105 186.972C114.516 186.256 114.722 185.235 114.722 183.909C114.722 183.027 114.627 182.277 114.438 181.657C114.253 181.037 113.984 180.565 113.633 180.24C113.285 179.915 112.866 179.753 112.375 179.753C111.639 179.753 111.064 180.116 110.65 180.842C110.236 181.564 110.028 182.587 110.028 183.909C110.028 184.791 110.121 185.54 110.307 186.156C110.492 186.773 110.759 187.242 111.107 187.563C111.459 187.885 111.881 188.045 112.375 188.045Z" fill="#743FDD"/>
<path d="M158.315 178.818V189H157.082V180.608H157.003C156.956 180.701 156.837 180.807 156.645 180.926C156.453 181.042 156.204 181.145 155.899 181.234C155.594 181.321 155.246 181.364 154.855 181.364V180.33C155.25 180.33 155.591 180.258 155.879 180.116C156.168 179.973 156.408 179.806 156.6 179.614C156.796 179.421 156.943 179.247 157.043 179.092C157.145 178.936 157.205 178.845 157.222 178.818H158.315ZM164.555 189.139C163.806 189.139 163.168 188.935 162.641 188.528C162.114 188.117 161.711 187.522 161.433 186.743C161.154 185.961 161.015 185.016 161.015 183.909C161.015 182.809 161.154 181.869 161.433 181.09C161.714 180.308 162.119 179.711 162.646 179.3C163.176 178.886 163.812 178.679 164.555 178.679C165.297 178.679 165.932 178.886 166.459 179.3C166.989 179.711 167.393 180.308 167.672 181.09C167.954 181.869 168.094 182.809 168.094 183.909C168.094 185.016 167.955 185.961 167.677 186.743C167.398 187.522 166.996 188.117 166.469 188.528C165.942 188.935 165.304 189.139 164.555 189.139ZM164.555 188.045C165.297 188.045 165.874 187.687 166.285 186.972C166.696 186.256 166.901 185.235 166.901 183.909C166.901 183.027 166.807 182.277 166.618 181.657C166.432 181.037 166.164 180.565 165.812 180.24C165.464 179.915 165.045 179.753 164.555 179.753C163.819 179.753 163.244 180.116 162.83 180.842C162.415 181.564 162.208 182.587 162.208 183.909C162.208 184.791 162.301 185.54 162.487 186.156C162.672 186.773 162.939 187.242 163.287 187.563C163.638 187.885 164.061 188.045 164.555 188.045ZM170.163 189V178.818H171.396V183.869H171.515L176.089 178.818H177.7L173.424 183.412L177.7 189H176.208L172.668 184.267L171.396 185.699V189H170.163Z" fill="#743FDD"/>
<path d="M201.054 189V188.105L204.415 184.426C204.809 183.995 205.134 183.621 205.389 183.303C205.644 182.981 205.833 182.679 205.956 182.398C206.082 182.113 206.145 181.814 206.145 181.503C206.145 181.145 206.059 180.835 205.886 180.573C205.717 180.311 205.485 180.109 205.19 179.967C204.895 179.824 204.564 179.753 204.196 179.753C203.805 179.753 203.464 179.834 203.172 179.996C202.884 180.156 202.66 180.379 202.501 180.668C202.345 180.956 202.267 181.294 202.267 181.682H201.094C201.094 181.085 201.231 180.562 201.506 180.111C201.781 179.66 202.156 179.309 202.63 179.057C203.107 178.805 203.643 178.679 204.236 178.679C204.832 178.679 205.361 178.805 205.822 179.057C206.282 179.309 206.644 179.648 206.906 180.076C207.167 180.504 207.298 180.979 207.298 181.503C207.298 181.877 207.23 182.244 207.094 182.602C206.962 182.956 206.73 183.352 206.398 183.79C206.07 184.224 205.615 184.754 205.031 185.381L202.744 187.827V187.906H207.477V189H201.054ZM212.852 189.139C212.103 189.139 211.464 188.935 210.938 188.528C210.411 188.117 210.008 187.522 209.729 186.743C209.451 185.961 209.312 185.016 209.312 183.909C209.312 182.809 209.451 181.869 209.729 181.09C210.011 180.308 210.415 179.711 210.942 179.3C211.473 178.886 212.109 178.679 212.852 178.679C213.594 178.679 214.229 178.886 214.756 179.3C215.286 179.711 215.69 180.308 215.969 181.09C216.25 181.869 216.391 182.809 216.391 183.909C216.391 185.016 216.252 185.961 215.974 186.743C215.695 187.522 215.293 188.117 214.766 188.528C214.239 188.935 213.601 189.139 212.852 189.139ZM212.852 188.045C213.594 188.045 214.171 187.687 214.582 186.972C214.993 186.256 215.198 185.235 215.198 183.909C215.198 183.027 215.104 182.277 214.915 181.657C214.729 181.037 214.461 180.565 214.109 180.24C213.761 179.915 213.342 179.753 212.852 179.753C212.116 179.753 211.541 180.116 211.126 180.842C210.712 181.564 210.505 182.587 210.505 183.909C210.505 184.791 210.598 185.54 210.783 186.156C210.969 186.773 211.236 187.242 211.584 187.563C211.935 187.885 212.358 188.045 212.852 188.045ZM218.46 189V178.818H219.692V183.869H219.812L224.386 178.818H225.996L221.721 183.412L225.996 189H224.505L220.965 184.267L219.692 185.699V189H218.46Z" fill="#743FDD"/>
<path d="M246.895 186.455H248.148C248.184 186.799 248.302 187.091 248.501 187.33C248.703 187.565 248.965 187.744 249.286 187.866C249.608 187.986 249.964 188.045 250.355 188.045C250.779 188.045 251.161 187.974 251.499 187.832C251.837 187.689 252.105 187.477 252.304 187.195C252.503 186.91 252.602 186.557 252.602 186.136C252.602 185.768 252.516 185.427 252.344 185.112C252.171 184.794 251.895 184.537 251.513 184.342C251.132 184.146 250.627 184.048 249.997 184.048H249.182V183.054L251.727 179.991V179.912H247.392V178.818H253.418V179.713L250.693 183.014V183.094C251.131 183.114 251.538 183.203 251.916 183.362C252.297 183.521 252.629 183.737 252.911 184.009C253.196 184.28 253.418 184.597 253.577 184.958C253.736 185.319 253.815 185.712 253.815 186.136C253.815 186.716 253.666 187.233 253.368 187.688C253.073 188.138 252.664 188.493 252.14 188.751C251.62 189.01 251.018 189.139 250.335 189.139C249.732 189.139 249.177 189.033 248.67 188.821C248.163 188.609 247.75 188.302 247.432 187.901C247.114 187.5 246.935 187.018 246.895 186.455ZM259.166 189.139C258.417 189.139 257.779 188.935 257.252 188.528C256.725 188.117 256.322 187.522 256.044 186.743C255.765 185.961 255.626 185.016 255.626 183.909C255.626 182.809 255.765 181.869 256.044 181.09C256.326 180.308 256.73 179.711 257.257 179.3C257.787 178.886 258.424 178.679 259.166 178.679C259.908 178.679 260.543 178.886 261.07 179.3C261.6 179.711 262.005 180.308 262.283 181.09C262.565 181.869 262.706 182.809 262.706 183.909C262.706 185.016 262.567 185.961 262.288 186.743C262.01 187.522 261.607 188.117 261.08 188.528C260.553 188.935 259.915 189.139 259.166 189.139ZM259.166 188.045C259.908 188.045 260.485 187.687 260.896 186.972C261.307 186.256 261.513 185.235 261.513 183.909C261.513 183.027 261.418 182.277 261.229 181.657C261.044 181.037 260.775 180.565 260.424 180.24C260.076 179.915 259.657 179.753 259.166 179.753C258.43 179.753 257.855 180.116 257.441 180.842C257.027 181.564 256.819 182.587 256.819 183.909C256.819 184.791 256.912 185.54 257.098 186.156C257.283 186.773 257.55 187.242 257.898 187.563C258.25 187.885 258.672 188.045 259.166 188.045ZM264.774 189V178.818H266.007V183.869H266.126L270.7 178.818H272.311L268.035 183.412L272.311 189H270.819L267.28 184.267L266.007 185.699V189H264.774Z" fill="#743FDD"/>
<path d="M292.815 186.912V185.898L296.892 178.818H298.105L294.128 185.739V185.818H300.173V186.912H292.815ZM297.608 189V186.614V186.131V182.636H298.781V189H297.608ZM305.357 189.139C304.608 189.139 303.97 188.935 303.443 188.528C302.916 188.117 302.514 187.522 302.235 186.743C301.957 185.961 301.818 185.016 301.818 183.909C301.818 182.809 301.957 181.869 302.235 181.09C302.517 180.308 302.921 179.711 303.448 179.3C303.979 178.886 304.615 178.679 305.357 178.679C306.1 178.679 306.735 178.886 307.262 179.3C307.792 179.711 308.196 180.308 308.475 181.09C308.756 181.869 308.897 182.809 308.897 183.909C308.897 185.016 308.758 185.961 308.48 186.743C308.201 187.522 307.798 188.117 307.271 188.528C306.744 188.935 306.106 189.139 305.357 189.139ZM305.357 188.045C306.1 188.045 306.677 187.687 307.088 186.972C307.499 186.256 307.704 185.235 307.704 183.909C307.704 183.027 307.61 182.277 307.421 181.657C307.235 181.037 306.967 180.565 306.615 180.24C306.267 179.915 305.848 179.753 305.357 179.753C304.622 179.753 304.047 180.116 303.632 180.842C303.218 181.564 303.011 182.587 303.011 183.909C303.011 184.791 303.104 185.54 303.289 186.156C303.475 186.773 303.742 187.242 304.09 187.563C304.441 187.885 304.864 188.045 305.357 188.045ZM310.965 189V178.818H312.198V183.869H312.318L316.892 178.818H318.502L314.227 183.412L318.502 189H317.011L313.471 184.267L312.198 185.699V189H310.965Z" fill="#743FDD"/>
<path d="M342.236 189.139C341.652 189.139 341.127 189.023 340.66 188.791C340.192 188.559 339.818 188.241 339.536 187.837C339.254 187.432 339.1 186.972 339.074 186.455H340.267C340.313 186.915 340.522 187.296 340.893 187.598C341.268 187.896 341.715 188.045 342.236 188.045C342.653 188.045 343.025 187.948 343.349 187.752C343.678 187.557 343.934 187.288 344.12 186.947C344.309 186.602 344.403 186.213 344.403 185.778C344.403 185.334 344.306 184.938 344.11 184.59C343.918 184.239 343.653 183.962 343.315 183.76C342.977 183.558 342.59 183.455 342.156 183.452C341.845 183.448 341.525 183.496 341.197 183.596C340.869 183.692 340.598 183.816 340.386 183.969L339.233 183.83L339.849 178.818H345.139V179.912H340.884L340.526 182.915H340.585C340.794 182.749 341.056 182.612 341.371 182.502C341.686 182.393 342.014 182.338 342.355 182.338C342.978 182.338 343.533 182.487 344.021 182.786C344.511 183.08 344.896 183.485 345.174 183.999C345.456 184.512 345.597 185.099 345.597 185.759C345.597 186.408 345.451 186.988 345.159 187.499C344.871 188.006 344.473 188.407 343.966 188.702C343.459 188.993 342.882 189.139 342.236 189.139ZM350.893 189.139C350.144 189.139 349.506 188.935 348.979 188.528C348.452 188.117 348.049 187.522 347.77 186.743C347.492 185.961 347.353 185.016 347.353 183.909C347.353 182.809 347.492 181.869 347.77 181.09C348.052 180.308 348.456 179.711 348.983 179.3C349.514 178.886 350.15 178.679 350.893 178.679C351.635 178.679 352.27 178.886 352.797 179.3C353.327 179.711 353.731 180.308 354.01 181.09C354.291 181.869 354.432 182.809 354.432 183.909C354.432 185.016 354.293 185.961 354.015 186.743C353.736 187.522 353.334 188.117 352.807 188.528C352.28 188.935 351.642 189.139 350.893 189.139ZM350.893 188.045C351.635 188.045 352.212 187.687 352.623 186.972C353.034 186.256 353.239 185.235 353.239 183.909C353.239 183.027 353.145 182.277 352.956 181.657C352.77 181.037 352.502 180.565 352.15 180.24C351.802 179.915 351.383 179.753 350.893 179.753C350.157 179.753 349.582 180.116 349.167 180.842C348.753 181.564 348.546 182.587 348.546 183.909C348.546 184.791 348.639 185.54 348.824 186.156C349.01 186.773 349.277 187.242 349.625 187.563C349.976 187.885 350.399 188.045 350.893 188.045ZM356.501 189V178.818H357.733V183.869H357.853L362.427 178.818H364.037L359.762 183.412L364.037 189H362.546L359.006 184.267L357.733 185.699V189H356.501Z" fill="#743FDD"/>
<path d="M100 14C100 11.7909 101.791 10 104 10H234C236.209 10 238 11.7909 238 14C238 16.2091 236.209 18 234 18H104C101.791 18 100 16.2091 100 14Z" fill="#743FDD"/>
<path d="M100 14C100 11.7909 101.791 10 104 10H189.7V18H104C101.791 18 100 16.2091 100 14Z" fill="#B2E8EC"/>
<path d="M100 14C100 11.7909 101.791 10 104 10H172.45V18H104C101.791 18 100 16.2091 100 14Z" fill="black"/>
<path d="M100 41.6665C100 39.4574 101.791 37.6665 104 37.6665H337.5C339.709 37.6665 341.5 39.4574 341.5 41.6665C341.5 43.8756 339.709 45.6665 337.5 45.6665H104C101.791 45.6665 100 43.8756 100 41.6665Z" fill="#743FDD"/>
<path d="M100 41.6665C100 39.4574 101.791 37.6665 104 37.6665H289.75V45.6665H104C101.791 45.6665 100 43.8756 100 41.6665Z" fill="#B2E8EC"/>
<path d="M100 41.6665C100 39.4574 101.791 37.6665 104 37.6665H238V45.6665H104C101.791 45.6665 100 43.8756 100 41.6665Z" fill="black"/>
<path d="M100 69.3335C100 67.1244 101.791 65.3335 104 65.3335H268.5C270.709 65.3335 272.5 67.1244 272.5 69.3335C272.5 71.5426 270.709 73.3335 268.5 73.3335H104C101.791 73.3335 100 71.5426 100 69.3335Z" fill="#743FDD"/>
<path d="M100 69.3335C100 67.1244 101.791 65.3335 104 65.3335H224.2V73.3335H104C101.791 73.3335 100 71.5426 100 69.3335Z" fill="#B2E8EC"/>
<path d="M100 69.3335C100 67.1244 101.791 65.3335 104 65.3335H186.25V73.3335H104C101.791 73.3335 100 71.5426 100 69.3335Z" fill="black"/>
<path d="M100 97C100 94.7909 101.791 93 104 93H372C374.209 93 376 94.7909 376 97C376 99.2091 374.209 101 372 101H104C101.791 101 100 99.2091 100 97Z" fill="#743FDD"/>
<path d="M100 97C100 94.7909 101.791 93 104 93H324.25V101H104C101.791 101 100 99.2091 100 97Z" fill="#B2E8EC"/>
<path d="M100 97C100 94.7909 101.791 93 104 93H282.85V101H104C101.791 101 100 99.2091 100 97Z" fill="black"/>
<path d="M100 124.667C100 122.457 101.791 120.667 104 120.667H199.5C201.709 120.667 203.5 122.457 203.5 124.667C203.5 126.876 201.709 128.667 199.5 128.667H104C101.791 128.667 100 126.876 100 124.667Z" fill="#743FDD"/>
<path d="M100 124.667C100 122.457 101.791 120.667 104 120.667H165.55V128.667H104C101.791 128.667 100 126.876 100 124.667Z" fill="#B2E8EC"/>
<path d="M100 124.667C100 122.457 101.791 120.667 104 120.667H144.85V128.667H104C101.791 128.667 100 126.876 100 124.667Z" fill="black"/>
<path d="M100 152.333C100 150.124 101.791 148.333 104 148.333H303C305.209 148.333 307 150.124 307 152.333C307 154.543 305.209 156.333 303 156.333H104C101.791 156.333 100 154.543 100 152.333Z" fill="#743FDD"/>
<path d="M100 152.333C100 150.124 101.791 148.333 104 148.333H258.7V156.333H104C101.791 156.333 100 154.543 100 152.333Z" fill="#B2E8EC"/>
<path d="M100 152.333C100 150.124 101.791 148.333 104 148.333H220.75V156.333H104C101.791 156.333 100 154.543 100 152.333Z" fill="black"/>
</svg>
