<svg width="681" height="193" viewBox="0 0 681 193" fill="none" xmlns="http://www.w3.org/2000/svg">
<rect x="-28.7377" y="29.5381" width="129.6" height="32.3003" rx="16.1501" fill="#B2E8EC"/>
<path d="M12.1522 41.3341H18.2492V42.7641H13.7902V45.1041H18.0152V46.4821H13.7902V49.0821H18.4832V50.5381H12.1522V41.3341ZM20.0868 41.3341H22.2578L26.5348 48.2241H26.5608V41.3341H28.1988V50.5381H26.1188L21.7508 43.4271H21.7248V50.5381H20.0868V41.3341ZM33.1164 41.3341H34.5334L38.4984 50.5381H36.6264L35.7684 48.4321H31.7774L30.9454 50.5381H29.1124L33.1164 41.3341ZM35.1964 47.0281L33.7794 43.2841L32.3364 47.0281H35.1964ZM39.4091 41.3341H42.9971C43.3437 41.3341 43.6861 41.3774 44.0241 41.4641C44.3621 41.5421 44.6611 41.6764 44.9211 41.8671C45.1897 42.0491 45.4064 42.2874 45.5711 42.5821C45.7357 42.8768 45.8181 43.2321 45.8181 43.6481C45.8181 44.1681 45.6707 44.5971 45.3761 44.9351C45.0814 45.2731 44.6957 45.5158 44.2191 45.6631V45.6891C44.7997 45.7671 45.2764 45.9924 45.6491 46.3651C46.0217 46.7378 46.2081 47.2361 46.2081 47.8601C46.2081 48.3628 46.1084 48.7874 45.9091 49.1341C45.7097 49.4721 45.4454 49.7451 45.1161 49.9531C44.7954 50.1611 44.4227 50.3128 43.9981 50.4081C43.5821 50.4948 43.1574 50.5381 42.7241 50.5381H39.4091V41.3341ZM41.0471 45.0781H42.5031C43.0491 45.0781 43.4651 44.9698 43.7511 44.7531C44.0371 44.5364 44.1801 44.2288 44.1801 43.8301C44.1801 43.4141 44.0327 43.1194 43.7381 42.9461C43.4434 42.7728 42.9841 42.6861 42.3601 42.6861H41.0471V45.0781ZM41.0471 49.1601H42.5161C42.7241 49.1601 42.9494 49.1471 43.1921 49.1211C43.4347 49.0864 43.6557 49.0214 43.8551 48.9261C44.0631 48.8308 44.2321 48.6921 44.3621 48.5101C44.5007 48.3281 44.5701 48.0854 44.5701 47.7821C44.5701 47.2968 44.4054 46.9588 44.0761 46.7681C43.7467 46.5774 43.2484 46.4821 42.5811 46.4821H41.0471V49.1601ZM47.8261 41.3341H49.4641V49.0821H53.3771V50.5381H47.8261V41.3341ZM54.4657 41.3341H60.5627V42.7641H56.1037V45.1041H60.3287V46.4821H56.1037V49.0821H60.7967V50.5381H54.4657V41.3341Z" fill="#B2E8EC"/>
<rect x="196.139" y="133.244" width="129.6" height="32.3003" rx="16.1501" fill="#B2E8EC"/>
<path d="M234.773 145.04H236.19L240.155 154.244H238.283L237.425 152.138H233.434L232.602 154.244H230.769L234.773 145.04ZM236.853 150.734L235.436 146.99L233.993 150.734H236.853ZM241.066 145.04H244.069C244.598 145.04 245.074 145.088 245.499 145.183C245.924 145.278 246.288 145.434 246.591 145.651C246.894 145.868 247.128 146.145 247.293 146.483C247.458 146.821 247.54 147.228 247.54 147.705C247.54 148.216 247.445 148.645 247.254 148.992C247.063 149.339 246.803 149.62 246.474 149.837C246.153 150.045 245.776 150.197 245.343 150.292C244.91 150.387 244.45 150.435 243.965 150.435H242.704V154.244H241.066V145.04ZM243.848 149.057C244.117 149.057 244.372 149.04 244.615 149.005C244.858 148.962 245.074 148.892 245.265 148.797C245.456 148.693 245.607 148.554 245.72 148.381C245.833 148.208 245.889 147.982 245.889 147.705C245.889 147.436 245.833 147.22 245.72 147.055C245.607 146.882 245.456 146.747 245.265 146.652C245.083 146.557 244.871 146.496 244.628 146.47C244.394 146.435 244.151 146.418 243.9 146.418H242.704V149.057H243.848ZM249 145.04H252.003C252.532 145.04 253.009 145.088 253.433 145.183C253.858 145.278 254.222 145.434 254.525 145.651C254.829 145.868 255.063 146.145 255.227 146.483C255.392 146.821 255.474 147.228 255.474 147.705C255.474 148.216 255.379 148.645 255.188 148.992C254.998 149.339 254.738 149.62 254.408 149.837C254.088 150.045 253.711 150.197 253.277 150.292C252.844 150.387 252.385 150.435 251.899 150.435H250.638V154.244H249V145.04ZM251.782 149.057C252.051 149.057 252.307 149.04 252.549 149.005C252.792 148.962 253.009 148.892 253.199 148.797C253.39 148.693 253.542 148.554 253.654 148.381C253.767 148.208 253.823 147.982 253.823 147.705C253.823 147.436 253.767 147.22 253.654 147.055C253.542 146.882 253.39 146.747 253.199 146.652C253.017 146.557 252.805 146.496 252.562 146.47C252.328 146.435 252.086 146.418 251.834 146.418H250.638V149.057H251.782ZM256.935 145.04H260.133C260.566 145.04 260.987 145.088 261.394 145.183C261.801 145.27 262.161 145.417 262.473 145.625C262.794 145.833 263.049 146.106 263.24 146.444C263.431 146.782 263.526 147.194 263.526 147.679C263.526 148.346 263.335 148.892 262.954 149.317C262.581 149.733 262.07 150.015 261.42 150.162L263.877 154.244H261.901L259.769 150.344H258.573V154.244H256.935V145.04ZM259.912 149.005C260.146 149.005 260.38 148.988 260.614 148.953C260.848 148.918 261.056 148.853 261.238 148.758C261.429 148.663 261.585 148.528 261.706 148.355C261.827 148.173 261.888 147.943 261.888 147.666C261.888 147.415 261.832 147.211 261.719 147.055C261.606 146.89 261.463 146.76 261.29 146.665C261.117 146.57 260.917 146.505 260.692 146.47C260.475 146.435 260.263 146.418 260.055 146.418H258.573V149.005H259.912ZM264.669 149.616C264.669 148.879 264.79 148.216 265.033 147.627C265.284 147.029 265.626 146.522 266.06 146.106C266.502 145.69 267.022 145.369 267.62 145.144C268.226 144.919 268.885 144.806 269.596 144.806C270.315 144.806 270.978 144.919 271.585 145.144C272.191 145.369 272.716 145.69 273.158 146.106C273.6 146.522 273.942 147.029 274.185 147.627C274.436 148.216 274.562 148.879 274.562 149.616C274.562 150.335 274.436 150.994 274.185 151.592C273.942 152.181 273.6 152.693 273.158 153.126C272.716 153.551 272.191 153.884 271.585 154.127C270.978 154.361 270.315 154.478 269.596 154.478C268.885 154.478 268.226 154.361 267.62 154.127C267.022 153.884 266.502 153.551 266.06 153.126C265.626 152.693 265.284 152.181 265.033 151.592C264.79 150.994 264.669 150.335 264.669 149.616ZM266.45 149.616C266.45 150.11 266.523 150.565 266.671 150.981C266.827 151.388 267.043 151.744 267.321 152.047C267.607 152.35 267.94 152.589 268.322 152.762C268.712 152.927 269.141 153.009 269.609 153.009C270.077 153.009 270.506 152.927 270.896 152.762C271.286 152.589 271.619 152.35 271.897 152.047C272.183 151.744 272.399 151.388 272.547 150.981C272.703 150.565 272.781 150.11 272.781 149.616C272.781 149.139 272.703 148.697 272.547 148.29C272.399 147.883 272.187 147.527 271.91 147.224C271.632 146.921 271.299 146.682 270.909 146.509C270.519 146.336 270.085 146.249 269.609 146.249C269.132 146.249 268.699 146.336 268.309 146.509C267.927 146.682 267.598 146.921 267.321 147.224C267.043 147.527 266.827 147.883 266.671 148.29C266.523 148.697 266.45 149.139 266.45 149.616ZM274.847 145.04H276.68L279.215 152.125H279.267L281.828 145.04H283.596L279.904 154.244H278.487L274.847 145.04ZM284.484 145.04H290.581V146.47H286.122V148.81H290.347V150.188H286.122V152.788H290.815V154.244H284.484V145.04Z" fill="#B2E8EC"/>
<rect x="-28.7377" y="100.545" width="129.6" height="64.9993" rx="32.4996" fill="#B2E8EC"/>
<path d="M9.90652 120.149H12.8585C13.2585 120.149 13.6465 120.193 14.0225 120.281C14.3985 120.361 14.7305 120.497 15.0185 120.689C15.3145 120.881 15.5505 121.133 15.7265 121.445C15.9025 121.757 15.9905 122.137 15.9905 122.585C15.9905 123.201 15.8145 123.705 15.4625 124.097C15.1185 124.481 14.6465 124.741 14.0465 124.877L16.3145 128.645H14.4905L12.5225 125.045H11.4185V128.645H9.90652V120.149ZM12.6545 123.809C12.8705 123.809 13.0865 123.793 13.3025 123.761C13.5185 123.729 13.7105 123.669 13.8785 123.581C14.0545 123.493 14.1985 123.369 14.3105 123.209C14.4225 123.041 14.4785 122.829 14.4785 122.573C14.4785 122.341 14.4265 122.153 14.3225 122.009C14.2185 121.857 14.0865 121.737 13.9265 121.649C13.7665 121.561 13.5825 121.501 13.3745 121.469C13.1745 121.437 12.9785 121.421 12.7865 121.421H11.4185V123.809H12.6545ZM17.4534 120.149H23.0814V121.469H18.9654V123.629H22.8654V124.901H18.9654V127.301H23.2974V128.645H17.4534V120.149ZM33.9336 128.645H28.8096C28.1296 128.645 27.5096 128.549 26.9496 128.357C26.3976 128.157 25.9216 127.873 25.5216 127.505C25.1296 127.129 24.8256 126.673 24.6096 126.137C24.3936 125.593 24.2856 124.977 24.2856 124.289C24.2856 123.641 24.3976 123.053 24.6216 122.525C24.8536 121.989 25.1736 121.529 25.5816 121.145C25.9896 120.761 26.4696 120.465 27.0216 120.257C27.5816 120.041 28.1856 119.933 28.8336 119.933C29.4816 119.933 30.0816 120.041 30.6336 120.257C31.1856 120.465 31.6616 120.761 32.0616 121.145C32.4696 121.529 32.7856 121.989 33.0096 122.525C33.2336 123.053 33.3456 123.641 33.3456 124.289C33.3456 124.673 33.3016 125.025 33.2136 125.345C33.1256 125.665 33.0096 125.957 32.8656 126.221C32.7296 126.477 32.5696 126.705 32.3856 126.905C32.2096 127.097 32.0256 127.261 31.8336 127.397V127.421H33.9336V128.645ZM28.8336 121.289C28.4256 121.289 28.0416 121.365 27.6816 121.517C27.3296 121.669 27.0256 121.877 26.7696 122.141C26.5136 122.405 26.3096 122.721 26.1576 123.089C26.0136 123.457 25.9416 123.857 25.9416 124.289C25.9416 124.745 26.0096 125.161 26.1456 125.537C26.2896 125.905 26.4856 126.221 26.7336 126.485C26.9896 126.749 27.2936 126.957 27.6456 127.109C27.9976 127.253 28.3856 127.325 28.8096 127.325C29.2256 127.325 29.6096 127.253 29.9616 127.109C30.3216 126.957 30.6296 126.749 30.8856 126.485C31.1416 126.221 31.3416 125.905 31.4856 125.537C31.6296 125.161 31.7016 124.745 31.7016 124.289C31.7016 123.857 31.6336 123.457 31.4976 123.089C31.3616 122.721 31.1656 122.405 30.9096 122.141C30.6616 121.877 30.3616 121.669 30.0096 121.517C29.6576 121.365 29.2656 121.289 28.8336 121.289ZM41.7644 125.525C41.7644 126.037 41.6764 126.501 41.5004 126.917C41.3244 127.325 41.0844 127.673 40.7804 127.961C40.4764 128.249 40.1164 128.473 39.7004 128.633C39.2844 128.785 38.8324 128.861 38.3444 128.861C37.8564 128.861 37.4044 128.785 36.9884 128.633C36.5724 128.473 36.2084 128.249 35.8964 127.961C35.5924 127.673 35.3524 127.325 35.1764 126.917C35.0084 126.501 34.9244 126.037 34.9244 125.525V120.149H36.4364V125.465C36.4364 125.713 36.4684 125.961 36.5324 126.209C36.5964 126.449 36.7004 126.665 36.8444 126.857C36.9964 127.049 37.1924 127.205 37.4324 127.325C37.6804 127.445 37.9844 127.505 38.3444 127.505C38.7044 127.505 39.0044 127.445 39.2444 127.325C39.4924 127.205 39.6884 127.049 39.8324 126.857C39.9844 126.665 40.0924 126.449 40.1564 126.209C40.2204 125.961 40.2524 125.713 40.2524 125.465V120.149H41.7644V125.525ZM43.5628 120.149H49.1908V121.469H45.0748V123.629H48.9748V124.901H45.0748V127.301H49.4068V128.645H43.5628V120.149ZM55.219 121.925C55.059 121.717 54.831 121.545 54.535 121.409C54.247 121.265 53.955 121.193 53.659 121.193C53.483 121.193 53.307 121.217 53.131 121.265C52.955 121.305 52.795 121.373 52.651 121.469C52.507 121.557 52.387 121.677 52.291 121.829C52.203 121.973 52.159 122.149 52.159 122.357C52.159 122.549 52.199 122.713 52.279 122.849C52.359 122.985 52.467 123.101 52.603 123.197C52.747 123.293 52.919 123.377 53.119 123.449C53.319 123.521 53.539 123.593 53.779 123.665C54.051 123.753 54.331 123.853 54.619 123.965C54.915 124.077 55.183 124.225 55.423 124.409C55.671 124.593 55.871 124.825 56.023 125.105C56.183 125.385 56.263 125.733 56.263 126.149C56.263 126.605 56.179 127.005 56.011 127.349C55.843 127.685 55.619 127.965 55.339 128.189C55.059 128.413 54.731 128.581 54.355 128.693C53.979 128.805 53.583 128.861 53.167 128.861C52.615 128.861 52.075 128.761 51.547 128.561C51.019 128.353 50.587 128.049 50.251 127.649L51.331 126.641C51.539 126.929 51.815 127.157 52.159 127.325C52.511 127.493 52.855 127.577 53.191 127.577C53.367 127.577 53.547 127.557 53.731 127.517C53.915 127.469 54.079 127.393 54.223 127.289C54.375 127.185 54.495 127.057 54.583 126.905C54.679 126.745 54.727 126.549 54.727 126.317C54.727 126.093 54.675 125.909 54.571 125.765C54.467 125.613 54.327 125.485 54.151 125.381C53.975 125.269 53.767 125.173 53.527 125.093C53.287 125.013 53.035 124.929 52.771 124.841C52.515 124.761 52.259 124.665 52.003 124.553C51.747 124.441 51.515 124.293 51.307 124.109C51.107 123.925 50.943 123.701 50.815 123.437C50.687 123.165 50.623 122.829 50.623 122.429C50.623 121.997 50.711 121.625 50.887 121.313C51.071 121.001 51.307 120.745 51.595 120.545C51.891 120.337 52.223 120.185 52.591 120.089C52.967 119.985 53.347 119.933 53.731 119.933C54.163 119.933 54.599 120.009 55.039 120.161C55.487 120.313 55.875 120.541 56.203 120.845L55.219 121.925ZM59.3061 121.469H56.7021V120.149H63.4221V121.469H60.8181V128.645H59.3061V121.469Z" fill="#B2E8EC"/>
<path opacity="0.6" d="M15.3863 143.877H19.9343V144.645H14.5223V136.149H19.7903V136.917H15.3863V139.845H19.5023V140.601H15.3863V143.877ZM22.3079 139.029C22.3239 139.181 22.3359 139.349 22.3439 139.533C22.3519 139.717 22.3559 139.869 22.3559 139.989H22.3799C22.5399 139.661 22.7999 139.397 23.1599 139.197C23.5199 138.989 23.8999 138.885 24.2999 138.885C25.0119 138.885 25.5439 139.097 25.8959 139.521C26.2559 139.945 26.4359 140.505 26.4359 141.201V144.645H25.6199V141.537C25.6199 141.241 25.5959 140.973 25.5479 140.733C25.4999 140.493 25.4159 140.289 25.2959 140.121C25.1839 139.945 25.0279 139.809 24.8279 139.713C24.6359 139.617 24.3919 139.569 24.0959 139.569C23.8799 139.569 23.6679 139.613 23.4599 139.701C23.2599 139.789 23.0799 139.925 22.9199 140.109C22.7599 140.285 22.6319 140.513 22.5359 140.793C22.4399 141.065 22.3919 141.389 22.3919 141.765V144.645H21.5759V140.265C21.5759 140.113 21.5719 139.917 21.5639 139.677C21.5559 139.437 21.5439 139.221 21.5279 139.029H22.3079ZM32.0886 141.021C32.0886 140.533 31.9606 140.169 31.7046 139.929C31.4486 139.689 31.0766 139.569 30.5886 139.569C30.2526 139.569 29.9406 139.629 29.6526 139.749C29.3646 139.869 29.1206 140.029 28.9206 140.229L28.4646 139.689C28.6966 139.457 29.0006 139.265 29.3766 139.113C29.7606 138.961 30.1926 138.885 30.6726 138.885C30.9766 138.885 31.2606 138.929 31.5246 139.017C31.7886 139.097 32.0206 139.221 32.2206 139.389C32.4206 139.557 32.5766 139.769 32.6886 140.025C32.8006 140.281 32.8566 140.581 32.8566 140.925V143.385C32.8566 143.601 32.8646 143.825 32.8806 144.057C32.8966 144.289 32.9206 144.485 32.9526 144.645H32.2206C32.1966 144.509 32.1766 144.361 32.1606 144.201C32.1446 144.041 32.1366 143.885 32.1366 143.733H32.1126C31.8566 144.109 31.5646 144.381 31.2366 144.549C30.9166 144.709 30.5286 144.789 30.0726 144.789C29.8566 144.789 29.6326 144.757 29.4006 144.693C29.1766 144.637 28.9686 144.541 28.7766 144.405C28.5926 144.269 28.4366 144.093 28.3086 143.877C28.1886 143.661 28.1286 143.397 28.1286 143.085C28.1286 142.653 28.2366 142.313 28.4526 142.065C28.6766 141.809 28.9726 141.621 29.3406 141.501C29.7086 141.373 30.1286 141.293 30.6006 141.261C31.0806 141.221 31.5766 141.201 32.0886 141.201V141.021ZM31.8486 141.837C31.5126 141.837 31.1726 141.853 30.8286 141.885C30.4926 141.909 30.1846 141.965 29.9046 142.053C29.6326 142.133 29.4086 142.253 29.2326 142.413C29.0566 142.573 28.9686 142.785 28.9686 143.049C28.9686 143.249 29.0046 143.417 29.0766 143.553C29.1566 143.689 29.2606 143.801 29.3886 143.889C29.5166 143.969 29.6566 144.029 29.8086 144.069C29.9686 144.101 30.1286 144.117 30.2886 144.117C30.5766 144.117 30.8326 144.069 31.0566 143.973C31.2806 143.869 31.4686 143.733 31.6206 143.565C31.7726 143.389 31.8886 143.189 31.9686 142.965C32.0486 142.741 32.0886 142.505 32.0886 142.257V141.837H31.8486ZM35.7987 143.697V144.645H34.9827V135.573H35.7987V140.001H35.8227C36.0627 139.633 36.3747 139.357 36.7587 139.173C37.1427 138.981 37.5387 138.885 37.9467 138.885C38.3867 138.885 38.7827 138.961 39.1347 139.113C39.4947 139.265 39.7987 139.473 40.0467 139.737C40.3027 140.001 40.4987 140.313 40.6347 140.673C40.7787 141.033 40.8507 141.421 40.8507 141.837C40.8507 142.253 40.7787 142.641 40.6347 143.001C40.4987 143.361 40.3027 143.673 40.0467 143.937C39.7987 144.201 39.4947 144.409 39.1347 144.561C38.7827 144.713 38.3867 144.789 37.9467 144.789C37.5387 144.789 37.1427 144.697 36.7587 144.513C36.3747 144.329 36.0627 144.057 35.8227 143.697H35.7987ZM39.9867 141.837C39.9867 141.525 39.9387 141.233 39.8427 140.961C39.7467 140.681 39.6067 140.441 39.4227 140.241C39.2467 140.033 39.0267 139.869 38.7627 139.749C38.4987 139.629 38.1987 139.569 37.8627 139.569C37.5507 139.569 37.2627 139.629 36.9987 139.749C36.7347 139.861 36.5067 140.021 36.3147 140.229C36.1227 140.429 35.9707 140.669 35.8587 140.949C35.7547 141.221 35.7027 141.517 35.7027 141.837C35.7027 142.157 35.7547 142.457 35.8587 142.737C35.9707 143.009 36.1227 143.245 36.3147 143.445C36.5067 143.645 36.7347 143.805 36.9987 143.925C37.2627 144.037 37.5507 144.093 37.8627 144.093C38.1987 144.093 38.4987 144.037 38.7627 143.925C39.0267 143.805 39.2467 143.645 39.4227 143.445C39.6067 143.237 39.7467 142.997 39.8427 142.725C39.9387 142.445 39.9867 142.149 39.9867 141.837ZM43.4393 144.645H42.6233V135.573H43.4393V144.645ZM49.9068 141.405C49.8828 140.877 49.7108 140.441 49.3908 140.097C49.0788 139.745 48.6308 139.569 48.0468 139.569C47.7748 139.569 47.5228 139.621 47.2908 139.725C47.0588 139.821 46.8548 139.957 46.6788 140.133C46.5028 140.301 46.3628 140.497 46.2588 140.721C46.1548 140.937 46.0948 141.165 46.0788 141.405H49.9068ZM50.7348 141.669C50.7348 141.725 50.7348 141.785 50.7348 141.849C50.7348 141.913 50.7308 141.981 50.7228 142.053H46.0668C46.0748 142.333 46.1308 142.597 46.2348 142.845C46.3388 143.093 46.4828 143.309 46.6668 143.493C46.8508 143.677 47.0668 143.825 47.3148 143.937C47.5628 144.041 47.8308 144.093 48.1188 144.093C48.5428 144.093 48.9068 143.997 49.2108 143.805C49.5228 143.605 49.7588 143.377 49.9188 143.121L50.5308 143.601C50.1948 144.025 49.8228 144.329 49.4148 144.513C49.0148 144.697 48.5828 144.789 48.1188 144.789C47.7028 144.789 47.3148 144.717 46.9548 144.573C46.6028 144.421 46.2988 144.213 46.0428 143.949C45.7868 143.685 45.5828 143.373 45.4308 143.013C45.2868 142.653 45.2148 142.261 45.2148 141.837C45.2148 141.413 45.2868 141.021 45.4308 140.661C45.5748 140.301 45.7748 139.989 46.0308 139.725C46.2868 139.461 46.5868 139.257 46.9308 139.113C47.2748 138.961 47.6468 138.885 48.0468 138.885C48.4868 138.885 48.8748 138.961 49.2108 139.113C49.5468 139.257 49.8268 139.457 50.0508 139.713C50.2748 139.961 50.4428 140.253 50.5548 140.589C50.6748 140.925 50.7348 141.285 50.7348 141.669ZM57.11 143.697C56.87 144.057 56.558 144.329 56.174 144.513C55.79 144.697 55.394 144.789 54.986 144.789C54.546 144.789 54.146 144.713 53.786 144.561C53.434 144.409 53.13 144.201 52.874 143.937C52.626 143.673 52.43 143.361 52.286 143.001C52.15 142.641 52.082 142.253 52.082 141.837C52.082 141.421 52.15 141.033 52.286 140.673C52.43 140.313 52.626 140.001 52.874 139.737C53.13 139.473 53.434 139.265 53.786 139.113C54.146 138.961 54.546 138.885 54.986 138.885C55.394 138.885 55.79 138.981 56.174 139.173C56.558 139.357 56.87 139.633 57.11 140.001H57.134V135.573H57.95V144.645H57.134V143.697H57.11ZM52.946 141.837C52.946 142.149 52.994 142.445 53.09 142.725C53.186 142.997 53.322 143.237 53.498 143.445C53.682 143.645 53.906 143.805 54.17 143.925C54.434 144.037 54.734 144.093 55.07 144.093C55.382 144.093 55.67 144.037 55.934 143.925C56.198 143.805 56.426 143.645 56.618 143.445C56.81 143.245 56.958 143.009 57.062 142.737C57.174 142.457 57.23 142.157 57.23 141.837C57.23 141.517 57.174 141.221 57.062 140.949C56.958 140.669 56.81 140.429 56.618 140.229C56.426 140.021 56.198 139.861 55.934 139.749C55.67 139.629 55.382 139.569 55.07 139.569C54.734 139.569 54.434 139.629 54.17 139.749C53.906 139.869 53.682 140.033 53.498 140.241C53.322 140.441 53.186 140.681 53.09 140.961C52.994 141.233 52.946 141.525 52.946 141.837Z" fill="#B2E8EC"/>
<rect x="196.139" y="29.5381" width="129.6" height="64.9993" rx="32.4996" fill="#B2E8EC"/>
<path d="M234.783 49.1417H237.735C238.135 49.1417 238.523 49.1857 238.899 49.2737C239.275 49.3537 239.607 49.4897 239.895 49.6817C240.191 49.8737 240.427 50.1257 240.603 50.4377C240.779 50.7497 240.867 51.1297 240.867 51.5777C240.867 52.1937 240.691 52.6977 240.339 53.0897C239.995 53.4737 239.523 53.7337 238.923 53.8697L241.191 57.6377H239.367L237.399 54.0377H236.295V57.6377H234.783V49.1417ZM237.531 52.8017C237.747 52.8017 237.963 52.7857 238.179 52.7537C238.395 52.7217 238.587 52.6617 238.755 52.5737C238.931 52.4857 239.075 52.3617 239.187 52.2017C239.299 52.0337 239.355 51.8217 239.355 51.5657C239.355 51.3337 239.303 51.1457 239.199 51.0017C239.095 50.8497 238.963 50.7297 238.803 50.6417C238.643 50.5537 238.459 50.4937 238.251 50.4617C238.051 50.4297 237.855 50.4137 237.663 50.4137H236.295V52.8017H237.531ZM242.33 49.1417H247.958V50.4617H243.842V52.6217H247.742V53.8937H243.842V56.2937H248.174V57.6377H242.33V49.1417ZM258.81 57.6377H253.686C253.006 57.6377 252.386 57.5417 251.826 57.3497C251.274 57.1497 250.798 56.8657 250.398 56.4977C250.006 56.1217 249.702 55.6657 249.486 55.1297C249.27 54.5857 249.162 53.9697 249.162 53.2817C249.162 52.6337 249.274 52.0457 249.498 51.5177C249.73 50.9817 250.05 50.5217 250.458 50.1377C250.866 49.7537 251.346 49.4577 251.898 49.2497C252.458 49.0337 253.062 48.9257 253.71 48.9257C254.358 48.9257 254.958 49.0337 255.51 49.2497C256.062 49.4577 256.538 49.7537 256.938 50.1377C257.346 50.5217 257.662 50.9817 257.886 51.5177C258.11 52.0457 258.222 52.6337 258.222 53.2817C258.222 53.6657 258.178 54.0177 258.09 54.3377C258.002 54.6577 257.886 54.9497 257.742 55.2137C257.606 55.4697 257.446 55.6977 257.262 55.8977C257.086 56.0897 256.902 56.2537 256.71 56.3897V56.4137H258.81V57.6377ZM253.71 50.2817C253.302 50.2817 252.918 50.3577 252.558 50.5097C252.206 50.6617 251.902 50.8697 251.646 51.1337C251.39 51.3977 251.186 51.7137 251.034 52.0817C250.89 52.4497 250.818 52.8497 250.818 53.2817C250.818 53.7377 250.886 54.1537 251.022 54.5297C251.166 54.8977 251.362 55.2137 251.61 55.4777C251.866 55.7417 252.17 55.9497 252.522 56.1017C252.874 56.2457 253.262 56.3177 253.686 56.3177C254.102 56.3177 254.486 56.2457 254.838 56.1017C255.198 55.9497 255.506 55.7417 255.762 55.4777C256.018 55.2137 256.218 54.8977 256.362 54.5297C256.506 54.1537 256.578 53.7377 256.578 53.2817C256.578 52.8497 256.51 52.4497 256.374 52.0817C256.238 51.7137 256.042 51.3977 255.786 51.1337C255.538 50.8697 255.238 50.6617 254.886 50.5097C254.534 50.3577 254.142 50.2817 253.71 50.2817ZM266.641 54.5177C266.641 55.0297 266.553 55.4937 266.377 55.9097C266.201 56.3177 265.961 56.6657 265.657 56.9537C265.353 57.2417 264.993 57.4657 264.577 57.6257C264.161 57.7777 263.709 57.8537 263.221 57.8537C262.733 57.8537 262.281 57.7777 261.865 57.6257C261.449 57.4657 261.085 57.2417 260.773 56.9537C260.469 56.6657 260.229 56.3177 260.053 55.9097C259.885 55.4937 259.801 55.0297 259.801 54.5177V49.1417H261.313V54.4577C261.313 54.7057 261.345 54.9537 261.409 55.2017C261.473 55.4417 261.577 55.6577 261.721 55.8497C261.873 56.0417 262.069 56.1977 262.309 56.3177C262.557 56.4377 262.861 56.4977 263.221 56.4977C263.581 56.4977 263.881 56.4377 264.121 56.3177C264.369 56.1977 264.565 56.0417 264.709 55.8497C264.861 55.6577 264.969 55.4417 265.033 55.2017C265.097 54.9537 265.129 54.7057 265.129 54.4577V49.1417H266.641V54.5177ZM268.439 49.1417H274.067V50.4617H269.951V52.6217H273.851V53.8937H269.951V56.2937H274.283V57.6377H268.439V49.1417ZM280.096 50.9177C279.936 50.7097 279.708 50.5377 279.412 50.4017C279.124 50.2577 278.832 50.1857 278.536 50.1857C278.36 50.1857 278.184 50.2097 278.008 50.2577C277.832 50.2977 277.672 50.3657 277.528 50.4617C277.384 50.5497 277.264 50.6697 277.168 50.8217C277.08 50.9657 277.036 51.1417 277.036 51.3497C277.036 51.5417 277.076 51.7057 277.156 51.8417C277.236 51.9777 277.344 52.0937 277.48 52.1897C277.624 52.2857 277.796 52.3697 277.996 52.4417C278.196 52.5137 278.416 52.5857 278.656 52.6577C278.928 52.7457 279.208 52.8457 279.496 52.9577C279.792 53.0697 280.06 53.2177 280.3 53.4017C280.548 53.5857 280.748 53.8177 280.9 54.0977C281.06 54.3777 281.14 54.7257 281.14 55.1417C281.14 55.5977 281.056 55.9977 280.888 56.3417C280.72 56.6777 280.496 56.9577 280.216 57.1817C279.936 57.4057 279.608 57.5737 279.232 57.6857C278.856 57.7977 278.46 57.8537 278.044 57.8537C277.492 57.8537 276.952 57.7537 276.424 57.5537C275.896 57.3457 275.464 57.0417 275.128 56.6417L276.208 55.6337C276.416 55.9217 276.692 56.1497 277.036 56.3177C277.388 56.4857 277.732 56.5697 278.068 56.5697C278.244 56.5697 278.424 56.5497 278.608 56.5097C278.792 56.4617 278.956 56.3857 279.1 56.2817C279.252 56.1777 279.372 56.0497 279.46 55.8977C279.556 55.7377 279.604 55.5417 279.604 55.3097C279.604 55.0857 279.552 54.9017 279.448 54.7577C279.344 54.6057 279.204 54.4777 279.028 54.3737C278.852 54.2617 278.644 54.1657 278.404 54.0857C278.164 54.0057 277.912 53.9217 277.648 53.8337C277.392 53.7537 277.136 53.6577 276.88 53.5457C276.624 53.4337 276.392 53.2857 276.184 53.1017C275.984 52.9177 275.82 52.6937 275.692 52.4297C275.564 52.1577 275.5 51.8217 275.5 51.4217C275.5 50.9897 275.588 50.6177 275.764 50.3057C275.948 49.9937 276.184 49.7377 276.472 49.5377C276.768 49.3297 277.1 49.1777 277.468 49.0817C277.844 48.9777 278.224 48.9257 278.608 48.9257C279.04 48.9257 279.476 49.0017 279.916 49.1537C280.364 49.3057 280.752 49.5337 281.08 49.8377L280.096 50.9177ZM284.183 50.4617H281.579V49.1417H288.299V50.4617H285.695V57.6377H284.183V50.4617Z" fill="#B2E8EC"/>
<path opacity="0.6" d="M240.263 72.8697H244.811V73.6377H239.399V65.1417H244.667V65.9097H240.263V68.8377H244.379V69.5937H240.263V72.8697ZM247.184 68.0217C247.2 68.1737 247.212 68.3417 247.22 68.5257C247.228 68.7097 247.232 68.8617 247.232 68.9817H247.256C247.416 68.6537 247.676 68.3897 248.036 68.1897C248.396 67.9817 248.776 67.8777 249.176 67.8777C249.888 67.8777 250.42 68.0897 250.772 68.5137C251.132 68.9377 251.312 69.4977 251.312 70.1937V73.6377H250.496V70.5297C250.496 70.2337 250.472 69.9657 250.424 69.7257C250.376 69.4857 250.292 69.2817 250.172 69.1137C250.06 68.9377 249.904 68.8017 249.704 68.7057C249.512 68.6097 249.268 68.5617 248.972 68.5617C248.756 68.5617 248.544 68.6057 248.336 68.6937C248.136 68.7817 247.956 68.9177 247.796 69.1017C247.636 69.2777 247.508 69.5057 247.412 69.7857C247.316 70.0577 247.268 70.3817 247.268 70.7577V73.6377H246.452V69.2577C246.452 69.1057 246.448 68.9097 246.44 68.6697C246.432 68.4297 246.42 68.2137 246.404 68.0217H247.184ZM256.965 70.0137C256.965 69.5257 256.837 69.1617 256.581 68.9217C256.325 68.6817 255.953 68.5617 255.465 68.5617C255.129 68.5617 254.817 68.6217 254.529 68.7417C254.241 68.8617 253.997 69.0217 253.797 69.2217L253.341 68.6817C253.573 68.4497 253.877 68.2577 254.253 68.1057C254.637 67.9537 255.069 67.8777 255.549 67.8777C255.853 67.8777 256.137 67.9217 256.401 68.0097C256.665 68.0897 256.897 68.2137 257.097 68.3817C257.297 68.5497 257.453 68.7617 257.565 69.0177C257.677 69.2737 257.733 69.5737 257.733 69.9177V72.3777C257.733 72.5937 257.741 72.8177 257.757 73.0497C257.773 73.2817 257.797 73.4777 257.829 73.6377H257.097C257.073 73.5017 257.053 73.3537 257.037 73.1937C257.021 73.0337 257.013 72.8777 257.013 72.7257H256.989C256.733 73.1017 256.441 73.3737 256.113 73.5417C255.793 73.7017 255.405 73.7817 254.949 73.7817C254.733 73.7817 254.509 73.7497 254.277 73.6857C254.053 73.6297 253.845 73.5337 253.653 73.3977C253.469 73.2617 253.313 73.0857 253.185 72.8697C253.065 72.6537 253.005 72.3897 253.005 72.0777C253.005 71.6457 253.113 71.3057 253.329 71.0577C253.553 70.8017 253.849 70.6137 254.217 70.4937C254.585 70.3657 255.005 70.2857 255.477 70.2537C255.957 70.2137 256.453 70.1937 256.965 70.1937V70.0137ZM256.725 70.8297C256.389 70.8297 256.049 70.8457 255.705 70.8777C255.369 70.9017 255.061 70.9577 254.781 71.0457C254.509 71.1257 254.285 71.2457 254.109 71.4057C253.933 71.5657 253.845 71.7777 253.845 72.0417C253.845 72.2417 253.881 72.4097 253.953 72.5457C254.033 72.6817 254.137 72.7937 254.265 72.8817C254.393 72.9617 254.533 73.0217 254.685 73.0617C254.845 73.0937 255.005 73.1097 255.165 73.1097C255.453 73.1097 255.709 73.0617 255.933 72.9657C256.157 72.8617 256.345 72.7257 256.497 72.5577C256.649 72.3817 256.765 72.1817 256.845 71.9577C256.925 71.7337 256.965 71.4977 256.965 71.2497V70.8297H256.725ZM260.675 72.6897V73.6377H259.859V64.5657H260.675V68.9937H260.699C260.939 68.6257 261.251 68.3497 261.635 68.1657C262.019 67.9737 262.415 67.8777 262.823 67.8777C263.263 67.8777 263.659 67.9537 264.011 68.1057C264.371 68.2577 264.675 68.4657 264.923 68.7297C265.179 68.9937 265.375 69.3057 265.511 69.6657C265.655 70.0257 265.727 70.4137 265.727 70.8297C265.727 71.2457 265.655 71.6337 265.511 71.9937C265.375 72.3537 265.179 72.6657 264.923 72.9297C264.675 73.1937 264.371 73.4017 264.011 73.5537C263.659 73.7057 263.263 73.7817 262.823 73.7817C262.415 73.7817 262.019 73.6897 261.635 73.5057C261.251 73.3217 260.939 73.0497 260.699 72.6897H260.675ZM264.863 70.8297C264.863 70.5177 264.815 70.2257 264.719 69.9537C264.623 69.6737 264.483 69.4337 264.299 69.2337C264.123 69.0257 263.903 68.8617 263.639 68.7417C263.375 68.6217 263.075 68.5617 262.739 68.5617C262.427 68.5617 262.139 68.6217 261.875 68.7417C261.611 68.8537 261.383 69.0137 261.191 69.2217C260.999 69.4217 260.847 69.6617 260.735 69.9417C260.631 70.2137 260.579 70.5097 260.579 70.8297C260.579 71.1497 260.631 71.4497 260.735 71.7297C260.847 72.0017 260.999 72.2377 261.191 72.4377C261.383 72.6377 261.611 72.7977 261.875 72.9177C262.139 73.0297 262.427 73.0857 262.739 73.0857C263.075 73.0857 263.375 73.0297 263.639 72.9177C263.903 72.7977 264.123 72.6377 264.299 72.4377C264.483 72.2297 264.623 71.9897 264.719 71.7177C264.815 71.4377 264.863 71.1417 264.863 70.8297ZM268.316 73.6377H267.5V64.5657H268.316V73.6377ZM274.783 70.3977C274.759 69.8697 274.587 69.4337 274.267 69.0897C273.955 68.7377 273.507 68.5617 272.923 68.5617C272.651 68.5617 272.399 68.6137 272.167 68.7177C271.935 68.8137 271.731 68.9497 271.555 69.1257C271.379 69.2937 271.239 69.4897 271.135 69.7137C271.031 69.9297 270.971 70.1577 270.955 70.3977H274.783ZM275.611 70.6617C275.611 70.7177 275.611 70.7777 275.611 70.8417C275.611 70.9057 275.607 70.9737 275.599 71.0457H270.943C270.951 71.3257 271.007 71.5897 271.111 71.8377C271.215 72.0857 271.359 72.3017 271.543 72.4857C271.727 72.6697 271.943 72.8177 272.191 72.9297C272.439 73.0337 272.707 73.0857 272.995 73.0857C273.419 73.0857 273.783 72.9897 274.087 72.7977C274.399 72.5977 274.635 72.3697 274.795 72.1137L275.407 72.5937C275.071 73.0177 274.699 73.3217 274.291 73.5057C273.891 73.6897 273.459 73.7817 272.995 73.7817C272.579 73.7817 272.191 73.7097 271.831 73.5657C271.479 73.4137 271.175 73.2057 270.919 72.9417C270.663 72.6777 270.459 72.3657 270.307 72.0057C270.163 71.6457 270.091 71.2537 270.091 70.8297C270.091 70.4057 270.163 70.0137 270.307 69.6537C270.451 69.2937 270.651 68.9817 270.907 68.7177C271.163 68.4537 271.463 68.2497 271.807 68.1057C272.151 67.9537 272.523 67.8777 272.923 67.8777C273.363 67.8777 273.751 67.9537 274.087 68.1057C274.423 68.2497 274.703 68.4497 274.927 68.7057C275.151 68.9537 275.319 69.2457 275.431 69.5817C275.551 69.9177 275.611 70.2777 275.611 70.6617ZM281.986 72.6897C281.746 73.0497 281.434 73.3217 281.05 73.5057C280.666 73.6897 280.27 73.7817 279.862 73.7817C279.422 73.7817 279.022 73.7057 278.662 73.5537C278.31 73.4017 278.006 73.1937 277.75 72.9297C277.502 72.6657 277.306 72.3537 277.162 71.9937C277.026 71.6337 276.958 71.2457 276.958 70.8297C276.958 70.4137 277.026 70.0257 277.162 69.6657C277.306 69.3057 277.502 68.9937 277.75 68.7297C278.006 68.4657 278.31 68.2577 278.662 68.1057C279.022 67.9537 279.422 67.8777 279.862 67.8777C280.27 67.8777 280.666 67.9737 281.05 68.1657C281.434 68.3497 281.746 68.6257 281.986 68.9937H282.01V64.5657H282.826V73.6377H282.01V72.6897H281.986ZM277.822 70.8297C277.822 71.1417 277.87 71.4377 277.966 71.7177C278.062 71.9897 278.198 72.2297 278.374 72.4377C278.558 72.6377 278.782 72.7977 279.046 72.9177C279.31 73.0297 279.61 73.0857 279.946 73.0857C280.258 73.0857 280.546 73.0297 280.81 72.9177C281.074 72.7977 281.302 72.6377 281.494 72.4377C281.686 72.2377 281.834 72.0017 281.938 71.7297C282.05 71.4497 282.106 71.1497 282.106 70.8297C282.106 70.5097 282.05 70.2137 281.938 69.9417C281.834 69.6617 281.686 69.4217 281.494 69.2217C281.302 69.0137 281.074 68.8537 280.81 68.7417C280.546 68.6217 280.258 68.5617 279.946 68.5617C279.61 68.5617 279.31 68.6217 279.046 68.7417C278.782 68.8617 278.558 69.0257 278.374 69.2337C278.198 69.4337 278.062 69.6737 277.966 69.9537C277.87 70.2257 277.822 70.5177 277.822 70.8297Z" fill="#B2E8EC"/>
<path d="M104.862 131.545C104.034 131.545 103.362 132.216 103.362 133.045C103.362 133.873 104.034 134.545 104.862 134.545V133.045V131.545ZM193.199 63.0987C193.785 62.513 193.785 61.5632 193.199 60.9774L183.654 51.4315C183.068 50.8457 182.118 50.8457 181.532 51.4315C180.946 52.0173 180.946 52.967 181.532 53.5528L190.017 62.0381L181.532 70.5234C180.946 71.1092 180.946 72.0589 181.532 72.6447C182.118 73.2305 183.068 73.2305 183.654 72.6447L193.199 63.0987ZM104.862 133.045V134.545H108.443V133.045V131.545H104.862V133.045ZM112.919 133.045V134.545H116.5V133.045V131.545H112.919V133.045ZM116.5 133.045V134.545C119.263 134.545 121.949 134.21 124.519 133.579L124.162 132.122L123.804 130.665C121.465 131.24 119.02 131.545 116.5 131.545V133.045ZM133.057 128.434L133.834 129.717C138.468 126.91 142.366 123.012 145.173 118.379L143.89 117.602L142.607 116.824C140.051 121.044 136.5 124.595 132.28 127.151L133.057 128.434ZM147.578 108.706L149.034 109.064C149.666 106.493 150 103.807 150 101.045H148.5H147C147 103.564 146.695 106.01 146.121 108.348L147.578 108.706ZM148.5 101.045H150V98.889H148.5H147V101.045H148.5ZM148.5 96.194H150V94.0381H148.5H147V96.194H148.5ZM148.5 94.0381H150C150 91.519 150.306 89.0732 150.88 86.7349L149.423 86.377L147.967 86.0191C147.335 88.5899 147 91.2759 147 94.0381H148.5ZM153.111 77.4813L154.394 78.2585C156.95 74.0389 160.501 70.4879 164.721 67.9317L163.944 66.6487L163.167 65.3658C158.533 68.1727 154.635 72.0707 151.828 76.7041L153.111 77.4813ZM172.839 62.961L173.197 64.4177C175.536 63.8432 177.981 63.5381 180.5 63.5381V62.0381V60.5381C177.738 60.5381 175.052 60.8727 172.481 61.5043L172.839 62.961ZM180.5 62.0381V63.5381H184.081V62.0381V60.5381H180.5V62.0381ZM188.558 62.0381V63.5381H192.139V62.0381V60.5381H188.558V62.0381Z" fill="#393939"/>
<path d="M37.5622 65.8379C37.5622 65.0095 36.8906 64.3379 36.0622 64.3379C35.2338 64.3379 34.5622 65.0095 34.5622 65.8379H36.0622H37.5622ZM35.0015 97.6051C35.5873 98.1909 36.5371 98.1909 37.1229 97.6051L46.6688 88.0592C47.2546 87.4734 47.2546 86.5236 46.6688 85.9379C46.083 85.3521 45.1333 85.3521 44.5475 85.9379L36.0622 94.4231L27.5769 85.9379C26.9911 85.3521 26.0414 85.3521 25.4556 85.9379C24.8698 86.5236 24.8698 87.4734 25.4556 88.0592L35.0015 97.6051ZM36.0622 65.8379H34.5622V96.5445H36.0622H37.5622V65.8379H36.0622Z" fill="#393939"/>
<path d="M262.439 98.5371C262.439 97.7087 261.767 97.0371 260.939 97.0371C260.11 97.0371 259.439 97.7087 259.439 98.5371H260.939H262.439ZM259.878 130.305C260.464 130.89 261.414 130.89 261.999 130.305L271.545 120.759C272.131 120.173 272.131 119.223 271.545 118.637C270.96 118.051 270.01 118.051 269.424 118.637L260.939 127.123L252.453 118.637C251.868 118.051 250.918 118.051 250.332 118.637C249.746 119.223 249.746 120.173 250.332 120.759L259.878 130.305ZM260.939 98.5371H259.439V129.244H260.939H262.439V98.5371H260.939Z" fill="#393939"/>
<rect x="117.397" y="90.0244" width="61.4104" height="19.5397" rx="9.76983" fill="#B2E8EC"/>
<rect x="349.262" y="29.5381" width="129.6" height="32.3003" rx="16.1501" fill="#B2E8EC"/>
<path d="M390.152 41.3341H396.249V42.7641H391.79V45.1041H396.015V46.4821H391.79V49.0821H396.483V50.5381H390.152V41.3341ZM398.087 41.3341H400.258L404.535 48.2241H404.561V41.3341H406.199V50.5381H404.119L399.751 43.4271H399.725V50.5381H398.087V41.3341ZM411.116 41.3341H412.533L416.498 50.5381H414.626L413.768 48.4321H409.777L408.945 50.5381H407.112L411.116 41.3341ZM413.196 47.0281L411.779 43.2841L410.336 47.0281H413.196ZM417.409 41.3341H420.997C421.344 41.3341 421.686 41.3774 422.024 41.4641C422.362 41.5421 422.661 41.6764 422.921 41.8671C423.19 42.0491 423.406 42.2874 423.571 42.5821C423.736 42.8768 423.818 43.2321 423.818 43.6481C423.818 44.1681 423.671 44.5971 423.376 44.9351C423.081 45.2731 422.696 45.5158 422.219 45.6631V45.6891C422.8 45.7671 423.276 45.9924 423.649 46.3651C424.022 46.7378 424.208 47.2361 424.208 47.8601C424.208 48.3628 424.108 48.7874 423.909 49.1341C423.71 49.4721 423.445 49.7451 423.116 49.9531C422.795 50.1611 422.423 50.3128 421.998 50.4081C421.582 50.4948 421.157 50.5381 420.724 50.5381H417.409V41.3341ZM419.047 45.0781H420.503C421.049 45.0781 421.465 44.9698 421.751 44.7531C422.037 44.5364 422.18 44.2288 422.18 43.8301C422.18 43.4141 422.033 43.1194 421.738 42.9461C421.443 42.7728 420.984 42.6861 420.36 42.6861H419.047V45.0781ZM419.047 49.1601H420.516C420.724 49.1601 420.949 49.1471 421.192 49.1211C421.435 49.0864 421.656 49.0214 421.855 48.9261C422.063 48.8308 422.232 48.6921 422.362 48.5101C422.501 48.3281 422.57 48.0854 422.57 47.7821C422.57 47.2968 422.405 46.9588 422.076 46.7681C421.747 46.5774 421.248 46.4821 420.581 46.4821H419.047V49.1601ZM425.826 41.3341H427.464V49.0821H431.377V50.5381H425.826V41.3341ZM432.466 41.3341H438.563V42.7641H434.104V45.1041H438.329V46.4821H434.104V49.0821H438.797V50.5381H432.466V41.3341Z" fill="#B2E8EC"/>
<rect x="574.139" y="133.244" width="129.6" height="32.3003" rx="16.1501" fill="#B2E8EC"/>
<path d="M612.773 145.04H614.19L618.155 154.244H616.283L615.425 152.138H611.434L610.602 154.244H608.769L612.773 145.04ZM614.853 150.734L613.436 146.99L611.993 150.734H614.853ZM619.066 145.04H622.069C622.598 145.04 623.074 145.088 623.499 145.183C623.924 145.278 624.288 145.434 624.591 145.651C624.894 145.868 625.128 146.145 625.293 146.483C625.458 146.821 625.54 147.228 625.54 147.705C625.54 148.216 625.445 148.645 625.254 148.992C625.063 149.339 624.803 149.62 624.474 149.837C624.153 150.045 623.776 150.197 623.343 150.292C622.91 150.387 622.45 150.435 621.965 150.435H620.704V154.244H619.066V145.04ZM621.848 149.057C622.117 149.057 622.372 149.04 622.615 149.005C622.858 148.962 623.074 148.892 623.265 148.797C623.456 148.693 623.607 148.554 623.72 148.381C623.833 148.208 623.889 147.982 623.889 147.705C623.889 147.436 623.833 147.22 623.72 147.055C623.607 146.882 623.456 146.747 623.265 146.652C623.083 146.557 622.871 146.496 622.628 146.47C622.394 146.435 622.151 146.418 621.9 146.418H620.704V149.057H621.848ZM627 145.04H630.003C630.532 145.04 631.009 145.088 631.433 145.183C631.858 145.278 632.222 145.434 632.525 145.651C632.829 145.868 633.063 146.145 633.227 146.483C633.392 146.821 633.474 147.228 633.474 147.705C633.474 148.216 633.379 148.645 633.188 148.992C632.998 149.339 632.738 149.62 632.408 149.837C632.088 150.045 631.711 150.197 631.277 150.292C630.844 150.387 630.385 150.435 629.899 150.435H628.638V154.244H627V145.04ZM629.782 149.057C630.051 149.057 630.307 149.04 630.549 149.005C630.792 148.962 631.009 148.892 631.199 148.797C631.39 148.693 631.542 148.554 631.654 148.381C631.767 148.208 631.823 147.982 631.823 147.705C631.823 147.436 631.767 147.22 631.654 147.055C631.542 146.882 631.39 146.747 631.199 146.652C631.017 146.557 630.805 146.496 630.562 146.47C630.328 146.435 630.086 146.418 629.834 146.418H628.638V149.057H629.782ZM634.935 145.04H638.133C638.566 145.04 638.987 145.088 639.394 145.183C639.801 145.27 640.161 145.417 640.473 145.625C640.794 145.833 641.049 146.106 641.24 146.444C641.431 146.782 641.526 147.194 641.526 147.679C641.526 148.346 641.335 148.892 640.954 149.317C640.581 149.733 640.07 150.015 639.42 150.162L641.877 154.244H639.901L637.769 150.344H636.573V154.244H634.935V145.04ZM637.912 149.005C638.146 149.005 638.38 148.988 638.614 148.953C638.848 148.918 639.056 148.853 639.238 148.758C639.429 148.663 639.585 148.528 639.706 148.355C639.827 148.173 639.888 147.943 639.888 147.666C639.888 147.415 639.832 147.211 639.719 147.055C639.606 146.89 639.463 146.76 639.29 146.665C639.117 146.57 638.917 146.505 638.692 146.47C638.475 146.435 638.263 146.418 638.055 146.418H636.573V149.005H637.912ZM642.669 149.616C642.669 148.879 642.79 148.216 643.033 147.627C643.284 147.029 643.626 146.522 644.06 146.106C644.502 145.69 645.022 145.369 645.62 145.144C646.226 144.919 646.885 144.806 647.596 144.806C648.315 144.806 648.978 144.919 649.585 145.144C650.191 145.369 650.716 145.69 651.158 146.106C651.6 146.522 651.942 147.029 652.185 147.627C652.436 148.216 652.562 148.879 652.562 149.616C652.562 150.335 652.436 150.994 652.185 151.592C651.942 152.181 651.6 152.693 651.158 153.126C650.716 153.551 650.191 153.884 649.585 154.127C648.978 154.361 648.315 154.478 647.596 154.478C646.885 154.478 646.226 154.361 645.62 154.127C645.022 153.884 644.502 153.551 644.06 153.126C643.626 152.693 643.284 152.181 643.033 151.592C642.79 150.994 642.669 150.335 642.669 149.616ZM644.45 149.616C644.45 150.11 644.523 150.565 644.671 150.981C644.827 151.388 645.043 151.744 645.321 152.047C645.607 152.35 645.94 152.589 646.322 152.762C646.712 152.927 647.141 153.009 647.609 153.009C648.077 153.009 648.506 152.927 648.896 152.762C649.286 152.589 649.619 152.35 649.897 152.047C650.183 151.744 650.399 151.388 650.547 150.981C650.703 150.565 650.781 150.11 650.781 149.616C650.781 149.139 650.703 148.697 650.547 148.29C650.399 147.883 650.187 147.527 649.91 147.224C649.632 146.921 649.299 146.682 648.909 146.509C648.519 146.336 648.085 146.249 647.609 146.249C647.132 146.249 646.699 146.336 646.309 146.509C645.927 146.682 645.598 146.921 645.321 147.224C645.043 147.527 644.827 147.883 644.671 148.29C644.523 148.697 644.45 149.139 644.45 149.616ZM652.847 145.04H654.68L657.215 152.125H657.267L659.828 145.04H661.596L657.904 154.244H656.487L652.847 145.04ZM662.484 145.04H668.581V146.47H664.122V148.81H668.347V150.188H664.122V152.788H668.815V154.244H662.484V145.04Z" fill="#B2E8EC"/>
<rect x="349.262" y="100.545" width="129.6" height="64.9993" rx="32.4996" fill="#B2E8EC"/>
<path d="M387.907 120.149H390.859C391.259 120.149 391.647 120.193 392.023 120.281C392.399 120.361 392.731 120.497 393.019 120.689C393.315 120.881 393.551 121.133 393.727 121.445C393.903 121.757 393.991 122.137 393.991 122.585C393.991 123.201 393.815 123.705 393.463 124.097C393.119 124.481 392.647 124.741 392.047 124.877L394.315 128.645H392.491L390.523 125.045H389.419V128.645H387.907V120.149ZM390.655 123.809C390.871 123.809 391.087 123.793 391.303 123.761C391.519 123.729 391.711 123.669 391.879 123.581C392.055 123.493 392.199 123.369 392.311 123.209C392.423 123.041 392.479 122.829 392.479 122.573C392.479 122.341 392.427 122.153 392.323 122.009C392.219 121.857 392.087 121.737 391.927 121.649C391.767 121.561 391.583 121.501 391.375 121.469C391.175 121.437 390.979 121.421 390.787 121.421H389.419V123.809H390.655ZM395.453 120.149H401.081V121.469H396.965V123.629H400.865V124.901H396.965V127.301H401.297V128.645H395.453V120.149ZM411.934 128.645H406.81C406.13 128.645 405.51 128.549 404.95 128.357C404.398 128.157 403.922 127.873 403.522 127.505C403.13 127.129 402.826 126.673 402.61 126.137C402.394 125.593 402.286 124.977 402.286 124.289C402.286 123.641 402.398 123.053 402.622 122.525C402.854 121.989 403.174 121.529 403.582 121.145C403.99 120.761 404.47 120.465 405.022 120.257C405.582 120.041 406.186 119.933 406.834 119.933C407.482 119.933 408.082 120.041 408.634 120.257C409.186 120.465 409.662 120.761 410.062 121.145C410.47 121.529 410.786 121.989 411.01 122.525C411.234 123.053 411.346 123.641 411.346 124.289C411.346 124.673 411.302 125.025 411.214 125.345C411.126 125.665 411.01 125.957 410.866 126.221C410.73 126.477 410.57 126.705 410.386 126.905C410.21 127.097 410.026 127.261 409.834 127.397V127.421H411.934V128.645ZM406.834 121.289C406.426 121.289 406.042 121.365 405.682 121.517C405.33 121.669 405.026 121.877 404.77 122.141C404.514 122.405 404.31 122.721 404.158 123.089C404.014 123.457 403.942 123.857 403.942 124.289C403.942 124.745 404.01 125.161 404.146 125.537C404.29 125.905 404.486 126.221 404.734 126.485C404.99 126.749 405.294 126.957 405.646 127.109C405.998 127.253 406.386 127.325 406.81 127.325C407.226 127.325 407.61 127.253 407.962 127.109C408.322 126.957 408.63 126.749 408.886 126.485C409.142 126.221 409.342 125.905 409.486 125.537C409.63 125.161 409.702 124.745 409.702 124.289C409.702 123.857 409.634 123.457 409.498 123.089C409.362 122.721 409.166 122.405 408.91 122.141C408.662 121.877 408.362 121.669 408.01 121.517C407.658 121.365 407.266 121.289 406.834 121.289ZM419.764 125.525C419.764 126.037 419.676 126.501 419.5 126.917C419.324 127.325 419.084 127.673 418.78 127.961C418.476 128.249 418.116 128.473 417.7 128.633C417.284 128.785 416.832 128.861 416.344 128.861C415.856 128.861 415.404 128.785 414.988 128.633C414.572 128.473 414.208 128.249 413.896 127.961C413.592 127.673 413.352 127.325 413.176 126.917C413.008 126.501 412.924 126.037 412.924 125.525V120.149H414.436V125.465C414.436 125.713 414.468 125.961 414.532 126.209C414.596 126.449 414.7 126.665 414.844 126.857C414.996 127.049 415.192 127.205 415.432 127.325C415.68 127.445 415.984 127.505 416.344 127.505C416.704 127.505 417.004 127.445 417.244 127.325C417.492 127.205 417.688 127.049 417.832 126.857C417.984 126.665 418.092 126.449 418.156 126.209C418.22 125.961 418.252 125.713 418.252 125.465V120.149H419.764V125.525ZM421.563 120.149H427.191V121.469H423.075V123.629H426.975V124.901H423.075V127.301H427.407V128.645H421.563V120.149ZM433.219 121.925C433.059 121.717 432.831 121.545 432.535 121.409C432.247 121.265 431.955 121.193 431.659 121.193C431.483 121.193 431.307 121.217 431.131 121.265C430.955 121.305 430.795 121.373 430.651 121.469C430.507 121.557 430.387 121.677 430.291 121.829C430.203 121.973 430.159 122.149 430.159 122.357C430.159 122.549 430.199 122.713 430.279 122.849C430.359 122.985 430.467 123.101 430.603 123.197C430.747 123.293 430.919 123.377 431.119 123.449C431.319 123.521 431.539 123.593 431.779 123.665C432.051 123.753 432.331 123.853 432.619 123.965C432.915 124.077 433.183 124.225 433.423 124.409C433.671 124.593 433.871 124.825 434.023 125.105C434.183 125.385 434.263 125.733 434.263 126.149C434.263 126.605 434.179 127.005 434.011 127.349C433.843 127.685 433.619 127.965 433.339 128.189C433.059 128.413 432.731 128.581 432.355 128.693C431.979 128.805 431.583 128.861 431.167 128.861C430.615 128.861 430.075 128.761 429.547 128.561C429.019 128.353 428.587 128.049 428.251 127.649L429.331 126.641C429.539 126.929 429.815 127.157 430.159 127.325C430.511 127.493 430.855 127.577 431.191 127.577C431.367 127.577 431.547 127.557 431.731 127.517C431.915 127.469 432.079 127.393 432.223 127.289C432.375 127.185 432.495 127.057 432.583 126.905C432.679 126.745 432.727 126.549 432.727 126.317C432.727 126.093 432.675 125.909 432.571 125.765C432.467 125.613 432.327 125.485 432.151 125.381C431.975 125.269 431.767 125.173 431.527 125.093C431.287 125.013 431.035 124.929 430.771 124.841C430.515 124.761 430.259 124.665 430.003 124.553C429.747 124.441 429.515 124.293 429.307 124.109C429.107 123.925 428.943 123.701 428.815 123.437C428.687 123.165 428.623 122.829 428.623 122.429C428.623 121.997 428.711 121.625 428.887 121.313C429.071 121.001 429.307 120.745 429.595 120.545C429.891 120.337 430.223 120.185 430.591 120.089C430.967 119.985 431.347 119.933 431.731 119.933C432.163 119.933 432.599 120.009 433.039 120.161C433.487 120.313 433.875 120.541 434.203 120.845L433.219 121.925ZM437.306 121.469H434.702V120.149H441.422V121.469H438.818V128.645H437.306V121.469Z" fill="#B2E8EC"/>
<path opacity="0.6" d="M393.386 143.877H397.934V144.645H392.522V136.149H397.79V136.917H393.386V139.845H397.502V140.601H393.386V143.877ZM400.308 139.029C400.324 139.181 400.336 139.349 400.344 139.533C400.352 139.717 400.356 139.869 400.356 139.989H400.38C400.54 139.661 400.8 139.397 401.16 139.197C401.52 138.989 401.9 138.885 402.3 138.885C403.012 138.885 403.544 139.097 403.896 139.521C404.256 139.945 404.436 140.505 404.436 141.201V144.645H403.62V141.537C403.62 141.241 403.596 140.973 403.548 140.733C403.5 140.493 403.416 140.289 403.296 140.121C403.184 139.945 403.028 139.809 402.828 139.713C402.636 139.617 402.392 139.569 402.096 139.569C401.88 139.569 401.668 139.613 401.46 139.701C401.26 139.789 401.08 139.925 400.92 140.109C400.76 140.285 400.632 140.513 400.536 140.793C400.44 141.065 400.392 141.389 400.392 141.765V144.645H399.576V140.265C399.576 140.113 399.572 139.917 399.564 139.677C399.556 139.437 399.544 139.221 399.528 139.029H400.308ZM410.089 141.021C410.089 140.533 409.961 140.169 409.705 139.929C409.449 139.689 409.077 139.569 408.589 139.569C408.253 139.569 407.941 139.629 407.653 139.749C407.365 139.869 407.121 140.029 406.921 140.229L406.465 139.689C406.697 139.457 407.001 139.265 407.377 139.113C407.761 138.961 408.193 138.885 408.673 138.885C408.977 138.885 409.261 138.929 409.525 139.017C409.789 139.097 410.021 139.221 410.221 139.389C410.421 139.557 410.577 139.769 410.689 140.025C410.801 140.281 410.857 140.581 410.857 140.925V143.385C410.857 143.601 410.865 143.825 410.881 144.057C410.897 144.289 410.921 144.485 410.953 144.645H410.221C410.197 144.509 410.177 144.361 410.161 144.201C410.145 144.041 410.137 143.885 410.137 143.733H410.113C409.857 144.109 409.565 144.381 409.237 144.549C408.917 144.709 408.529 144.789 408.073 144.789C407.857 144.789 407.633 144.757 407.401 144.693C407.177 144.637 406.969 144.541 406.777 144.405C406.593 144.269 406.437 144.093 406.309 143.877C406.189 143.661 406.129 143.397 406.129 143.085C406.129 142.653 406.237 142.313 406.453 142.065C406.677 141.809 406.973 141.621 407.341 141.501C407.709 141.373 408.129 141.293 408.601 141.261C409.081 141.221 409.577 141.201 410.089 141.201V141.021ZM409.849 141.837C409.513 141.837 409.173 141.853 408.829 141.885C408.493 141.909 408.185 141.965 407.905 142.053C407.633 142.133 407.409 142.253 407.233 142.413C407.057 142.573 406.969 142.785 406.969 143.049C406.969 143.249 407.005 143.417 407.077 143.553C407.157 143.689 407.261 143.801 407.389 143.889C407.517 143.969 407.657 144.029 407.809 144.069C407.969 144.101 408.129 144.117 408.289 144.117C408.577 144.117 408.833 144.069 409.057 143.973C409.281 143.869 409.469 143.733 409.621 143.565C409.773 143.389 409.889 143.189 409.969 142.965C410.049 142.741 410.089 142.505 410.089 142.257V141.837H409.849ZM413.799 143.697V144.645H412.983V135.573H413.799V140.001H413.823C414.063 139.633 414.375 139.357 414.759 139.173C415.143 138.981 415.539 138.885 415.947 138.885C416.387 138.885 416.783 138.961 417.135 139.113C417.495 139.265 417.799 139.473 418.047 139.737C418.303 140.001 418.499 140.313 418.635 140.673C418.779 141.033 418.851 141.421 418.851 141.837C418.851 142.253 418.779 142.641 418.635 143.001C418.499 143.361 418.303 143.673 418.047 143.937C417.799 144.201 417.495 144.409 417.135 144.561C416.783 144.713 416.387 144.789 415.947 144.789C415.539 144.789 415.143 144.697 414.759 144.513C414.375 144.329 414.063 144.057 413.823 143.697H413.799ZM417.987 141.837C417.987 141.525 417.939 141.233 417.843 140.961C417.747 140.681 417.607 140.441 417.423 140.241C417.247 140.033 417.027 139.869 416.763 139.749C416.499 139.629 416.199 139.569 415.863 139.569C415.551 139.569 415.263 139.629 414.999 139.749C414.735 139.861 414.507 140.021 414.315 140.229C414.123 140.429 413.971 140.669 413.859 140.949C413.755 141.221 413.703 141.517 413.703 141.837C413.703 142.157 413.755 142.457 413.859 142.737C413.971 143.009 414.123 143.245 414.315 143.445C414.507 143.645 414.735 143.805 414.999 143.925C415.263 144.037 415.551 144.093 415.863 144.093C416.199 144.093 416.499 144.037 416.763 143.925C417.027 143.805 417.247 143.645 417.423 143.445C417.607 143.237 417.747 142.997 417.843 142.725C417.939 142.445 417.987 142.149 417.987 141.837ZM421.439 144.645H420.623V135.573H421.439V144.645ZM427.907 141.405C427.883 140.877 427.711 140.441 427.391 140.097C427.079 139.745 426.631 139.569 426.047 139.569C425.775 139.569 425.523 139.621 425.291 139.725C425.059 139.821 424.855 139.957 424.679 140.133C424.503 140.301 424.363 140.497 424.259 140.721C424.155 140.937 424.095 141.165 424.079 141.405H427.907ZM428.735 141.669C428.735 141.725 428.735 141.785 428.735 141.849C428.735 141.913 428.731 141.981 428.723 142.053H424.067C424.075 142.333 424.131 142.597 424.235 142.845C424.339 143.093 424.483 143.309 424.667 143.493C424.851 143.677 425.067 143.825 425.315 143.937C425.563 144.041 425.831 144.093 426.119 144.093C426.543 144.093 426.907 143.997 427.211 143.805C427.523 143.605 427.759 143.377 427.919 143.121L428.531 143.601C428.195 144.025 427.823 144.329 427.415 144.513C427.015 144.697 426.583 144.789 426.119 144.789C425.703 144.789 425.315 144.717 424.955 144.573C424.603 144.421 424.299 144.213 424.043 143.949C423.787 143.685 423.583 143.373 423.431 143.013C423.287 142.653 423.215 142.261 423.215 141.837C423.215 141.413 423.287 141.021 423.431 140.661C423.575 140.301 423.775 139.989 424.031 139.725C424.287 139.461 424.587 139.257 424.931 139.113C425.275 138.961 425.647 138.885 426.047 138.885C426.487 138.885 426.875 138.961 427.211 139.113C427.547 139.257 427.827 139.457 428.051 139.713C428.275 139.961 428.443 140.253 428.555 140.589C428.675 140.925 428.735 141.285 428.735 141.669ZM435.11 143.697C434.87 144.057 434.558 144.329 434.174 144.513C433.79 144.697 433.394 144.789 432.986 144.789C432.546 144.789 432.146 144.713 431.786 144.561C431.434 144.409 431.13 144.201 430.874 143.937C430.626 143.673 430.43 143.361 430.286 143.001C430.15 142.641 430.082 142.253 430.082 141.837C430.082 141.421 430.15 141.033 430.286 140.673C430.43 140.313 430.626 140.001 430.874 139.737C431.13 139.473 431.434 139.265 431.786 139.113C432.146 138.961 432.546 138.885 432.986 138.885C433.394 138.885 433.79 138.981 434.174 139.173C434.558 139.357 434.87 139.633 435.11 140.001H435.134V135.573H435.95V144.645H435.134V143.697H435.11ZM430.946 141.837C430.946 142.149 430.994 142.445 431.09 142.725C431.186 142.997 431.322 143.237 431.498 143.445C431.682 143.645 431.906 143.805 432.17 143.925C432.434 144.037 432.734 144.093 433.07 144.093C433.382 144.093 433.67 144.037 433.934 143.925C434.198 143.805 434.426 143.645 434.618 143.445C434.81 143.245 434.958 143.009 435.062 142.737C435.174 142.457 435.23 142.157 435.23 141.837C435.23 141.517 435.174 141.221 435.062 140.949C434.958 140.669 434.81 140.429 434.618 140.229C434.426 140.021 434.198 139.861 433.934 139.749C433.67 139.629 433.382 139.569 433.07 139.569C432.734 139.569 432.434 139.629 432.17 139.749C431.906 139.869 431.682 140.033 431.498 140.241C431.322 140.441 431.186 140.681 431.09 140.961C430.994 141.233 430.946 141.525 430.946 141.837Z" fill="#B2E8EC"/>
<rect x="574.139" y="29.5381" width="129.6" height="64.9993" rx="32.4996" fill="#B2E8EC"/>
<path d="M612.783 49.1417H615.735C616.135 49.1417 616.523 49.1857 616.899 49.2737C617.275 49.3537 617.607 49.4897 617.895 49.6817C618.191 49.8737 618.427 50.1257 618.603 50.4377C618.779 50.7497 618.867 51.1297 618.867 51.5777C618.867 52.1937 618.691 52.6977 618.339 53.0897C617.995 53.4737 617.523 53.7337 616.923 53.8697L619.191 57.6377H617.367L615.399 54.0377H614.295V57.6377H612.783V49.1417ZM615.531 52.8017C615.747 52.8017 615.963 52.7857 616.179 52.7537C616.395 52.7217 616.587 52.6617 616.755 52.5737C616.931 52.4857 617.075 52.3617 617.187 52.2017C617.299 52.0337 617.355 51.8217 617.355 51.5657C617.355 51.3337 617.303 51.1457 617.199 51.0017C617.095 50.8497 616.963 50.7297 616.803 50.6417C616.643 50.5537 616.459 50.4937 616.251 50.4617C616.051 50.4297 615.855 50.4137 615.663 50.4137H614.295V52.8017H615.531ZM620.33 49.1417H625.958V50.4617H621.842V52.6217H625.742V53.8937H621.842V56.2937H626.174V57.6377H620.33V49.1417ZM636.81 57.6377H631.686C631.006 57.6377 630.386 57.5417 629.826 57.3497C629.274 57.1497 628.798 56.8657 628.398 56.4977C628.006 56.1217 627.702 55.6657 627.486 55.1297C627.27 54.5857 627.162 53.9697 627.162 53.2817C627.162 52.6337 627.274 52.0457 627.498 51.5177C627.73 50.9817 628.05 50.5217 628.458 50.1377C628.866 49.7537 629.346 49.4577 629.898 49.2497C630.458 49.0337 631.062 48.9257 631.71 48.9257C632.358 48.9257 632.958 49.0337 633.51 49.2497C634.062 49.4577 634.538 49.7537 634.938 50.1377C635.346 50.5217 635.662 50.9817 635.886 51.5177C636.11 52.0457 636.222 52.6337 636.222 53.2817C636.222 53.6657 636.178 54.0177 636.09 54.3377C636.002 54.6577 635.886 54.9497 635.742 55.2137C635.606 55.4697 635.446 55.6977 635.262 55.8977C635.086 56.0897 634.902 56.2537 634.71 56.3897V56.4137H636.81V57.6377ZM631.71 50.2817C631.302 50.2817 630.918 50.3577 630.558 50.5097C630.206 50.6617 629.902 50.8697 629.646 51.1337C629.39 51.3977 629.186 51.7137 629.034 52.0817C628.89 52.4497 628.818 52.8497 628.818 53.2817C628.818 53.7377 628.886 54.1537 629.022 54.5297C629.166 54.8977 629.362 55.2137 629.61 55.4777C629.866 55.7417 630.17 55.9497 630.522 56.1017C630.874 56.2457 631.262 56.3177 631.686 56.3177C632.102 56.3177 632.486 56.2457 632.838 56.1017C633.198 55.9497 633.506 55.7417 633.762 55.4777C634.018 55.2137 634.218 54.8977 634.362 54.5297C634.506 54.1537 634.578 53.7377 634.578 53.2817C634.578 52.8497 634.51 52.4497 634.374 52.0817C634.238 51.7137 634.042 51.3977 633.786 51.1337C633.538 50.8697 633.238 50.6617 632.886 50.5097C632.534 50.3577 632.142 50.2817 631.71 50.2817ZM644.641 54.5177C644.641 55.0297 644.553 55.4937 644.377 55.9097C644.201 56.3177 643.961 56.6657 643.657 56.9537C643.353 57.2417 642.993 57.4657 642.577 57.6257C642.161 57.7777 641.709 57.8537 641.221 57.8537C640.733 57.8537 640.281 57.7777 639.865 57.6257C639.449 57.4657 639.085 57.2417 638.773 56.9537C638.469 56.6657 638.229 56.3177 638.053 55.9097C637.885 55.4937 637.801 55.0297 637.801 54.5177V49.1417H639.313V54.4577C639.313 54.7057 639.345 54.9537 639.409 55.2017C639.473 55.4417 639.577 55.6577 639.721 55.8497C639.873 56.0417 640.069 56.1977 640.309 56.3177C640.557 56.4377 640.861 56.4977 641.221 56.4977C641.581 56.4977 641.881 56.4377 642.121 56.3177C642.369 56.1977 642.565 56.0417 642.709 55.8497C642.861 55.6577 642.969 55.4417 643.033 55.2017C643.097 54.9537 643.129 54.7057 643.129 54.4577V49.1417H644.641V54.5177ZM646.439 49.1417H652.067V50.4617H647.951V52.6217H651.851V53.8937H647.951V56.2937H652.283V57.6377H646.439V49.1417ZM658.096 50.9177C657.936 50.7097 657.708 50.5377 657.412 50.4017C657.124 50.2577 656.832 50.1857 656.536 50.1857C656.36 50.1857 656.184 50.2097 656.008 50.2577C655.832 50.2977 655.672 50.3657 655.528 50.4617C655.384 50.5497 655.264 50.6697 655.168 50.8217C655.08 50.9657 655.036 51.1417 655.036 51.3497C655.036 51.5417 655.076 51.7057 655.156 51.8417C655.236 51.9777 655.344 52.0937 655.48 52.1897C655.624 52.2857 655.796 52.3697 655.996 52.4417C656.196 52.5137 656.416 52.5857 656.656 52.6577C656.928 52.7457 657.208 52.8457 657.496 52.9577C657.792 53.0697 658.06 53.2177 658.3 53.4017C658.548 53.5857 658.748 53.8177 658.9 54.0977C659.06 54.3777 659.14 54.7257 659.14 55.1417C659.14 55.5977 659.056 55.9977 658.888 56.3417C658.72 56.6777 658.496 56.9577 658.216 57.1817C657.936 57.4057 657.608 57.5737 657.232 57.6857C656.856 57.7977 656.46 57.8537 656.044 57.8537C655.492 57.8537 654.952 57.7537 654.424 57.5537C653.896 57.3457 653.464 57.0417 653.128 56.6417L654.208 55.6337C654.416 55.9217 654.692 56.1497 655.036 56.3177C655.388 56.4857 655.732 56.5697 656.068 56.5697C656.244 56.5697 656.424 56.5497 656.608 56.5097C656.792 56.4617 656.956 56.3857 657.1 56.2817C657.252 56.1777 657.372 56.0497 657.46 55.8977C657.556 55.7377 657.604 55.5417 657.604 55.3097C657.604 55.0857 657.552 54.9017 657.448 54.7577C657.344 54.6057 657.204 54.4777 657.028 54.3737C656.852 54.2617 656.644 54.1657 656.404 54.0857C656.164 54.0057 655.912 53.9217 655.648 53.8337C655.392 53.7537 655.136 53.6577 654.88 53.5457C654.624 53.4337 654.392 53.2857 654.184 53.1017C653.984 52.9177 653.82 52.6937 653.692 52.4297C653.564 52.1577 653.5 51.8217 653.5 51.4217C653.5 50.9897 653.588 50.6177 653.764 50.3057C653.948 49.9937 654.184 49.7377 654.472 49.5377C654.768 49.3297 655.1 49.1777 655.468 49.0817C655.844 48.9777 656.224 48.9257 656.608 48.9257C657.04 48.9257 657.476 49.0017 657.916 49.1537C658.364 49.3057 658.752 49.5337 659.08 49.8377L658.096 50.9177ZM662.183 50.4617H659.579V49.1417H666.299V50.4617H663.695V57.6377H662.183V50.4617Z" fill="#B2E8EC"/>
<path opacity="0.6" d="M618.263 72.8697H622.811V73.6377H617.399V65.1417H622.667V65.9097H618.263V68.8377H622.379V69.5937H618.263V72.8697ZM625.184 68.0217C625.2 68.1737 625.212 68.3417 625.22 68.5257C625.228 68.7097 625.232 68.8617 625.232 68.9817H625.256C625.416 68.6537 625.676 68.3897 626.036 68.1897C626.396 67.9817 626.776 67.8777 627.176 67.8777C627.888 67.8777 628.42 68.0897 628.772 68.5137C629.132 68.9377 629.312 69.4977 629.312 70.1937V73.6377H628.496V70.5297C628.496 70.2337 628.472 69.9657 628.424 69.7257C628.376 69.4857 628.292 69.2817 628.172 69.1137C628.06 68.9377 627.904 68.8017 627.704 68.7057C627.512 68.6097 627.268 68.5617 626.972 68.5617C626.756 68.5617 626.544 68.6057 626.336 68.6937C626.136 68.7817 625.956 68.9177 625.796 69.1017C625.636 69.2777 625.508 69.5057 625.412 69.7857C625.316 70.0577 625.268 70.3817 625.268 70.7577V73.6377H624.452V69.2577C624.452 69.1057 624.448 68.9097 624.44 68.6697C624.432 68.4297 624.42 68.2137 624.404 68.0217H625.184ZM634.965 70.0137C634.965 69.5257 634.837 69.1617 634.581 68.9217C634.325 68.6817 633.953 68.5617 633.465 68.5617C633.129 68.5617 632.817 68.6217 632.529 68.7417C632.241 68.8617 631.997 69.0217 631.797 69.2217L631.341 68.6817C631.573 68.4497 631.877 68.2577 632.253 68.1057C632.637 67.9537 633.069 67.8777 633.549 67.8777C633.853 67.8777 634.137 67.9217 634.401 68.0097C634.665 68.0897 634.897 68.2137 635.097 68.3817C635.297 68.5497 635.453 68.7617 635.565 69.0177C635.677 69.2737 635.733 69.5737 635.733 69.9177V72.3777C635.733 72.5937 635.741 72.8177 635.757 73.0497C635.773 73.2817 635.797 73.4777 635.829 73.6377H635.097C635.073 73.5017 635.053 73.3537 635.037 73.1937C635.021 73.0337 635.013 72.8777 635.013 72.7257H634.989C634.733 73.1017 634.441 73.3737 634.113 73.5417C633.793 73.7017 633.405 73.7817 632.949 73.7817C632.733 73.7817 632.509 73.7497 632.277 73.6857C632.053 73.6297 631.845 73.5337 631.653 73.3977C631.469 73.2617 631.313 73.0857 631.185 72.8697C631.065 72.6537 631.005 72.3897 631.005 72.0777C631.005 71.6457 631.113 71.3057 631.329 71.0577C631.553 70.8017 631.849 70.6137 632.217 70.4937C632.585 70.3657 633.005 70.2857 633.477 70.2537C633.957 70.2137 634.453 70.1937 634.965 70.1937V70.0137ZM634.725 70.8297C634.389 70.8297 634.049 70.8457 633.705 70.8777C633.369 70.9017 633.061 70.9577 632.781 71.0457C632.509 71.1257 632.285 71.2457 632.109 71.4057C631.933 71.5657 631.845 71.7777 631.845 72.0417C631.845 72.2417 631.881 72.4097 631.953 72.5457C632.033 72.6817 632.137 72.7937 632.265 72.8817C632.393 72.9617 632.533 73.0217 632.685 73.0617C632.845 73.0937 633.005 73.1097 633.165 73.1097C633.453 73.1097 633.709 73.0617 633.933 72.9657C634.157 72.8617 634.345 72.7257 634.497 72.5577C634.649 72.3817 634.765 72.1817 634.845 71.9577C634.925 71.7337 634.965 71.4977 634.965 71.2497V70.8297H634.725ZM638.675 72.6897V73.6377H637.859V64.5657H638.675V68.9937H638.699C638.939 68.6257 639.251 68.3497 639.635 68.1657C640.019 67.9737 640.415 67.8777 640.823 67.8777C641.263 67.8777 641.659 67.9537 642.011 68.1057C642.371 68.2577 642.675 68.4657 642.923 68.7297C643.179 68.9937 643.375 69.3057 643.511 69.6657C643.655 70.0257 643.727 70.4137 643.727 70.8297C643.727 71.2457 643.655 71.6337 643.511 71.9937C643.375 72.3537 643.179 72.6657 642.923 72.9297C642.675 73.1937 642.371 73.4017 642.011 73.5537C641.659 73.7057 641.263 73.7817 640.823 73.7817C640.415 73.7817 640.019 73.6897 639.635 73.5057C639.251 73.3217 638.939 73.0497 638.699 72.6897H638.675ZM642.863 70.8297C642.863 70.5177 642.815 70.2257 642.719 69.9537C642.623 69.6737 642.483 69.4337 642.299 69.2337C642.123 69.0257 641.903 68.8617 641.639 68.7417C641.375 68.6217 641.075 68.5617 640.739 68.5617C640.427 68.5617 640.139 68.6217 639.875 68.7417C639.611 68.8537 639.383 69.0137 639.191 69.2217C638.999 69.4217 638.847 69.6617 638.735 69.9417C638.631 70.2137 638.579 70.5097 638.579 70.8297C638.579 71.1497 638.631 71.4497 638.735 71.7297C638.847 72.0017 638.999 72.2377 639.191 72.4377C639.383 72.6377 639.611 72.7977 639.875 72.9177C640.139 73.0297 640.427 73.0857 640.739 73.0857C641.075 73.0857 641.375 73.0297 641.639 72.9177C641.903 72.7977 642.123 72.6377 642.299 72.4377C642.483 72.2297 642.623 71.9897 642.719 71.7177C642.815 71.4377 642.863 71.1417 642.863 70.8297ZM646.316 73.6377H645.5V64.5657H646.316V73.6377ZM652.783 70.3977C652.759 69.8697 652.587 69.4337 652.267 69.0897C651.955 68.7377 651.507 68.5617 650.923 68.5617C650.651 68.5617 650.399 68.6137 650.167 68.7177C649.935 68.8137 649.731 68.9497 649.555 69.1257C649.379 69.2937 649.239 69.4897 649.135 69.7137C649.031 69.9297 648.971 70.1577 648.955 70.3977H652.783ZM653.611 70.6617C653.611 70.7177 653.611 70.7777 653.611 70.8417C653.611 70.9057 653.607 70.9737 653.599 71.0457H648.943C648.951 71.3257 649.007 71.5897 649.111 71.8377C649.215 72.0857 649.359 72.3017 649.543 72.4857C649.727 72.6697 649.943 72.8177 650.191 72.9297C650.439 73.0337 650.707 73.0857 650.995 73.0857C651.419 73.0857 651.783 72.9897 652.087 72.7977C652.399 72.5977 652.635 72.3697 652.795 72.1137L653.407 72.5937C653.071 73.0177 652.699 73.3217 652.291 73.5057C651.891 73.6897 651.459 73.7817 650.995 73.7817C650.579 73.7817 650.191 73.7097 649.831 73.5657C649.479 73.4137 649.175 73.2057 648.919 72.9417C648.663 72.6777 648.459 72.3657 648.307 72.0057C648.163 71.6457 648.091 71.2537 648.091 70.8297C648.091 70.4057 648.163 70.0137 648.307 69.6537C648.451 69.2937 648.651 68.9817 648.907 68.7177C649.163 68.4537 649.463 68.2497 649.807 68.1057C650.151 67.9537 650.523 67.8777 650.923 67.8777C651.363 67.8777 651.751 67.9537 652.087 68.1057C652.423 68.2497 652.703 68.4497 652.927 68.7057C653.151 68.9537 653.319 69.2457 653.431 69.5817C653.551 69.9177 653.611 70.2777 653.611 70.6617ZM659.986 72.6897C659.746 73.0497 659.434 73.3217 659.05 73.5057C658.666 73.6897 658.27 73.7817 657.862 73.7817C657.422 73.7817 657.022 73.7057 656.662 73.5537C656.31 73.4017 656.006 73.1937 655.75 72.9297C655.502 72.6657 655.306 72.3537 655.162 71.9937C655.026 71.6337 654.958 71.2457 654.958 70.8297C654.958 70.4137 655.026 70.0257 655.162 69.6657C655.306 69.3057 655.502 68.9937 655.75 68.7297C656.006 68.4657 656.31 68.2577 656.662 68.1057C657.022 67.9537 657.422 67.8777 657.862 67.8777C658.27 67.8777 658.666 67.9737 659.05 68.1657C659.434 68.3497 659.746 68.6257 659.986 68.9937H660.01V64.5657H660.826V73.6377H660.01V72.6897H659.986ZM655.822 70.8297C655.822 71.1417 655.87 71.4377 655.966 71.7177C656.062 71.9897 656.198 72.2297 656.374 72.4377C656.558 72.6377 656.782 72.7977 657.046 72.9177C657.31 73.0297 657.61 73.0857 657.946 73.0857C658.258 73.0857 658.546 73.0297 658.81 72.9177C659.074 72.7977 659.302 72.6377 659.494 72.4377C659.686 72.2377 659.834 72.0017 659.938 71.7297C660.05 71.4497 660.106 71.1497 660.106 70.8297C660.106 70.5097 660.05 70.2137 659.938 69.9417C659.834 69.6617 659.686 69.4217 659.494 69.2217C659.302 69.0137 659.074 68.8537 658.81 68.7417C658.546 68.6217 658.258 68.5617 657.946 68.5617C657.61 68.5617 657.31 68.6217 657.046 68.7417C656.782 68.8617 656.558 69.0257 656.374 69.2337C656.198 69.4337 656.062 69.6737 655.966 69.9537C655.87 70.2257 655.822 70.5177 655.822 70.8297Z" fill="#B2E8EC"/>
<path d="M482.862 131.545C482.034 131.545 481.362 132.216 481.362 133.045C481.362 133.873 482.034 134.545 482.862 134.545V133.045V131.545ZM571.199 63.0987C571.785 62.513 571.785 61.5632 571.199 60.9774L561.654 51.4315C561.068 50.8457 560.118 50.8457 559.532 51.4315C558.946 52.0173 558.946 52.967 559.532 53.5528L568.017 62.0381L559.532 70.5234C558.946 71.1092 558.946 72.0589 559.532 72.6447C560.118 73.2305 561.068 73.2305 561.654 72.6447L571.199 63.0987ZM482.862 133.045V134.545H486.443V133.045V131.545H482.862V133.045ZM490.919 133.045V134.545H494.5V133.045V131.545H490.919V133.045ZM494.5 133.045V134.545C497.263 134.545 499.949 134.21 502.519 133.579L502.162 132.122L501.804 130.665C499.465 131.24 497.02 131.545 494.5 131.545V133.045ZM511.057 128.434L511.834 129.717C516.468 126.91 520.366 123.012 523.173 118.379L521.89 117.602L520.607 116.824C518.051 121.044 514.5 124.595 510.28 127.151L511.057 128.434ZM525.578 108.706L527.034 109.064C527.666 106.493 528 103.807 528 101.045H526.5H525C525 103.564 524.695 106.01 524.121 108.348L525.578 108.706ZM526.5 101.045H528V98.889H526.5H525V101.045H526.5ZM526.5 96.194H528V94.0381H526.5H525V96.194H526.5ZM526.5 94.0381H528C528 91.519 528.306 89.0732 528.88 86.7349L527.423 86.377L525.967 86.0191C525.335 88.5899 525 91.2759 525 94.0381H526.5ZM531.111 77.4813L532.394 78.2585C534.95 74.0389 538.501 70.4879 542.721 67.9317L541.944 66.6487L541.167 65.3658C536.533 68.1727 532.635 72.0707 529.828 76.7041L531.111 77.4813ZM550.839 62.961L551.197 64.4177C553.536 63.8432 555.981 63.5381 558.5 63.5381V62.0381V60.5381C555.738 60.5381 553.052 60.8727 550.481 61.5043L550.839 62.961ZM558.5 62.0381V63.5381H562.081V62.0381V60.5381H558.5V62.0381ZM566.558 62.0381V63.5381H570.139V62.0381V60.5381H566.558V62.0381Z" fill="#393939"/>
<path d="M415.562 65.8379C415.562 65.0095 414.891 64.3379 414.062 64.3379C413.234 64.3379 412.562 65.0095 412.562 65.8379H414.062H415.562ZM413.002 97.6051C413.587 98.1909 414.537 98.1909 415.123 97.6051L424.669 88.0592C425.255 87.4734 425.255 86.5236 424.669 85.9379C424.083 85.3521 423.133 85.3521 422.547 85.9379L414.062 94.4231L405.577 85.9379C404.991 85.3521 404.041 85.3521 403.456 85.9379C402.87 86.5236 402.87 87.4734 403.456 88.0592L413.002 97.6051ZM414.062 65.8379H412.562V96.5445H414.062H415.562V65.8379H414.062Z" fill="#393939"/>
<path d="M640.439 98.5371C640.439 97.7087 639.767 97.0371 638.939 97.0371C638.11 97.0371 637.439 97.7087 637.439 98.5371H638.939H640.439ZM637.878 130.305C638.464 130.89 639.414 130.89 639.999 130.305L649.545 120.759C650.131 120.173 650.131 119.223 649.545 118.637C648.96 118.051 648.01 118.051 647.424 118.637L638.939 127.123L630.453 118.637C629.868 118.051 628.918 118.051 628.332 118.637C627.746 119.223 627.746 120.173 628.332 120.759L637.878 130.305ZM638.939 98.5371H637.439V129.244H638.939H640.439V98.5371H638.939Z" fill="#393939"/>
<rect x="495.397" y="90.0244" width="61.4104" height="19.5397" rx="9.76983" fill="#B2E8EC"/>
</svg>
