<svg width="93" height="85" viewBox="0 0 93 85" fill="none" xmlns="http://www.w3.org/2000/svg">
<path fill-rule="evenodd" clip-rule="evenodd" d="M90 40.2622C89.0542 45.1284 83.0741 50.6221 78.0474 47.2938C77.6286 48.7755 77.0982 50.2232 76.4608 51.6244C79.7484 50.033 84.5004 50.4997 87.0557 52.818C85.3624 57.7838 77.7804 62.191 73.2648 56.8503C72.3914 57.9411 71.4185 58.9478 70.3587 59.8573C74.0276 59.8573 77.9864 62.0379 79.5653 65.1368C75.8201 69.6358 66.3694 71.3879 63.9895 63.7825C62.0247 64.6129 59.9799 65.2385 57.8874 65.6494L57.7882 62.2216C74.8972 58.1051 77.4219 42.8407 76.5981 28.4637C72.7843 26.0536 75.1794 19.9095 78.0779 18.0273C80.3662 20.4604 83.0359 25.6787 79.1916 28.2036C79.3034 29.2595 79.395 30.3154 79.4661 31.3713C80.3561 30.239 81.4957 29.3291 82.7954 28.7131C84.0951 28.0971 85.5194 27.7918 86.9566 27.821C87.3303 31.7615 85.8353 38.816 79.5729 36.7961C79.5348 38.2498 79.4356 39.673 79.2755 41.0809C82.1892 38.7166 87.0633 38.2498 90 40.2622ZM21.5719 41.9072V3H69.3442V41.9072C69.3442 52.9711 68.9704 53.5067 45.4542 62.3899C21.9152 53.7056 21.5719 52.9022 21.5719 41.9072ZM31.6023 61.8008L31.5413 65.3051C29.9929 64.9165 28.4778 64.4048 27.0105 63.7748C24.6306 71.3803 15.1799 69.6281 11.4347 65.1291C13.006 62.0685 16.9724 59.8803 20.6413 59.8497C19.5815 58.9401 18.6086 57.9334 17.7352 56.8427C13.2196 62.1986 5.63764 57.7761 3.94429 52.8104C6.49957 50.515 11.2516 50.0253 14.5392 51.6168C13.9018 50.2156 13.3714 48.7679 12.9526 47.2861C7.92595 50.6145 1.94583 45.1208 1 40.2545C3.93666 38.2422 8.81076 38.7242 11.7398 41.0732C11.5796 39.6654 11.4805 38.2422 11.4423 36.7884C5.17998 38.8084 3.68495 31.7538 4.05871 27.8134C5.49585 27.7841 6.9202 28.0895 8.21986 28.7055C9.51952 29.3215 10.6591 30.2313 11.5491 31.3636C11.6203 30.3077 11.7118 29.2518 11.8237 28.1959C8.00986 25.6863 10.649 20.4528 12.9374 18.0196C15.8359 19.9019 18.2233 26.0459 14.4171 28.4561C13.6162 42.3739 15.9579 57.1105 31.6023 61.7854V61.8008Z" fill="url(#paint0_linear_2551_7569)"/>
<path d="M36.5 44V40.979L42.2532 35.749C44.0759 34.0874 45.5443 32.6587 46.6582 31.4629C47.7722 30.2545 48.5823 29.1657 49.0886 28.1965C49.5949 27.2273 49.8481 26.2455 49.8481 25.251C49.8481 23.8035 49.3481 22.6769 48.3481 21.8713C47.3608 21.0531 45.981 20.6441 44.2089 20.6441C43.0316 20.6441 41.9051 20.8455 40.8291 21.2483C39.7532 21.651 38.8354 22.2364 38.0759 23.0042L36.519 19.9266C37.5949 18.9699 38.8354 18.2462 40.2405 17.7552C41.6456 17.2517 43.1203 17 44.6646 17C46.5 17 48.1013 17.3273 49.4684 17.9818C50.8481 18.6238 51.9177 19.5364 52.6772 20.7196C53.4494 21.8902 53.8354 23.2622 53.8354 24.8357C53.8354 25.9308 53.6139 27.0259 53.1709 28.121C52.7405 29.2035 51.962 30.4245 50.8354 31.7839C49.7215 33.1434 48.1392 34.7734 46.0886 36.6741L42.0063 40.4126H54.5V44H36.5Z" fill="#F3F7FA"/>
<path d="M13.832 82V73H16.136V76.393H20.285V73H22.589V82H20.285V78.265H16.136V82H13.832ZM29.3982 82.27C28.4202 82.27 27.5622 82.072 26.8242 81.676C26.0862 81.274 25.5102 80.716 25.0962 80.002C24.6882 79.288 24.4842 78.457 24.4842 77.509C24.4842 76.813 24.6012 76.174 24.8352 75.592C25.0752 75.01 25.4112 74.506 25.8432 74.08C26.2812 73.648 26.7912 73.315 27.3732 73.081C27.9612 72.847 28.6032 72.73 29.2992 72.73C30.0552 72.73 30.7302 72.865 31.3242 73.135C31.9182 73.399 32.4102 73.774 32.8002 74.26C33.1962 74.74 33.4722 75.304 33.6282 75.952C33.7902 76.594 33.8112 77.296 33.6912 78.058H26.6532C26.6472 78.532 26.7582 78.946 26.9862 79.3C27.2202 79.654 27.5502 79.933 27.9762 80.137C28.4082 80.335 28.9152 80.434 29.4972 80.434C30.0132 80.434 30.5082 80.359 30.9822 80.209C31.4562 80.059 31.8972 79.837 32.3052 79.543L33.1152 81.154C32.8332 81.382 32.4822 81.58 32.0622 81.748C31.6422 81.916 31.1982 82.045 30.7302 82.135C30.2682 82.225 29.8242 82.27 29.3982 82.27ZM26.7882 76.42H31.4592C31.4412 75.814 31.2402 75.34 30.8562 74.998C30.4722 74.65 29.9352 74.476 29.2452 74.476C28.5612 74.476 27.9972 74.65 27.5532 74.998C27.1092 75.34 26.8542 75.814 26.7882 76.42ZM42.117 82V74.872H38.841V75.871C38.841 76.639 38.787 77.35 38.679 78.004C38.577 78.658 38.394 79.24 38.13 79.75C37.866 80.26 37.5 80.689 37.032 81.037C36.564 81.379 35.967 81.625 35.241 81.775L34.728 80.2C35.286 80.068 35.706 79.813 35.988 79.435C36.276 79.051 36.468 78.559 36.564 77.959C36.666 77.359 36.717 76.663 36.717 75.871V73H44.421V82H42.117ZM34.728 84.7V80.2L36.06 80.317L36.42 80.128H46.23V84.7H44.124V82H36.834V84.7H34.728ZM51.9334 82.27C50.9554 82.27 50.0974 82.072 49.3594 81.676C48.6214 81.274 48.0454 80.716 47.6314 80.002C47.2234 79.288 47.0194 78.457 47.0194 77.509C47.0194 76.813 47.1364 76.174 47.3704 75.592C47.6104 75.01 47.9464 74.506 48.3784 74.08C48.8164 73.648 49.3264 73.315 49.9084 73.081C50.4964 72.847 51.1384 72.73 51.8344 72.73C52.5904 72.73 53.2654 72.865 53.8594 73.135C54.4534 73.399 54.9454 73.774 55.3354 74.26C55.7314 74.74 56.0074 75.304 56.1634 75.952C56.3254 76.594 56.3464 77.296 56.2264 78.058H49.1884C49.1824 78.532 49.2934 78.946 49.5214 79.3C49.7554 79.654 50.0854 79.933 50.5114 80.137C50.9434 80.335 51.4504 80.434 52.0324 80.434C52.5484 80.434 53.0434 80.359 53.5174 80.209C53.9914 80.059 54.4324 79.837 54.8404 79.543L55.6504 81.154C55.3684 81.382 55.0174 81.58 54.5974 81.748C54.1774 81.916 53.7334 82.045 53.2654 82.135C52.8034 82.225 52.3594 82.27 51.9334 82.27ZM49.3234 76.42H53.9944C53.9764 75.814 53.7754 75.34 53.3914 74.998C53.0074 74.65 52.4704 74.476 51.7804 74.476C51.0964 74.476 50.5324 74.65 50.0884 74.998C49.6444 75.34 49.3894 75.814 49.3234 76.42ZM57.9832 82.18L57.2002 80.119C57.8122 79.963 58.2592 79.723 58.5412 79.399C58.8232 79.075 59.0032 78.628 59.0812 78.058C59.1592 77.488 59.1982 76.759 59.1982 75.871V73H66.7222V82H64.4182V74.872H61.3222V75.871C61.3222 76.813 61.2742 77.641 61.1782 78.355C61.0822 79.069 60.9112 79.681 60.6652 80.191C60.4252 80.701 60.0862 81.118 59.6482 81.442C59.2162 81.766 58.6612 82.012 57.9832 82.18ZM69.3789 82V73H71.5929V78.688L76.1379 73H78.1719V82H75.9579V76.24L71.3859 82H69.3789Z" fill="url(#paint1_linear_2551_7569)"/>
<defs>
<linearGradient id="paint0_linear_2551_7569" x1="45.5" y1="3" x2="45.5" y2="69" gradientUnits="userSpaceOnUse">
<stop stop-color="#ED1A3B"/>
<stop offset="1" stop-color="#FF526D"/>
</linearGradient>
<linearGradient id="paint1_linear_2551_7569" x1="46" y1="65" x2="46" y2="87" gradientUnits="userSpaceOnUse">
<stop stop-color="#ED1A3B"/>
<stop offset="1" stop-color="#FF526D"/>
</linearGradient>
</defs>
</svg>
